<?xml version="1.0" encoding="UTF-8"?>
<svg version="1.1" xmlns="http://www.w3.org/2000/svg" width="1368" height="1376">
<path d="M0 0 C1.39870049 0.19575981 2.79746636 0.39105286 4.19628906 0.5859375 C91.53313439 12.92834502 173.92268747 48.78184071 248 109 C248.52142578 109.43505859 249.04285156 109.87011719 249.58007812 110.31835938 C266.00751624 124.06930816 282.46307574 138.70217998 296.34375 155.06640625 C298.25985577 157.30336935 300.25512856 159.45803578 302.25 161.625 C307.27716428 167.20320252 311.86811216 173.07437332 316.45507812 179.01367188 C318.08539051 181.1097878 319.73609456 183.18858171 321.390625 185.265625 C329.50773633 195.49696591 336.96787591 205.99706224 344 217 C344.51385254 217.79712402 345.02770508 218.59424805 345.55712891 219.41552734 C383.84119593 279.0143164 407.78858199 345.95245339 417.70574951 415.92718506 C417.97911147 417.85285307 418.26093539 419.77731466 418.54345703 421.70166016 C424.0583086 461.01756825 423.73717275 504.74401905 418 544 C417.80424019 545.39870049 417.60894714 546.79746636 417.4140625 548.19628906 C405.06341566 635.59143714 369.24491848 717.88970858 309 792 C308.56494141 792.52142578 308.12988281 793.04285156 307.68164062 793.58007812 C293.93069184 810.00751624 279.29782002 826.46307574 262.93359375 840.34375 C260.69663065 842.25985577 258.54196422 844.25512856 256.375 846.25 C250.80086213 851.27350115 244.934278 855.86234077 238.99951172 860.44628906 C236.86531291 862.10465796 234.74637195 863.78126398 232.62890625 865.4609375 C223.89935982 872.36192805 215.0656299 878.90853565 205.69433594 884.91259766 C204.02082677 885.98663365 202.35797413 887.07721555 200.6953125 888.16796875 C193.26883733 893 193.26883733 893 191 893 C191.0309375 894.53720703 191.0309375 894.53720703 191.0625 896.10546875 C191.04373163 897.46617588 191.02278291 898.82685416 191 900.1875 C191.01933594 900.86103516 191.03867187 901.53457031 191.05859375 902.22851562 C191 904.23046875 191 904.23046875 190 908 C184.5698058 912.71663867 177.04499559 915.61516567 170.65234375 918.7890625 C169.56401749 919.33299652 168.47569122 919.87693054 167.35438538 920.43734741 C165.05157592 921.58724645 162.74779848 922.73520878 160.44311523 923.88134766 C156.9982281 925.59479455 153.55648005 927.31440976 150.11523438 929.03515625 C139.75933184 934.20457066 129.38374102 939.32131858 118.92578125 944.28125 C109.45838335 948.77559098 100.07245099 953.42292559 90.703125 958.1171875 C89.63904513 958.65029478 89.63904513 958.65029478 88.5534687 959.19417191 C83.45087278 961.75158216 78.35025946 964.31293409 73.25 966.875 C68.09840217 969.46272911 62.94608374 972.04900472 57.79207611 974.6319313 C55.76688692 975.64770641 53.74293879 976.66592241 51.71905518 977.68429565 C31.17360779 988 31.17360779 988 28 988 C28.56683341 981.05629076 29.59102367 974.32026224 31 967.5 C31.17789063 966.60796875 31.35578125 965.7159375 31.5390625 964.796875 C32.86367985 958.27264031 32.86367985 958.27264031 34 956 C32.93910156 956.24234375 31.87820313 956.4846875 30.78515625 956.734375 C19.60991333 959.17584918 8.41098037 960.82936317 -2.9375 962.1875 C-3.63583954 962.27181274 -4.33417908 962.35612549 -5.05368042 962.44299316 C-18.60729522 964.06739941 -32.0461198 965.15249835 -45.70703125 965.203125 C-46.97847488 965.21018463 -48.24991852 965.21724426 -49.55989075 965.22451782 C-53.64409966 965.24405384 -57.72824874 965.24921009 -61.8125 965.25 C-62.50873222 965.25029457 -63.20496445 965.25058914 -63.92229462 965.25089264 C-84.76582326 965.25231777 -105.3340179 965.0202865 -126 962 C-127.39870049 961.80424019 -128.79746636 961.60894714 -130.19628906 961.4140625 C-217.53313439 949.07165498 -299.92268747 913.21815929 -374 853 C-374.52142578 852.56494141 -375.04285156 852.12988281 -375.58007812 851.68164062 C-392.00751624 837.93069184 -408.46307574 823.29782002 -422.34375 806.93359375 C-424.25985577 804.69663065 -426.25512856 802.54196422 -428.25 800.375 C-433.26380027 794.81162634 -437.84800761 788.95721868 -442.42431641 783.03466797 C-444.15477941 780.80013455 -445.89506801 778.5734795 -447.63671875 776.34765625 C-448.88293826 774.75270242 -450.12903348 773.15765147 -451.375 771.5625 C-451.95789795 770.81742188 -452.5407959 770.07234375 -453.14135742 769.3046875 C-456.53902893 764.94219672 -459.81815812 760.52250559 -463 756 C-463.22051025 756.60400635 -463.44102051 757.2080127 -463.66821289 757.83032227 C-465.875 763.875 -465.875 763.875 -467 765 C-470.32763246 765.54328693 -472.84986463 765.60833606 -475.890625 764 C-522.94659525 727.27338907 -537.49935238 619.70386793 -549.59414673 563.85018921 C-549.90192413 562.42898238 -550.21189675 561.00824885 -550.52426147 559.58804321 C-554.48563649 541.48964519 -554.48563649 541.48964519 -551.43359375 536.375 C-550.77488281 535.59125 -550.11617187 534.8075 -549.4375 534 C-546.3678757 529.47532544 -545.65323994 526.90844156 -546.26953125 521.5 C-547.47718294 508.37009203 -547.24742937 495.17397644 -547.25 482 C-547.25029457 481.30793709 -547.25058914 480.61587418 -547.25089264 479.90283966 C-547.25232069 459.11569615 -547.00199149 438.61093338 -544 418 C-543.80939128 416.62281355 -543.61947702 415.24553084 -543.43017578 413.86816406 C-530.90152305 323.9909908 -493.20032977 239.61215913 -435 170 C-434.56494141 169.47857422 -434.12988281 168.95714844 -433.68164062 168.41992188 C-419.93069184 151.99248376 -405.29782002 135.53692426 -388.93359375 121.65625 C-386.69663065 119.74014423 -384.54196422 117.74487144 -382.375 115.75 C-376.80086213 110.72649885 -370.934278 106.13765923 -364.99951172 101.55371094 C-362.86531291 99.89534204 -360.74637195 98.21873602 -358.62890625 96.5390625 C-349.36084776 89.21103908 -339.95300807 82.36196664 -330 76 C-328.49216225 75.02347648 -326.98435097 74.04691211 -325.4765625 73.0703125 C-315.66628868 66.75628014 -305.70652494 60.82041881 -295.42675781 55.30371094 C-293.75639852 54.40635494 -292.08924896 53.50300692 -290.42480469 52.59472656 C-239.3386196 24.75489436 -183.38012369 8.3117897 -126 0 C-124.76685059 -0.18224121 -123.53370117 -0.36448242 -122.26318359 -0.55224609 C-82.95963008 -6.06055334 -39.24239462 -5.73518714 0 0 Z " fill="#FEFEFE" transform="translate(750,196)"/>
<path d="M0 0 C1.39870049 0.19575981 2.79746636 0.39105286 4.19628906 0.5859375 C91.53313439 12.92834502 173.92268747 48.78184071 248 109 C248.52142578 109.43505859 249.04285156 109.87011719 249.58007812 110.31835938 C266.00751624 124.06930816 282.46307574 138.70217998 296.34375 155.06640625 C298.25985577 157.30336935 300.25512856 159.45803578 302.25 161.625 C307.27716428 167.20320252 311.86811216 173.07437332 316.45507812 179.01367188 C318.08539051 181.1097878 319.73609456 183.18858171 321.390625 185.265625 C329.50773633 195.49696591 336.96787591 205.99706224 344 217 C344.51385254 217.79712402 345.02770508 218.59424805 345.55712891 219.41552734 C383.84119593 279.0143164 407.78858199 345.95245339 417.70574951 415.92718506 C417.97911147 417.85285307 418.26093539 419.77731466 418.54345703 421.70166016 C424.0583086 461.01756825 423.73717275 504.74401905 418 544 C417.80424019 545.39870049 417.60894714 546.79746636 417.4140625 548.19628906 C405.06341566 635.59143714 369.24491848 717.88970858 309 792 C308.56494141 792.52142578 308.12988281 793.04285156 307.68164062 793.58007812 C293.93069184 810.00751624 279.29782002 826.46307574 262.93359375 840.34375 C260.69663065 842.25985577 258.54196422 844.25512856 256.375 846.25 C250.80086213 851.27350115 244.934278 855.86234077 238.99951172 860.44628906 C236.86531291 862.10465796 234.74637195 863.78126398 232.62890625 865.4609375 C223.89935982 872.36192805 215.0656299 878.90853565 205.69433594 884.91259766 C204.02082677 885.98663365 202.35797413 887.07721555 200.6953125 888.16796875 C193.26883733 893 193.26883733 893 191 893 C191.38244729 881.20150115 192.87074211 869.57027402 194.45214844 857.88452148 C195.38867771 850.92432515 196.23523579 843.97038586 196.94921875 836.984375 C197.98476703 826.86659925 199.22833337 816.77797836 200.4861145 806.6857605 C202.44580321 790.94689046 204.35313012 775.205597 206.0625 759.4375 C207.50926277 746.09771282 209.12899405 732.78544665 210.8210144 719.47463989 C212.46565512 706.52103158 213.96558483 693.55733179 215.37451172 680.57611084 C216.29887291 672.07404709 217.27846909 663.59053172 218.5 655.125 C219.86175143 645.65051128 220.84274843 636.14553603 221.8125 626.625 C223.33580769 611.68038246 225.10537782 596.77694347 227 581.875 C228.79414785 567.76020246 230.53281134 553.64604238 232.0625 539.5 C233.41657956 526.98287448 234.91384224 514.4898346 236.5 502 C238.17460281 488.80993999 239.73910133 475.61483143 241.17236328 462.39645386 C242.76885903 447.70857006 244.5739584 433.04876943 246.39422607 418.387146 C248.16622502 404.0945647 249.80344508 389.79664587 251.29284668 375.47210693 C253.09365168 358.25531975 255.50712955 341.12848211 258 324 C257.07622559 324.01667725 256.15245117 324.03335449 255.20068359 324.05053711 C240.04621475 324.22789807 224.92629635 323.40658458 209.79553223 322.66760254 C206.89272019 322.5270412 203.98969236 322.39127094 201.08664894 322.25558567 C198.25010838 322.1226253 195.41367994 321.98738844 192.57728195 321.85142326 C190.60345231 321.75698693 188.62956211 321.66381906 186.65567017 321.57069397 C179.08749532 321.1992783 171.54625263 320.68629533 164 320 C163.84144531 321.10472656 163.68289063 322.20945312 163.51953125 323.34765625 C162.23185384 332.03967067 160.71492256 340.63320486 158.7890625 349.20703125 C156.73052835 358.52937082 154.77509246 367.8699146 152.87890625 377.2265625 C152.74435091 377.89015966 152.60979557 378.55375683 152.4711628 379.237463 C151.63900293 383.3435726 150.80914784 387.45014532 149.98010254 391.55688477 C147.79817684 402.36255127 145.60992734 413.16694415 143.41294098 423.96955872 C143.13338167 425.34415896 142.85394074 426.71878329 142.57460785 428.09342957 C141.60517794 432.86272813 140.63000113 437.63081855 139.65234375 442.3984375 C139.39989395 443.63985504 139.14744415 444.88127258 138.88734436 446.16030884 C138.65373703 447.29511688 138.4201297 448.42992493 138.17944336 449.59912109 C137.97508163 450.59753021 137.77071991 451.59593933 137.56016541 452.62460327 C137 455 137 455 136 457 C83.2 457 30.4 457 -24 457 C-20.60329657 434.3553105 -20.60329657 434.3553105 -18.125 424.875 C-15.727091 415.29228923 -13.70137834 405.69200631 -11.890625 395.98242188 C-10.63494172 389.26292686 -9.29308758 382.57013402 -7.87036133 375.8840332 C-0.31266665 340.30370381 7.18938715 303.85794713 7.18530273 267.37182617 C7.18748727 265.20015778 7.20572608 263.02900109 7.22460938 260.85742188 C7.27968326 247.46216672 5.9381964 234.41480085 2.75 221.375 C2.42684814 220.045896 2.42684814 220.045896 2.09716797 218.68994141 C-3.31745865 197.36815583 -15.58815721 177.45556031 -34.81005859 165.91308594 C-47.21695085 158.95412222 -60.29296692 154.6040404 -74.1875 151.75 C-75.38004395 151.50491699 -75.38004395 151.50491699 -76.59667969 151.25488281 C-138.77012813 139.30922639 -199.36145776 162.59924432 -250.34765625 196.86328125 C-263.30804845 205.693207 -275.85195394 215.08281382 -288 225 C-288.84433594 225.68191406 -289.68867188 226.36382812 -290.55859375 227.06640625 C-301.29398397 235.77625115 -311.78428233 244.75225887 -321.91894531 254.15454102 C-323.7976194 255.89490985 -325.68710228 257.6189037 -327.59008789 259.33300781 C-336.00723946 266.93048025 -344.04175704 274.88878421 -352.04711914 282.91674805 C-354.32259584 285.19761977 -356.60341717 287.47304975 -358.88476562 289.74804688 C-360.35709181 291.22103341 -361.829108 292.69432986 -363.30078125 294.16796875 C-363.97071609 294.83587936 -364.64065094 295.50378998 -365.33088684 296.19194031 C-369.17575429 300.05570205 -372.84489873 304.02165691 -376.39762878 308.15608215 C-379.17590652 311.35316648 -382.09542225 314.41805881 -385 317.5 C-389.76652725 322.58599791 -394.47506833 327.69658546 -399 333 C-399.88646428 334.03277056 -400.77321035 335.06529928 -401.66015625 336.09765625 C-403.71218259 338.48741334 -405.76130016 340.87962499 -407.80859375 343.2734375 C-409.92030934 345.74174374 -412.0376464 348.20503309 -414.16015625 350.6640625 C-419.14911795 356.44950206 -424.08049939 362.25771649 -428.81640625 368.25390625 C-431.07997396 371.10057548 -433.37636955 373.91826703 -435.67773438 376.734375 C-441.00951095 383.26258016 -446.24525041 389.84332526 -451.35546875 396.546875 C-453.29785265 399.09294256 -455.26267845 401.620247 -457.23828125 404.140625 C-465.14321974 414.22888524 -472.83411533 424.45221145 -480.39208984 434.80273438 C-481.86548313 436.81617797 -483.34654835 438.82359256 -484.83203125 440.828125 C-491.76479244 450.19566588 -498.457473 459.72341026 -505.11132812 469.29052734 C-507.04129798 472.05924574 -508.98069298 474.82116452 -510.921875 477.58203125 C-519.66655297 490.04578375 -528.09916878 502.68042534 -536.35644531 515.47167969 C-538.86956776 519.33767732 -541.43012971 523.17156122 -544 527 C-549.60348448 521.39651552 -547.17485511 505.92121413 -547.203125 498.29296875 C-547.21018463 497.02152512 -547.21724426 495.75008148 -547.22451782 494.44010925 C-547.24405384 490.35590034 -547.24921009 486.27175126 -547.25 482.1875 C-547.25029457 481.49126778 -547.25058914 480.79503555 -547.25089264 480.07770538 C-547.2523179 459.23227828 -547.01040774 438.66871725 -544 418 C-543.80939128 416.62281355 -543.61947702 415.24553084 -543.43017578 413.86816406 C-530.90152305 323.9909908 -493.20032977 239.61215913 -435 170 C-434.56494141 169.47857422 -434.12988281 168.95714844 -433.68164062 168.41992188 C-419.93069184 151.99248376 -405.29782002 135.53692426 -388.93359375 121.65625 C-386.69663065 119.74014423 -384.54196422 117.74487144 -382.375 115.75 C-376.80086213 110.72649885 -370.934278 106.13765923 -364.99951172 101.55371094 C-362.86531291 99.89534204 -360.74637195 98.21873602 -358.62890625 96.5390625 C-349.36084776 89.21103908 -339.95300807 82.36196664 -330 76 C-328.49216225 75.02347648 -326.98435097 74.04691211 -325.4765625 73.0703125 C-315.66628868 66.75628014 -305.70652494 60.82041881 -295.42675781 55.30371094 C-293.75639852 54.40635494 -292.08924896 53.50300692 -290.42480469 52.59472656 C-239.3386196 24.75489436 -183.38012369 8.3117897 -126 0 C-124.76685059 -0.18224121 -123.53370117 -0.36448242 -122.26318359 -0.55224609 C-82.95963008 -6.06055334 -39.24239462 -5.73518714 0 0 Z " fill="#6E4E37" transform="translate(750,196)"/>
<path d="M0 0 C7.74974736 5.89841883 12.81263547 13.95538938 14.984375 23.41796875 C15.64062468 30.67034989 13.13398736 37.74379882 11.234375 44.66796875 C10.81925018 46.22585129 10.4052881 47.78404408 9.99243164 49.3425293 C6.96306215 60.71419856 3.80449997 72.05414974 0.55712891 83.36547852 C-2.08736867 92.59830191 -4.57478339 101.86959019 -7.04058456 111.15167809 C-9.95351645 122.11599588 -12.90236715 133.07019333 -15.87109375 144.01953125 C-16.30085405 145.60557841 -16.73058723 147.19163292 -17.16029358 148.7776947 C-18.90816598 155.22830223 -20.65662351 161.67874969 -22.40795898 168.12841797 C-23.71020077 172.92490682 -25.01046834 177.72192668 -26.30859375 182.51953125 C-26.51532652 183.2834915 -26.72205929 184.04745174 -26.93505669 184.8345623 C-29.53456765 194.45174568 -32.08719001 204.07648576 -34.43156433 213.75979614 C-35.71092939 219.03047788 -37.27524895 224.17222399 -38.92578125 229.3359375 C-40.26412921 233.87114901 -41.3151316 238.4613364 -42.32055664 243.08081055 C-43.5388289 248.53730699 -45.17518292 253.82542908 -46.84228516 259.16015625 C-48.57398053 264.85127995 -50.06926891 270.60200822 -51.578125 276.35546875 C-52.27434053 278.99394082 -52.9728253 281.6318088 -53.671875 284.26953125 C-53.85119064 284.94672211 -54.03050629 285.62391296 -54.21525574 286.32162476 C-56.10120341 293.42818973 -58.04856867 300.51768126 -59.99539185 307.60775757 C-62.85325711 318.01805003 -65.65078835 328.43453015 -68.22387695 338.91967773 C-70.48411909 348.09831116 -73.07017083 357.18220173 -75.64746094 366.27587891 C-79.36289611 379.39814107 -82.96871165 392.54520034 -86.453125 405.73046875 C-86.64444 406.45430756 -86.835755 407.17814636 -87.03286743 407.92391968 C-88.94942288 415.18147541 -90.85270248 422.44222414 -92.7265625 429.7109375 C-93.00040771 430.77103027 -93.27425293 431.83112305 -93.55639648 432.92333984 C-94.05389319 434.85383483 -94.54842388 436.7850978 -95.03930664 438.71728516 C-95.25707764 439.56339355 -95.47484863 440.40950195 -95.69921875 441.28125 C-95.88282959 442.00223877 -96.06644043 442.72322754 -96.25561523 443.46606445 C-96.98282569 445.91610106 -97.93001159 448.23843854 -98.890625 450.60546875 C-97.6437516 450.59527206 -97.6437516 450.59527206 -96.37168884 450.58486938 C-84.97472361 450.53450888 -73.59803776 450.84836127 -62.20703125 451.19140625 C-60.09136549 451.25344083 -57.97569352 451.31526419 -55.86001587 451.37689209 C-50.22149973 451.54162909 -44.58306182 451.70890724 -38.9446373 451.87674713 C-29.56026898 452.15552658 -20.17577045 452.42991819 -10.79129219 452.7049675 C-8.43300666 452.77412887 -6.07472393 452.84338618 -3.71644402 452.9127388 C11.72238873 453.36669573 27.16153382 453.80360191 42.6015625 454.21484375 C44.29828477 454.26031284 45.99500618 454.30581398 47.69172668 454.35134888 C54.67806845 454.53856096 61.66442879 454.72442339 68.65100479 454.90270233 C70.76726061 454.95723595 72.88346795 455.01333843 74.99966431 455.07012939 C77.51348639 455.13750823 80.02737866 455.20234989 82.54135132 455.26385498 C89.43193407 455.45272037 96.25337722 455.88701475 103.109375 456.60546875 C103.20516846 455.79601807 103.30096191 454.98656738 103.3996582 454.15258789 C104.91840036 442.03492907 107.10491273 430.05418338 109.296875 418.04296875 C109.70120372 415.81173619 110.1052528 413.58045294 110.5090332 411.34912109 C112.33409048 401.27835271 114.17658679 391.21090492 116.046875 381.1484375 C116.19527832 380.34970718 116.34368164 379.55097687 116.49658203 378.7280426 C116.71483643 377.5534977 116.71483643 377.5534977 116.9375 376.35522461 C117.08010254 375.58773895 117.22270508 374.8202533 117.36962891 374.0295105 C117.6542696 372.49783861 117.93910008 370.96620199 118.22412109 369.43460083 C120.52629448 357.0427022 122.63778163 344.62490567 124.67205811 332.18643188 C126.23373714 322.64342699 127.86965464 313.12924412 129.9050293 303.67333984 C130.97109978 298.6646314 131.60411344 293.70310768 132.109375 288.60546875 C136.19269265 288.57596501 140.2759822 288.5585034 144.359375 288.54296875 C145.49890625 288.53458984 146.6384375 288.52621094 147.8125 288.51757812 C154.30931576 288.49912126 160.68376357 288.75561231 167.15136719 289.3581543 C172.29605007 289.78829327 177.45024452 289.89410397 182.609375 290.04296875 C194.10590848 290.41330311 205.57623846 290.99791 217.05795288 291.67205811 C233.44823811 292.62813753 249.84882445 293.28720564 266.25488281 293.90795898 C268.23372462 293.98549739 270.2125658 294.06305197 272.19140625 294.140625 C273.54069969 294.18897995 273.54069969 294.18897995 274.91725159 294.23831177 C279.71714547 294.42895274 284.36767113 294.8301236 289.109375 295.60546875 C288.6355137 297.97477527 288.16164421 300.34408014 287.68774414 302.71337891 C287.25060795 304.89922641 286.81360173 307.08509992 286.37670898 309.27099609 C285.20638257 315.12543472 284.0347324 320.97959632 282.85874939 326.832901 C282.12905652 330.46527626 281.40033991 334.09784705 280.671875 337.73046875 C280.52430756 338.46602997 280.37674011 339.20159119 280.22470093 339.95944214 C278.60068836 348.06028068 276.99294676 356.16378705 275.43359375 364.27734375 C275.29961685 364.97387054 275.16563995 365.67039734 275.02760315 366.38803101 C274.3980901 369.66438819 273.7720129 372.94132412 273.15063477 376.21923828 C272.92561279 377.39599121 272.70059082 378.57274414 272.46875 379.78515625 C272.27764648 380.79304199 272.08654297 381.80092773 271.88964844 382.83935547 C271.21149978 386.11254732 270.47197318 389.3600239 269.70947266 392.61425781 C268.03779971 399.8093549 266.57895305 407.03880781 265.1484375 414.28515625 C264.87347246 415.66883891 264.59826945 417.0524743 264.32284546 418.43606567 C263.31379975 423.50762221 262.30892557 428.58000317 261.30413818 433.65240479 C260.31703961 438.63461425 259.32807178 443.61644698 258.3359375 448.59765625 C258.19803865 449.29012955 258.06013981 449.98260284 257.91806221 450.69606018 C255.78602041 461.38552165 253.54206902 472.0469587 251.18383789 482.68896484 C248.98371603 492.65116579 246.98080269 502.66477469 245.203125 512.7109375 C244.03327277 519.18881802 242.64074313 525.61745963 241.25286865 532.05126953 C238.21497263 546.15302754 235.39736332 560.28536119 232.7109375 574.45849609 C231.66118276 579.9501108 230.57595383 585.43453577 229.484375 590.91796875 C229.29020996 591.90152344 229.09604492 592.88507812 228.89599609 593.8984375 C227.91839293 598.79391596 226.87231071 603.66305076 225.72314453 608.52124023 C224.16747843 615.23568725 222.79868844 621.97876559 221.47633362 628.74260712 C221.06614927 630.83853646 220.65260508 632.933779 220.23815918 635.02886963 C219.06223169 640.97482816 217.88975649 646.92145215 216.72509766 652.86962891 C216.0069586 656.53607482 215.28304778 660.2013426 214.55555725 663.86594391 C214.2823307 665.24803739 214.01122821 666.63055275 213.74241638 668.01351166 C212.30271866 675.41690712 210.7008727 682.51650598 208.109375 689.60546875 C195.87705803 692.39972828 183.62022742 694.30320401 171.171875 695.79296875 C170.47353546 695.87728149 169.77519592 695.96159424 169.05569458 696.04846191 C155.50207978 697.67286816 142.0632552 698.7579671 128.40234375 698.80859375 C127.13090012 698.81565338 125.85945648 698.82271301 124.54948425 698.82998657 C120.46527534 698.84952259 116.38112626 698.85467884 112.296875 698.85546875 C111.60064278 698.85576332 110.90441055 698.85605789 110.18708038 698.85636139 C89.34355174 698.85778652 68.7753571 698.62575525 48.109375 695.60546875 C46.71067451 695.40970894 45.31190864 695.21441589 43.91308594 695.01953125 C-43.42375939 682.67712373 -125.81331247 646.82362804 -199.890625 586.60546875 C-200.41205078 586.17041016 -200.93347656 585.73535156 -201.47070312 585.28710938 C-217.89814124 571.53616059 -234.35370074 556.90328877 -248.234375 540.5390625 C-250.15048077 538.3020994 -252.14575356 536.14743297 -254.140625 533.98046875 C-259.15551213 528.4158891 -263.73844116 522.56006363 -268.31494141 516.63574219 C-270.04143729 514.41114662 -271.78338813 512.19921266 -273.52734375 509.98828125 C-274.77353755 508.40242237 -276.01963247 506.81648578 -277.265625 505.23046875 C-278.13997192 504.12541992 -278.13997192 504.12541992 -279.03198242 502.99804688 C-280.68217263 500.88877047 -282.28670842 498.75001714 -283.890625 496.60546875 C-284.63868408 495.70090942 -284.63868408 495.70090942 -285.40185547 494.77807617 C-290.0525301 488.57251228 -289.49540983 482.15721624 -289.265625 474.66796875 C-289.24274414 473.36907715 -289.21986328 472.07018555 -289.19628906 470.73193359 C-289.1212623 467.02181412 -289.01025005 463.31437451 -288.890625 459.60546875 C-288.85634077 457.98177986 -288.82240936 456.35808341 -288.7890625 454.734375 C-287.14207826 400.46753098 -265.01095227 343.94678062 -243.890625 294.60546875 C-243.39208008 293.44015625 -242.89353516 292.27484375 -242.37988281 291.07421875 C-234.73490516 273.33504845 -226.40372137 255.93966464 -217.890625 238.60546875 C-217.50455078 237.81672363 -217.11847656 237.02797852 -216.72070312 236.21533203 C-214.8607884 232.42208489 -212.97169269 228.64505785 -211.05175781 224.88183594 C-210.17342662 223.15989312 -209.29834277 221.43629337 -208.42480469 219.71191406 C-200.62551788 204.34149868 -192.43155438 189.29801954 -183.60644531 174.49316406 C-181.89271912 171.60899311 -180.19769225 168.71460396 -178.5078125 165.81640625 C-171.92357034 154.54323892 -165.10087488 143.48742899 -157.890625 132.60546875 C-156.8543662 131.03217803 -155.8181123 129.45888409 -154.7819519 127.88552856 C-142.90148285 109.86104806 -130.71412428 92.16781159 -117.22900391 75.29541016 C-115.86363411 73.57138795 -114.52113235 71.8316203 -113.18359375 70.0859375 C-107.64846646 62.88611027 -101.82927639 56.10962603 -95.6015625 49.5 C-93.42901034 47.18031535 -91.32832412 44.83413509 -89.265625 42.41796875 C-81.88363598 33.93046447 -73.74467582 26.52307655 -64.890625 19.60546875 C-63.94316406 18.85265625 -62.99570312 18.09984375 -62.01953125 17.32421875 C-45.90056278 4.82292049 -20.51613707 -12.28902841 0 0 Z " fill="#6E4E37" transform="translate(575.890625,462.39453125)"/>
<path d="M0 0 C0 0.66 0 1.32 0 2 C1.32 2.33 2.64 2.66 4 3 C-6.71600323 3.12825004 -17.312837 2.79585256 -28 2 C-28 1.67 -28 1.34 -28 1 C-24.27091231 0.83153467 -20.54171841 0.66554419 -16.8125 0.5 C-15.75740234 0.45230469 -14.70230469 0.40460937 -13.61523438 0.35546875 C-12.08286133 0.28779297 -12.08286133 0.28779297 -10.51953125 0.21875 C-9.58214111 0.17685547 -8.64475098 0.13496094 -7.67895508 0.09179688 C-5.11673177 0.00399992 -2.56347632 -0.01626313 0 0 Z " fill="#8D7669" transform="translate(978,516)"/>
<path d="M0 0 C2 2 2 2 2.3125 5.4375 C2 9 2 9 0.625 10.6875 C0.08875 11.120625 -0.4475 11.55375 -1 12 C-2.17574711 14.09989652 -2.17574711 14.09989652 -3 16 C-4.57159226 12.85681547 -3.04018399 10.07066611 -2.0625 6.875 C-1.86720703 6.21628906 -1.67191406 5.55757812 -1.47070312 4.87890625 C-0.98695014 3.25066448 -0.49430925 1.62506818 0 0 Z " fill="#735D4F" transform="translate(302,842)"/>
<path d="M0 0 C0.33 0 0.66 0 1 0 C1.08089542 2.77141717 1.14044062 5.54047819 1.1875 8.3125 C1.21263672 9.09818359 1.23777344 9.88386719 1.26367188 10.69335938 C1.27333984 11.45068359 1.28300781 12.20800781 1.29296875 12.98828125 C1.3086792 13.68477783 1.32438965 14.38127441 1.34057617 15.09887695 C1 17 1 17 -2 20 C-1.34 13.4 -0.68 6.8 0 0 Z " fill="#7A6759" transform="translate(978,770)"/>
<path d="M0 0 C0.33 0 0.66 0 1 0 C1.08075665 2.29109597 1.13907731 4.58299267 1.1875 6.875 C1.22230469 8.15117188 1.25710938 9.42734375 1.29296875 10.7421875 C1.19628906 11.81726563 1.09960938 12.89234375 1 14 C0.01 14.66 -0.98 15.32 -2 16 C-1.85764543 14.27054347 -1.71095618 12.54144346 -1.5625 10.8125 C-1.48128906 9.84957031 -1.40007813 8.88664063 -1.31640625 7.89453125 C-1.02333849 5.21350398 -0.57296246 2.6337014 0 0 Z " fill="#827060" transform="translate(706,763)"/>
<path d="M0 0 C0.66 0.99 1.32 1.98 2 3 C1.01 3.33 0.02 3.66 -1 4 C-1.35412344 5.32796291 -1.68521554 6.66216607 -2 8 C-3.4375 9.75 -3.4375 9.75 -5 11 C-5.66 11 -6.32 11 -7 11 C-5.22054913 6.95579349 -2.60470327 3.53921513 0 0 Z " fill="#F7F2E9" transform="translate(305,583)"/>
<path d="M0 0 C0.66 0 1.32 0 2 0 C1.01 5.28 0.02 10.56 -1 16 C-1.33 16 -1.66 16 -2 16 C-2.20413361 10.26157749 -2.27141454 5.39460953 0 0 Z " fill="#75604F" transform="translate(830,920)"/>
<path d="M0 0 C2.33479983 3.64812473 2.38018947 6.74187788 2 11 C0.5 13.4375 0.5 13.4375 -1 15 C-1.09038099 9.84828377 -0.84681133 5.08086796 0 0 Z " fill="#806B5E" transform="translate(1001,574)"/>
<path d="M0 0 C0.33 0.99 0.66 1.98 1 3 C-1.31 5.31 -3.62 7.62 -6 10 C-6.99 9.67 -7.98 9.34 -9 9 C-6.03 6.03 -3.06 3.06 0 0 Z " fill="#EEE9E0" transform="translate(387,489)"/>
<path d="M0 0 C2.17240606 3.25860909 2.23564158 3.82050803 1.8125 7.5 C1.73644531 8.2734375 1.66039062 9.046875 1.58203125 9.84375 C0.9062105 12.34746175 -0.03996044 13.35166485 -2 15 C-1.38487182 9.99109914 -0.7282448 4.99367864 0 0 Z " fill="#817063" transform="translate(729,633)"/>
<path d="M0 0 C0.33 0 0.66 0 1 0 C1.08078641 2.12438339 1.13909141 4.2496323 1.1875 6.375 C1.22230469 7.55835938 1.25710938 8.74171875 1.29296875 9.9609375 C1.19628906 10.96382812 1.09960938 11.96671875 1 13 C0.01 13.66 -0.98 14.32 -2 15 C-1.47462276 9.9697924 -0.89405214 4.98114761 0 0 Z " fill="#7C695A" transform="translate(738,591)"/>
<path d="M0 0 C0.33 0 0.66 0 1 0 C1 4.95 1 9.9 1 15 C0.01 15 -0.98 15 -2 15 C-1.47462276 9.9697924 -0.89405214 4.98114761 0 0 Z " fill="#857260" transform="translate(750,530)"/>
<path d="M0 0 C0 4.35251187 -2.06165511 5.92809398 -5 9 C-7.171875 9.6796875 -7.171875 9.6796875 -9 10 C-8.06409496 8.8944811 -7.12620142 7.79064547 -6.1875 6.6875 C-5.66542969 6.07261719 -5.14335937 5.45773437 -4.60546875 4.82421875 C-3.12827531 3.14575321 -1.59960869 1.56117966 0 0 Z " fill="#7D6858" transform="translate(493,498)"/>
<path d="M0 0 C1.07310858 3.27185553 0.89263102 5.42947592 0.0625 8.75 C-0.13214844 9.54921875 -0.32679688 10.3484375 -0.52734375 11.171875 C-0.68332031 11.77515625 -0.83929687 12.3784375 -1 13 C-1.33 13 -1.66 13 -2 13 C-2.05416188 11.39620659 -2.09286638 9.79188594 -2.125 8.1875 C-2.14820313 7.29417969 -2.17140625 6.40085937 -2.1953125 5.48046875 C-2 3 -2 3 0 0 Z " fill="#796657" transform="translate(582,517)"/>
<path d="M0 0 C0.33 0.66 0.66 1.32 1 2 C-2.17647059 8.58823529 -2.17647059 8.58823529 -7 11 C-4.69 7.37 -2.38 3.74 0 0 Z " fill="#79604E" transform="translate(426,583)"/>
<path d="M0 0 C0.66 0.33 1.32 0.66 2 1 C1.67 1.99 1.34 2.98 1 4 C0.34 4 -0.32 4 -1 4 C-1.66 5.32 -2.32 6.64 -3 8 C-3 4.42424104 -1.91159393 2.94704065 0 0 Z M-5 8 C-5 11 -5 11 -5 11 Z " fill="#755D49" transform="translate(413,603)"/>
<path d="M0 0 C0.33 0.99 0.66 1.98 1 3 C-0.21484375 4.82421875 -0.21484375 4.82421875 -1.9375 6.6875 C-2.50339844 7.31011719 -3.06929688 7.93273437 -3.65234375 8.57421875 C-4.09707031 9.04472656 -4.54179687 9.51523437 -5 10 C-5.66 9.67 -6.32 9.34 -7 9 C-4.69 6.03 -2.38 3.06 0 0 Z " fill="#786553" transform="translate(452,546)"/>
<path d="M0 0 C0.99 0 1.98 0 3 0 C2.67 2.64 2.34 5.28 2 8 C1.34 8 0.68 8 0 8 C0 5.36 0 2.72 0 0 Z " fill="#6A5846" transform="translate(588,487)"/>
<path d="M0 0 C7.56634615 -0.37211538 7.56634615 -0.37211538 9.76171875 1.51171875 C10.17035156 2.00285156 10.57898438 2.49398438 11 3 C9.54077307 2.88590407 8.08259402 2.75834456 6.625 2.625 C5.40683594 2.52058594 5.40683594 2.52058594 4.1640625 2.4140625 C2 2 2 2 0 0 Z " fill="#7E6858" transform="translate(670,345)"/>
<path d="M0 0 C0.33 0 0.66 0 1 0 C0.67 3.3 0.34 6.6 0 10 C-2.14915785 6.77626323 -2.38286803 5.73296326 -2 2 C-1.34 1.34 -0.68 0.68 0 0 Z " fill="#796353" transform="translate(850,824)"/>
<path d="M0 0 C0.66 0 1.32 0 2 0 C0.50902342 3.7952131 -1.75700849 5.61042731 -5 8 C-4.67 6.68 -4.34 5.36 -4 4 C-3.34 4 -2.68 4 -2 4 C-2 3.34 -2 2.68 -2 2 C-1.34 2 -0.68 2 0 2 C0 1.34 0 0.68 0 0 Z " fill="#6F5C4D" transform="translate(408,465)"/>
<path d="M0 0 C0.66 0 1.32 0 2 0 C1.25 6.625 1.25 6.625 -1 10 C-2.46726798 6.18510326 -1.43336419 3.70988378 0 0 Z " fill="#715E4E" transform="translate(564,581)"/>
</svg>
