<svg width="32" height="30" viewBox="0 0 32 30" fill="none" xmlns="http://www.w3.org/2000/svg">
<path fill-rule="evenodd" clip-rule="evenodd" d="M4.55278 23.202C5.80808 28.8871 15.2635 29.5296 14.3496 29.3875C2.90298 27.6317 -3.61122 17.8965 30.6139 11.6939C31.7017 11.4967 31.0847 8.00428 30.2047 8.16544C23.2091 9.43775 3.08538 16.5584 4.55278 23.202Z" fill="#E56F54"/>
<path fill-rule="evenodd" clip-rule="evenodd" d="M30.3595 17.9813C24.965 18.7637 4.34723 25.2504 13.5502 28.7641C12.7784 28.4587 11.5357 27.8077 11.4191 26.7454C11.0395 23.2698 28.8688 21.3571 28.8688 21.3571C29.6555 21.2596 31.5534 17.8074 30.3595 17.9813Z" fill="#D74751"/>
<path fill-rule="evenodd" clip-rule="evenodd" d="M26.9047 0.00356803C23.8872 -0.183037 -3.85545 6.95674 0.453452 19.8007C1.00905 21.4568 2.04385 22.8988 3.15715 24.0756C3.83145 24.8221 4.56305 25.4625 5.00195 25.8272C5.04015 25.859 5.08045 25.8929 5.11855 25.9247C5.17585 25.9714 5.22465 26.0117 5.26705 26.0435C5.27335 26.0477 5.27765 26.052 5.28395 26.0562C5.36035 26.1177 5.40275 26.1495 5.40275 26.1495C6.08975 26.6818 6.79595 27.1292 7.45755 27.4727C7.48295 27.4854 7.50415 27.4982 7.52325 27.5066C7.28155 27.3709 6.40995 26.8938 5.37095 26.0604C4.77715 25.5833 4.15795 25.0023 3.74025 24.5782C3.16555 23.9929 2.66095 23.3419 2.25805 22.6273C-0.784949 17.2412 1.81275 9.11119 28.8875 3.29461C29.5237 3.15678 28.8218 0.120197 26.9027 0.00144751L26.9047 0.00356803Z" fill="#FAA74A"/>
</svg>
