<svg xmlns="http://www.w3.org/2000/svg" viewBox="0 0 24 24" fill="none">
  <rect width="24" height="24" rx="6" fill="#7C3AED"/>
  <path d="M12 4.75c-3.31 0-6 2.32-6 5.18 0 1.63.87 3.08 2.24 4.03-.08.65-.35 1.5-1.04 2.29a.4.4 0 0 0 .32.66c1.5-.06 2.63-.63 3.36-1.19.36.06.74.09 1.12.09 3.31 0 6-2.32 6-5.18s-2.69-5.18-6-5.18Z" fill="#fff"/>
  <path d="M11.98 12.05c-.4 0-.68-.28-.68-.67v-.09c0-.72.4-1.12.93-1.48.51-.35.73-.55.73-.94 0-.44-.35-.74-.89-.74-.42 0-.73.19-.94.55-.16.24-.36.35-.63.35-.4 0-.63-.26-.63-.58 0-.13.03-.25.08-.37.3-.71 1.13-1.19 2.19-1.19 1.32 0 2.26.73 2.26 1.86 0 .74-.37 1.16-.98 1.56-.52.34-.72.56-.74.99-.03.44-.28.75-.7.75Zm-.01 2.1a.83.83 0 0 1-.84-.83c0-.46.37-.83.84-.83.46 0 .83.37.83.83a.83.83 0 0 1-.83.83Z" fill="#7C3AED"/>
</svg>
