<svg width="187px" height="70px" viewBox="0 0 187 70" version="1.1" xmlns="http://www.w3.org/2000/svg" xmlns:xlink="http://www.w3.org/1999/xlink"><path d="M101.379499,15.2062178 L115.576829,15.2062178 L115.632259,34.9386389 L115.576829,69.5145718 L130.666726,69.5145718 C130.666726,69.5145718 130.719717,46.465911 130.719717,34.9386389 C130.719717,28.3631264 130.666726,15.2062178 130.666726,15.2062178 L144.862755,15.2062178 L144.862755,0.142077751 L101.379499,0.142077751 L101.379499,15.2062178 Z M53.8070933,69.5145718 L92.8955536,69.5145718 L92.8955536,54.4512981 L68.8378581,54.4512981 L68.8378581,42.3612611 L87.9265057,42.3612611 C87.9265057,42.3612611 87.9265061,37.0172408 87.9265061,34.3498073 C87.9265061,31.995572 87.9265057,27.2962547 87.9265057,27.2962547 L68.8378581,27.2962547 L68.8378581,15.2062178 L92.8955536,15.2062178 L92.8955536,0.142077751 L53.8070933,0.142077751 L53.8070933,69.5145718 Z M187,15.9616556 L187,0.350862739 C185.394073,0.122585377 183.75647,0 182.089795,0 C162.817806,0 147.24936,15.5956307 147.24936,34.8350373 C147.24936,54.0722782 162.817806,69.6700776 182.089795,69.6700776 C183.75647,69.6700776 185.394073,69.5448933 187,69.3192149 L187,53.7075557 C185.430522,54.1099649 183.783807,54.3282795 182.089795,54.3282795 C171.303487,54.3282795 162.613578,45.6000259 162.613578,34.8350373 C162.613578,24.0678829 171.303487,15.3404986 182.089795,15.3404986 C183.783807,15.3404986 185.430522,15.5575137 187,15.9616556 Z M21.9106386,54.511941 L21.9106386,54.5188716 L15.0564858,54.5188716 L15.0564858,39.828552 L21.9106386,39.828552 C25.8306447,39.9944537 28.9548471,43.2167598 28.9548471,47.1706797 C28.9548471,51.1220005 25.8306447,54.3443066 21.9106386,54.511941 L21.9106386,54.511941 Z M15.0668998,15.2737914 L21.2831947,15.2737914 C24.6343356,15.3084445 27.340242,18.0308795 27.340242,21.3822684 C27.340242,24.7358231 24.6343356,27.4569585 21.2831947,27.4907453 L15.0668998,27.492478 L15.0668998,15.2737914 Z M20.1654245,0.273355618 L0,0.273355618 L0,69.5128392 L18.8619378,69.5128392 L20.5069171,69.4985718 C33.3794987,69.4985718 43.8165042,59.0985332 43.8165042,46.2726116 C43.8165042,40.8319928 41.940681,36.3874949 38.7943489,33.0731447 C41.0090612,30.2836602 42.2917198,26.7012566 42.2917198,22.3185839 C42.2917198,10.1429079 32.3862627,0.273355618 20.1654245,0.273355618 Z" fill="#000000"></path></svg>