<svg width="96" height="96" viewBox="0 0 96 96" fill="none" xmlns="http://www.w3.org/2000/svg">
  <rect width="96" height="96" rx="24" fill="#0B2F6B"/>
  <rect x="6" y="6" width="84" height="84" rx="20" fill="#123D86"/>
  <path d="M24 25H48.5C58.5 25 64.5 30.1 64.5 38.2C64.5 42.8 62.2 46.2 58.4 48.1C63.4 49.9 66.5 53.8 66.5 59.4C66.5 67.8 60 73 49.8 73H24V25ZM47 44.3C52 44.3 54.9 42.2 54.9 38.5C54.9 34.8 52 32.8 46.8 32.8H33.4V44.3H47ZM48.8 65.2C54.1 65.2 57 62.9 57 59C57 55 54 52.8 48.8 52.8H33.4V65.2H48.8Z" fill="white"/>
  <path d="M70 25H79V73H70V25Z" fill="#CFE3FF"/>
  <path d="M19 80H78" stroke="#B9D3FF" stroke-width="4" stroke-linecap="round"/>
</svg>
