<svg xmlns="http://www.w3.org/2000/svg" viewBox="0 0 2403 2403" width="512" height="512">
  <rect width="2403" height="2403" rx="432.53999999999996" ry="432.53999999999996" fill="#000"/>
  <g fill="#fff">
    <path transform="translate(432.5 1555.5) scale(1 -1)" d="M395 533Q469 533 519.0 471.5Q569 410 569 282Q569 169 537.0 104.0Q505 39 452.0 12.5Q399 -14 336 -14Q302 -14 274 -10Q258 -8 243 -2Q210 12 175.5 13.0Q141 14 113.0 6.0Q85 -2 70 -16L56 -6Q61 8 62.0 21.5Q63 35 63 49V662Q63 707 51.0 728.5Q39 750 7 750V771Q39 768 69 768Q119 768 162.5 771.5Q206 775 243 782V458Q266 496 305.0 514.5Q344 533 395 533ZM243 18Q251 14 260 11Q276 6 290 6Q337 6 359.5 69.0Q382 132 382 259Q382 348 373.0 396.0Q364 444 349.0 462.5Q334 481 315 481Q287 481 265.0 461.0Q243 441 243 409Z"/><path transform="translate(1033.5 1555.5) scale(1 -1)" d="M254 782V282Q265 282 275 285Q287 287 297 297L374 369Q409 401 409.5 429.5Q410 458 387.5 477.0Q365 496 329 499V519Q358 518 391.5 517.0Q425 516 449 516Q470 516 497.0 516.5Q524 517 548.5 517.5Q573 518 586 519V499Q550 489 513.0 464.0Q476 439 438 401L412 375L571 73Q579 58 588.0 43.5Q597 29 611 21V0Q594 1 559.5 2.5Q525 4 490 4Q450 4 409.5 2.5Q369 1 349 0V21Q369 21 375.5 30.0Q382 39 374 55L286 241Q279 255 270 259Q263 262 254 263V93Q254 51 266.5 36.0Q279 21 310 21V0Q290 1 250.0 2.5Q210 4 168.0 4.0Q126 4 83.0 2.5Q40 1 18 0V21Q49 21 61.5 36.0Q74 51 74 93V662Q74 707 62.0 728.5Q50 750 18 750V771Q50 768 80 768Q130 768 173.5 771.5Q217 775 254 782Z"/><path transform="translate(1642.5 1555.5) scale(1 -1)" d="M254 782V93Q254 51 266.5 36.0Q279 21 310 21V0Q290 1 250.0 2.5Q210 4 168 4Q126 4 83.0 2.5Q40 1 18 0V21Q49 21 61.5 36.0Q74 51 74 93V662Q74 707 62.0 728.5Q50 750 18 750V771Q50 768 80 768Q130 768 173.5 771.5Q217 775 254 782Z"/>
  </g>
</svg>
