<svg xmlns="http://www.w3.org/2000/svg" width="691" height="720" xmlns:v="https://vecta.io/nano"><path d="M426.701 30.044c6.941-.3 13.954-.212 20.906-.28 26.703-.263 57.021.668 78.462 18.914 9.198 7.828 15.31 18.172 18.63 29.726 2.901 10.098 3.567 21.162 4.786 31.579l5.726 51.589q5.913 54.349 10.926 108.788l9.784 120.336c20.324-17.496 33.755-38.078 44.152-62.729q6.744-15.882 11.365-32.506c1.126-3.952 2.235-7.904 3.115-11.918 2.653-12.112 5.541-33.327 16.054-41.159 2.744-2.044 5.857-2.647 9.21-2.003 3.152.605 5.591 2.44 7.308 5.123 8.831 13.805 1.583 44.905-2.074 60.451-9.766 41.52-28.54 75.47-58.898 105.422-8.338 8.227-17.678 16.791-27.67 22.965-.195 6.289.035 12.637.104 18.93l.603 35.829c.183 7.636 1.404 15.684.181 23.234-1.063 6.566-3.463 12.682-7.886 17.721-4.258 4.852-9.679 8.047-15.824 9.908-10.291 3.117-26.238 3.758-37.162 4.728q-39.133 3.407-78.346 5.72l1.433 70.817c.393 17.649 1.668 35.801-.177 53.39-.314 3-.819 6.603-2.699 9.055-3.453 4.504-12.805 5.511-17.996 6.087-10.15 1.126-25.706 1.458-34.096-5.532-2.119-1.765-3.744-4.108-3.946-6.921-.229-3.189 1.27-6.52 3.406-8.827 6.034-6.518 17.435-7.49 25.7-7.914q-.646-54.181-2.108-108.347c-16.496 1.012-33.257 1.89-49.681 3.647-8.227.88-16.084 2.829-24.422 3.266-7.712.404-15.478.257-23.2.44l-29.193 1.074c-6.337.21-13.072-.134-19.347.632l-.42.594.632 43.127c.266 12.411 2.535 54.061-.988 64.134-.463 1.323-.877 2.998-1.708 4.124-3.069 4.165-12.827 5.333-17.549 5.871-10.308 1.173-26.093 1.649-34.646-5.46-2.111-1.755-3.674-4.066-3.865-6.866-.209-3.038 1.052-6.362 3.028-8.647 5.821-6.73 17.856-7.745 26.124-8.192l-1.425-88.57-78.355 1.082c-10.826.017-26.027.559-36.427-1.195-5.462-.922-10.709-2.823-15.15-6.195-13.017-9.883-13.084-26.327-14.413-41.1-.889-9.881-1.637-19.981-2.941-29.803-7.94 9.973-14.355 20.039-18.949 31.996-8.87 23.086-13.267 60.537-14.718 85.439-.51 8.751.341 17.776-.806 26.43-.542 4.087-1.644 8.504-4.216 11.819-2.166 2.792-5.693 4.658-9.219 4.93-2.72.209-5.196-.732-7.196-2.566-8.05-7.381-9.623-25.525-9.9-36.046q-.243-13.169.781-26.3 1.024-13.131 3.305-26.103c2.518-14.945 5.838-29.888 10.928-44.185 9.778-27.461 26.685-53.326 46.699-74.391-.03-6.261-.645-12.629-.996-18.886q-1.082-18.435-1.861-36.886l-2.373-67.414-7.743-154.956c-.692-25.155-3.137-67.945 15.278-87.135 5.098-5.312 12.412-8.91 19.374-11.05 8.368-2.571 17.299-3.919 25.925-5.337q17.185-2.786 34.419-5.243 55.326-8.084 111.038-12.811c14.95-1.361 29.991-3.092 44.978-3.89 6.683-.356 13.23 1.045 19.911.874q43.151-1.514 86.319-2.43z"/><path fill="#21ada2" d="M320.053 35.307c1.222-.141 2.539-.098 3.769-.104 9.968-.043 19.498 3.069 26.624 10.191 8.884 8.88 13.41 21.731 15.729 33.841 2.776 14.49 2.662 28.934 3.825 43.571q3.816 48.219 6.911 96.489 5.879 90.575 9.815 181.256l3.168 71.95c.438 11.506 1.219 23.102 1.183 34.611-.038 12.584-2.348 24.057-11.633 33.173-7.754 7.613-18.513 11.443-29.005 13.409-16.641 3.117-34.069 1.972-50.948 2.637-27.537 1.085-55.014 1.164-82.561 1.554q-36.451.874-72.913.821c-12.619-.148-29.44 1.237-39.683-7.26-10.818-8.974-10.824-24.297-11.938-37.106-.504-5.793-1.256-11.564-1.783-17.356-3.712-40.792-5.955-81.969-7.603-122.9l-1.176-40.451q-.839-21.987-2.148-43.951-3.184-53.66-5.622-107.358c-.987-23.423-2.479-47.435-.392-70.81 1.151-12.886 3.857-27.52 12.415-37.663 4.304-5.101 10.59-8.612 16.844-10.73 15.791-5.348 37.927-7.581 54.898-10.117q80.796-11.755 162.225-17.696z"/><path d="M283.579 77.848c9.22-.555 19.033.769 26.222 7.087 5.484 4.82 8.774 11.82 10.626 18.775 3.129 11.746 3.284 26.993 4.146 39.175l4.438 68.194q.777 12.097 1.4 24.203c.295 5.714 1.219 12.444.072 18.046q-.302 1.472-.796 2.89-.494 1.419-1.172 2.76-.678 1.34-1.527 2.579-.85 1.24-1.856 2.355c-4.349 4.851-10.837 7.64-17.045 9.168-13.14 3.235-27.494 3.176-40.945 4.507q-55.601 5.475-111.351 9.131c-11.943.707-24.199 2.159-33.908-6.372-7.626-6.701-10.71-17.147-11.365-26.985-.331-4.974-.09-10.012-.132-14.999l-.417-25.568q-.518-29.266-.51-58.536c.036-10.836-.575-22.627 1.361-33.311q.19-.998.446-1.981.257-.983.58-1.946.323-.963.71-1.903.387-.939.837-1.85.45-.911.961-1.789.51-.878 1.079-1.72.569-.841 1.193-1.643.625-.801 1.302-1.558c4.915-5.521 11.553-9.034 18.598-11.04 6.61-1.882 13.485-2.14 20.275-2.95l30.158-3.691c32.086-3.922 64.34-9.078 96.62-11.028z"/><path fill="#badccc" d="M280.542 81.701q1.126-.087 2.254-.158c8.842-.544 17.987.415 24.851 6.568 4.812 4.313 7.672 10.569 9.242 16.739 3.146 12.363 3.612 32.767 4.502 45.858l5.186 81.616c.564 9.532 2.911 21.396-4.114 29.155-4.089 4.517-10.209 6.837-15.998 8.198-7.592 1.785-15.495 2.215-23.247 2.82q-11.355.873-22.692 1.96c-33.601 3.148-67.338 6.51-101.042 8.273-3.286.391-6.654.47-9.959.635-8.594.429-17.187.595-24.314-5-6.659-5.228-9.783-14.073-10.678-22.236-.681-6.207-.375-12.453-.472-18.684l-.551-31.429q-.421-26.579-.363-53.161c.034-10.048-.454-20.709 1.097-30.639.685-4.384 2.754-8.77 5.556-12.194 4.579-5.596 10.915-8.97 17.776-10.952 5.749-1.661 11.924-1.92 17.847-2.625l28.682-3.451 96.437-11.293z"/><path d="M248.818 176.547c2.83-.175 5.796.556 8.286 1.913 2.853 1.555 4.825 4.048 5.721 7.169 1.458 5.083-.067 10.762-2.54 15.285-5.748 10.516-16.594 17.105-27.8 20.417-15.114 4.467-28.638.974-42.209-6.461-6.504-4.057-14.328-10.422-16.233-18.253-.976-4.009-.742-8.069 1.514-11.631 2.069-3.266 5.347-4.306 9.065-3.932 3.729.376 7.326 1.765 10.846 2.981 10.511 3.631 20.723 5.944 31.649 2.28 7.58-2.542 13.938-7.839 21.701-9.768zm23.069-35.853c1.722-.067 3.386.135 4.988.806 2.78 1.167 4.842 3.468 5.873 6.284q.213.578.365 1.175.152.597.242 1.206.091.609.118 1.224.028.616-.008 1.23-.035.615-.133 1.223-.099.608-.259 1.203-.159.595-.379 1.17-.22.575-.498 1.125c-1.669 3.279-4.224 4.762-7.605 5.785-2.251.199-4.185-.078-6.2-1.161-2.478-1.33-4.156-3.711-4.95-6.372q-.179-.602-.296-1.22-.117-.617-.171-1.243-.055-.626-.045-1.255.009-.628.082-1.252.073-.624.208-1.238.136-.614.332-1.21.197-.597.453-1.171.256-.574.569-1.119c1.721-2.949 4.152-4.28 7.314-5.19zm-112.54 8.123c1.574.098 3.103.301 4.547.976 2.761 1.291 4.768 3.715 5.693 6.6.99 3.088.727 6.614-.864 9.458-1.745 3.118-4.388 4.679-7.76 5.552-2.213-.062-4.048-.279-5.986-1.428-2.69-1.596-4.444-4.273-5.083-7.312-.677-3.223-.066-6.736 1.853-9.437 1.906-2.683 4.423-3.909 7.6-4.409zm72.289 174.82l6.934-.251c.96 8.378 1.928 17.27 1.748 25.706-10.271.677-20.57.678-30.853 1.065l-79.329 2.682c-2.618.094-5.182.114-7.798-.041-.437-8.014-.689-16.125-.596-24.15 15.611-1.004 31.286-1.499 46.916-2.194l62.978-2.817z"/><path fill="#044b3a" d="M231.405 327.501c1.247-.107 2.444-.289 3.672.018 1.423 5.509 1.168 12.305 1.494 17.983-13.578.296-27.155.981-40.727 1.477l-18.544.466c-15.854.688-31.825 1.572-47.694 1.654l-3.503-.032q-.57-8.542-.582-17.104c15.17-.301 30.314-1.209 45.472-1.849l60.412-2.613z"/><path d="M280.441 469.697q.603-.04 1.207-.05.604-.01 1.208.009.604.02 1.206.069.602.049 1.201.128.599.078 1.193.186.595.107 1.183.244.589.137 1.17.302.581.166 1.153.359.573.194 1.135.415.562.222 1.113.47.55.249 1.088.525.538.275 1.061.576.524.302 1.032.629.508.326 1 .677.492.352.966.726.473.375.928.773.455.398.89.817.435.419.849.86.414.44.806.9.391.46.76.939.369.478.714.974.345.496.665 1.009.32.512.615 1.04.295.527.564 1.068.268.542.51 1.096.242.553.456 1.118.214.565.401 1.14.186.575.344 1.158.158.584.288 1.174.129.59.229 1.186.101.596.172 1.196.071.6.112 1.203.042.603.053 1.207.012.604-.005 1.208-.018.604-.065 1.207-.047.602-.124 1.202-.077.599-.183 1.194-.106.595-.24 1.184-.135.589-.299 1.171-.164.582-.355 1.155-.192.573-.412 1.135-.22.563-.467 1.115-.247.551-.521 1.09-.273.539-.573 1.063-.3.525-.625 1.034-.325.51-.675 1.003-.349.492-.723.968-.373.475-.769.931-.396.456-.814.892-.418.437-.857.852-.439.415-.898.809-.459.393-.936.763-.477.371-.972.717-.495.347-1.007.668-.511.322-1.037.619-.527.296-1.067.566-.541.271-1.094.514-.552.244-1.117.46-.564.216-1.138.404-.574.188-1.157.348-.582.16-1.172.291-.59.131-1.185.233-.596.102-1.196.175-.599.073-1.202.116-.605.043-1.211.057-.606.014-1.213-.002-.606-.017-1.211-.063-.604-.046-1.206-.121-.602-.076-1.199-.181-.597-.105-1.189-.239-.591-.135-1.175-.298-.584-.163-1.159-.355-.576-.192-1.141-.412-.565-.22-1.119-.467-.553-.248-1.094-.522-.541-.274-1.068-.575-.527-.3-1.038-.627-.511-.326-1.006-.677-.495-.351-.972-.725-.476-.375-.934-.773-.458-.398-.896-.817-.438-.42-.854-.861-.417-.441-.811-.902-.394-.46-.766-.94-.371-.48-.718-.977-.348-.497-.67-1.011-.322-.514-.619-1.043-.297-.529-.567-1.072-.271-.543-.514-1.098-.244-.556-.459-1.123-.216-.567-.404-1.143-.187-.577-.347-1.163-.159-.585-.289-1.177-.13-.593-.231-1.191-.101-.598-.172-1.2-.071-.603-.113-1.208-.042-.605-.054-1.212-.011-.606.007-1.212.018-.607.065-1.211.048-.605.125-1.207.078-.601.185-1.198.107-.598.243-1.189.136-.591.301-1.175.165-.583.358-1.158.194-.575.415-1.14.222-.564.471-1.118.249-.553.524-1.093.276-.54.578-1.066.302-.526.63-1.037.327-.51.68-1.004.352-.494.728-.969.376-.476.775-.933.399-.457.82-.893.421-.437.863-.852.442-.416.904-.809.462-.393.942-.763.481-.37.979-.716.498-.346 1.013-.667.514-.321 1.044-.616.53-.295 1.074-.564.543-.269 1.099-.511.557-.242 1.124-.456.567-.214 1.144-.4.578-.186 1.163-.343.586-.158 1.179-.286.592-.129 1.191-.228.598-.099 1.2-.169.603-.069 1.208-.109z"/><path fill="#ee4845" d="M278.332 473.545q.508-.091 1.02-.157.512-.066 1.027-.107.515-.041 1.031-.057.516-.015 1.032-.006.517.01 1.032.045.515.035 1.028.095.513.06 1.022.145.509.085 1.014.195.504.11 1.003.244.499.135.99.293.491.159.974.342.483.182.957.388.473.206.936.435.463.229.914.481.451.251.89.524.438.273.862.567.425.295.834.609.41.315.803.649.394.335.77.688.377.353.736.724.359.371.7.76.34.388.661.793.321.404.622.824.301.42.581.854.28.434.538.881.259.447.495.906.236.459.45.93.213.47.403.95.19.48.357.969.166.489.309.986.142.496.26.999.118.503.211 1.011.093.508.161 1.02.068.512.112 1.026.043.515.06 1.031.018.517.011 1.033-.008.516-.04 1.032-.033.515-.091 1.028-.058.514-.141 1.023-.083.51-.19 1.015-.108.505-.241 1.005-.132.499-.289.991-.156.492-.337.976-.18.484-.384.958-.204.475-.431.939-.227.464-.476.916-.25.452-.521.892-.271.439-.563.865-.293.426-.605.837-.313.411-.646.806-.332.395-.684.773-.351.378-.721.739-.37.361-.756.703-.387.342-.79.665-.403.323-.822.625-.418.303-.851.585-.432.282-.878.542-.446.261-.904.499-.459.238-.928.453-.469.216-.948.408-.48.192-.968.361-.488.169-.983.313-.496.144-.998.265-.503.12-1.01.215-.51.096-1.025.166-.514.071-1.031.116-.517.046-1.036.065-.519.02-1.038.014-.519-.006-1.037-.037-.518-.031-1.034-.088-.516-.057-1.029-.139-.512-.082-1.02-.19-.508-.107-1.01-.239-.502-.132-.997-.289-.495-.157-.982-.338-.487-.18-.964-.385-.477-.205-.943-.432-.467-.228-.921-.479-.455-.25-.897-.523-.442-.273-.87-.567-.428-.293-.841-.608-.413-.315-.81-.65-.397-.334-.776-.688-.381-.354-.743-.726-.362-.372-.705-.761-.344-.39-.667-.795-.324-.406-.628-.828-.303-.421-.586-.857-.282-.435-.543-.884-.26-.449-.499-.911-.238-.461-.453-.934-.215-.472-.407-.955-.192-.482-.359-.974-.168-.491-.312-.99-.143-.499-.262-1.005-.118-.505-.212-1.016-.094-.511-.162-1.025-.069-.515-.112-1.033-.043-.517-.06-1.036-.018-.519-.01-1.038.008-.52.042-1.038.033-.518.092-1.034.059-.516.144-1.028.084-.513.193-1.02.11-.508.244-1.009.134-.502.293-.996.159-.495.342-.981.183-.486.389-.962.207-.477.436-.942.23-.466.482-.92.253-.453.527-.894.275-.441.57-.868.296-.427.612-.838.317-.412.653-.808.336-.395.692-.774.355-.379.728-.739.374-.361.765-.703.39-.342.798-.664.407-.322.829-.624.423-.302.859-.582.437-.281.887-.54.45-.258.913-.495.462-.236.935-.449.474-.214.957-.404.483-.189.975-.355.492-.166.992-.307.499-.141 1.005-.258.506-.116 1.017-.208z"/><path d="M149.378 395.661c5.307-.124 10.747.181 16.048.533.18 5.476.118 10.973.24 16.453q8.191.014 16.377.29.497 9.515.467 19.043c-5.407.394-10.808.367-16.225.322.137 3.369 1.312 14.878-.187 17.429l-1.168.181q-8.127.153-16.255.036c-.431-6.01-.259-12.105-.27-18.13-5.595-.089-11.184.012-16.779-.171-.718-6.241-.485-12.672-.456-18.948q8.038-.115 16.075.039c.028-3.39-.483-13.811.786-16.445.277-.576.777-.493 1.347-.632z"/><path fill="#f8c757" d="M151.052 399.35l10.928.168c-.076 5.473-.182 10.985.36 16.437 5.225.786 11.003.399 16.287.385l.245 12.303q-8.039.08-16.074.332c-.196 5.728.138 11.466.211 17.196l-10.859.151c-.144-6.02.101-12.023-.246-18.043-5.61-.232-11.266-.111-16.882-.127-.177-3.972-.165-7.946-.18-11.921 5.257.043 10.543.193 15.794-.106.579-5.471.319-11.266.416-16.775z"/><path d="M264.307 396.04q.328.288.641.591c2.947 2.877 18.342 27.979 18.392 31.205-2.105 1.504-11.933.956-14.725.976-3.589.057-16.987 1.013-19.148-.153-.429-.231-.394-.605-.515-1.038.833-4.541 12.188-26.862 15.355-31.581z"/><path fill="#3997a2" d="M264.628 402.732c1.639.957 11.877 19.111 13.771 22.147-3.595.259-7.252.193-10.857.254l-13.845.216q5.174-11.449 10.931-22.617z"/><path d="M304.121 322.607q.327-.064.657-.111.33-.048.662-.079.331-.031.664-.046.333-.015.666-.013.334.001.666.019.333.018.665.053.331.034.66.084.33.051.656.118.327.066.65.149.322.083.641.181.318.099.631.213.313.114.62.243.308.13.608.274.3.144.593.303.293.159.578.332.285.173.561.36.276.187.542.387.266.201.523.414.256.213.501.438.246.226.48.463.234.237.456.486.222.249.431.508.21.259.406.528.197.269.38.548.183.278.352.565.169.288.324.583.155.295.295.597.14.303.265.612.126.309.235.623.11.315.204.635.094.32.173.644.078.324.14.651.062.327.108.658.046.33.076.662.03.332.043.665.014.333.011.666-.003.333-.023.666-.019.333-.055.664-.036.332-.088.661-.052.329-.12.655-.068.327-.152.649-.084.323-.184.641-.1.318-.215.63-.116.313-.246.62-.131.306-.276.606-.146.3-.306.592-.16.293-.334.577-.175.284-.363.559-.188.275-.389.541-.202.265-.416.521-.214.255-.441.499-.226.245-.464.478-.239.233-.488.454-.249.221-.509.429-.26.209-.53.404-.27.196-.549.378-.28.182-.567.35-.288.168-.584.321-.296.154-.599.293-.303.139-.612.262-.31.124-.625.232-.315.109-.635.202-.32.092-.644.169-.324.077-.652.138-.326.061-.654.105-.329.045-.659.073-.33.028-.661.04-.331.013-.663.009-.331-.005-.662-.025-.331-.02-.66-.056-.33-.037-.657-.089-.327-.053-.651-.121-.325-.069-.645-.153-.321-.084-.637-.184-.316-.1-.626-.215-.311-.116-.616-.246-.305-.13-.603-.275-.298-.145-.588-.305-.291-.159-.573-.332-.283-.174-.556-.361-.274-.187-.538-.387-.264-.201-.518-.414-.254-.212-.497-.438-.243-.225-.475-.461-.232-.237-.452-.485-.221-.248-.428-.506-.208-.258-.403-.527-.195-.268-.376-.545-.182-.277-.349-.563-.168-.286-.321-.58-.154-.294-.293-.595-.139-.301-.263-.608-.124-.308-.233-.621-.109-.313-.202-.631-.094-.318-.171-.64-.078-.322-.14-.648-.062-.326-.108-.654-.046-.328-.075-.658-.03-.331-.044-.662-.013-.331-.011-.662.003-.332.022-.663.019-.331.054-.66.035-.33.086-.658.051-.327.118-.652.067-.324.15-.645.083-.321.181-.638.098-.316.212-.628.114-.311.243-.616.129-.306.273-.604.143-.299.301-.59.159-.292.331-.575.172-.283.358-.557.186-.275.385-.54.199-.265.411-.52.211-.255.435-.499.224-.245.46-.478.236-.233.483-.454.246-.221.504-.43.257-.209.524-.405.268-.196.544-.379.277-.182.562-.351.285-.169.578-.324.293-.155.593-.295.3-.14.607-.266.307-.125.619-.235.313-.111.631-.206.317-.094.639-.173.322-.08.647-.143z"/><path fill="#04497a" d="M305.221 326.688c2.397-.146 4.628.123 6.781 1.263q.402.212.78.464.379.252.729.542.35.29.669.613.319.324.603.679.285.355.531.738.246.382.452.787.206.405.369.83.163.424.282.863c.641 2.354.35 4.967-.955 7.048-1.685 2.683-4.384 4.003-7.378 4.702-2.656.058-4.986-.246-7.239-1.75-2.126-1.42-3.707-3.628-4.193-6.154q-.077-.41-.112-.825-.036-.415-.03-.832.005-.417.052-.831.047-.415.134-.822.088-.408.215-.805.128-.396.294-.779.166-.382.37-.746.203-.364.441-.706c1.754-2.551 4.265-3.692 7.205-4.279z"/><path d="M130.736 502.851c6.003.003 23.669-.96 27.876 1.234 1.924 1.004 3.455 2.712 4.075 4.809.597 2.014.347 4.165-.765 5.956-1.413 2.279-3.335 3.357-5.853 4.005-6.954.286-21.587.735-28.064-.487-1.617-1.419-3.034-3.037-3.696-5.123s-.596-4.305.492-6.238c1.329-2.36 3.448-3.395 5.935-4.156z"/><path fill="#04497a" d="M130.448 506.745c6.422-.073 18.257-.935 24.138.21 1.427.278 3.591.916 4.343 2.316a2.78 2.78 0 0 1 .252 2.264c-.493 1.765-1.546 2.401-3.044 3.278-4.921.697-21.104.898-25.668-.203-1.03-.249-1.781-.558-2.322-1.538-.657-1.192-.563-2.745-.102-3.979.52-1.389 1.108-1.782 2.403-2.348z"/><path d="M184.502 503.23c5.923-.215 19.098-.798 24.408.182 1.636.302 3.233.898 4.537 1.952 1.352 1.093 2.149 2.494 2.332 4.222.284 2.676-.047 4.919-1.817 7.016-1.619 1.918-3.415 2.294-5.821 2.54-5.485.224-23.418 1.223-27.652-1.482-1.637-1.047-2.917-2.736-3.322-4.654-.436-2.064.023-4.515 1.2-6.262 1.612-2.394 3.414-3.011 6.135-3.514z"/><path fill="#04497a" d="M183.491 507.071c5.09-.286 25.181-1.152 28.328 1.402.42 1.474.563 3.437-.155 4.846-.572 1.122-1.406 1.377-2.508 1.798-3.622.563-20.626.815-24.101.313-1.468-.213-2.908-.95-3.723-2.225-.555-.87-.735-1.88-.491-2.885.385-1.581 1.302-2.445 2.65-3.249z"/><path d="M318.443 429.703c2.414-.129 5.114.69 7.13 2.005 2.878 1.879 4.73 4.947 5.383 8.292.711 3.645.162 7.511-1.939 10.617-2.214 3.273-5.286 4.808-9.068 5.456-2.9.018-5.343-.444-7.781-2.112-2.8-1.915-4.738-5.032-5.34-8.36-.654-3.619.122-7.634 2.267-10.645 2.328-3.268 5.535-4.608 9.348-5.253z"/><path fill="#6db267" d="M317.103 433.478c1.239-.103 2.648-.107 3.843.253q.47.144.923.336.453.191.883.429.431.238.834.519.404.281.776.602.372.322.709.68.337.358.635.749.298.392.553.812.256.42.467.864c1.113 2.348 1.249 5.204.323 7.637-1.179 3.098-3.301 4.728-6.252 6.032-1.269.133-2.647.111-3.885-.218q-.442-.118-.869-.281-.428-.163-.836-.37-.408-.207-.792-.455-.384-.249-.74-.536-.356-.287-.681-.61-.324-.322-.613-.677-.288-.355-.539-.738-.25-.383-.459-.79-.241-.47-.432-.962-.192-.492-.332-1.001-.139-.509-.226-1.03-.087-.521-.12-1.048-.033-.527-.012-1.054.022-.528.097-1.05.075-.523.204-1.035.129-.512.309-1.008c1.178-3.148 3.291-4.729 6.232-6.05z"/><path fill="#3997a2" d="M435.49 33.573c29.044-.389 64.76-2.29 88.304 17.976 8.538 7.349 14.167 16.672 17.246 27.487 3.057 10.737 3.765 22.554 5.022 33.629q2.884 24.47 5.459 48.974 12.499 115.636 20.813 231.649c-17.209 11.267-37.804 20.671-58.22 23.999-2.917-2.056-5.895-4.021-9.164-5.477-9.295-4.14-20.926-3.969-30.319-.221-7.857 3.135-14.132 9.57-17.451 17.318-3.835 8.956-4.276 20.824-.582 29.892 2.989 7.336 8.234 12.357 15.514 15.407 8.732 3.66 19.462 3.708 28.211.086 7.489-3.1 12.578-8.257 15.659-15.693 20.859-4.346 40.707-10.031 58.726-21.823.276 21.002.184 42.131 1.271 63.103.461 9.814-.354 19.115-6.646 27.114-3.806 4.838-9.604 8.045-15.467 9.691-5.367 1.508-11.186 1.894-16.721 2.498q-14.61 1.56-29.257 2.732-36.74 3.072-73.552 5.124-20.848 1.114-41.669 2.665c-7.744.543-15.56.896-23.271 1.792q.843-.361 1.669-.76.827-.399 1.634-.835.808-.435 1.595-.906.788-.471 1.553-.977.766-.505 1.508-1.045.742-.539 1.459-1.111.718-.572 1.409-1.176.691-.603 1.354-1.237.664-.634 1.298-1.297.635-.662 1.239-1.353.604-.69 1.177-1.407.573-.717 1.113-1.459.54-.741 1.047-1.507.506-.765.978-1.552.472-.787.908-1.594.436-.807.836-1.633c3.097-6.387 4.298-13.085 4.53-20.137.269-8.181-.243-16.428-.541-24.606l-1.507-38.071-5.472-114.515q-4.184-88.026-10.71-175.909l-3.086-39.764c-1.24-18.396-1.146-36.065-7.236-53.76-3.89-11.299-10.857-23.128-21.967-28.534 8.852-1.327 19.435-.992 28.513-1.284q31.392-.965 62.793-1.493z"/><path d="M486.699 313.423c9.819-.356 19.726-.371 29.55-.211.202 6.453 1.33 13.493.397 19.876-4.727 5.195-9.779 10.372-14.944 15.129 5.638 3.813 11.71 6.944 17.077 11.16.355 10.09 1.068 21.517.242 31.501-6.383-.226-13.034.499-19.419.82-14.986.756-30.092 1.868-45.089 2.092q-3.235.108-6.472.14c-.901-8.47-1.62-17.281-1.404-25.793 9.109-.93 18.303-1.373 27.433-2.127-4.612-2.512-9.831-4.942-13.658-8.58 3.657-4.384 7.965-8.416 12.01-12.456-8.794-.169-17.707.198-26.472-.477-.45-4.725-.192-9.634-.12-14.375.082-5.349.028-10.746.5-16.077q20.183-.425 40.369-.622z"/><path fill="#025467" d="M493.785 316.92c6.339-.196 12.698-.126 19.041-.153.043 4.992.364 9.961.216 14.956-2.551 2.654-15.866 14.607-15.908 17.288 3.112 3.343 13.466 9.571 17.805 11.78l.616 26.211-64.266 3.169c-.226-2.757-.364-5.526-.542-8.286l-.496-10.532c4.766-.171 28.878-.959 31.386-3.095.431-.367.29-.53.29-1.041-2.757-3.391-12.137-8.069-16.274-10.621 3.302-2.611 11.806-10.515 13.292-14.242l-.282-.447c-6.001-1.774-22.239-.912-29.135-.916l.184-22.932c14.635-1.04 29.407-.737 44.073-1.139z"/><path d="M498.96 249.769c5.081-.144 10.17-.345 15.254-.244.49 9.671 1.619 29.846-.582 38.648-1.24 4.96-3.741 9.569-8.337 12.168-4.368 2.471-10.087 2.785-14.847 1.301-5.943-1.853-9.513-6.229-12.354-11.526-3.971 5.092-8.008 8.6-13.895 11.282-3.136 1.005-6.234 1.66-9.545 1.618-4.595-.058-8.691-1.667-11.856-5.055-7.208-7.714-6.191-19.065-6.189-28.796.001-5.897.01-11.78.312-17.671l62.039-1.725z"/><path fill="#025467" d="M504.923 253.302l6.006.079c-.912 10.045.901 20.249-.259 30.304-.55 4.773-1.739 9.405-5.801 12.433-3.078 2.296-7.221 3.003-10.967 2.447-4.749-.704-9.507-4.017-11.572-8.423-.96-2.046-1.65-4.513-3.016-6.299-.281-.009-.58-.125-.843-.027-1.378.516-6.71 8.121-8.902 9.959-2.53 2.122-5.046 3.346-8.126 4.496-1.578.402-3.264.77-4.895.871-3.848.239-7.897-.761-10.743-3.469-6.757-6.428-5.653-18.511-5.626-27.028q.036-6.717-.113-13.432l39.907-1.217c8.331-.209 16.633-.045 24.95-.694z"/><path d="M462.436 268.444c.818-.108 1.785-.348 2.58-.07.503.177.58.699.749 1.154 1.244 3.36.922 9.045-.636 12.224-.856 1.747-2.224 3.186-4.1 3.806-2.491.822-4.641-.019-6.885-1.111-.805-.6-1.593-1.329-2.227-2.109-3.028-3.728-2.822-8.505-2.3-12.974 4.245-.535 8.549-.674 12.819-.92z"/><path fill="#3997a2" d="M460.29 272.262c.939-.029 1.269-.131 2.092.358.565 1.566.791 3.302.483 4.951-.273 1.46-1.044 3.101-2.332 3.927-1.379.883-2.685.471-4.164.128l-.237-.16c-2.776-2.119-3.24-5.315-3.573-8.556l7.731-.648z"/><path d="M490.16 267.368q5.945-.185 11.893-.106c.459 3.213.88 6.475.081 9.677-.72 2.882-2.204 4.825-4.692 6.393q-.481.065-.964.116c-2.75.286-5.475-.111-7.61-1.999-3.879-3.431-3.644-9.238-3.796-13.966l5.088-.115z"/><path fill="#3997a2" d="M488.673 271.243c3.52-.307 7.051-.225 10.576-.101-.306 2.605-.729 5.048-1.735 7.482-.642.578-1.119 1.002-1.968 1.233-1.204.326-2.307.256-3.379-.445-2.522-1.65-3.05-5.443-3.494-8.169z"/><path d="M456.112 211.011c1.188-.146 2.459-.347 3.643-.096q.257.054.508.134.251.08.492.184.242.105.472.233.229.128.445.278.216.151.416.322.199.172.381.362.181.191.343.398.161.208.301.431c.809 1.288.92 2.876.47 4.31-.707 2.252-2.241 3.276-4.249 4.3-.86.034-1.715.05-2.562-.13-1.548-.331-3.032-1.452-3.826-2.813-.73-1.25-.876-2.673-.499-4.064.526-1.948 2.027-2.877 3.665-3.849zm34.256-105.516c1.017-.049 2.091-.146 3.086.114q.271.068.533.165.262.097.511.222.25.124.485.275.236.151.453.326.218.175.415.373.197.197.372.415.175.218.326.453.151.235.275.485c.659 1.353.651 2.924.068 4.302-.846 2.001-2.185 2.943-4.11 3.798-.975.036-2.009.112-2.959-.147-1.492-.405-2.867-1.565-3.553-2.946-.705-1.421-.69-2.996-.095-4.453.782-1.913 2.415-2.589 4.193-3.382zm9.515 100.979c1.022-.102 2.181-.3 3.192-.067 1.392.321 2.602 1.315 3.248 2.58.715 1.401.653 3.129.072 4.563-.853 2.105-2.15 2.858-4.161 3.719-1.055.058-2.088.119-3.106-.223-1.421-.478-2.736-1.56-3.383-2.924-.606-1.276-.617-2.711-.137-4.03.745-2.046 2.4-2.799 4.275-3.618zm-55.55-101.271c1.105-.073 2.385-.237 3.465.045 1.424.371 2.663 1.386 3.343 2.686.717 1.373.777 2.943.195 4.377-.752 1.853-2.074 2.919-3.864 3.688-.955.05-1.943.095-2.887-.094-1.525-.306-3.02-1.481-3.789-2.819q-.127-.222-.231-.456-.104-.234-.184-.477-.08-.244-.134-.494-.055-.25-.084-.505-.029-.254-.032-.51-.003-.256.02-.511.023-.255.072-.507.049-.251.123-.496c.633-2.125 2.128-2.951 3.987-3.927zm79.48 52.331c1.041-.075 2.089-.167 3.117.062 1.514.338 2.842 1.218 3.598 2.597.668 1.22.763 2.588.37 3.913-.641 2.155-2.118 3.326-4.025 4.345-.968.07-1.92.1-2.873-.12-1.532-.352-3.014-1.356-3.793-2.736-.699-1.241-.782-2.674-.375-4.026.638-2.121 2.155-2.996 3.981-4.035zm-110.477 9.477c1.207-.094 2.514-.254 3.688.125q.252.08.494.186.243.106.473.236.23.131.446.284.215.153.414.328.198.175.378.37.179.194.337.406.159.212.294.44.136.227.247.467c.598 1.311.554 2.763.055 4.099-.788 2.11-2.213 2.962-4.147 3.924-.801.051-1.535.072-2.328-.077-1.608-.3-3.035-1.192-3.901-2.599-.83-1.351-.964-2.949-.485-4.45.654-2.053 2.205-2.854 4.035-3.739zm59.339-5.888c1.129-.058 2.295-.162 3.377.229q.235.087.46.196.226.109.44.239.214.131.414.282.2.151.384.32.185.17.352.356.167.187.315.389.148.202.276.418.128.215.234.442c.661 1.404.574 3.087-.049 4.486-.907 2.035-2.273 2.732-4.269 3.495-1.153.004-2.336.061-3.406-.438-1.415-.659-2.575-1.883-3.084-3.366q-.083-.235-.141-.478-.059-.242-.094-.489-.034-.247-.044-.497-.009-.249.006-.498.015-.249.055-.495.04-.247.105-.488.064-.241.152-.474.088-.234.199-.457c.902-1.812 2.477-2.584 4.318-3.172z"/><path d="M656.056 243.672c1.34-.103 2.837-.103 4.115.37 4.842 1.79-1.376 19.076.593 23.598.944.174 1.472.117 2.385-.083 1.667-1.95 2.082-14.14 2.346-17.35q1.413 4.249 1.89 8.702c1.196 10.564-.979 21.17-2.911 31.506-6.651 35.585-19.102 68.997-41.938 97.491q-6.15 7.63-12.898 14.736-6.749 7.106-14.052 13.64c-33.729 30.268-64.478 37.501-108.312 42.318l-.505.113c-2.193-.929-4.29-2.085-6.074-3.682-3.674-3.289-6.47-7.525-6.732-12.585-.34-6.585 3.379-12.098 7.505-16.833 5.615-.93 11.429-1.064 17.09-1.815q10.398-1.311 20.596-3.724 10.199-2.412 20.083-5.897c14.055-4.941 28.12-12.127 39.758-21.493 28.287-22.764 45.262-59.24 55.121-93.395 4.632-16.048 6.389-32.667 13.662-47.79.009 4.572-1.849 11.92.139 15.931.795.545.77.454 1.733.28 1.853-1.82 2.044-18.374 2.415-22.144 1.301-.787 2.568-1.362 3.991-1.894zM82.538 440.129c.985 2.537 2.537 34.189 2.763 39.259-20.003 20.378-26.658 46.652-31.322 73.847q-3.847 22.953-5.462 46.17c-.8 11.966.46 23.836-2.425 35.594-.433-3.413-1.258-14.836-2.184-17.557-.414-1.217-.944-2.341-2.144-2.918l-.888.621c-.347.73-.574 1.321-.591 2.139-.05 2.321.517 4.837.796 7.147q.954 7.521 1.681 15.067c-2.236.91-4.384 1.567-6.737 2.105l-.474-8c-.164-3.443.154-13.789-1.438-16.309-.959-.234-1.156-.172-2.115.105-.215.221-.51.386-.645.663-.49 1.01.428 17.319.397 20.111-4.512-7.504-6.184-15.829-6.967-24.461-1.541-16.998.041-34.536 2.406-51.381 5.692-40.541 17.001-72.584 41.674-105.542 4.322-5.772 9.062-11.126 13.672-16.66zm347.094 110.917l7.014-.279 1.353 73.051c.362 14.689 2.121 40.04-.774 53.676-.468 2.204-.968 4.03-2.99 5.261-8.132 4.953-29.367 4.259-38.548 2.062-2.414-.772-4.901-1.53-6.849-3.236-1.478-1.294-2.282-2.915-2.411-4.873-.14-2.131.528-4.118 1.941-5.719 5.364-6.076 19.373-6.581 26.969-7.097.447-16.909-.227-34.044-.657-50.957l-1.298-60.909c5.415-.206 10.84-.646 16.25-.98zM236.64 561.467c7.659-.329 15.44-.143 23.108-.072l.942 52.094c.367 15.723 1.209 31.846-.084 47.533-.23 2.794-.49 7.797-2.406 9.985-4.109 4.694-20.117 4.993-26.424 4.997-6.137-.172-14.812-.714-19.794-4.66-1.574-1.247-2.654-2.893-2.869-4.916q-.044-.384-.049-.77-.004-.386.031-.77.036-.385.111-.764.075-.379.189-.748.114-.369.266-.724.151-.355.338-.693.188-.337.409-.654.221-.316.474-.608c5.612-6.606 18.948-6.735 26.951-7.403.612-13.982-.029-28.213-.365-42.202q-.626-24.809-.828-49.625z" fill="#3997a2"/><path fill="#025467" d="M485.671 412.865c8.689-1.135 15.899.951 23.325 5.342-9.393 2.148-19.037 2.905-28.636 3.356q-1.067.916-2.037 1.934c-4.794 5.015-8.329 12.208-8.032 19.263.244 5.768 3.653 11.057 7.845 14.826 2.15 1.934 4.751 3.847 7.625 4.46 5.841 1.245 19.12-2.091 25.89-2.462q-.722 1.193-1.51 2.344c-4.099 5.957-10.411 9.389-17.482 10.621-8.283 1.443-17.723.11-24.673-4.837-5.539-3.943-8.57-9.946-9.605-16.57-1.499-9.595.336-19.334 6.157-27.187 5.514-7.439 12.299-9.805 21.133-11.09z"/></svg>