<svg id="图层_1" data-name="图层 1" xmlns="http://www.w3.org/2000/svg" viewBox="0 0 71.69 52.76"><defs><style>.cls-1{fill:#4d6bfe;}</style></defs><path id="path" class="cls-1" d="M523.77,276.34c-.76-.38-1.08.33-1.53.69a4,4,0,0,0-.41.41,5.07,5.07,0,0,1-4.1,1.87,8,8,0,0,0-6.46,2.53,5.82,5.82,0,0,0-3.72-4.62,6.39,6.39,0,0,1-2.85-1.94,7.76,7.76,0,0,1-.92-2.31c-.16-.48-.32-1-.87-1.05s-.83.41-1.07.82a11,11,0,0,0-1.26,5.5,11.9,11.9,0,0,0,5.49,10.14.75.75,0,0,1,.39,1c-.25.84-.54,1.65-.79,2.49-.17.53-.41.65-1,.42a16.63,16.63,0,0,1-5.18-3.52c-2.56-2.48-4.88-5.21-7.76-7.35-.68-.5-1.36-1-2.06-1.41-2.94-2.86.39-5.2,1.16-5.48s.28-1.29-2.33-1.28-5,.88-8,2a8.23,8.23,0,0,1-1.39.41,28.67,28.67,0,0,0-8.61-.3,18.57,18.57,0,0,0-13.44,7.83c-4,5.47-4.91,11.67-3.76,18.15a27.68,27.68,0,0,0,10,16.88,26.8,26.8,0,0,0,19.23,6.39c4.43-.25,9.36-.84,14.92-5.55a13.84,13.84,0,0,0,5.32,1.18,17.24,17.24,0,0,0,5.09-.38c2.2-.46,2.05-2.5,1.25-2.87-6.43-3-5-1.78-6.3-2.77,3.27-3.87,8.2-7.89,10.13-20.92a12.44,12.44,0,0,0,0-2.52c0-.51.1-.71.68-.76a12.55,12.55,0,0,0,4.62-1.42c4.17-2.28,5.85-6,6.25-10.51A1.57,1.57,0,0,0,523.77,276.34Zm-36.34,40.37c-6.24-4.9-9.27-6.52-10.52-6.45s-1,1.41-.7,2.28a8.49,8.49,0,0,0,1.11,2.21,1.14,1.14,0,0,1-.34,1.8c-2,1.24-5.5-.42-5.66-.5a26.08,26.08,0,0,1-9.87-9.88,30.15,30.15,0,0,1-3.87-13.39c-.06-1.15.28-1.56,1.42-1.77a14.31,14.31,0,0,1,4.57-.11,28.56,28.56,0,0,1,16.33,8.29,54.06,54.06,0,0,1,6.58,8.63,41.46,41.46,0,0,0,7.41,8.71,24.36,24.36,0,0,0,2.66,2C494.16,318.82,490.16,318.87,487.43,316.71Zm3-19.23a.92.92,0,0,1,.92-.92.83.83,0,0,1,.32.06.8.8,0,0,1,.34.22.9.9,0,0,1,.25.64.92.92,0,0,1-1.83,0Zm9.29,4.76a5.27,5.27,0,0,1-1.77.48,3.75,3.75,0,0,1-2.38-.76,3.57,3.57,0,0,1-1.65-2.26,5.16,5.16,0,0,1,0-1.76,2,2,0,0,0-.71-2.17,3.1,3.1,0,0,0-2.06-.59,1.63,1.63,0,0,1-.76-.24.75.75,0,0,1-.34-1.07,3.47,3.47,0,0,1,.57-.62,3.9,3.9,0,0,1,3.43,0,10,10,0,0,1,3,2.34,18.62,18.62,0,0,1,2,2.73,10.9,10.9,0,0,1,1.33,2.53C500.65,301.47,500.4,302,499.71,302.24Z" transform="translate(-452.83 -271.91)"/></svg>