<?xml version="1.0" encoding="utf-8"?>
<svg viewBox="220 220 60 60" xmlns="http://www.w3.org/2000/svg">
  <g transform="matrix(1, 0, 0, 1, 212.5, 213.13900756835938)">
    <path d="M 18.104 27.567 C 15.291 27.567 13 25.278 13 22.465 C 13 19.652 15.291 17.363 18.104 17.363 C 20.917 17.363 23.206 19.652 23.206 22.465 C 23.206 25.278 20.917 27.567 18.104 27.567 Z M 18.104 19.365 C 16.395 19.365 15.004 20.756 15.004 22.468 C 15.004 24.179 16.395 25.569 18.104 25.569 C 19.811 25.569 21.205 24.179 21.205 22.468 C 21.205 20.756 19.815 19.365 18.104 19.365 Z" fill="#2A3275" style="transform-box: fill-box; transform-origin: 50% 50%;"/>
    <path d="M 18.104 41.961 C 15.291 41.961 13 39.67 13 36.857 C 13 34.044 15.291 31.755 18.104 31.755 C 20.917 31.755 23.206 34.044 23.206 36.857 C 23.206 39.67 20.917 41.961 18.104 41.961 Z M 18.104 33.758 C 16.395 33.758 15.004 35.148 15.004 36.857 C 15.004 38.566 16.395 39.96 18.104 39.96 C 19.811 39.96 21.205 38.57 21.205 36.857 C 21.205 35.147 19.815 33.758 18.104 33.758 Z" fill="#2A3275" style="transform-box: fill-box; transform-origin: 50% 50%;"/>
    <path d="M 18.104 56.346 C 15.291 56.346 13 54.056 13 51.243 C 13 48.43 15.291 46.141 18.104 46.141 C 20.917 46.141 23.206 48.43 23.206 51.243 C 23.206 54.056 20.917 56.346 18.104 56.346 Z M 18.104 48.145 C 16.395 48.145 15.004 49.536 15.004 51.246 C 15.004 52.957 16.395 54.349 18.104 54.349 C 19.811 54.349 21.205 52.957 21.205 51.246 C 21.205 49.536 19.815 48.145 18.104 48.145 Z" fill="#2A3275" style="transform-box: fill-box; transform-origin: 50% 50%;"/>
    <path d="M 56.898 27.567 C 54.085 27.567 51.794 25.278 51.794 22.465 C 51.794 19.652 54.085 17.363 56.898 17.363 C 59.711 17.363 62 19.652 62 22.465 C 62 25.278 59.711 27.567 56.898 27.567 Z M 56.898 19.365 C 55.189 19.365 53.795 20.756 53.795 22.468 C 53.795 24.179 55.185 25.569 56.898 25.569 C 58.609 25.569 59.999 24.179 59.999 22.468 C 59.999 20.756 58.609 19.365 56.898 19.365 Z" fill="#2A3275" style="transform-box: fill-box; transform-origin: 50% 50%;"/>
    <path d="M 56.898 41.961 C 54.085 41.961 51.794 39.67 51.794 36.857 C 51.794 34.044 54.085 31.755 56.898 31.755 C 59.711 31.755 62 34.044 62 36.857 C 62 39.67 59.711 41.961 56.898 41.961 Z M 56.898 33.758 C 55.189 33.758 53.795 35.148 53.795 36.857 C 53.795 38.566 55.185 39.96 56.898 39.96 C 58.609 39.96 59.999 38.57 59.999 36.857 C 59.999 35.147 58.609 33.758 56.898 33.758 Z" fill="#2A3275" style="transform-box: fill-box; transform-origin: 50% 50%;"/>
    <path d="M 56.898 56.346 C 54.085 56.346 51.794 54.056 51.794 51.243 C 51.794 48.43 54.085 46.141 56.898 46.141 C 59.711 46.141 62 48.43 62 51.243 C 62 54.056 59.711 56.346 56.898 56.346 Z M 56.898 48.145 C 55.189 48.145 53.795 49.536 53.795 51.246 C 53.795 52.957 55.185 54.349 56.898 54.349 C 58.609 54.349 59.999 52.957 59.999 51.246 C 59.999 49.536 58.609 48.145 56.898 48.145 Z" fill="#2A3275" style="transform-box: fill-box; transform-origin: 50% 50%;"/>
    <path d="M 37.501 34.765 C 34.688 34.765 32.399 32.474 32.399 29.661 C 32.399 26.848 34.688 24.559 37.501 24.559 C 40.314 24.559 42.605 26.848 42.605 29.661 C 42.605 32.474 40.314 34.765 37.501 34.765 Z M 37.501 26.562 C 35.792 26.562 34.4 27.952 34.4 29.665 C 34.4 31.375 35.79 32.766 37.501 32.766 C 39.212 32.766 40.604 31.375 40.604 29.665 C 40.604 27.952 39.212 26.562 37.501 26.562 Z" fill="#2A3275" style="transform-box: fill-box; transform-origin: 50% 50%;"/>
    <path d="M 37.503 20.378 C 34.69 20.378 32.399 18.089 32.399 15.276 C 32.399 12.463 34.69 10.172 37.503 10.172 C 40.316 10.172 42.605 12.463 42.605 15.276 C 42.605 18.089 40.316 20.378 37.503 20.378 Z M 37.503 12.176 C 35.794 12.176 34.4 13.567 34.4 15.277 C 34.4 16.99 35.79 18.38 37.503 18.38 C 39.214 18.38 40.604 16.99 40.604 15.277 C 40.604 13.567 39.214 12.176 37.503 12.176 Z" fill="#2A3275" style="transform-box: fill-box; transform-origin: 50% 50%;"/>
    <path d="M 37.503 49.157 C 34.69 49.157 32.399 46.867 32.399 44.054 C 32.399 41.241 34.69 38.952 37.503 38.952 C 40.316 38.952 42.605 41.241 42.605 44.054 C 42.605 46.867 40.316 49.157 37.503 49.157 Z M 37.503 40.954 C 35.794 40.954 34.4 42.346 34.4 44.057 C 34.4 45.768 35.79 47.158 37.503 47.158 C 39.214 47.158 40.604 45.768 40.604 44.057 C 40.604 42.346 39.214 40.954 37.503 40.954 Z" fill="#2A3275" style="transform-box: fill-box; transform-origin: 50% 50%;"/>
    <path d="M 37.501 63.55 C 34.688 63.55 32.399 61.259 32.399 58.446 C 32.399 55.633 34.688 53.344 37.501 53.344 C 40.314 53.344 42.605 55.633 42.605 58.446 C 42.605 61.259 40.314 63.55 37.501 63.55 Z M 37.501 55.349 C 35.792 55.349 34.4 56.739 34.4 58.45 C 34.4 60.161 35.79 61.553 37.501 61.553 C 39.212 61.553 40.604 60.161 40.604 58.45 C 40.604 56.739 39.212 55.349 37.501 55.349 Z" fill="#2A3275" style="transform-box: fill-box; transform-origin: 50% 50%;"/>
    <path d="M 29.375 28.458 C 29.17 28.458 28.961 28.42 28.759 28.339 L 25.437 27.016 C 24.581 26.675 24.165 25.703 24.508 24.851 C 24.848 23.994 25.817 23.576 26.676 23.92 L 29.997 25.244 C 30.852 25.584 31.268 26.556 30.928 27.408 C 30.668 28.062 30.04 28.458 29.379 28.458 L 29.375 28.458 Z" fill="#5699DB" style="transform-box: fill-box; transform-origin: 50% 50%;"/>
    <path d="M 29.375 42.568 C 29.17 42.568 28.961 42.53 28.759 42.449 L 25.437 41.125 C 24.581 40.785 24.165 39.813 24.508 38.961 C 24.848 38.105 25.817 37.688 26.676 38.03 L 29.997 39.353 C 30.852 39.696 31.268 40.666 30.928 41.52 C 30.668 42.172 30.04 42.568 29.379 42.568 L 29.375 42.568 Z" fill="#5699DB" style="transform-box: fill-box; transform-origin: 50% 50%;"/>
    <path d="M 48.861 35.519 C 48.656 35.519 48.448 35.481 48.245 35.4 L 44.924 34.077 C 44.069 33.736 43.651 32.764 43.993 31.912 C 44.333 31.057 45.302 30.639 46.158 30.981 L 49.48 32.305 C 50.336 32.645 50.752 33.618 50.411 34.469 C 50.15 35.123 49.524 35.519 48.861 35.519 Z" fill="#5699DB" style="transform-box: fill-box; transform-origin: 50% 50%;"/>
    <path d="M 48.861 21.402 C 48.656 21.402 48.448 21.364 48.245 21.283 L 44.924 19.96 C 44.069 19.619 43.651 18.647 43.993 17.795 C 44.333 16.938 45.302 16.52 46.158 16.864 L 49.48 18.188 C 50.336 18.528 50.752 19.501 50.411 20.352 C 50.15 21.006 49.524 21.402 48.861 21.402 Z" fill="#5699DB" style="transform-box: fill-box; transform-origin: 50% 50%;"/>
    <path d="M 48.861 49.626 C 48.656 49.626 48.447 49.588 48.245 49.507 L 44.922 48.183 C 44.067 47.841 43.651 46.87 43.991 46.017 C 44.333 45.161 45.302 44.742 46.158 45.087 L 49.479 46.411 C 50.336 46.751 50.752 47.724 50.41 48.576 C 50.15 49.229 49.522 49.626 48.861 49.626 Z" fill="#5699DB" style="transform-box: fill-box; transform-origin: 50% 50%;"/>
    <path d="M 26.143 50.13 C 25.482 50.13 24.853 49.735 24.594 49.082 C 24.252 48.226 24.67 47.257 25.525 46.915 L 28.846 45.592 C 29.703 45.251 30.67 45.667 31.014 46.523 C 31.356 47.378 30.94 48.347 30.083 48.687 L 26.762 50.013 C 26.561 50.094 26.352 50.13 26.146 50.13 L 26.143 50.13 Z" fill="#5699DB" style="transform-box: fill-box; transform-origin: 50% 50%;"/>
    <path d="M 26.143 36.103 C 25.482 36.103 24.853 35.707 24.594 35.055 C 24.252 34.199 24.67 33.23 25.525 32.888 L 28.846 31.565 C 29.703 31.224 30.67 31.64 31.014 32.496 C 31.356 33.351 30.94 34.32 30.083 34.66 L 26.762 35.986 C 26.561 36.067 26.352 36.103 26.146 36.103 L 26.143 36.103 Z" fill="#5699DB" style="transform-box: fill-box; transform-origin: 50% 50%;"/>
    <path d="M 26.143 21.366 C 25.482 21.366 24.853 20.97 24.594 20.316 C 24.252 19.461 24.67 18.492 25.525 18.152 L 28.846 16.826 C 29.703 16.486 30.67 16.902 31.014 17.757 C 31.356 18.615 30.94 19.582 30.083 19.924 L 26.762 21.247 C 26.561 21.328 26.352 21.366 26.146 21.366 L 26.143 21.366 Z" fill="#5699DB" style="transform-box: fill-box; transform-origin: 50% 50%;"/>
    <path d="M 29.375 57.686 C 29.17 57.686 28.961 57.648 28.759 57.567 L 25.437 56.244 C 24.581 55.903 24.165 54.931 24.508 54.079 C 24.848 53.226 25.817 52.804 26.672 53.148 L 29.995 54.472 C 30.85 54.814 31.266 55.785 30.924 56.638 C 30.665 57.29 30.038 57.686 29.375 57.686 Z" fill="#5699DB" style="transform-box: fill-box; transform-origin: 50% 50%;"/>
    <path d="M 45.538 28.46 C 44.877 28.46 44.249 28.064 43.989 27.41 C 43.649 26.555 44.065 25.584 44.921 25.242 L 48.241 23.918 C 49.099 23.578 50.069 23.994 50.41 24.849 C 50.752 25.705 50.336 26.675 49.479 27.017 L 46.158 28.341 C 45.956 28.422 45.747 28.46 45.542 28.46 L 45.538 28.46 Z" fill="#5699DB" style="transform-box: fill-box; transform-origin: 50% 50%;"/>
    <path d="M 45.538 42.572 C 44.877 42.572 44.249 42.175 43.989 41.522 C 43.649 40.666 44.065 39.696 44.921 39.353 L 48.241 38.03 C 49.099 37.688 50.069 38.105 50.41 38.961 C 50.752 39.816 50.336 40.787 49.479 41.129 L 46.158 42.453 C 45.956 42.534 45.747 42.572 45.542 42.572 L 45.538 42.572 Z" fill="#5699DB" style="transform-box: fill-box; transform-origin: 50% 50%;"/>
    <path d="M 45.538 57.686 C 44.877 57.686 44.249 57.286 43.989 56.636 C 43.649 55.781 44.065 54.812 44.921 54.472 L 48.241 53.146 C 49.099 52.806 50.066 53.222 50.408 54.077 C 50.748 54.935 50.332 55.902 49.477 56.244 L 46.154 57.567 C 45.952 57.648 45.744 57.686 45.538 57.686 Z" fill="#5699DB" style="transform-box: fill-box; transform-origin: 50% 50%;"/>
  </g>
  <ellipse style="fill: rgba(255, 255, 255, 0); paint-order: fill; stroke: rgba(0, 0, 0, 0);" cx="250" cy="250" rx="30" ry="30"/>
</svg>
