<svg width="16" height="16" viewBox="0 0 16 16" fill="none" xmlns="http://www.w3.org/2000/svg">
	<circle cx="8" cy="8" r="8" fill="#061548"/>
	<path d="M14 7.99939C14 6.3459 12.6593 5 11.0121 5C9.46791 5 8.37667 6.41155 7.57973 7.44255L7.45983 7.59818C7.38837 7.68936 7.31934 7.78055 7.2503 7.87052L7.2285 7.89848C6.37465 9.01216 5.80904 9.69422 4.98789 9.69422C4.05773 9.69422 3.30077 8.93435 3.30077 8.00061C3.30077 7.06687 4.05773 6.30699 4.98789 6.30699C5.31853 6.30699 5.95317 6.48815 6.45822 7.01459L6.76585 7.32097L7.54461 6.3155L7.23698 6.03708C6.53331 5.38055 5.64796 5.00122 4.98789 5.00122C3.34073 5.00122 2 6.34711 2 8.00061C2 9.6541 3.34073 11 4.98789 11C6.49092 11 7.42955 9.77568 8.25919 8.69483L8.27008 8.68024C8.34154 8.58784 8.413 8.49544 8.48446 8.40182L8.60678 8.24377C9.27412 7.38055 10.1038 6.30578 11.0121 6.30578C11.9205 6.30578 12.6992 7.06565 12.6992 7.99939C12.6992 8.93313 11.9423 9.69301 11.0121 9.69301C10.6354 9.69301 9.97174 9.33799 9.58539 8.87964L9.28018 8.55015L8.46145 9.56535L8.75333 9.8997C9.46548 10.6146 10.3096 10.9988 11.0121 10.9988C12.6593 10.9988 14 9.65289 14 7.99939Z" fill="white"/>
</svg>
