<?xml version="1.0" encoding="utf-8"?>
<svg version="1.1" xmlns="http://www.w3.org/2000/svg" viewBox="0 0 512 512">
<rect width="512" height="512" fill="#ffffff"/>
<g transform="translate(56, 56) scale(0.38)">
	<path fill="#000000" d="M362.1,745.1c18,31.1,65.2,21.3,69.4-14.3L503,119.4c2.6-22.2-14.7-41.6-37.1-41.6h-425c-28.7,0-46.7,31.1-32.3,56L362.1,745.1z"/>
	<path fill="#000000" d="M974.3,400.5c14.3,25,50.3,25.1,64.7,0.2l154.1-267c14.4-24.9-3.6-56-32.3-56H854.4c-28.6,0-46.6,30.9-32.4,55.8L974.3,400.5z"/>
	<path fill="#000000" d="M568.8,1103.7c14.4,24.9,50.3,24.9,64.6,0l344-595.7c20-34.7-21.2-72.2-53.8-49.1L434.9,804.2c-15.7,11.1-20.4,32.4-10.8,49.1L568.8,1103.7z"/>
</g>
</svg>
