<svg xmlns="http://www.w3.org/2000/svg" viewBox="0 0 250 250" fill="none">
  <defs>
    <linearGradient id="codecan-favicon-gradient-1" x1="202.1" x2="239.2" y1="70.63" y2="175.2" gradientUnits="userSpaceOnUse">
      <stop stop-color="#4A90C0" offset="0"/>
      <stop stop-color="#3882BA" offset="1"/>
    </linearGradient>
    <linearGradient id="codecan-favicon-gradient-2" x1="11.41" x2="116" y1="36.86" y2="215.6" gradientUnits="userSpaceOnUse">
      <stop stop-color="#2972A7" offset="0"/>
      <stop stop-color="#3882BA" offset="1"/>
    </linearGradient>
  </defs>
  <path d="m226.1 13.4h-61.92c-8.01 0-12.41 7.02-12.41 12.5v36.01c0 7.7 6.14 12.96 13.17 12.96h2.76v15.14l20.17-15.9h38.23c8.25 0 12.68-6.74 12.68-12.2v-36.01c0-6.75-5.47-12.5-12.68-12.5z" fill="#fff"/>
  <path d="m237.9 70.63v104.4l-1.72-0.13c-1.18-8.95-8.34-16.35-16.53-16.35-9.49 0-16.89 7.1-17.54 15.9v-99.54h23.52c7.56 0 12.27-4.24 12.27-4.24z" fill="url(#codecan-favicon-gradient-1)"/>
  <path d="m47.83 36.89v135.8l-1.35-0.12c-2.33-8.96-8.51-14.38-17.6-14.38-8.77 0-17.17 6.8-17.82 15.6v-142c0-10.55 8.95-19.05 17.9-19.05 10.1 0 18.87 8.35 18.87 18.45v5.73z" fill="#B8CEDA"/>
  <path d="m23.47 15.81v144.2l-2.76 1.2-8.6 5.7v-138.2c0-5.8 6-12 11.36-12.9z" fill="#F0F5F9"/>
  <path d="m217.2 195.1h-185c-11.32 0-20.77-10.05-20.77-20v-0.35c0-9.8 8.15-16.9 17.45-16.9 10.05 0 18.65 8 18.65 17.15v-138.1h103.6v25.05c0 7.7 6.15 12.96 13.17 12.96h3.48v15.14l20.17-15.14h14.2v99.04c0-8.7 8.7-16.1 17.85-16.1 9.7 0 17.95 8.3 17.95 17v0.35c0 10.45-9.6 19.9-20.66 19.9z" fill="url(#codecan-favicon-gradient-2)"/>
  <path d="m51.91 36.86v156.9h4.2v-156.9h-4.2z" fill="#00325D" opacity=".2"/>
  <path d="m189.7 177.4h-129.2c-0.65 0-1.05-0.4-1.05-0.95s0.4-0.95 1.05-0.95h129.2c0.65 0 1.05 0.4 1.05 0.95s-0.55 0.95-1.05 0.95z" fill="#C3E1F6"/>
  <path d="m142.9 53.36h-82.1c-0.55 0-1.1-0.35-1.1-0.9s0.4-0.95 1.1-0.95h82.1c0.65 0 1.15 0.4 1.15 0.95s-0.5 0.9-1.15 0.9z" fill="#C3E1F6"/>
  <path d="m124.6 59.41c-0.55 0-0.95-0.4-0.95-0.95v-10.65c0-0.55 0.4-0.95 0.95-0.95s0.95 0.4 0.95 0.95v10.65c0 0.55-0.4 0.95-0.95 0.95z" fill="#C3E1F6"/>
  <path d="m124.6 184.5c-0.55 0-0.95-0.4-0.95-0.95v-10.1c0-0.55 0.4-0.95 0.95-0.95s0.95 0.4 0.95 0.95v10.1c0 0.5-0.4 0.95-0.95 0.95z" fill="#C3E1F6"/>
  <path d="m184.5 184.5c-0.55 0-0.95-0.4-0.95-0.95v-91c0-0.55 0.4-0.95 0.95-0.95s0.95 0.4 0.95 0.95v91c0 0.5-0.45 0.95-0.95 0.95z" fill="#C3E1F6"/>
  <path d="m189.1 117.9h-8.3c-0.55 0-1-0.4-1-0.95s0.4-0.95 1-0.95h8.3c0.55 0 1 0.4 1 0.95-74 0.55-0.45 0.95-1 0.95z" fill="#C3E1F6"/>
  <path d="m69.26 117.9h-8.75c-0.55 0-1-0.4-1-0.95s0.4-0.95 1-0.95h8.75c0.55 0 1 0.4 1 0.95s-0.5 0.95-1 0.95z" fill="#C3E1F6"/>
  <path d="m64.41 183.8c-0.55 0-0.95-0.4-0.95-0.95v-134.8c0-0.55 0.4-0.95 0.95-0.95s0.95 0.4 0.95 0.95v134.8c0 0.55-0.45 0.95-0.95 0.95z" fill="#C3E1F6"/>
  <path d="m171.1 117-22.95 19.8c-1.05 0.9-0.7 2-0.4 3.15l2.05 5.75-20.9-3.3c-1.8-0.4-2.85 0-2.85 1.8l1.05 21.25h-5.4l1.75-21.25c0-1.45-1.05-2.2-3.2-1.45l-20.15 2.95 2.1-6.5c0.4-1.45 0-2.5-1.05-3.55l-21.25-16.95c-1.05-0.7-1.05-1.4 0-2.1l3.6-1.4c1.45-0.7 1.05-2.1 0.7-3.15l-3.25-13.85 11.6 2.75c2.15 0.7 3.2 0.35 3.9-1.45l1.75-5.05 9.45 10.9c1.8 1.8 3.6 0.75 3.25-1.75l-4.65-24.65 7.45 4.3c1.45 0.75 2.5 0.35 3.55-1.8l7.45-15.55 6.4 14.5c1.05 2.15 2.45 3.2 4.6 2.5l8.15-4.3-5.75 25c-0.35 2.5 1.45 3.9 3.6 2.1l9.8-11.25 2.15 5.7c0.35 1.05 1.4 1.45 3.55 1.05l12.3-2.75-4.3 14.5c-0.35 1.45-0.35 2.5 1.1 3.2l3.95 1.4c1.15 0.1 1.5-0.25 0.85-0.55z" fill="#fff"/>
  <path d="m226.1 11h-61.92c-9.1 0-15.25 8.05-15.25 14.9v8.41h-99.23v-3.15c0-11.56-9.45-20.66-20.75-20.66s-19.8 10.1-19.8 20.21v144c0 12.15 10.15 22.8 23 22.8h185c12.45 0 23.5-11.05 23.5-22.8v-148.8c0-8.75-6.75-14.9-14.6-14.9zm-71.47 14.9c0-5.75 4.4-10.15 9.55-10.15h61.22c6.2 0 10.3 4.95 10.3 10.15v36.01c0 5.8-4.25 10.1-9.6 10.1h-38.23l-18.27 14.5v-14.5h-5.37c-5.75 0-9.6-5-9.6-10.1v-36.01zm-141.4 5.86c0-9.05 7.55-16.45 15.75-16.45 8.75 0 16.1 7.4 16.1 15.85v131.2c-4.55-4.6-9.35-6.7-16.2-6.7-6.15 0-11.4 2.45-15.65 7v-130.8zm204 160.4h-185c-9.55 0-18.35-8.5-18.35-17.1v-0.35c0-8.6 7.25-13.75 15.05-13.75 7.95 0 14.6 5.7 15.75 13.7 0.15 1.4 1.1 2.1 2.55 2.1s2.5-1.05 2.5-2.5v-135h99.25v22.6c0 9 5.7 14.95 15.9 15.2v12.9c0 1.45 1.05 2.5 2.5 2.5 0.7 0 1.4-0.4 1.75-0.75l18.75-14.5h11.4v97.05c0 1.45 1.05 2.5 2.5 2.5s2.5-1.05 2.5-2.2c0.8-8.6 7.85-14 15.75-14 8.25 0 15.65 6.9 15.65 14.5v0.35c0.05 8.95-9 16.75-18.4 16.75zm18.1-30.6c-4.2-4.1-8.4-6.05-15.3-6.05-6.1 0-10.6 2.3-14.85 6.5v-85.25h20.55c4.4 0 7.65-1.15 9.6-2.9v87.7z" fill="#133B54"/>
</svg>
