<?xml version="1.0" encoding="UTF-8"?>
<svg version="1.1" xmlns="http://www.w3.org/2000/svg" width="552" height="538">
<path d="M0 0 C5.92897669 2.7307735 11.90801464 5.34870675 17.88308716 7.97671509 C20.10999312 8.95620908 22.33619509 9.93728803 24.56225586 10.91870117 C35.66834946 15.81297039 46.79320214 20.6632726 57.92871094 25.49023438 C61.38738585 26.99189596 64.84144707 28.50400454 68.29492188 30.01757812 C74.31116669 32.65317882 80.33330425 35.27502568 86.35742188 37.89257812 C88.34571773 38.75712786 90.33399802 39.62171342 92.32226562 40.48632812 C96.01986159 42.09421472 99.71779193 43.70132325 103.41650391 45.30664062 C123.73157437 54.12484992 144.00435414 63.03213736 164.23208618 72.04901123 C177.52308329 77.97303428 190.83715156 83.83627005 204.21508789 89.56152344 C207.24903326 90.86430507 210.27494432 92.18278142 213.29492188 93.51757812 C214.5254126 94.05511719 214.5254126 94.05511719 215.78076172 94.60351562 C219.66160704 96.39587739 221.79983124 97.47668821 223.29492188 101.51757812 C223.54677087 103.79642427 223.54677087 103.79642427 223.54939747 106.35025597 C223.55522966 107.32638733 223.56106186 108.3025187 223.56707078 109.3082298 C223.56329146 110.37806029 223.55951213 111.44789078 223.55561829 112.55014038 C223.55944383 113.68863579 223.56326938 114.82713121 223.56721085 116.00012648 C223.57756062 119.8293951 223.5735449 123.65851434 223.56958008 127.48779297 C223.57283094 130.22738582 223.57904328 132.96697026 223.58506775 135.70655823 C223.59782756 142.38430889 223.59960682 149.06201937 223.59726749 155.73978017 C223.59548549 161.16726996 223.59723143 166.59474754 223.60149193 172.02223587 C223.60208712 172.79428736 223.60268231 173.56633885 223.60329553 174.36178584 C223.60450727 175.93014832 223.6057214 177.49851079 223.60693791 179.06687327 C223.61781853 193.7806598 223.61564857 208.49442343 223.60955306 223.20821126 C223.60438425 236.67047381 223.61563746 250.13266398 223.63465128 263.59491222 C223.65402115 277.41512634 223.66228713 291.23530621 223.65852803 305.05553401 C223.65661458 312.81564567 223.6591174 320.57569575 223.67324257 328.33579636 C223.68514656 334.94256175 223.68657239 341.54922766 223.6744524 348.1559944 C223.66855649 351.52691555 223.66910579 354.89750519 223.6794548 358.26843834 C223.68986646 361.92281177 223.68186591 365.57669317 223.66914368 369.23104858 C223.67651796 370.29641763 223.68389225 371.36178668 223.69148999 372.45943964 C223.64522165 378.76000477 223.04195085 383.29280498 218.80688477 388.2644043 C214.15733225 392.20812626 209.36868765 394.56879007 203.73242188 396.83007812 C202.37334717 397.3942041 202.37334717 397.3942041 200.98681641 397.96972656 C198.09497879 399.16617784 195.19581032 400.34325997 192.29492188 401.51757812 C189.36345006 402.71436498 186.43276757 403.91306811 183.50219727 405.11206055 C181.67616341 405.85704962 179.84863021 406.59837931 178.01928711 407.33520508 C172.65052933 409.50642007 167.37474102 411.82991286 162.11181641 414.24560547 C157.29944256 416.41863959 152.42294718 418.43479792 147.54492188 420.45507812 C146.49796143 420.89037842 145.45100098 421.32567871 144.37231445 421.77416992 C137.54311241 424.60681744 130.69486847 427.3825436 123.80664062 430.06835938 C120.88736922 431.27308651 118.02702382 432.54350714 115.15820312 433.86132812 C109.09965456 436.63386686 102.95951481 439.17898885 96.79492188 441.70507812 C94.21095111 442.76863836 91.62787005 443.83434965 89.04492188 444.90039062 C88.35523315 445.18493607 87.66554443 445.46948151 86.95495605 445.76264954 C77.88948781 449.50605651 68.84200274 453.29249839 59.79492188 457.08007812 C58.4505304 457.6427388 58.4505304 457.6427388 57.07897949 458.21676636 C46.39837737 462.687968 35.72506856 467.17612072 25.06054688 471.68554688 C23.54690552 472.32545311 23.54690552 472.32545311 22.00268555 472.97828674 C17.14402619 475.03274977 12.28619525 477.08913765 7.4296875 479.14868164 C3.1631863 480.95714277 -1.1089367 482.75175972 -5.3840332 484.53979492 C-7.61100853 485.47794956 -9.82923398 486.4345654 -12.046875 487.39453125 C-13.36496707 487.95180455 -14.68330972 488.50848569 -16.00195312 489.06445312 C-17.67016113 489.78133301 -17.67016113 489.78133301 -19.37207031 490.51269531 C-25.3199472 492.30594621 -30.48449374 492.04246221 -36.24804688 489.56054688 C-37.29750488 489.11759277 -38.34696289 488.67463867 -39.42822266 488.21826172 C-40.57145996 487.71891113 -41.71469727 487.21956055 -42.89257812 486.70507812 C-44.14572001 486.17062496 -45.39948763 485.63763709 -46.65380859 485.10595703 C-49.45413762 483.91651876 -52.25079738 482.7189187 -55.04541016 481.51611328 C-60.05651504 479.36233829 -65.08109012 477.24099709 -70.10742188 475.12304688 C-71.0127919 474.7414743 -71.91816193 474.35990173 -72.85096741 473.96676636 C-74.72280387 473.17788154 -76.59465569 472.38903318 -78.46652222 471.60021973 C-82.33759354 469.9676807 -86.20697619 468.33115898 -90.07643127 466.6947937 C-102.15038893 461.58949362 -114.23641301 456.51349945 -126.33007812 451.45507812 C-127.21280396 451.08581207 -128.09552979 450.71654602 -129.00500488 450.33609009 C-135.2379367 447.72890032 -141.47143326 445.12306248 -147.70507812 442.51757812 C-154.83047753 439.539366 -161.95561762 436.56053568 -169.08007812 433.58007812 C-170.3998465 433.02797668 -170.3998465 433.02797668 -171.74627686 432.46472168 C-187.72077959 425.78044084 -203.67871458 419.05716165 -219.62451172 412.3046875 C-228.15373763 408.69441831 -236.6882073 405.09997552 -245.25195312 401.57226562 C-246.7074067 400.97057975 -248.16281197 400.368777 -249.61816406 399.7668457 C-252.25330454 398.67705289 -254.89231485 397.59754027 -257.53417969 396.52416992 C-258.68370117 396.04890869 -259.83322266 395.57364746 -261.01757812 395.08398438 C-262.00371094 394.68123291 -262.98984375 394.27848145 -264.00585938 393.86352539 C-271.00342145 390.37423815 -274.00939109 385.72051104 -276.70507812 378.51757812 C-277.36530746 374.6205739 -277.37814394 370.82325839 -277.33326721 366.87738037 C-277.3403616 365.74600907 -277.34745599 364.61463776 -277.35476536 363.44898248 C-277.37228752 359.67950401 -277.35426869 355.9110645 -277.33618164 352.14160156 C-277.33856529 349.43066609 -277.34841697 346.71976892 -277.35786438 344.0088501 C-277.37619321 337.42407278 -277.36776178 330.83959321 -277.34977616 324.25482532 C-277.33572537 318.90326323 -277.33186266 313.55178172 -277.33521843 308.20020294 C-277.33569587 307.43729048 -277.33617331 306.67437801 -277.33666522 305.88834698 C-277.33769159 304.33834469 -277.33874695 302.78834242 -277.33983099 301.23834017 C-277.34838781 287.54978452 -277.33175362 273.86137231 -277.30200195 260.17285156 C-277.27314433 246.89544659 -277.26609301 233.61824806 -277.28149414 220.34082031 C-277.29825661 205.87001555 -277.30229183 191.39930868 -277.28478378 176.92850137 C-277.28293944 175.38556434 -277.28110471 173.8426273 -277.27927971 172.29969025 C-277.27836762 171.54058996 -277.27745553 170.78148968 -277.2765158 169.99938636 C-277.27091242 164.65303428 -277.27421551 159.30673004 -277.28082466 153.96038055 C-277.28855714 147.44703635 -277.2818078 140.93389531 -277.25664962 134.42059204 C-277.24415473 131.09816607 -277.2401561 127.77631998 -277.24919128 124.45384216 C-277.25785839 120.85217429 -277.24197474 117.25143169 -277.21974182 113.64984131 C-277.22798259 112.60023782 -277.23622336 111.55063434 -277.24471384 110.46922469 C-277.17664818 104.51025209 -276.67854886 101.0580222 -272.70507812 96.51757812 C-270.70751953 95.12475586 -270.70751953 95.12475586 -268.55664062 94.20117188 C-267.73260742 93.83677002 -266.90857422 93.47236816 -266.05957031 93.09692383 C-265.15883789 92.72011475 -264.25810547 92.34330566 -263.33007812 91.95507812 C-262.3674707 91.53508545 -261.40486328 91.11509277 -260.41308594 90.68237305 C-257.18392125 89.27771191 -253.94460276 87.89815883 -250.70507812 86.51757812 C-248.39434759 85.51689922 -246.0844717 84.51424481 -243.77539062 83.50976562 C-240.05653613 81.89317872 -236.33714061 80.27803046 -232.61376953 78.671875 C-223.28874972 74.64894031 -213.99177455 70.56561228 -204.70507812 66.45507812 C-191.20809732 60.48315791 -177.68107747 54.58222022 -164.14257812 48.70507812 C-149.38007358 42.29585987 -134.62679632 35.86658028 -119.89257812 29.39257812 C-119.06143494 29.02747131 -118.23029175 28.6623645 -117.3739624 28.28619385 C-108.79934282 24.51919218 -100.22672369 20.74766406 -91.6558075 16.97224426 C-58.6649914 2.44180325 -58.6649914 2.44180325 -43.45507812 -4.04492188 C-41.89382202 -4.71575806 -41.89382202 -4.71575806 -40.30102539 -5.40014648 C-39.35670654 -5.79983643 -38.4123877 -6.19952637 -37.43945312 -6.61132812 C-36.23627441 -7.12288452 -36.23627441 -7.12288452 -35.00878906 -7.64477539 C-22.5082641 -12.19005953 -11.15645054 -5.21128554 0 0 Z " fill="#202122" transform="translate(298.705078125,24.482421875)"/>
<path d="M0 0 C2.02615589 1.02075278 4.0472409 2.05164891 6.0625 3.09375 C10.11948652 5.18945237 14.27053438 6.91675927 18.546875 8.51171875 C25.25968834 11.02504697 31.64832976 13.82523305 38.02734375 17.09375 C42.10403618 19.17146992 46.26127166 20.91330453 50.546875 22.51171875 C57.25968834 25.02504697 63.64832976 27.82523305 70.02734375 31.09375 C74.10403618 33.17146992 78.26127166 34.91330453 82.546875 36.51171875 C89.25968834 39.02504697 95.64832976 41.82523305 102.02734375 45.09375 C106.10403618 47.17146992 110.26127166 48.91330453 114.546875 50.51171875 C121.25968834 53.02504697 127.64832976 55.82523305 134.02734375 59.09375 C138.10403618 61.17146992 142.26127166 62.91330453 146.546875 64.51171875 C153.25968834 67.02504697 159.64832976 69.82523305 166.02734375 73.09375 C170.10403618 75.17146992 174.26127166 76.91330453 178.546875 78.51171875 C186.18358828 81.37096211 193.43420976 84.64690238 200.65625 88.43359375 C198.59037552 90.68785685 196.7834817 92.02620383 193.98730469 93.24853516 C193.25095795 93.57451187 192.51461121 93.90048859 191.75595093 94.23634338 C190.55417709 94.75550575 190.55417709 94.75550575 189.328125 95.28515625 C188.48448395 95.6561998 187.6408429 96.02724335 186.77163696 96.40953064 C183.98607457 97.63262616 181.1962342 98.8456227 178.40625 100.05859375 C176.45107367 100.91468744 174.49616157 101.77138484 172.54150391 102.62866211 C167.53769394 104.82108476 162.53024313 107.00504279 157.5213623 109.18585205 C154.01117823 110.71451919 150.50232229 112.24621724 146.99353027 113.77807617 C141.40619274 116.21724131 135.81796448 118.65434552 130.22753906 121.08642578 C118.52609373 126.17720284 106.83837511 131.29864978 95.15625 136.43359375 C81.83271659 142.28957138 68.50015461 148.12418549 55.15625 153.93359375 C41.18794024 160.01510399 27.23045833 166.1208925 13.28125 172.24609375 C11.9660437 172.82351318 11.9660437 172.82351318 10.62426758 173.41259766 C8.12697923 174.50912933 5.6298527 175.60602838 3.1328125 176.703125 C2.40635529 177.02219315 1.67989807 177.34126129 0.931427 177.66999817 C-0.11236618 178.12882637 -0.11236618 178.12882637 -1.17724609 178.59692383 C-1.85760925 178.8916861 -2.53797241 179.18644836 -3.23895264 179.49014282 C-4.7276515 180.15743477 -6.20028714 180.86111748 -7.65997314 181.58969116 C-12.32244224 183.86166374 -15.19375471 185.11723785 -20.34375 183.43359375 C-23.09715498 182.39962289 -25.7757957 181.23912289 -28.45703125 180.03125 C-29.24656693 179.68230682 -30.0361026 179.33336365 -30.8495636 178.97384644 C-33.45462626 177.8208717 -36.05534326 176.65840924 -38.65625 175.49609375 C-40.49560586 174.68033748 -42.33529268 173.86532708 -44.17529297 173.05102539 C-48.00016653 171.35757986 -51.82359283 169.66092777 -55.64599609 167.96191406 C-63.56361189 164.44517459 -71.4967463 160.96390151 -79.43075562 157.48434448 C-81.98776137 156.36275472 -84.54434073 155.24019792 -87.10083008 154.11743164 C-99.47791743 148.68290797 -111.8673398 143.27700575 -124.2612915 137.881073 C-135.93941619 132.7963696 -147.60773382 127.68981544 -159.26843262 122.5652771 C-166.08930962 119.56794831 -172.91137422 116.57332289 -179.73364258 113.5791626 C-181.49719954 112.80514238 -183.26070741 112.03101028 -185.02416992 111.2567749 C-190.36619501 108.91166297 -195.70961624 106.56978068 -201.05493164 104.23217773 C-202.71797949 103.50436441 -204.38059407 102.77556009 -206.04272461 102.0456543 C-208.35541226 101.03027587 -210.66934646 100.01784171 -212.984375 99.0078125 C-213.70334961 98.69407684 -214.42232422 98.38034119 -215.16308594 98.05709839 C-220.71624464 95.65602032 -226.33117172 93.49696952 -232.02636719 91.45239258 C-234.34375 90.43359375 -234.34375 90.43359375 -235.34375 88.43359375 C-234.56588135 88.09739014 -233.7880127 87.76118652 -232.98657227 87.41479492 C-215.41155036 79.81593591 -197.86098844 72.16495004 -180.34375 64.43359375 C-166.39100468 58.27545155 -152.42174202 52.15798286 -138.42388916 46.10314941 C-125.7063652 40.60120453 -113.02058521 35.02860405 -100.34375 29.43359375 C-86.39844434 23.2787351 -72.43775592 17.16180466 -58.44604492 11.11322021 C-48.26683767 6.71251177 -38.10908157 2.26568892 -27.97070312 -2.22851562 C-27.00712891 -2.65455078 -26.04355469 -3.08058594 -25.05078125 -3.51953125 C-24.2100708 -3.89239258 -23.36936035 -4.26525391 -22.50317383 -4.64941406 C-14.88261902 -7.88545746 -7.15614287 -3.35235198 0 0 Z " fill="#0CA4E8" transform="translate(289.34375,40.56640625)"/>
<path d="M0 0 C0 72.27 0 144.54 0 219 C-5.881401 217.039533 -11.56873091 215.04004668 -17.265625 212.65625 C-18.03979767 212.33515762 -18.81397034 212.01406525 -19.61160278 211.6832428 C-22.15910758 210.62542869 -24.70459605 209.56285838 -27.25 208.5 C-29.06846708 207.74327589 -30.88699045 206.98668702 -32.70556641 206.23022461 C-47.84235111 199.92697279 -62.9481853 193.55044553 -78.04931641 187.16235352 C-90.89700238 181.72791845 -103.75569932 176.32054631 -116.625 170.9375 C-117.49751404 170.57243347 -118.37002808 170.20736694 -119.26898193 169.83123779 C-128.46870291 165.98213808 -137.67014474 162.13717676 -146.87338257 158.29649353 C-150.80356589 156.6560293 -154.73320788 155.01427082 -158.66278076 153.37234497 C-161.41868907 152.22145608 -164.17539384 151.07249077 -166.93212891 149.92358398 C-175.34864823 146.40995923 -183.73866601 142.86927689 -192 139 C-192 138.34 -192 137.68 -192 137 C-189.5772109 135.1445729 -187.14377181 133.40465769 -184.625 131.6875 C-183.05790647 130.60125126 -181.49152309 129.51397743 -179.92578125 128.42578125 C-179.11189941 127.86197754 -178.29801758 127.29817383 -177.45947266 126.71728516 C-173.5434501 123.98298868 -169.67794211 121.18013275 -165.8125 118.375 C-159.99694336 114.16315724 -154.16901002 109.97007111 -148.32080078 105.80371094 C-143.59388603 102.43255698 -138.8901856 99.02984051 -134.1875 95.625 C-128.31868597 91.37757019 -122.42575593 87.16760248 -116.5 83 C-108.37807304 77.28641731 -100.32506235 71.48052385 -92.28369141 65.65429688 C-88.44120888 62.87081798 -84.5959003 60.09125401 -80.75 57.3125 C-79.99726807 56.76859619 -79.24453613 56.22469238 -78.46899414 55.66430664 C-73.43156592 52.02698958 -68.38092946 48.40877094 -63.32055664 44.8034668 C-58.59364258 41.4325072 -53.89009337 38.02977374 -49.1875 34.625 C-43.31868697 30.37757091 -37.42580553 26.16753122 -31.5 22 C-25.36640529 17.68614417 -19.26576612 13.3289981 -13.1875 8.9375 C-12.42824219 8.38900391 -11.66898438 7.84050781 -10.88671875 7.27539062 C-6.82894883 4.34199922 -6.82894883 4.34199922 -2.8293457 1.33032227 C-1 0 -1 0 0 0 Z " fill="#F6FBFD" transform="translate(264,275)"/>
<path d="M0 0 C2.38256709 44.46542204 2.38256709 44.46542204 -9.1796875 58.3203125 C-12 61 -12 61 -14 61 C-14.33 62.65 -14.66 64.3 -15 66 C-15.66 66 -16.32 66 -17 66 C-17 66.99 -17 67.98 -17 69 C-17.66 69 -18.32 69 -19 69 C-19.33 70.65 -19.66 72.3 -20 74 C-20.66 74 -21.32 74 -22 74 C-22 74.99 -22 75.98 -22 77 C-22.66 77 -23.32 77 -24 77 C-24.08894531 77.98033203 -24.08894531 77.98033203 -24.1796875 78.98046875 C-25.35263834 83.29804494 -27.68586689 86.59329863 -30.125 90.3125 C-31.20784595 91.99426738 -32.28983358 93.67658764 -33.37109375 95.359375 C-33.9522998 96.25978516 -34.53350586 97.16019531 -35.13232422 98.08789062 C-38.52921583 103.38437731 -41.85531965 108.72515989 -45.1875 114.0625 C-45.8470166 115.11542236 -46.5065332 116.16834473 -47.18603516 117.25317383 C-48.10521729 118.72306763 -48.10521729 118.72306763 -49.04296875 120.22265625 C-49.58977295 121.09672119 -50.13657715 121.97078613 -50.69995117 122.87133789 C-52.00833477 124.94623033 -52.00833477 124.94623033 -53 127 C-53.66 127 -54.32 127 -55 127 C-55 127.99 -55 128.98 -55 130 C-55.66 130 -56.32 130 -57 130 C-57.09410156 130.70511719 -57.18820312 131.41023437 -57.28515625 132.13671875 C-58.13093037 135.52443697 -59.55013993 137.88140234 -61.4375 140.8125 C-62.05496094 141.78832031 -62.67242187 142.76414062 -63.30859375 143.76953125 C-63.86675781 144.50558594 -64.42492187 145.24164063 -65 146 C-65.66 146 -66.32 146 -67 146 C-67.185625 147.1446875 -67.185625 147.1446875 -67.375 148.3125 C-68 151 -68 151 -70 154 C-70.66 154 -71.32 154 -72 154 C-72.33 155.65 -72.66 157.3 -73 159 C-73.66 159 -74.32 159 -75 159 C-75 159.99 -75 160.98 -75 162 C-75.66 162 -76.32 162 -77 162 C-77.06832031 162.67289063 -77.13664063 163.34578125 -77.20703125 164.0390625 C-78.26873624 168.00345849 -80.40887117 171.02201853 -82.6875 174.375 C-87.31143529 181.34211971 -91.73625622 188.40680894 -96.0625 195.5625 C-97.2459829 197.51308809 -98.42957519 199.46360982 -99.61328125 201.4140625 C-101.26456106 204.13706169 -102.91546472 206.86027794 -104.56396484 209.58496094 C-105.95211136 211.87363828 -107.34949798 214.15636941 -108.75 216.4375 C-109.15613525 217.11176025 -109.56227051 217.78602051 -109.98071289 218.48071289 C-110.93254687 220.02221862 -111.9586094 221.51752454 -113 223 C-113.66 223 -114.32 223 -115 223 C-115.09796875 223.72703125 -115.1959375 224.4540625 -115.296875 225.203125 C-116.09324731 228.37091708 -117.29482212 230.14876334 -119.25 232.75 C-122.5759379 237.3171642 -125.379324 242.00018495 -128 247 C-128.66 247 -129.32 247 -130 247 C-130.185625 248.1446875 -130.185625 248.1446875 -130.375 249.3125 C-131 252 -131 252 -133 255 C-133.66 255 -134.32 255 -135 255 C-135.33 256.65 -135.66 258.3 -136 260 C-136.66 260 -137.32 260 -138 260 C-138.1131958 260.56823486 -138.2263916 261.13646973 -138.34301758 261.72192383 C-139.07741097 264.26842132 -140.14106278 266.18226293 -141.51171875 268.44921875 C-142.02283203 269.29806641 -142.53394531 270.14691406 -143.06054688 271.02148438 C-143.59744141 271.90126953 -144.13433594 272.78105469 -144.6875 273.6875 C-145.20505859 274.54794922 -145.72261719 275.40839844 -146.25585938 276.29492188 C-148.76407078 280.43987397 -151.32740872 284.52919638 -154.03515625 288.546875 C-157.1144347 293.11922847 -159.94193257 297.82019447 -162.75 302.5625 C-166.68022286 309.14213073 -170.61271993 315.71999185 -174.625 322.25 C-175.0384668 322.93521729 -175.45193359 323.62043457 -175.87792969 324.32641602 C-176.86365776 325.91962284 -177.92447354 327.46598219 -179 329 C-179.66 329 -180.32 329 -181 329 C-181 329.99 -181 330.98 -181 332 C-181.66 332 -182.32 332 -183 332 C-183 332.99 -183 333.98 -183 335 C-188.37324605 337.28319312 -193.74843075 339.56173514 -199.12548828 341.8359375 C-200.95546008 342.61069381 -202.78488988 343.38673159 -204.61376953 344.1640625 C-207.23850252 345.27939619 -209.86513278 346.39014798 -212.4921875 347.5 C-213.31306854 347.84998047 -214.13394958 348.19996094 -214.97970581 348.56054688 C-220.77225659 351 -220.77225659 351 -223 351 C-223.13954323 342.68061837 -223.24589278 334.36173251 -223.31087303 326.04146671 C-223.34207416 322.17720516 -223.38433622 318.31374918 -223.45263672 314.44995117 C-223.51823773 310.71512982 -223.55379024 306.98107902 -223.56926346 303.24572563 C-223.58027767 301.82679565 -223.6017857 300.40790382 -223.63438034 298.9893055 C-223.8138395 290.84874956 -223.49133735 285.05868296 -218.48721313 278.43797302 C-217 277 -217 277 -215 277 C-214.87705566 276.41226807 -214.75411133 275.82453613 -214.62744141 275.21899414 C-213.9964281 272.98736769 -213.20179684 271.44350089 -211.9609375 269.49609375 C-211.3421875 268.51576172 -211.3421875 268.51576172 -210.7109375 267.515625 C-210.27007812 266.82984375 -209.82921875 266.1440625 -209.375 265.4375 C-208.92640625 264.73238281 -208.4778125 264.02726562 -208.015625 263.30078125 C-207.10828758 261.8749653 -206.19912316 260.45031025 -205.28808594 259.02685547 C-204.12464858 257.1961396 -202.98264665 255.35472221 -201.8515625 253.50390625 C-201.24054688 252.51261719 -200.62953125 251.52132812 -200 250.5 C-199.46375 249.6234375 -198.9275 248.746875 -198.375 247.84375 C-197.92125 247.2353125 -197.4675 246.626875 -197 246 C-196.34 246 -195.68 246 -195 246 C-194.90630127 245.45649902 -194.81260254 244.91299805 -194.71606445 244.35302734 C-193.78978372 241.3092177 -192.27188598 239.02279297 -190.54296875 236.3515625 C-189.84236328 235.26359375 -189.14175781 234.175625 -188.41992188 233.0546875 C-187.67587015 231.91140047 -186.93172881 230.76817176 -186.1875 229.625 C-185.45457976 228.48990497 -184.72215286 227.35449123 -183.99023438 226.21875 C-182.00165263 223.14035997 -180.00748319 220.06609582 -178 217 C-177.30173096 215.88802246 -176.60346191 214.77604492 -175.8840332 213.63037109 C-175.26230225 212.76234863 -174.64057129 211.89432617 -174 211 C-173.34 211 -172.68 211 -172 211 C-171.87633057 210.41154297 -171.75266113 209.82308594 -171.62524414 209.21679688 C-171.00081701 207.00289671 -170.22106193 205.46595435 -168.99609375 203.53125 C-168.5889917 202.88349609 -168.18188965 202.23574219 -167.76245117 201.56835938 C-167.32521729 200.88580078 -166.8879834 200.20324219 -166.4375 199.5 C-165.98930908 198.79166016 -165.54111816 198.08332031 -165.0793457 197.35351562 C-161.71712008 192.06175303 -158.26594394 186.83418376 -154.75390625 181.640625 C-153.14126031 179.212677 -151.62366895 176.74923801 -150.125 174.25 C-149.42375 173.1775 -148.7225 172.105 -148 171 C-147.34 171 -146.68 171 -146 171 C-145.87431641 170.21882813 -145.87431641 170.21882813 -145.74609375 169.421875 C-144.70826677 166.05301257 -142.90854286 163.22327257 -141.0625 160.25 C-140.52206055 159.34701172 -140.52206055 159.34701172 -139.97070312 158.42578125 C-139.03920867 156.91274606 -138.02538164 155.45105131 -137 154 C-136.34 154 -135.68 154 -135 154 C-134.89365234 153.43716309 -134.78730469 152.87432617 -134.67773438 152.29443359 C-133.88195713 149.60037214 -132.67998118 147.64915904 -131.15625 145.2890625 C-130.57327148 144.37979004 -129.99029297 143.47051758 -129.38964844 142.53369141 C-128.45427246 141.09388916 -128.45427246 141.09388916 -127.5 139.625 C-126.86868164 138.6457959 -126.23736328 137.6665918 -125.58691406 136.65771484 C-124.31818935 134.68992993 -123.04770301 132.72327963 -121.77539062 130.7578125 C-120.21166583 128.32879224 -118.66928872 125.88867134 -117.140625 123.4375 C-116.73005859 122.78313965 -116.31949219 122.1287793 -115.89648438 121.45458984 C-114.81867166 119.73458803 -113.74512674 118.01191397 -112.671875 116.2890625 C-112.12015625 115.53367187 -111.5684375 114.77828125 -111 114 C-110.34 114 -109.68 114 -109 114 C-109 113.01 -109 112.02 -109 111 C-108.34 111 -107.68 111 -107 111 C-106.896875 110.443125 -106.79375 109.88625 -106.6875 109.3125 C-105.85821592 106.5230899 -104.65700944 104.3860936 -103 102 C-102.34 102 -101.68 102 -101 102 C-100.92265625 101.484375 -100.8453125 100.96875 -100.765625 100.4375 C-99.66890336 96.94589642 -97.71170256 94.05759195 -95.75 91 C-95.1003125 89.97712891 -95.1003125 89.97712891 -94.4375 88.93359375 C-93.4852283 87.43831319 -92.53000241 85.94491104 -91.57226562 84.453125 C-89.87703893 81.80815017 -88.19663429 79.15403011 -86.515625 76.5 C-85.34456914 74.66614333 -84.17270514 72.83280244 -83 71 C-82.43635742 70.10925781 -81.87271484 69.21851563 -81.29199219 68.30078125 C-80.49776855 67.06908203 -80.49776855 67.06908203 -79.6875 65.8125 C-79.21699219 65.07644531 -78.74648438 64.34039062 -78.26171875 63.58203125 C-77.84535156 63.05996094 -77.42898438 62.53789062 -77 62 C-76.34 62 -75.68 62 -75 62 C-74.87923096 61.41589355 -74.75846191 60.83178711 -74.6340332 60.22998047 C-73.9816934 57.93561323 -73.13034944 56.32721122 -71.85546875 54.3203125 C-71.21061523 53.29744141 -71.21061523 53.29744141 -70.55273438 52.25390625 C-70.10220703 51.55136719 -69.65167969 50.84882813 -69.1875 50.125 C-68.74857422 49.43019531 -68.30964844 48.73539063 -67.85742188 48.01953125 C-66.99153674 46.65315679 -66.12039696 45.29009597 -65.24365234 43.93066406 C-64.43711248 42.6785798 -63.63993382 41.42039625 -62.85400391 40.15527344 C-61.95497853 38.73567193 -60.98413016 37.36198491 -60 36 C-59.34 36 -58.68 36 -58 36 C-57.88785156 35.43152344 -57.77570313 34.86304688 -57.66015625 34.27734375 C-56.91586772 31.70976854 -55.87176497 29.81746154 -54.4375 27.5625 C-53.98246094 26.82128906 -53.52742187 26.08007812 -53.05859375 25.31640625 C-48.27736532 19.9363902 -41.34752281 17.06282361 -34.80859375 14.3359375 C-34.05965347 14.01718658 -33.3107132 13.69843567 -32.53907776 13.37002563 C-30.17451645 12.36533398 -27.80615893 11.36998677 -25.4375 10.375 C-23.84674082 9.70114462 -22.25624376 9.02667014 -20.66601562 8.3515625 C-17.08831529 6.83383787 -13.50800352 5.32246652 -9.92550659 3.81610107 C-7.96469747 2.98503748 -6.01192956 2.13661132 -4.05883789 1.28759766 C-1 0 -1 0 0 0 Z " fill="#BFFAF4" transform="translate(504,143)"/>
<path d="M0 0 C4.67059196 1.75147198 9.08096196 3.41618499 13.5625 5.5 C14.50480469 5.933125 15.44710937 6.36625 16.41796875 6.8125 C17.27003906 7.204375 18.12210938 7.59625 19 8 C23.34546929 9.93131969 27.73485144 11.64869894 32.1875 13.3125 C37.77324245 15.4400958 43.05504473 17.93628759 48.37109375 20.66015625 C52.44778618 22.73787617 56.60502166 24.47971078 60.890625 26.078125 C67.60343834 28.59145322 73.99207976 31.3916393 80.37109375 34.66015625 C84.44778618 36.73787617 88.60502166 38.47971078 92.890625 40.078125 C99.60343834 42.59145322 105.99207976 45.3916393 112.37109375 48.66015625 C116.44778618 50.73787617 120.60502166 52.47971078 124.890625 54.078125 C131.59397756 56.58791103 137.9755372 59.38053883 144.34375 62.6484375 C149.41627977 65.22946 154.56978556 67.27822469 160 69 C160 69.66 160 70.32 160 71 C158.07463743 72.52605104 156.14827147 73.92579092 154.125 75.3125 C152.83024578 76.21805926 151.53599912 77.12434453 150.2421875 78.03125 C149.55092773 78.51335937 148.85966797 78.99546875 148.14746094 79.4921875 C144.48803284 82.0616086 140.87070634 84.6889369 137.25 87.3125 C135.71235088 88.42463307 134.17458932 89.53661068 132.63671875 90.6484375 C131.48502197 91.48133301 131.48502197 91.48133301 130.31005859 92.33105469 C128.04819171 93.96518299 125.78423692 95.5963713 123.51953125 97.2265625 C115.73015904 102.83648065 107.9702303 108.48272122 100.25 114.1875 C93.73277127 119.00286929 87.17886685 123.75864473 80.57421875 128.453125 C74.12474489 133.03990213 67.72292607 137.69333353 61.31005859 142.33105469 C59.04819171 143.96518299 56.78423692 145.5963713 54.51953125 147.2265625 C46.81468668 152.77550306 39.13743715 158.35856927 31.5 164 C25.03610271 168.77106729 18.5626451 173.52839623 12.0625 178.25 C11.31097656 178.79914063 10.55945312 179.34828125 9.78515625 179.9140625 C9.08390625 180.42195312 8.38265625 180.92984375 7.66015625 181.453125 C7.04793213 181.89817383 6.43570801 182.34322266 5.80493164 182.80175781 C4 184 4 184 0 186 C0 124.62 0 63.24 0 0 Z " fill="#0CA4E8" transform="translate(41,143)"/>
<path d="M0 0 C0.33 0 0.66 0 1 0 C1 60.72 1 121.44 1 184 C-19.47170998 192.77358999 -39.93640801 201.52367314 -60.5078125 210.0546875 C-69.89395974 213.95163438 -79.27085431 217.8705695 -88.64550781 221.79507446 C-91.35715161 222.93002958 -94.0691827 224.06405538 -96.78125 225.19799805 C-105.88791967 229.00771176 -114.98555536 232.8375267 -124.0703125 236.69921875 C-126.70346035 237.8163077 -129.33673781 238.93309065 -131.97003174 240.04983521 C-134.45226567 241.10471426 -136.93195353 242.16542385 -139.41162109 243.22631836 C-140.90971133 243.86209783 -142.40791442 244.49761146 -143.90625 245.1328125 C-144.92490646 245.57200264 -144.92490646 245.57200264 -145.96414185 246.02006531 C-148.82294181 247.22574276 -150.86159774 248 -154 248 C-152.622517 244.27848962 -150.92153949 241.03832616 -148.83203125 237.66796875 C-148.19386475 236.63462402 -147.55569824 235.6012793 -146.89819336 234.53662109 C-146.20991455 233.43141113 -145.52163574 232.32620117 -144.8125 231.1875 C-144.09028625 230.02182671 -143.36836697 228.85597093 -142.64672852 227.68994141 C-140.43706098 224.12293941 -138.21935646 220.56097925 -136 217 C-135.34676758 215.95118652 -134.69353516 214.90237305 -134.02050781 213.82177734 C-130.30815517 207.86530464 -126.58562242 201.91525536 -122.85888672 195.96777344 C-119.73535596 190.98095443 -116.61800825 185.99027306 -113.5 181 C-112.25002926 178.99998172 -111.00002926 176.99998171 -109.75 175 C-109.13125 174.01 -108.5125 173.02 -107.875 172 C-102.25 163 -102.25 163 -100.37524414 160.00048828 C-99.12431331 157.99893381 -97.87349965 155.99730611 -96.62280273 153.99560547 C-93.51299731 149.01878404 -90.40121669 144.04322032 -87.28515625 139.0703125 C-80.75014935 128.63608768 -74.25404372 118.17972182 -67.8125 107.6875 C-62.76239371 99.4627995 -57.67294414 91.26653639 -52.50488281 83.11547852 C-43.74612422 69.30052747 -35.1015428 55.41328423 -26.5 41.5 C-21.67664101 33.70212365 -16.8463862 25.90858996 -12 18.125 C-11.37673828 17.12017578 -10.75347656 16.11535156 -10.11132812 15.08007812 C-6.89853174 9.92774343 -3.6685094 4.84189292 0 0 Z " fill="#F6FBFD" transform="translate(503,217)"/>
<path d="M0 0 C4.09941776 1.22857168 7.94631597 2.91681405 11.85839844 4.64257812 C12.71459778 5.01612427 13.57079712 5.38967041 14.45294189 5.77453613 C16.25595007 6.56235201 18.05791246 7.35256509 19.85888672 8.14501953 C22.62581007 9.36211402 25.39609026 10.57129163 28.16699219 11.77929688 C29.91849627 12.54576252 31.66980531 13.31267405 33.42089844 14.08007812 C34.25312927 14.44363403 35.08536011 14.80718994 35.94281006 15.1817627 C41.75784788 17.74515257 41.75784788 17.74515257 42.87402344 18.86132812 C43.73536228 24.38138661 44.63164756 30.40149533 41.24121094 35.14648438 C38.56558861 37.28244728 35.78520258 39.05785092 32.87402344 40.86132812 C30.90312579 42.229473 28.95463836 43.62657587 27.00488281 45.0246582 C24.82442014 46.58430858 22.63034621 48.12299663 20.43261719 49.65820312 C15.90393966 52.83070434 11.41537291 56.05648282 6.93652344 59.29882812 C6.19152588 59.83781738 5.44652832 60.37680664 4.67895508 60.93212891 C2.41009139 62.57443321 0.14193148 64.21770444 -2.12597656 65.86132812 C-11.62364458 72.7445843 -21.14029689 79.59516895 -30.73388672 86.34423828 C-38.91783728 92.10947337 -47.02026757 97.98686806 -55.12597656 103.86132812 C-64.62364458 110.7445843 -74.14029689 117.59516895 -83.73388672 124.34423828 C-91.14944714 129.56817614 -98.49690838 134.88507401 -105.84228516 140.20703125 C-109.68476768 142.99051014 -113.53007627 145.77007412 -117.37597656 148.54882812 C-118.1287085 149.09273193 -118.88144043 149.63663574 -119.65698242 150.19702148 C-124.68977581 153.83099193 -129.73422612 157.44809147 -134.79223633 161.046875 C-138.86558858 163.9487942 -142.91177926 166.88648926 -146.9519043 169.83447266 C-149.26617708 171.51449162 -151.5928459 173.17587917 -153.92285156 174.83398438 C-156.4501102 176.63361346 -158.91564289 178.47089008 -161.32910156 180.41992188 C-163.98371265 182.4260494 -165.9767713 183.80764136 -169.12597656 184.86132812 C-172.02661133 183.99951172 -172.02661133 183.99951172 -174.94238281 182.50976562 C-175.91763916 182.02427246 -176.89289551 181.5387793 -177.89770508 181.03857422 C-179.00069946 180.4558374 -179.00069946 180.4558374 -180.12597656 179.86132812 C-180.58608962 172.8387787 -180.89895654 165.82014844 -181.11474609 158.78588867 C-181.20474425 156.39964729 -181.32721264 154.01438446 -181.48388672 151.6315918 C-182.71405905 132.42723485 -182.71405905 132.42723485 -178.45825195 126.56350708 C-174.25584046 122.52606679 -169.43806201 119.70760287 -164.29559326 117.02371216 C-161.55717775 115.55659105 -159.15140677 113.78835468 -156.70410156 111.88085938 C-155.97698975 111.34259521 -155.24987793 110.80433105 -154.50073242 110.24975586 C-153.79956299 109.72969971 -153.09839355 109.20964355 -152.37597656 108.67382812 C-145.85814752 103.85624438 -139.30147538 99.10108571 -132.69628906 94.40429688 C-122.18372334 86.92704942 -111.75129442 79.34013944 -101.37597656 71.67382812 C-94.85873358 66.85847756 -88.30484382 62.10268368 -81.70019531 57.40820312 C-75.25072145 52.821426 -68.84890263 48.1679946 -62.43603516 43.53027344 C-60.17416827 41.89614513 -57.91021348 40.26495683 -55.64550781 38.63476562 C-47.14711552 32.51432111 -38.69027594 26.34161719 -30.2668457 20.1184082 C-24.57562351 15.91815079 -18.86006204 11.75287002 -13.12597656 7.61132812 C-12.36607422 7.0621875 -11.60617188 6.51304687 -10.82324219 5.94726562 C-2.36048971 -0.15396855 -2.36048971 -0.15396855 0 0 Z " fill="#F6FBFD" transform="translate(221.1259765625,221.138671875)"/>
<path d="M0 0 C0.99 0.495 0.99 0.495 2 1 C1.37798706 1.87072144 1.37798706 1.87072144 0.7434082 2.7590332 C-3.9865125 9.44039984 -8.43148739 16.27368959 -12.8125 23.1875 C-17.83401907 31.08336569 -22.87973757 38.95283849 -28.16918945 46.67260742 C-29.83206904 49.12168212 -31.0567528 51.1702584 -32 54 C-32.66 54 -33.32 54 -34 54 C-34.35771484 55.02867187 -34.35771484 55.02867187 -34.72265625 56.078125 C-36.25441077 59.5819549 -38.28152655 62.61222557 -40.4375 65.75 C-41.34999534 67.09825707 -42.26141592 68.44724203 -43.171875 69.796875 C-43.64173828 70.49232422 -44.11160156 71.18777344 -44.59570312 71.90429688 C-46.83330054 75.24357647 -49.0113061 78.62050363 -51.1875 82 C-55.56275136 88.78435399 -59.96239359 95.55238025 -64.375 102.3125 C-69.09021021 109.53721749 -73.80048273 116.76506416 -78.5 124 C-86.2889066 135.9895577 -94.10324139 147.96251114 -101.91601562 159.93652344 C-108.53332977 170.07879093 -115.14854352 180.22240161 -121.75 190.375 C-122.27658203 191.18404785 -122.80316406 191.9930957 -123.34570312 192.82666016 C-125.96095754 196.84806163 -128.56455574 200.8763269 -131.1484375 204.91796875 C-131.90108887 206.09190186 -131.90108887 206.09190186 -132.66894531 207.28955078 C-133.61163268 208.76111674 -134.55128887 210.23463073 -135.48730469 211.71044922 C-137.48189057 214.82037808 -139.37212341 217.37212341 -142 220 C-142 167.86 -142 115.72 -142 62 C-128.47 56.06 -114.94 50.12 -101 44 C-92.8988698 40.440435 -92.8988698 40.440435 -84.79785156 36.88061523 C-65.66582148 28.47435195 -46.52320777 20.09254321 -27.35606384 11.76661682 C-22.88677729 9.8242441 -18.42388127 7.86812795 -13.96484375 5.90234375 C-12.03913511 5.05972986 -10.11336134 4.21726481 -8.1875 3.375 C-6.93404785 2.81607056 -6.93404785 2.81607056 -5.65527344 2.24584961 C-3.79508147 1.43734409 -1.90066844 0.70813476 0 0 Z " fill="#0CA4E7" transform="translate(423,178)"/>
<path d="M0 0 C5.92897669 2.7307735 11.90801464 5.34870675 17.88308716 7.97671509 C20.10999312 8.95620908 22.33619509 9.93728803 24.56225586 10.91870117 C35.66834946 15.81297039 46.79320214 20.6632726 57.92871094 25.49023438 C61.38738585 26.99189596 64.84144707 28.50400454 68.29492188 30.01757812 C74.31116669 32.65317882 80.33330425 35.27502568 86.35742188 37.89257812 C88.34571773 38.75712786 90.33399802 39.62171342 92.32226562 40.48632812 C96.01986159 42.09421472 99.71779193 43.70132325 103.41650391 45.30664062 C123.73157437 54.12484992 144.00435414 63.03213736 164.23208618 72.04901123 C177.52308329 77.97303428 190.83715156 83.83627005 204.21508789 89.56152344 C207.24903326 90.86430507 210.27494432 92.18278142 213.29492188 93.51757812 C214.5254126 94.05511719 214.5254126 94.05511719 215.78076172 94.60351562 C220.94582506 96.98899129 220.94582506 96.98899129 222.48814201 99.32429886 C223.4217779 101.86244381 223.54113408 103.81299109 223.53543091 106.51629639 C223.5395549 108.02647087 223.5395549 108.02647087 223.54376221 109.56715393 C223.53657166 110.66551071 223.5293811 111.76386749 223.52197266 112.89550781 C223.52226471 114.05676682 223.52255676 115.21802582 223.52285767 116.41447449 C223.52146335 120.25620981 223.50589707 124.09775165 223.49023438 127.93945312 C223.48650461 130.60174895 223.48355909 133.26403403 223.48165894 135.92633057 C223.47544466 142.21964813 223.45903458 148.51289615 223.43895996 154.8061831 C223.4165993 161.97178873 223.40560711 169.1373977 223.39556909 176.30302954 C223.37466829 191.04124796 223.33949334 205.77941183 223.29492188 220.51757812 C222.96492188 220.51757812 222.63492187 220.51757812 222.29492188 220.51757812 C222.29437711 219.91404668 222.29383234 219.31051523 222.29327106 218.68869495 C222.27829975 203.99924119 222.23583886 189.31004452 222.16283131 174.62077045 C222.12818708 167.51708357 222.10282656 160.41359062 222.09936523 153.30981445 C222.09599964 146.4561389 222.06670468 139.60296669 222.0214901 132.74944115 C222.00848559 130.13277208 222.00421778 127.51604473 222.00876808 124.89934731 C222.01365267 121.23810577 221.98767308 117.5783014 221.9543457 113.91723633 C221.96297134 112.83182556 221.97159698 111.74641479 221.98048401 110.62811279 C221.91102459 104.58471537 221.91102459 104.58471537 218.97227478 99.42025757 C215.72294786 97.11110082 212.38046429 95.46169152 208.71679688 93.94335938 C207.97014771 93.62222672 207.22349854 93.30109406 206.45422363 92.9702301 C203.98897284 91.91257685 201.51703833 90.87156999 199.04492188 89.83007812 C197.29792981 89.08353298 195.55152044 88.33562298 193.80566406 87.58642578 C191.07694917 86.41580839 188.3478236 85.24624514 185.61676025 84.08111572 C176.74772694 80.29686275 167.92336586 76.41407564 159.10189819 72.52053833 C139.89243822 64.04665992 120.61117907 55.74470244 101.29492188 47.51757812 C101.29492188 46.85757813 101.29492188 46.19757813 101.29492188 45.51757812 C100.42262939 45.40019287 99.55033691 45.28280762 98.65161133 45.16186523 C95.3308129 44.52446709 92.67537145 43.56896152 89.58789062 42.20898438 C88.46584229 41.71881836 87.34379395 41.22865234 86.18774414 40.72363281 C84.95259492 40.17587549 83.71748903 39.62802047 82.48242188 39.08007812 C81.16490414 38.50165873 79.84710596 37.92387779 78.52905273 37.34667969 C75.65533756 36.0867302 72.78353583 34.82254646 69.91308594 33.55517578 C65.13465496 31.44561856 60.35183506 29.34613518 55.56835938 27.24804688 C50.43533321 24.99620164 45.30253053 22.74385758 40.17114258 20.48828125 C27.67983324 14.99795321 15.17847832 9.53099404 2.66992188 4.08007812 C1.83695587 3.71700562 1.00398987 3.35393311 0.14578247 2.9798584 C-2.21321744 1.95174275 -4.57238295 0.92400837 -6.93164062 -0.10351562 C-7.61836349 -0.40271408 -8.30508636 -0.70191254 -9.01261902 -1.01017761 C-10.29479852 -1.56827661 -11.57761067 -2.12492512 -12.86114502 -2.67990112 C-14.11574955 -3.22593295 -15.36692213 -3.77990374 -16.6149292 -4.34085083 C-22.23057346 -6.83528216 -26.43037964 -7.54539348 -32.27734375 -5.64746094 C-41.58800778 -2.03074425 -50.70866365 1.97461025 -59.82989502 6.04153442 C-64.6029267 8.1693729 -69.38084387 10.28619695 -74.15820312 12.40429688 C-75.13016632 12.83552353 -76.10212952 13.26675018 -77.10354614 13.71104431 C-86.49476829 17.87468838 -95.90927261 21.98390773 -105.33007812 26.08007812 C-118.63317988 31.86674294 -131.92427066 37.67992431 -145.20507812 43.51757812 C-158.5286117 49.37355583 -171.86119248 55.20812613 -185.20507812 61.01757812 C-195.26985027 65.39971278 -205.33186345 69.78795554 -215.38476562 74.19726562 C-216.27338287 74.58701065 -217.16200012 74.97675568 -218.07754517 75.37831116 C-222.47667611 77.30864315 -226.87445341 79.24198349 -231.27001953 81.18041992 C-238.74002639 84.47302393 -246.21384556 87.74878763 -253.73632812 90.91992188 C-254.91146973 91.42023926 -256.08661133 91.92055664 -257.29736328 92.43603516 C-259.40613604 93.33154999 -261.5200534 94.21509752 -263.64013672 95.08349609 C-264.54586426 95.47037598 -265.4515918 95.85725586 -266.38476562 96.25585938 C-267.15546387 96.57594971 -267.92616211 96.89604004 -268.72021484 97.22583008 C-271.53034685 99.05466261 -272.30839323 100.41697097 -273.70507812 103.51757812 C-274.1550271 107.19119524 -274.11384243 110.84585447 -274.09275818 114.54304504 C-274.09814372 115.66873309 -274.10352925 116.79442114 -274.10907799 117.95422095 C-274.12340989 121.73432096 -274.11624069 125.51407338 -274.10913086 129.29418945 C-274.11318752 132.00113333 -274.12169407 134.70805933 -274.12992859 137.41499329 C-274.14712933 144.0097405 -274.14795383 150.60439249 -274.14271569 157.19915632 C-274.13867445 162.56034406 -274.14011699 167.92150365 -274.14546394 173.28269005 C-274.14621237 174.04570252 -274.14696079 174.80871499 -274.14773189 175.59484905 C-274.14926337 177.14492753 -274.15080172 178.69500601 -274.15234686 180.24508449 C-274.16607697 194.78392745 -274.16063104 209.32271661 -274.14916164 223.86155834 C-274.13923279 237.15753443 -274.15216297 250.45337129 -274.17609584 263.74932591 C-274.20049006 277.40460717 -274.21009367 291.0598236 -274.20344311 304.71512622 C-274.19995108 312.38028841 -274.20218165 320.04534357 -274.21969414 327.71048927 C-274.23442035 334.23705331 -274.2350464 340.76343499 -274.21762323 347.28999547 C-274.2091132 350.61872345 -274.20913257 353.94685842 -274.22227478 357.27561188 C-274.23544703 360.8877692 -274.22396887 364.49904114 -274.20628357 368.11116028 C-274.21588858 369.15834868 -274.22549358 370.20553708 -274.23538965 371.28445846 C-274.17312447 377.46550667 -273.41171955 382.42353075 -269.70507812 387.51757812 C-266.56879025 390.00047269 -263.33019738 391.84444616 -259.70507812 393.51757812 C-262.70507813 394.51757812 -262.70507813 394.51757812 -264.79101562 393.65429688 C-265.54640625 393.17605469 -266.30179687 392.6978125 -267.08007812 392.20507812 C-267.8303125 391.75519531 -268.58054687 391.3053125 -269.35351562 390.84179688 C-275.20851197 385.05488188 -277.26666096 378.09562022 -277.36913306 370.03095794 C-277.35729733 368.99027734 -277.3454616 367.94959674 -277.33326721 366.87738037 C-277.3403616 365.74600907 -277.34745599 364.61463776 -277.35476536 363.44898248 C-277.37228752 359.67950401 -277.35426869 355.9110645 -277.33618164 352.14160156 C-277.33856529 349.43066609 -277.34841697 346.71976892 -277.35786438 344.0088501 C-277.37619321 337.42407278 -277.36776178 330.83959321 -277.34977616 324.25482532 C-277.33572537 318.90326323 -277.33186266 313.55178172 -277.33521843 308.20020294 C-277.33569587 307.43729048 -277.33617331 306.67437801 -277.33666522 305.88834698 C-277.33769159 304.33834469 -277.33874695 302.78834242 -277.33983099 301.23834017 C-277.34838781 287.54978452 -277.33175362 273.86137231 -277.30200195 260.17285156 C-277.27314433 246.89544659 -277.26609301 233.61824806 -277.28149414 220.34082031 C-277.29825661 205.87001555 -277.30229183 191.39930868 -277.28478378 176.92850137 C-277.28293944 175.38556434 -277.28110471 173.8426273 -277.27927971 172.29969025 C-277.27836762 171.54058996 -277.27745553 170.78148968 -277.2765158 169.99938636 C-277.27091242 164.65303428 -277.27421551 159.30673004 -277.28082466 153.96038055 C-277.28855714 147.44703635 -277.2818078 140.93389531 -277.25664962 134.42059204 C-277.24415473 131.09816607 -277.2401561 127.77631998 -277.24919128 124.45384216 C-277.25785839 120.85217429 -277.24197474 117.25143169 -277.21974182 113.64984131 C-277.22798259 112.60023782 -277.23622336 111.55063434 -277.24471384 110.46922469 C-277.17664818 104.51025209 -276.67854886 101.0580222 -272.70507812 96.51757812 C-270.70751953 95.12475586 -270.70751953 95.12475586 -268.55664062 94.20117188 C-267.73260742 93.83677002 -266.90857422 93.47236816 -266.05957031 93.09692383 C-265.15883789 92.72011475 -264.25810547 92.34330566 -263.33007812 91.95507812 C-262.3674707 91.53508545 -261.40486328 91.11509277 -260.41308594 90.68237305 C-257.18392125 89.27771191 -253.94460276 87.89815883 -250.70507812 86.51757812 C-248.39434759 85.51689922 -246.0844717 84.51424481 -243.77539062 83.50976562 C-240.05653613 81.89317872 -236.33714061 80.27803046 -232.61376953 78.671875 C-223.28874972 74.64894031 -213.99177455 70.56561228 -204.70507812 66.45507812 C-191.20809732 60.48315791 -177.68107747 54.58222022 -164.14257812 48.70507812 C-149.38007358 42.29585987 -134.62679632 35.86658028 -119.89257812 29.39257812 C-119.06143494 29.02747131 -118.23029175 28.6623645 -117.3739624 28.28619385 C-108.79934282 24.51919218 -100.22672369 20.74766406 -91.6558075 16.97224426 C-58.6649914 2.44180325 -58.6649914 2.44180325 -43.45507812 -4.04492188 C-41.89382202 -4.71575806 -41.89382202 -4.71575806 -40.30102539 -5.40014648 C-39.35670654 -5.79983643 -38.4123877 -6.19952637 -37.43945312 -6.61132812 C-36.23627441 -7.12288452 -36.23627441 -7.12288452 -35.00878906 -7.64477539 C-22.5082641 -12.19005953 -11.15645054 -5.21128554 0 0 Z " fill="#F6FCFD" transform="translate(298.705078125,24.482421875)"/>
<path d="M0 0 C7.06526353 2.21884309 13.74497574 4.97458991 20.5 8 C22.72652209 8.98837229 24.95308577 9.97665089 27.1796875 10.96484375 C28.31116211 11.46870605 29.44263672 11.97256836 30.60839844 12.49169922 C35.94088399 14.86314291 41.28275773 17.21313755 46.625 19.5625 C47.65359131 20.0152832 48.68218262 20.46806641 49.74194336 20.93457031 C58.74463491 24.89487704 67.76331931 28.81792472 76.78515625 32.734375 C81.19357392 34.64837826 85.59810855 36.57104291 90 38.5 C96.01626102 41.13556389 102.03838223 43.7574475 108.0625 46.375 C110.05079586 47.23954973 112.03907614 48.10413529 114.02734375 48.96875 C117.72493972 50.5766366 121.42287005 52.18374513 125.12158203 53.7890625 C145.4366525 62.60727179 165.70943227 71.51455923 185.93716431 80.53143311 C199.22816142 86.45545616 212.54222968 92.31869192 225.92016602 98.04394531 C228.95411139 99.34672695 231.98002245 100.66520329 235 102 C236.23049072 102.53753906 236.23049072 102.53753906 237.48583984 103.0859375 C242.65090318 105.47141316 242.65090318 105.47141316 244.19322014 107.80672073 C245.12685602 110.34486568 245.24621221 112.29541297 245.24050903 114.99871826 C245.24463303 116.50889275 245.24463303 116.50889275 245.24884033 118.04957581 C245.2380545 119.69711098 245.2380545 119.69711098 245.22705078 121.37792969 C245.22734283 122.53918869 245.22763489 123.70044769 245.22793579 124.89689636 C245.22654148 128.73863168 245.2109752 132.58017352 245.1953125 136.421875 C245.19158273 139.08417082 245.18863722 141.7464559 245.18673706 144.40875244 C245.18052279 150.70207001 245.1641127 156.99531802 245.14403808 163.28860497 C245.12167743 170.45421061 245.11068524 177.61981957 245.10064721 184.78545141 C245.07974642 199.52366983 245.04457147 214.2618337 245 229 C244.67 229 244.34 229 244 229 C243.99945523 228.39646855 243.99891047 227.79293711 243.99834919 227.17111683 C243.98337787 212.48166306 243.94091699 197.79246639 243.86790943 183.10319233 C243.8332652 175.99950545 243.80790469 168.89601249 243.80444336 161.79223633 C243.80107777 154.93856077 243.77178281 148.08538856 243.72656822 141.23186302 C243.71356371 138.61519395 243.70929591 135.99846661 243.71384621 133.38176918 C243.7187308 129.72052764 243.6927512 126.06072328 243.65942383 122.3996582 C243.66804947 121.31424744 243.67667511 120.22883667 243.68556213 119.11053467 C243.61610272 113.06713725 243.61610272 113.06713725 240.67735291 107.90267944 C237.42802598 105.59352269 234.08554241 103.94411339 230.421875 102.42578125 C229.67522583 102.10464859 228.92857666 101.78351593 228.15930176 101.45265198 C225.69405097 100.39499872 223.22211646 99.35399186 220.75 98.3125 C219.00300794 97.56595485 217.25659856 96.81804485 215.51074219 96.06884766 C212.78202729 94.89823027 210.05290173 93.72866701 207.32183838 92.5635376 C198.45280506 88.77928462 189.62844398 84.89649751 180.80697632 81.00296021 C161.59751635 72.5290818 142.31625719 64.22712431 123 56 C123 55.34 123 54.68 123 54 C121.69156128 53.82392212 121.69156128 53.82392212 120.35668945 53.64428711 C117.03589102 53.00688897 114.38044958 52.05138339 111.29296875 50.69140625 C110.17092041 50.20124023 109.04887207 49.71107422 107.89282227 49.20605469 C106.65767305 48.65829737 105.42256715 48.11044234 104.1875 47.5625 C102.86998227 46.98408061 101.55218409 46.40629967 100.23413086 45.82910156 C97.36041569 44.56915208 94.48861395 43.30496834 91.61816406 42.03759766 C86.83973309 39.92804044 82.05691319 37.82855705 77.2734375 35.73046875 C72.14041133 33.47862352 67.00760865 31.22627946 61.8762207 28.97070312 C49.38491137 23.48037508 36.88355644 18.01341591 24.375 12.5625 C23.542034 12.19942749 22.70906799 11.83635498 21.8508606 11.46228027 C19.49186068 10.43416462 17.13269518 9.40643024 14.7734375 8.37890625 C14.08671463 8.07970779 13.39999176 7.78050934 12.69245911 7.47224426 C8.46788104 5.63339659 4.23640671 3.81143618 0 2 C0 1.34 0 0.68 0 0 Z " fill="#D1D6D7" transform="translate(277,16)"/>
<path d="M0 0 C0 0.33 0 0.66 0 1 C-0.67699951 1.06243896 -1.35399902 1.12487793 -2.05151367 1.18920898 C-10.78195291 2.29024712 -18.16583347 5.35059073 -26.05673218 9.01507568 C-29.19538376 10.47245084 -32.34834925 11.89769387 -35.5002594 13.32611084 C-37.16071763 14.07919869 -38.82040905 14.8339794 -40.47935486 15.59039307 C-48.53743853 19.26215382 -56.6490788 22.80558507 -64.77328491 26.32809448 C-68.85437811 28.09782867 -72.93300288 29.87323271 -77.01171875 31.6484375 C-77.83011734 32.00451584 -78.64851593 32.36059418 -79.49171448 32.72746277 C-88.83760915 36.79598701 -98.16871792 40.89810205 -107.5 45 C-121.62793649 51.20964519 -135.76738024 57.39216251 -149.91699219 63.55224609 C-159.01243032 67.512452 -168.10451172 71.48005951 -177.1875 75.46875 C-178.03786331 75.84216522 -178.88822662 76.21558044 -179.76435852 76.60031128 C-184.03811771 78.47762879 -188.31098393 80.35695223 -192.58276367 82.23876953 C-201.40920774 86.1242854 -210.24933043 89.97419886 -219.11328125 93.7734375 C-221.81094532 94.93386082 -224.5083037 96.09499176 -227.20556641 97.25634766 C-228.92818552 97.99553484 -230.65228698 98.73127811 -232.37792969 99.46337891 C-234.7621747 100.47497599 -237.14121224 101.4980021 -239.51953125 102.5234375 C-240.22169266 102.81745453 -240.92385406 103.11147156 -241.64729309 103.41439819 C-245.50969014 105.0945653 -248.2370011 106.81587487 -251 110 C-252 111 -253 112 -254 113 C-254.33 112.34 -254.66 111.68 -255 111 C-251.80009745 104.85654068 -247.88029666 103.05431775 -241.625 100.4375 C-240.66239258 100.01750732 -239.69978516 99.59751465 -238.70800781 99.16479492 C-235.47884312 97.76013379 -232.23952464 96.38058071 -229 95 C-226.68926947 93.99932109 -224.37939358 92.99666669 -222.0703125 91.9921875 C-218.351458 90.37560059 -214.63206248 88.76045234 -210.90869141 87.15429688 C-201.58367159 83.13136219 -192.28669643 79.04803416 -183 74.9375 C-169.50301919 68.96557978 -155.97599935 63.0646421 -142.4375 57.1875 C-127.67499546 50.77828174 -112.9217182 44.34900215 -98.1875 37.875 C-97.35635681 37.50989319 -96.52521362 37.14478638 -95.66888428 36.76861572 C-87.0942647 33.00161406 -78.52164556 29.23008593 -69.95072937 25.45466614 C-36.95991327 10.92422512 -36.95991327 10.92422512 -21.75 4.4375 C-20.1887439 3.76666382 -20.1887439 3.76666382 -18.59594727 3.08227539 C-17.65162842 2.68258545 -16.70730957 2.28289551 -15.734375 1.87109375 C-14.53119629 1.35953735 -14.53119629 1.35953735 -13.30371094 0.83764648 C-8.49789817 -0.90978289 -5.01336343 -1.04930863 0 0 Z " fill="#E9EFF0" transform="translate(277,16)"/>
<path d="M0 0 C8.91 3.96 8.91 3.96 18 8 C18 8.66 18 9.32 18 10 C13.42111848 8.54884678 9.02350565 6.79418096 4.625 4.875 C3.98433594 4.59785156 3.34367187 4.32070313 2.68359375 4.03515625 C1.12143075 3.35899615 -0.43942315 2.67981293 -2 2 C-1.34 1.34 -0.68 0.68 0 0 Z " fill="#D0D4D5" transform="translate(304,27)"/>
<path d="M0 0 C1 3 1 3 0.25 5.125 C-1 7 -1 7 -4 8 C-2.25 2.25 -2.25 2.25 0 0 Z " fill="#DBE0E1" transform="translate(26,121)"/>
</svg>
