<svg viewBox="0 0 58 64" fill="none" xmlns="http://www.w3.org/2000/svg">
<g clip-path="url(#clip0_10_98)">
<path d="M35.2554 30.2116V13.1211L48.619 20.7697V53.9692L54.0923 50.834C56.5136 49.4515 58.0014 46.8927 58.0014 44.1221V19.8765C58.0014 17.1045 56.5122 14.547 54.0923 13.1646L32.9091 1.03897C31.6999 0.347727 30.3507 0 29 0C27.6494 0 26.3016 0.347727 25.0909 1.03897L22.7446 2.38081V23.0481L29 26.6292L35.2554 30.2102V30.2116Z" fill="white"/>
<path d="M3.9091 50.8355L25.0909 62.961C26.3015 63.6523 27.6494 64 29 64C30.3506 64 31.6985 63.6523 32.9091 62.961L35.254 61.6192V40.9519L28.9986 37.3709L22.7432 33.7898V50.8803L9.37957 43.2317V10.0294L3.90627 13.1646C1.49208 14.5471 0 17.1059 0 19.8765V44.1221C0 46.8941 1.49207 49.4516 3.9091 50.8341V50.8355Z" fill="white"/>
</g>
<defs>
<clipPath id="clip0_10_98">
<rect width="58" height="64" fill="white"/>
</clipPath>
</defs>
</svg>
