<?xml version="1.0" encoding="utf-8"?>
<!DOCTYPE svg PUBLIC "-//W3C//DTD SVG 1.0//EN" "http://www.w3.org/TR/2001/REC-SVG-20010904/DTD/svg10.dtd">
<svg version="1.0" xmlns="http://www.w3.org/2000/svg" width="225px" height="225px" viewBox="0 0 225 225" preserveAspectRatio="xMidYMid meet">
 <g fill="#ffffff">
  <path d="M0 112.50 l0 -112.50 112.50 0 112.50 0 0 112.50 0 112.50 -112.50 0 -112.50 0 0 -112.50z m81.35 25 c5.85 -26.25 10.60 -47.90 10.65 -48.10 0 -0.25 14.65 -0.40 32.55 -0.40 l32.60 0 -0.35 2.90 c-0.45 4.20 -2.10 10.40 -3.65 13.55 -1.90 3.95 -7.05 9 -11.25 11 -6.25 2.95 -10.05 3.65 -21.15 3.90 -7.40 0.15 -11.30 0.05 -15 -0.50 -2.75 -0.45 -5 -0.75 -5.05 -0.70 0 0.05 -1 4.50 -2.15 9.85 -1.15 5.35 -2.20 10.30 -2.40 10.95 l-0.30 1.15 19.95 -0.25 c29.60 -0.40 38.50 -1.90 50.25 -8.45 9.05 -5.10 16.50 -15.75 19.65 -28.15 1.05 -4.10 5.75 -28.85 6.60 -34.75 3.30 -22.70 -4.65 -31.90 -29.75 -34.45 -3.20 -0.35 -22 -0.55 -49.50 -0.55 l-44.30 0 -2.15 10.15 c-3.35 15.75 -8.80 41.50 -12.60 59.35 -1.90 8.95 -5.05 23.90 -7.05 33.25 -1.95 9.35 -5.10 24.05 -6.95 32.65 l-3.30 15.60 17 -0.10 17 -0.15 10.65 -47.75z"/>
 </g>
 <g fill="#000000">
  <path d="M34.85 186.65 c-0.10 -0.25 1.45 -7.95 3.40 -17.15 2 -9.20 5.25 -24.40 7.20 -33.75 2 -9.35 5.15 -24.30 7.05 -33.25 3.80 -17.85 9.25 -43.60 12.60 -59.35 l2.15 -10.15 45.80 0 c28.55 0 47.80 0.20 51 0.55 22.55 2.25 30.65 9.50 30.50 27.20 -0.05 6.55 -0.65 10.70 -4.05 28.50 -3.05 16.15 -3.55 18.15 -5.85 24 -6.50 16.60 -19.30 25.20 -41.65 28.10 -7.30 0.95 -49 1.55 -49 0.75 0 -0.45 4.20 -19.90 5.25 -24.45 0.25 -1 0.35 -1 2.45 -0.40 7 2.10 24.05 2.30 31.45 0.30 6.20 -1.65 10.15 -3.80 13.85 -7.50 3.80 -3.80 5.55 -7.10 7 -13.10 1.65 -6.85 1.60 -6.45 0.55 -6.45 -0.90 0 -0.90 -0.15 -0.30 -2.40 0.35 -1.30 0.90 -3.70 1.25 -5.35 0.60 -3 1.95 -9.15 3.30 -15.25 0.40 -1.80 0.85 -3.80 1 -4.45 l0.25 -1.15 -29.15 0.35 c-16.05 0.20 -29.20 0.45 -29.30 0.50 -0.10 0.10 -0.95 3.60 -1.85 7.85 -0.95 4.20 -1.95 8.65 -2.20 9.90 -0.30 1.25 -0.90 4 -1.40 6.15 -0.65 3.05 -1.05 3.85 -1.75 3.85 -0.50 0 -0.90 0.15 -0.90 0.40 -0.05 0.20 -4.80 21.85 -10.65 48.10 l-10.65 47.75 -18.55 0.15 c-10.25 0.05 -18.70 -0.05 -18.80 -0.25z"/>
 </g>
 <g fill="#e20713">
  <path d="M93.50 90.20 c0 -0.15 0.45 -2.25 1 -4.60 1.70 -7.15 1.90 -8.05 3.50 -15.60 0.85 -4 1.70 -7.60 1.80 -8.05 0.20 -0.75 3.15 -0.85 30.75 -1.20 17.30 -0.20 30.70 -0.20 30.90 0.05 0.40 0.45 -0.30 4.40 -2.45 13.95 -0.60 2.75 -1.30 6 -1.55 7.25 -0.25 1.25 -0.70 3.60 -1.05 5.25 l-0.65 3 -31.10 0.15 c-17.15 0.05 -31.15 0 -31.15 -0.20z"/>
 </g>
</svg>