<?xml version="1.0" encoding="UTF-8"?>
<svg version="1.1" xmlns="http://www.w3.org/2000/svg" width="1280" height="339">
<path d="M0 0 C12.90167833 10.87788565 20.13683358 26.67408729 21.56640625 43.37255859 C21.67700094 46.75211506 21.68736044 50.1150382 21.65234375 53.49609375 C21.66394531 54.61628906 21.67554688 55.73648438 21.6875 56.890625 C21.64943727 67.89075394 19.7871362 78.3815087 14.65234375 88.18359375 C14.30316895 88.85648437 13.95399414 89.529375 13.59423828 90.22265625 C6.61291494 103.16092022 -3.88823895 111.1929697 -17.72265625 115.93359375 C-32.71464631 119.71226228 -48.70490366 118.48869796 -62.12890625 110.578125 C-64.3831674 109.11661236 -66.55876259 107.58768349 -68.72265625 105.99609375 C-69.75390625 105.25359375 -70.78515625 104.51109375 -71.84765625 103.74609375 C-84.67381142 91.4775975 -89.75023756 74.47246131 -90.68359375 57.22265625 C-91.12168234 37.50866949 -86.69848362 18.41708872 -72.91015625 3.68359375 C-53.13561436 -14.98173786 -21.70322936 -15.97382592 0 0 Z M-65.19140625 19.89453125 C-74.01703607 32.00725789 -75.13497906 50.38725033 -73.21875 64.78125 C-70.91764618 77.9172655 -66.19930688 87.89977454 -55.8515625 96.5625 C-47.49424815 102.38308276 -37.69740737 103.6809107 -27.76171875 102.56640625 C-17.69088995 100.67650779 -8.93364306 94.69916196 -3.1015625 86.30859375 C6.12399691 70.83683406 6.90290518 53.25871011 3.27734375 35.99609375 C0.15859341 24.63064778 -5.45229232 15.03818685 -15.6640625 8.8125 C-33.51612883 -0.7249053 -52.55015724 4.55265178 -65.19140625 19.89453125 Z " fill="#233A73" transform="translate(1185.72265625,153.00390625)"/>
<path d="M0 0 C5.28 0 10.56 0 16 0 C16.33 19.47 16.66 38.94 17 59 C21.61394301 54.38605699 25.88100737 50.02896402 30.0859375 45.1328125 C32.30451828 42.66067964 34.63706669 40.33437822 37 38 C39.95183025 35.08373397 42.80388859 32.15394165 45.5 29 C48.9809341 24.92796389 52.77292135 21.21222747 56.58203125 17.44921875 C59.23473757 14.76222866 61.71335791 11.97569392 64.13671875 9.08203125 C64.75160156 8.39496094 65.36648438 7.70789063 66 7 C66.67421997 6.1188855 66.67421997 6.1188855 67.36206055 5.2199707 C69.87675348 2.24128171 71.73443218 0.2710839 75.62719727 -0.56274414 C78.59318294 -0.68768354 81.47439553 -0.61293429 84.4375 -0.4375 C85.45521484 -0.40591797 86.47292969 -0.37433594 87.52148438 -0.34179688 C90.0175176 -0.25976761 92.50668638 -0.13891174 95 0 C90.62139969 6.26322893 85.64854805 11.60422136 80.20703125 16.953125 C79.37918625 17.77576843 78.55134125 18.59841187 77.69841003 19.44598389 C75.07453135 22.05217371 72.44401392 24.65152167 69.8125 27.25 C67.17118394 29.86364949 64.53136999 32.47877297 61.89445496 35.09686279 C60.25896875 36.72014038 58.62081632 38.3407372 56.97969055 39.95831299 C56.23849472 40.69297791 55.49729889 41.42764282 54.73364258 42.18457031 C54.08333572 42.82662415 53.43302887 43.46867798 52.76301575 44.13018799 C50.99552008 46.00475129 49.42581658 47.85304053 48 50 C48.39382499 54.32435288 51.24581112 57.55371109 53.6875 61 C54.17154297 61.69351563 54.65558594 62.38703125 55.15429688 63.1015625 C56.76388849 65.40504885 58.38186798 67.70250676 60 70 C61.1529186 71.6454307 62.30525194 73.29127161 63.45703125 74.9375 C65.23720267 77.48169348 67.01789228 80.02550809 68.80102539 82.56762695 C72.88143082 88.38713008 76.92064264 94.23319139 80.93286133 100.09985352 C84.98394535 106.00966134 89.12467554 111.85507815 93.29345703 117.68237305 C97 122.89211826 97 122.89211826 97 124 C89.69459088 125.33219344 82.1995075 126.21987544 75 124 C68.02691599 119.04254574 64.02035568 110.80874005 59.8125 103.5625 C58.6159776 101.630255 57.4122349 99.70246169 56.20117188 97.77929688 C53.84965804 94.02122073 51.54202804 90.24189411 49.27197266 86.43408203 C46.17064953 81.24558956 42.9366008 76.15388611 39.63671875 71.08984375 C39.16514847 70.36599991 38.69357819 69.64215607 38.2077179 68.89637756 C37.14084298 67.2627052 36.07082832 65.63108374 35 64 C34.56271072 64.38105392 34.12542145 64.76210785 33.67488098 65.15470886 C30.82525216 67.62040228 28.004789 69.99652438 24.9519043 72.2121582 C19.99374637 76.22090908 16.94191078 79.43178963 16.02587891 85.91552734 C15.56472288 91.67582279 15.67801459 97.41595238 15.8125 103.1875 C15.81946892 105.20897331 15.82146507 107.23047019 15.81835938 109.25195312 C15.82152556 114.17011352 15.89213484 119.08306711 16 124 C10.72 124 5.44 124 0 124 C0 83.08 0 42.16 0 0 Z " fill="#233A73" transform="translate(441,144)"/>
<path d="M0 0 C6.43709621 6.33132233 7.21666058 14.08967667 7.32775879 22.71842957 C7.33567444 24.37954521 7.33567444 24.37954521 7.34375 26.07421875 C7.3583728 27.23444046 7.37299561 28.39466217 7.38806152 29.59004211 C7.43440241 33.28915988 7.46866861 36.98822654 7.5 40.6875 C7.54144459 45.54576232 7.59527317 50.40366664 7.65625 55.26171875 C7.66416565 56.90765266 7.66416565 56.90765266 7.67224121 58.58683777 C7.78880207 67.77681252 8.56780621 76.41951552 12 85 C6.39 85 0.78 85 -5 85 C-5.66 82.03 -6.32 79.06 -7 76 C-7.59425781 76.45890625 -8.18851563 76.9178125 -8.80078125 77.390625 C-20.95290945 86.38660171 -32.12238271 88.52765816 -47 87 C-53.80987694 85.66962111 -58.31897576 82.64741294 -62.59375 77.203125 C-67.04957532 70.222332 -68.09744841 62.78384971 -66.56640625 54.71484375 C-64.67945291 47.88196302 -60.89764253 42.67145058 -55.03662109 38.65429688 C-46.99887594 34.32422249 -38.59105804 33.15617218 -29.6875 31.75 C-28.1371214 31.49368545 -26.58698809 31.23588263 -25.03710938 30.9765625 C-22.20282462 30.50340353 -19.36729075 30.03989631 -16.5300293 29.58496094 C-13.67121798 29.11122749 -10.83620956 28.59177388 -8 28 C-8.79941172 18.5014357 -8.79941172 18.5014357 -14 11 C-20.8192228 6.70092476 -29.58070519 6.82308244 -37.3203125 8.50390625 C-41.39464286 10.0472132 -43.73340896 12.3572644 -46 16 C-47.13835963 18.63981673 -48.07536267 21.27231988 -49 24 C-56.425 23.01 -56.425 23.01 -64 22 C-63.38289836 13.36057702 -61.12809393 7.70270238 -54.75 1.6875 C-40.46381768 -10.20214034 -15.18263773 -10.38667816 0 0 Z M-18.07373047 43.29907227 C-21.98594626 44.29020696 -25.89532486 45.20052473 -29.85546875 45.98046875 C-30.65154541 46.1412793 -31.44762207 46.30208984 -32.26782227 46.46777344 C-33.80316911 46.77372966 -35.34143439 47.06549282 -36.88256836 47.34082031 C-42.19922867 48.41703322 -45.17221678 50.11413206 -49 54 C-51.27098188 58.00761508 -51.18893647 61.30329677 -50 65.6875 C-47.1689451 70.37643467 -44.84551126 73.27519996 -39.515625 74.6328125 C-31.94588911 75.63783393 -25.19580355 74.7464759 -18.73828125 70.51953125 C-13.13775916 65.99563448 -10.05779237 61.05487077 -8.25 54.125 C-7.89967257 49.74590708 -7.92191212 45.39027424 -8 41 C-11.2578989 41 -14.90680926 42.48508303 -18.07373047 43.29907227 Z " fill="#233A73" transform="translate(902,183)"/>
<path d="M0 0 C5.7291354 5.57836868 7.3155362 12.61646638 7.46670532 20.33128357 C7.46995819 21.22098343 7.47321106 22.11068329 7.4765625 23.02734375 C7.49214203 23.97452774 7.50772156 24.92171173 7.52377319 25.89759827 C7.57096636 28.91088979 7.59887732 31.92395897 7.625 34.9375 C7.6739274 38.88420317 7.73016836 42.83077756 7.7890625 46.77734375 C7.81000725 48.21399635 7.81000725 48.21399635 7.83137512 49.67967224 C7.93208354 67.64181532 7.93208354 67.64181532 12 85 C6.72 85 1.44 85 -4 85 C-4.99 82.36 -5.98 79.72 -7 77 C-7.92941406 77.55429687 -8.85882812 78.10859375 -9.81640625 78.6796875 C-11.06486499 79.41186631 -12.31357652 80.14361421 -13.5625 80.875 C-14.47612305 81.42220703 -14.47612305 81.42220703 -15.40820312 81.98046875 C-22.60374031 86.16834754 -29.20393908 87.34519881 -37.4375 87.3125 C-38.64889648 87.33666992 -38.64889648 87.33666992 -39.88476562 87.36132812 C-47.94137138 87.36782015 -54.47283292 85.28694521 -60.4609375 79.72265625 C-65.55273642 74.02346 -67.08205344 67.52547251 -67 60 C-66.34970619 51.78139319 -62.3885065 44.56326542 -56.125 39.1875 C-44.99653241 32.15392308 -28.14159367 31.50048864 -15.42504883 29.41723633 C-12.93980196 28.98964276 -10.47050503 28.50533683 -8 28 C-8.28346278 26.08210287 -8.5771028 24.16570817 -8.875 22.25 C-9.03742187 21.18265625 -9.19984375 20.1153125 -9.3671875 19.015625 C-10.11801905 15.43758824 -10.69878362 12.98503296 -13.671875 10.734375 C-21.14912688 7.19251885 -29.23223023 6.73342894 -37.3125 8.5078125 C-41.39394585 10.03835469 -43.73323714 12.35698825 -46 16 C-47.13835963 18.63981673 -48.07536267 21.27231988 -49 24 C-56.425 23.01 -56.425 23.01 -64 22 C-62.66358424 12.64508971 -59.88293538 5.49784962 -52.375 -0.53125 C-37.56739848 -9.68858252 -14.32234383 -10.28577511 0 0 Z M-18.0715332 43.296875 C-21.99690964 44.28909303 -25.92255601 45.20936397 -29.890625 46.015625 C-30.69121338 46.18094727 -31.49180176 46.34626953 -32.31665039 46.51660156 C-33.8655655 46.83241372 -35.41683214 47.13695939 -36.97045898 47.42871094 C-41.58007522 48.37837604 -44.58785349 49.55620093 -48 53 C-50.64547718 57.08919796 -50.89843664 61.27724454 -50 66 C-47.77986397 70.18744518 -45.07283697 72.49513555 -40.8125 74.5 C-31.68899824 75.69652482 -23.60915795 74.38371245 -16 69 C-10.38301487 63.55745541 -8.15700318 57.55309232 -7.890625 49.828125 C-7.87679214 46.88172541 -7.91165216 43.94492787 -8 41 C-11.25755336 41 -14.90423602 42.48521207 -18.0715332 43.296875 Z " fill="#233A73" transform="translate(603,183)"/>
<path d="M0 0 C5.28943981 4.44793802 8.83863916 9.48401 9.8125 16.375 C9.874375 17.57125 9.93625 18.7675 10 20 C8.05909174 21.94090826 4.52706098 21.39919435 1.9375 21.5625 C0.64714844 21.64628906 -0.64320312 21.73007813 -1.97265625 21.81640625 C-2.97167969 21.87699219 -3.97070312 21.93757813 -5 22 C-5.1959375 21.39671875 -5.391875 20.7934375 -5.59375 20.171875 C-7.14822543 16.01767343 -8.49823746 12.72776892 -12.4375 10.4375 C-19.05445956 7.73619441 -27.53284866 7.69518943 -34.1875 10.3125 C-37.21206129 11.85433173 -37.21206129 11.85433173 -39 15 C-39.55527155 19.78761794 -39.55527155 19.78761794 -37.58984375 24.0078125 C-33.80597577 26.91848018 -29.71326634 28.03909356 -25.1875 29.4375 C-24.25276855 29.73897949 -23.31803711 30.04045898 -22.35498047 30.35107422 C-18.79780375 31.49699808 -15.23324792 32.61778335 -11.66357422 33.72412109 C6.56080088 39.37680155 6.56080088 39.37680155 12 49 C14.40346388 56.21039165 14.17870833 65.5772426 11 72.5 C6.68901218 79.74920298 0.63237348 84.73419948 -7.41015625 87.33984375 C-12.30496902 88.23997798 -17.0926102 88.43407204 -22.0625 88.5 C-22.98434082 88.51861084 -23.90618164 88.53722168 -24.85595703 88.55639648 C-34.36770783 88.46915603 -42.29885283 85.57242008 -49.2421875 78.98046875 C-54.67711574 72.85711627 -56.61462983 67.09277353 -57 59 C-51.77487721 57.53329887 -47.4185766 56.77422598 -42 57 C-41.84144531 57.59167969 -41.68289063 58.18335938 -41.51953125 58.79296875 C-39.52437466 65.55004605 -37.14081834 69.14114833 -30.9375 72.8125 C-24.83856205 75.14797952 -17.10454321 75.11486005 -11 72.8125 C-6.66978143 70.19632628 -4.57562914 67.84201325 -3.0625 63 C-2.98224933 59.14796782 -3.41986425 57.88368114 -6 55 C-13.31933956 50.93089551 -21.56376918 48.92634795 -29.56054688 46.64453125 C-39.60151832 43.69953498 -46.81736841 40.73446568 -53 32 C-56.21392417 25.85162332 -56.13614679 17.77306422 -54.16015625 11.2109375 C-50.74115238 3.59012753 -45.54865413 -0.73130045 -37.875 -3.8125 C-25.73228872 -7.82077363 -10.87493809 -7.15064422 0 0 Z " fill="#233A73" transform="translate(1069,182)"/>
<path d="M0 0 C7.09602229 4.95102696 13.09563467 12.10195876 14.8046875 20.74609375 C15.86538653 31.69355536 14.57935573 40.42644995 7.5546875 49.05859375 C1.87495572 55.0788662 -4.9063696 59.16220532 -13.23828125 60.08203125 C-24.47705219 60.22164331 -33.00867083 57.9328828 -41.25 50.03125 C-47.44161194 42.75797091 -49.54515056 34.73516256 -49.40625 25.359375 C-48.71798817 16.83257566 -44.60503542 8.55788814 -38.12109375 2.953125 C-26.50960553 -5.25394783 -12.7017327 -7.25490426 0 0 Z " fill="#233A73" transform="translate(186.1953125,141.25390625)"/>
<path d="M0 0 C6.47794047 5.28942577 10.88799465 12.01520293 12.48828125 20.3046875 C13.38222811 31.06643243 11.53774423 39.89979996 4.5078125 48.26171875 C-2.41756785 55.26747102 -9.6805421 58.23863147 -19.38671875 58.6171875 C-28.46381551 58.38051473 -35.91232994 55.57765492 -42.51171875 49.3046875 C-49.58433182 41.70283128 -52.17968163 33.68465901 -51.8515625 23.35546875 C-50.79691111 13.88785114 -46.76874472 6.47192117 -39.51171875 0.3046875 C-27.03890251 -7.52359656 -12.53369022 -8.45975359 0 0 Z " fill="#233A73" transform="translate(257.51171875,211.6953125)"/>
<path d="M0 0 C6.48091634 5.29185566 9.8704925 11.45132125 12.48828125 19.3046875 C13.39251299 30.70393686 12.14442734 39.15577693 4.86328125 48.1171875 C-1.0677441 54.38079371 -8.26941939 57.75914201 -16.8359375 58.5078125 C-27.67487441 58.72279968 -35.62002903 55.82132662 -43.51171875 48.3046875 C-49.23489804 42.23897379 -51.58896544 34.55115965 -51.88671875 26.3046875 C-51.50928992 16.65760655 -48.32060221 9.17929378 -41.51171875 2.3046875 C-29.32398284 -7.75127128 -13.26847571 -8.95570522 0 0 Z " fill="#233A73" transform="translate(188.51171875,211.6953125)"/>
<path d="M0 0 C8.16897537 6.01853318 12.63858387 12.46241325 14.546875 22.48828125 C15.61357464 31.47717697 13.93788827 39.45645511 8.8515625 47.00390625 C3.55501466 53.47984734 -2.59970543 56.87047473 -10.453125 59.48828125 C-21.85237436 60.39251299 -30.30421443 59.14442734 -39.265625 51.86328125 C-45.20556527 46.24924921 -48.95118023 39.02613093 -49.69140625 30.859375 C-49.92950858 21.44806715 -48.26837435 13.56785835 -42.265625 6.11328125 C-31.32692722 -5.31730658 -13.66284814 -8.41962138 0 0 Z " fill="#233A73" transform="translate(255.453125,141.51171875)"/>
<path d="M0 0 C7.19131773 5.95698707 12.20622737 12.40419627 13.1171875 21.9375 C13.23570167 33.26745497 11.61311365 41.3016346 3.703125 49.66796875 C-3.58529467 56.31939239 -11.47393027 58.95039642 -21.31640625 58.734375 C-29.52613027 57.85042087 -37.4247908 54.35529492 -43.21875 48.421875 C-49.07427675 40.6492827 -52.35990817 32.29379882 -51.21875 22.421875 C-49.36342077 12.80222681 -45.21981757 5.3236861 -37.28125 -0.515625 C-25.7570074 -7.90208317 -11.28527227 -8.02684859 0 0 Z " fill="#233A73" transform="translate(119.21875,211.578125)"/>
<path d="M0 0 C6.55907504 5.76746254 10.31989509 13.82654286 11.35546875 22.41796875 C11.78318532 32.13127419 9.07400271 39.82748219 2.7890625 47.23046875 C-3.97849748 54.25446016 -10.93347393 56.90214635 -20.5859375 57.10546875 C-30.26725154 57.00504018 -37.15413354 54.37269592 -44.20703125 47.71875 C-51.16181707 40.08242615 -53.4121467 32.26951326 -53.203125 22.0390625 C-52.55933206 13.41016037 -49.08487546 6.89397061 -42.9609375 0.79296875 C-29.53881521 -9.43757397 -13.77275408 -9.85506255 0 0 Z " fill="#233A73" transform="translate(258.9609375,75.20703125)"/>
<path d="M0 0 C7.06019829 5.06438252 11.65649664 11.72601909 13.25 20.3125 C14.21076369 29.75407901 13.24523306 37.69543966 7.671875 45.53125 C1.71488793 52.72256773 -4.73232127 57.73747737 -14.265625 58.6484375 C-25.59118952 58.76690575 -33.63877175 57.1488203 -41.99609375 49.23046875 C-48.734878 41.86133051 -51.29510184 33.87107981 -51.06640625 23.9609375 C-50.05351343 15.48264943 -46.36488892 7.18571034 -39.78125 1.66015625 C-27.19458939 -7.40312577 -13.24325164 -8.16852664 0 0 Z " fill="#233A73" transform="translate(187.75,73.6875)"/>
<path d="M0 0 C7.79123998 5.42775978 13.23943949 12.55699364 15 22 C15.87945396 32.31787949 13.78617977 40.46186943 7.7890625 48.92578125 C1.90490924 55.74780173 -6.2698408 59.08050956 -15.05859375 60.28125 C-24.23184166 60.72422374 -33.19895082 57.02018798 -40 51 C-47.10150044 42.78719605 -49.58238584 35.22724608 -49.37109375 24.4140625 C-48.41493372 15.61739022 -44.63426955 8.54328195 -38.12109375 2.62109375 C-27.21607339 -5.71331408 -11.96293766 -7.05293194 0 0 Z " fill="#233A73" transform="translate(255,279)"/>
<path d="M0 0 C8.21276391 4.93588482 13.73294103 11.85046197 16.375 21.125 C18.11105726 31.888555 16.19276358 41.0170267 9.79296875 49.9609375 C4.02550621 56.52001254 -4.03357411 60.28083259 -12.625 61.31640625 C-22.33830544 61.74412282 -30.03451344 59.03494021 -37.4375 52.75 C-44.46149141 45.98244002 -47.1091776 39.02746357 -47.3125 29.375 C-47.21207143 19.69368596 -44.57972717 12.80680396 -37.92578125 5.75390625 C-27.62683256 -3.6258665 -12.67783755 -6.5373748 0 0 Z " fill="#233A73" transform="translate(322,209)"/>
<path d="M0 0 C7.44912498 5.32479666 12.56852051 11.70695673 14.76953125 20.67578125 C15.83021728 30.72551351 15.1532636 38.58294818 9.2265625 46.8203125 C3.93464801 53.3474107 -2.14094045 57.39746497 -10.23046875 59.67578125 C-20.35649515 60.65407991 -28.56920198 59.5032598 -36.91796875 53.61328125 C-43.83142306 47.88429988 -47.81126915 40.47481876 -49.23046875 31.67578125 C-49.94402657 22.82766433 -47.79052168 14.70761289 -42.23046875 7.67578125 C-31.4248174 -4.63065501 -14.47404564 -8.59317245 0 0 Z " fill="#233A73" transform="translate(117.23046875,141.32421875)"/>
<path d="M0 0 C6.80658681 5.41459852 10.33056704 11.29610405 12.75 19.5625 C13.70321625 28.85635842 12.4777883 37.65378368 7.26953125 45.66015625 C2.24831523 51.66356622 -4.14423691 56.58062241 -12 58 C-20.75423803 58.621663 -28.35272489 58.73476911 -36 54 C-36.62261719 53.649375 -37.24523437 53.29875 -37.88671875 52.9375 C-44.75351341 48.64761527 -48.91763252 41.71141566 -51 34 C-52.07026362 22.79956674 -50.93276311 13.75072668 -44 4.75 C-32.4965569 -7.52531915 -13.74263047 -9.46714543 0 0 Z " fill="#233A73" transform="translate(326,74)"/>
<path d="M0 0 C6.64401262 5.40252361 10.34403287 13.04550381 11.6875 21.375 C12.51035829 31.57844282 9.29993274 40.56574686 2.6875 48.375 C-4.10304674 54.93632997 -11.41083633 57.47269475 -20.75 57.8125 C-29.9799925 57.55431839 -36.85141816 54.62856105 -43.55859375 48.30078125 C-50.70693771 40.45193143 -52.81596274 32.41211485 -52.6171875 21.91015625 C-51.81080758 12.55408153 -47.35481058 5.47833584 -40.3125 -0.625 C-27.22352682 -8.97245778 -12.93824501 -8.67478522 0 0 Z " fill="#233A73" transform="translate(327.3125,143.625)"/>
<path d="M0 0 C9.47776784 0.63185119 17.94887316 4.18680292 24.5390625 11.13671875 C31.73535236 20.15866835 32.84852062 28.79576256 31.75 40.25 C30.88223896 43.62299206 29.60675422 46.31494442 27.75 49.25 C27.31429687 49.95769531 26.87859375 50.66539063 26.4296875 51.39453125 C21.73583865 58.30705729 15.75347882 62.02464247 7.75 64.25 C-3.45043326 65.32026362 -12.49927332 64.18276311 -21.5 57.25 C-27.20872738 51.90023925 -31.22640612 44.01727121 -32.25 36.25 C-32.4433899 25.71025068 -30.22788222 17.31433861 -23.0625 9.4375 C-16.39880052 3.2830352 -8.88501296 0.68346254 0 0 Z " fill="#233A73" transform="translate(100.25,67.75)"/>
<path d="M0 0 C8.82064479 6.00228369 13.22847478 12.53037919 15.375 22.8125 C16.68080197 32.24988699 14.92475861 39.82012607 9.69140625 47.77734375 C4.82435786 54.17307247 -1.13895488 58.1392739 -9 60 C-20.26014243 61.18910987 -29.37888272 59.95275173 -38.3125 52.8125 C-44.86732902 46.65573752 -48.004403 39.45956066 -48.39477539 30.56835938 C-48.60071269 20.59864038 -46.50908974 13.50507341 -40.0546875 5.625 C-28.96695604 -5.5036456 -13.76000669 -6.0811404 0 0 Z " fill="#233A73" transform="translate(48,72)"/>
<path d="M0 0 C2.04573094 1.70733936 3.88496951 3.4753304 5.703125 5.421875 C6.19683594 5.94523438 6.69054687 6.46859375 7.19921875 7.0078125 C12.44604395 13.39119034 14.09335788 21.9438041 13.703125 30.046875 C12.60858863 38.29158914 8.53964908 45.58535092 2.703125 51.421875 C-5.88348528 57.93898513 -14.65102228 59.44721872 -25.296875 58.421875 C-34.97545793 55.93846607 -41.62887447 51.08053883 -47.03515625 42.80078125 C-51.34312619 34.678324 -51.74762529 24.56367411 -49.64453125 15.66015625 C-46.18728322 7.15799693 -39.5456792 0.34760648 -31.296875 -3.578125 C-20.82686917 -7.61806664 -9.26477548 -6.36559404 0 0 Z " fill="#233A73" transform="translate(394.296875,142.578125)"/>
<path d="M0 0 C30.69 0 61.38 0 93 0 C93 5.28 93 10.56 93 16 C80.46 16 67.92 16 55 16 C55 51.97 55 87.94 55 125 C49.72 125 44.44 125 39 125 C39 89.03 39 53.06 39 16 C26.13 16 13.26 16 0 16 C0 10.72 0 5.44 0 0 Z " fill="#233B73" transform="translate(699,144)"/>
<path d="M0 0 C7.48860929 6.24989196 11.93518282 12.89799494 13.453125 22.609375 C14.30738376 32.21575648 11.90470704 40.97751561 5.703125 48.421875 C-2.93547362 56.1888078 -10.46502975 58.93713353 -22.01171875 58.73828125 C-29.47365712 58.01959277 -36.88168527 54.66494378 -42.296875 49.421875 C-50.05494595 39.74668259 -51.24409048 30.44791454 -50.296875 18.421875 C-48.32882996 10.0900915 -42.36171081 3.25178433 -35.359375 -1.453125 C-24.19887816 -7.81525084 -10.63821154 -7.30924739 0 0 Z " fill="#233A73" transform="translate(50.296875,142.578125)"/>
<path d="M0 0 C7.05490496 5.40375699 10.66580536 13.48767603 12 22.0625 C12.83927991 31.1419827 10.24325518 39.86846978 4.52734375 46.9453125 C-1.38831271 53.31963814 -8.44129555 57.18878692 -17.16015625 58.05078125 C-26.26989042 58.30569281 -34.02198114 56.4169613 -41.125 50.5 C-47.88098356 44.02090101 -51.91694031 37.69854125 -52.12988281 28.05224609 C-52.12827148 27.37500488 -52.12666016 26.69776367 -52.125 26 C-52.12258301 24.94159912 -52.12258301 24.94159912 -52.12011719 23.86181641 C-51.9825718 17.99725882 -50.80219358 13.7576917 -47.75 8.8125 C-47.193125 7.760625 -46.63625 6.70875 -46.0625 5.625 C-34.14942954 -8.86386948 -15.18099617 -9.54612859 0 0 Z " fill="#233A73" transform="translate(51.75,212.1875)"/>
<path d="M0 0 C7.68748469 5.21211462 12.83252287 10.97222289 16.265625 19.63671875 C17.9879457 28.87462071 17.30203889 36.89500037 12.953125 45.32421875 C7.93235403 52.61924984 1.54128194 57.98758417 -7.046875 60.32421875 C-15.9419835 61.11694345 -24.26799295 61.21426286 -32.046875 56.32421875 C-32.66820312 55.98519531 -33.28953125 55.64617188 -33.9296875 55.296875 C-41.04106522 50.97155652 -44.87204303 43.1397108 -47.046875 35.32421875 C-48.20700896 24.69415411 -46.13534483 15.46229047 -39.59375 6.921875 C-29.86480067 -3.12645903 -12.61140763 -6.85925797 0 0 Z " fill="#233A73" transform="translate(253.046875,2.67578125)"/>
<path d="M0 0 C5.12813924 4.36761012 7.64031152 9.46798352 9 16 C9.39753105 21.40071707 9.35054082 26.78127769 9.29296875 32.19140625 C9.28736369 33.74795622 9.2830979 35.30451154 9.28010559 36.86106873 C9.26872828 40.92997207 9.23932376 44.99854695 9.20599365 49.06732178 C9.17513806 53.23038288 9.16156737 57.39349779 9.14648438 61.55664062 C9.114446 69.70459358 9.06173761 77.85221791 9 86 C4.05 86 -0.9 86 -6 86 C-6.01458252 84.1334375 -6.02916504 82.266875 -6.04418945 80.34375 C-6.09598938 74.15298977 -6.16131473 67.96248572 -6.23571491 61.7719574 C-6.28030241 58.02133361 -6.31958339 54.27081554 -6.34643555 50.52001953 C-6.37258551 46.89528636 -6.41306848 43.27096256 -6.46318626 39.64648438 C-6.47977647 38.26876954 -6.49133936 36.89098403 -6.49761391 35.51318359 C-6.333905 23.06713624 -6.333905 23.06713624 -12.3125 12.625 C-17.53128166 9.4694576 -21.69299652 8.54005356 -27.6875 9.390625 C-33.40701311 10.897794 -37.74907875 14.112457 -41 19 C-44.0047648 27.23268827 -44.4631211 35.52448079 -44.51171875 44.203125 C-44.52966995 45.4069281 -44.54762115 46.6107312 -44.56611633 47.85101318 C-44.6197786 51.65064108 -44.6539733 55.4501466 -44.6875 59.25 C-44.72071196 61.84506896 -44.75520513 64.44012185 -44.79101562 67.03515625 C-44.87547962 73.35668187 -44.94249997 79.67817396 -45 86 C-49.95 86 -54.9 86 -60 86 C-60 56.3 -60 26.6 -60 -4 C-55.38 -4 -50.76 -4 -46 -4 C-45.67 -1.03 -45.34 1.94 -45 5 C-44.5153125 4.52949219 -44.030625 4.05898437 -43.53125 3.57421875 C-31.57532625 -7.53099504 -13.78649491 -9.64055622 0 0 Z " fill="#233A73" transform="translate(987,182)"/>
<path d="M0 0 C23.1 0 46.2 0 70 0 C70 13.46153846 70 13.46153846 65.1875 18.375 C64.16397085 19.46883784 63.14321733 20.56527834 62.125 21.6640625 C61.60164062 22.21352539 61.07828125 22.76298828 60.5390625 23.32910156 C58.07863672 26.00028717 55.89383522 28.86854012 53.6875 31.75 C49.55117304 37.0789367 45.30396408 42.30570152 41 47.5 C36.12393821 53.38602708 31.32790455 59.32331008 26.63867188 65.359375 C23.8270549 68.97494564 20.93637927 72.47634488 18 76 C35.82 76.33 53.64 76.66 72 77 C72 81.29 72 85.58 72 90 C47.25 90 22.5 90 -3 90 C-3 75.07496631 -3 75.07496631 1.75 70.0625 C2.24371094 69.48951172 2.73742187 68.91652344 3.24609375 68.32617188 C4.28392288 67.12757073 5.3355959 65.94082439 6.40039062 64.76611328 C8.48333605 62.46635332 10.49339469 60.10835492 12.50683594 57.74780273 C13.5059028 56.57835871 14.5092011 55.41251701 15.51660156 54.25024414 C19.45047719 49.70447458 23.16534463 45.01593215 26.84448242 40.26318359 C30.69037277 35.32430909 34.74339876 30.58626169 38.84472656 25.85888672 C42.43292723 21.70757427 45.79210403 17.45541107 49 13 C48.43434326 13.0714624 47.86868652 13.1429248 47.28588867 13.21655273 C37.63935996 14.27180021 28.00141208 14.11030862 18.3125 14.0625 C16.5319023 14.05747418 14.75130323 14.05291319 12.97070312 14.04882812 C8.64710091 14.03791 4.32356597 14.02070521 0 14 C0 9.38 0 4.76 0 0 Z " fill="#233A73" transform="translate(627,178)"/>
<path d="M0 0 C0.928125 0.639375 1.85625 1.27875 2.8125 1.9375 C1.78387215 7.38317686 0.56635216 12.05567117 -2.1875 16.9375 C-3.198125 16.6075 -4.20875 16.2775 -5.25 15.9375 C-10.0096744 14.60094497 -14.21205273 14.11056858 -18.875 16.0625 C-24.09231164 20.29275268 -26.12296781 25.46277618 -27.1875 31.9375 C-27.50640143 36.35311515 -27.55915349 40.76158152 -27.6015625 45.1875 C-27.62092865 46.44135498 -27.6402948 47.69520996 -27.6602478 48.98706055 C-27.70966934 52.29461676 -27.75103453 55.60214086 -27.78839111 58.90985107 C-27.82864634 62.29546811 -27.87963962 65.68092232 -27.9296875 69.06640625 C-28.02544705 75.69000759 -28.10957999 82.31366575 -28.1875 88.9375 C-33.4675 88.9375 -38.7475 88.9375 -44.1875 88.9375 C-44.1875 59.2375 -44.1875 29.5375 -44.1875 -1.0625 C-39.5675 -1.0625 -34.9475 -1.0625 -30.1875 -1.0625 C-29.8575 2.2375 -29.5275 5.5375 -29.1875 8.9375 C-28.3625 7.7 -27.5375 6.4625 -26.6875 5.1875 C-19.88131697 -3.74462365 -9.95206821 -5.62070249 0 0 Z " fill="#233B73" transform="translate(831.1875,179.0625)"/>
<path d="M0 0 C4.95 0 9.9 0 15 0 C15 41.25 15 82.5 15 125 C10.05 125 5.1 125 0 125 C0 83.75 0 42.5 0 0 Z " fill="#233B73" transform="translate(1254,144)"/>
<path d="M0 0 C4.95 0 9.9 0 15 0 C15 30.03 15 60.06 15 91 C10.05 91 5.1 91 0 91 C0 60.97 0 30.94 0 0 Z " fill="#233B73" transform="translate(1223,178)"/>
<path d="M0 0 C4.95 0 9.9 0 15 0 C15 6.27 15 12.54 15 19 C10.05 19 5.1 19 0 19 C0 12.73 0 6.46 0 0 Z " fill="#243A73" transform="translate(1223,144)"/>
</svg>
