<svg width="200" height="200" viewBox="0 0 200 200" fill="none" xmlns="http://www.w3.org/2000/svg">
<circle cx="73.2769" cy="96.9181" r="10.5025" fill="#252735"/>
<path d="M60.5452 63.0005C67.0854 63.0005 73.0333 64.6827 78.3887 68.0475C83.7916 71.4124 88.0808 75.9389 91.2562 81.6261C94.479 87.3133 96.0904 93.6168 96.0904 100.536C96.0904 102.9 95.8946 105.195 95.5075 107.42H83.2844C83.858 105.216 84.1477 102.922 84.1477 100.536C84.1477 95.8917 83.0813 91.626 80.9486 87.7397C78.8632 83.8535 76.0432 80.7492 72.4888 78.4269C68.9342 76.1046 64.9528 74.9432 60.5452 74.9432C56.0902 74.9432 52.0852 76.1282 48.5307 78.4979C44.9763 80.8201 42.1562 83.9245 40.0709 87.8107C37.9856 91.697 36.9436 95.9391 36.9436 100.536C36.9436 105.276 38.01 109.588 40.1427 113.475C42.2754 117.314 45.1425 120.371 48.7444 122.646C52.3462 124.873 56.2799 125.987 60.5452 125.987C65.0001 125.987 69.0052 124.826 72.5597 122.504C74.872 120.983 76.8595 119.156 78.5272 117.029L86.5126 126.023C86.2269 126.346 85.9375 126.668 85.64 126.982C82.4173 130.395 78.6493 133.073 74.3366 135.016C70.0713 136.959 65.474 137.93 60.5452 137.93C54.0049 137.93 48.0336 136.247 42.6307 132.882C37.2753 129.517 32.986 125.015 29.7632 119.376C26.5878 113.688 25 107.408 25 100.536C25 95.323 25.9243 90.4652 27.7726 85.9628C29.621 81.413 32.1567 77.4316 35.3795 74.0193C38.6496 70.5596 42.441 67.8581 46.7538 65.915C51.0666 63.9719 55.6637 63.0005 60.5452 63.0005Z" fill="#005CFF"/>
<circle cx="152.187" cy="96.9181" r="10.5025" fill="#252735"/>
<path d="M139.454 63C145.995 63 151.943 64.6822 157.298 68.047C162.701 71.4119 166.99 75.9384 170.165 81.6256C173.388 87.3128 175 93.6163 175 100.536C175 102.9 174.804 105.194 174.417 107.42H162.194C162.767 105.216 163.057 102.922 163.057 100.536C163.057 95.8912 161.99 91.6255 159.858 87.7392C157.772 83.853 154.952 80.7487 151.398 78.4265C147.843 76.1042 143.862 74.9427 139.454 74.9427C134.999 74.9427 130.994 76.1277 127.44 78.4974C123.885 80.8197 121.065 83.924 118.98 87.8102C116.895 91.6965 115.853 95.9386 115.853 100.536C115.853 105.275 116.919 109.588 119.052 113.474C121.185 117.313 124.052 120.37 127.654 122.645C131.255 124.873 135.189 125.986 139.454 125.986C143.909 125.986 147.914 124.825 151.469 122.503C153.781 120.982 155.769 119.156 157.436 117.029L165.422 126.022C165.136 126.345 164.847 126.667 164.549 126.982C161.326 130.394 157.558 133.072 153.246 135.015C148.98 136.958 144.383 137.93 139.454 137.93C132.914 137.93 126.943 136.247 121.54 132.882C116.184 129.517 111.895 125.015 108.672 119.375C105.497 113.688 103.909 107.408 103.909 100.536C103.909 95.3225 104.833 90.4647 106.682 85.9623C108.53 81.4125 111.066 77.4311 114.289 74.0188C117.559 70.5591 121.35 67.8576 125.663 65.9145C129.976 63.9714 134.573 63 139.454 63Z" fill="#005CFF"/>
</svg>
