<svg width="1176" height="1176" viewBox="0 0 1176 1176" fill="none" xmlns="http://www.w3.org/2000/svg">
<g clip-path="url(#clip0_191_10)">
<path fill-rule="evenodd" clip-rule="evenodd" d="M1006.71 105.003C983.924 34.7033 908.214 -4.13421 837.747 18.3355L255.675 203.937C185.207 226.407 146.502 301.727 169.289 372.027C192.076 442.326 267.785 481.164 338.253 458.694L920.325 273.092C990.792 250.623 1029.5 175.302 1006.71 105.003Z" fill="#E94560"/>
<path fill-rule="evenodd" clip-rule="evenodd" d="M1006.71 454.208C983.924 383.908 908.214 345.071 837.747 367.541L255.675 553.142C185.207 575.612 146.502 650.932 169.289 721.232C192.076 791.531 267.785 830.369 338.253 807.899L920.325 622.297C990.792 599.828 1029.5 524.507 1006.71 454.208Z" fill="#E94560"/>
<path fill-rule="evenodd" clip-rule="evenodd" d="M1006.71 803.463C983.924 733.163 908.214 694.326 837.747 716.795L255.675 902.397C185.207 924.867 146.502 1000.19 169.289 1070.49C192.076 1140.79 267.785 1179.62 338.253 1157.15L920.325 971.552C990.792 949.083 1029.5 873.762 1006.71 803.463Z" fill="#E94560"/>
</g>
<defs>
<clipPath id="clip0_191_10">
<rect width="1176" height="1176" fill="white"/>
</clipPath>
</defs>
</svg>
