<svg width="512" height="512" viewBox="0 0 512 512" fill="none" xmlns="http://www.w3.org/2000/svg">
  <path fill-rule="evenodd" clip-rule="evenodd" d="M318.645 135.713C324.19 134.927 335.859 136.439 341.271 138.266C357.915 143.886 373.708 155.313 386.944 166.742C390.717 170.001 394.121 173.741 397.477 177.267C403.722 172.469 410.688 166.353 416.534 161.128C420.699 157.403 426.139 152.467 430.026 148.462C432.443 151.311 437.916 156.283 440.769 159.135C443.789 162.156 448.423 167.097 451.5 169.763C449.402 171.778 447.447 173.915 445.275 175.969C435.518 185.19 425.314 193.924 414.699 202.142C416.131 206.071 418.146 209.973 419.706 214.37C430.353 244.871 428.629 278.335 414.908 307.579C419.795 310.665 426.215 315.536 430.819 319.022C437.477 324.065 444.53 329.464 450.667 335.103C448.921 337.113 447.252 339.188 445.487 341.185C440.687 346.619 435.313 352.246 430.732 357.836C427.49 354.691 422.914 351.171 419.367 348.395C412.435 342.887 405.296 337.649 397.965 332.687C385.625 346.319 365.124 362.891 348.068 370.251C342.596 372.66 336.808 374.279 330.882 375.064C302.031 378.828 277.622 361.934 255.928 345.279C252.583 348.26 247.732 351.864 244.093 354.533C229.07 365.547 212.408 375.109 193.414 376.34C191.874 376.511 189.464 376.521 187.906 376.48C181.035 376.28 174.239 374.992 167.77 372.666C160.959 370.213 156.624 367.662 150.563 364.002C136.762 355.669 126.116 347.071 115.035 335.379C112.216 337.285 108.693 340.189 106.015 342.334C97.6272 349.096 89.5081 356.186 81.6766 363.588C75.4441 356.739 67.1357 348.545 60.5 341.889C65.3867 337.837 70.0365 332.931 75.0089 328.771C82.5137 322.495 89.7878 316.218 97.7676 310.514C96.259 307.413 94.477 303.658 93.2329 300.425C84.1343 276.778 83.1019 248.442 89.5507 223.953C91.4597 216.704 93.7938 211.293 96.7651 204.579C85.0205 196.793 71.6203 185.95 61.0223 176.738C67.4755 169.509 75.0828 161.522 81.2234 154.18C91.5695 163.24 102.421 171.705 113.725 179.534L113.802 179.43C115.004 177.825 117.411 175.371 118.839 173.917C128.242 164.342 139.107 156.117 150.461 149.002C154.334 146.575 158.028 144.265 162.19 142.334C167.97 139.624 174.121 137.789 180.44 136.891C210.216 132.858 233.606 150.368 255.762 167.202C258.762 164.539 264.323 160.312 267.535 157.949C283.73 146.037 298.243 137.367 318.645 135.713ZM218.248 317.376C206.132 309.795 193.482 303.647 178.778 304.192C164.821 305.027 152.411 311.148 140.526 318.189C146.179 324.001 153.002 329.474 159.774 333.99C168.428 339.762 177.876 346.066 188.622 346.218C189.974 346.237 191.326 346.175 192.671 346.034C203.988 344.75 216.171 337.48 225.147 330.827C226.887 329.537 229.514 327.7 231.115 326.319C227.291 323.216 222.446 320.002 218.248 317.376ZM371.741 316.575C358.979 309.931 341.321 301.687 326.711 303.34C311.052 304.592 296.858 313.6 284.385 322.596C283.031 323.573 281.725 324.597 280.508 325.746C288.772 332.599 303.008 341.451 313.363 344.113C317.33 345.167 321.449 345.538 325.543 345.211C328.331 344.867 331.96 344.176 334.525 343.039C347.004 337.499 362.29 326.174 371.741 316.575ZM255.812 206.33C237.456 220.819 219.789 233.787 196.191 238.412C169.477 243.646 145.637 233.457 122.679 220.934C113.944 240.121 113.528 268.308 120.906 288.014C121.574 289.812 122.3 291.588 123.082 293.34C146.169 279.069 171.93 269.159 199.388 276.14C219.572 281.272 237.634 292.985 254.053 305.524C254.867 306.146 255.186 306.717 256.11 306.276C278.685 287.401 307.351 270.114 337.691 273.233C355.593 275.072 373.509 283.016 389.103 291.635C390.849 287.216 392.45 283.09 393.56 278.437C398.085 259.475 396.981 238.05 389.47 220.018C383.257 223.589 376.51 227.596 369.945 230.53C350.207 239.353 331.482 242.628 310.265 236.779C293.962 232.284 280.778 224.155 267.135 214.546C265.743 213.566 256.639 206.288 255.812 206.33ZM231.563 186.81C218.569 176.952 202.985 165.548 185.98 166.721C182.759 167.106 178.545 168.087 175.654 169.518C164.876 174.849 147.642 186.944 139.853 195.777C148.947 200.835 158.643 205.167 168.7 207.892C174.445 209.448 180.011 209.765 185.929 209.303C201.698 207.877 219.405 196.835 231.563 186.81ZM321.91 165.701C313.482 166.157 305.902 169.192 298.763 173.559C292.309 177.508 286.018 181.624 280.188 186.46C294.39 197.487 312.553 209.177 330.955 209.414C346.475 209.234 359.256 202.585 372.307 194.769C366.402 187.14 354.741 179.907 346.693 174.55C339.178 169.549 331.17 165.476 321.91 165.701Z" fill="black"/>
</svg>
