<?xml version="1.0" encoding="utf-8"?>
<svg version="1.1" id="Livello_1" xmlns="http://www.w3.org/2000/svg" xmlns:xlink="http://www.w3.org/1999/xlink" x="0px" y="0px" viewBox="0 0 569.9 600" style="enable-background:new 0 0 569.9 600;" xml:space="preserve">
	<style type="text/css">
		.st0{fill:#5D2BFD;}
	</style>
	<g>
		<path class="st0" d="M568.3,412.2c2.8,8.8,1.9,18.2-2.3,26.4c-52,99.5-153.9,161.2-266,161.2C134.5,599.8,0,465.3,0,299.9
			S134.5,0,299.9,0c112.1,0,214,61.8,266,161.2c4.3,8.2,5.1,17.6,2.3,26.4c-2.8,8.8-8.8,16-17,20.3c-4.9,2.6-10.5,3.9-16,3.9
			c-12.9,0-24.7-7.1-30.7-18.6c-40-76.5-118.4-124.1-204.7-124.1c-127.2,0-230.7,103.5-230.7,230.7s103.5,230.7,230.7,230.7
			c86.3,0,164.7-47.5,204.7-124.1c6-11.5,17.7-18.6,30.7-18.6c5.5,0,11.1,1.4,16,3.9C559.5,396.2,565.5,403.4,568.3,412.2z"/>
	</g>
</svg>
