<svg xmlns="http://www.w3.org/2000/svg" xmlns:xlink="http://www.w3.org/1999/xlink" width="52.491" height="61" viewBox="0 0 52.491 61"><defs><clipPath id="a"><rect width="52.491" height="61" fill="#ff9065"/></clipPath></defs><g transform="translate(0 0)"><g transform="translate(0 0)" clip-path="url(#a)"><path d="M39.951,69.907V50.887Q39.951,47,36.494,47q-4,0-4,5.045V69.907H19.956V50.887Q19.956,47,16.5,47q-4,0-4,5.045V69.907H9.424A9.422,9.422,0,0,1,0,60.484V35.82H12.5v3.2a11.14,11.14,0,0,1,9.218-4.159q5.83,0,8.473,4.227a12.264,12.264,0,0,1,9.76-4.227q5.9,0,9.219,3.716t3.321,10.6V69.908Z" transform="translate(0 -8.907)" fill="#ff9065"/><path d="M64.07,23.375a4.7,4.7,0,0,0-4.685-4.631H54.7A9.374,9.374,0,0,1,51.05.736,9.368,9.368,0,0,1,64.07,9.371Z" transform="translate(-11.579 0)" fill="#ff9065"/></g></g></svg>