
<svg version="1.1" id="Layer_1" xmlns="http://www.w3.org/2000/svg" xmlns:xlink="http://www.w3.org/1999/xlink" x="0px" y="0px"
     width="100%" viewBox="0 0 192 192" enable-background="new 0 0 192 192" xml:space="preserve">
<path fill="#2F7FF7" opacity="1.000000" stroke="none"
      d="
M89.000000,1.000000 
	C94.022095,1.000000 99.044182,1.000000 104.193497,1.249699 
	C104.516998,1.768291 104.653580,2.157356 104.918144,2.288798 
	C116.638573,8.111719 116.040901,26.708668 103.720154,31.172371 
	C102.559792,31.592760 101.152084,33.367161 101.122009,34.545166 
	C100.901428,43.183788 101.002991,51.830639 101.002991,59.822174 
	C106.090675,61.919983 111.076698,63.213127 115.180038,65.869675 
	C119.832123,68.881500 121.950951,66.511124 124.892006,63.571777 
	C129.969131,58.497623 135.439789,53.817230 140.529984,49.168297 
	C136.007309,41.737083 137.413513,32.427429 144.402939,27.098959 
	C150.307434,22.597599 159.141998,23.082747 164.446671,27.258780 
	C170.526230,32.044834 171.992706,42.841301 167.822922,49.458370 
	C163.720871,55.967945 154.158920,58.226650 146.570663,54.900978 
	C139.698074,61.765404 133.001846,68.453659 126.748596,74.699478 
	C129.246155,80.626678 131.765564,86.605751 134.459305,92.998520 
	C142.242752,92.998520 150.729507,93.091705 159.209732,92.898178 
	C160.483551,92.869110 162.523254,91.756615 162.861877,90.709686 
	C166.559494,79.277763 184.325516,78.092659 190.565643,86.919235 
	C191.005859,87.541939 192.171616,87.651718 193.000000,88.000000 
	C193.000000,93.688042 193.000000,99.376083 192.763123,105.191406 
	C191.895279,105.852371 191.160126,106.301598 190.649017,106.932373 
	C182.882599,116.517517 167.510925,115.792702 162.887115,103.171387 
	C162.544724,102.236778 161.069778,101.121017 160.103424,101.103935 
	C151.154434,100.945671 142.201508,101.010468 134.536392,101.010468 
	C132.016785,106.849495 130.113403,111.940773 127.629242,116.730858 
	C126.383453,119.133072 126.239548,120.860321 128.167343,122.648476 
	C131.231857,125.490997 134.423813,128.200516 137.411606,131.120087 
	C140.275131,133.918228 142.947327,136.912170 145.712448,139.829376 
	C154.265778,136.383240 163.496719,138.328796 167.802750,144.505142 
	C171.129868,149.277390 170.642044,160.709610 166.949799,164.494095 
	C161.147278,170.441574 151.416580,171.934250 144.711151,167.905472 
	C138.685593,164.285156 136.659271,155.203262 139.701324,145.451767 
	C139.026642,145.019730 138.231171,144.702087 137.696396,144.137497 
	C133.062698,139.245667 128.459549,134.324570 123.881996,129.380051 
	C121.605255,126.920815 119.756340,125.772636 116.106346,128.067871 
	C111.737709,130.815033 106.495682,132.173294 101.004501,134.385895 
	C101.004501,142.282028 100.905121,151.080521 101.132530,159.870575 
	C101.160393,160.947678 102.741180,162.375732 103.936089,162.970261 
	C114.443611,168.198074 116.888565,181.778000 107.437057,190.210297 
	C106.708389,190.860367 106.467567,192.057266 106.000000,193.000000 
	C100.311958,193.000000 94.623917,193.000000 88.808578,192.762970 
	C88.392250,192.119141 88.168121,191.639404 87.804756,191.316147 
	C77.360504,182.024811 78.816200,169.356567 91.017082,162.888123 
	C91.868546,162.436722 92.881943,161.265350 92.894630,160.414963 
	C93.030174,151.326096 92.978905,142.234451 92.978905,134.494232 
	C87.127510,132.021255 82.209862,130.123398 77.472603,127.849693 
	C75.644859,126.972443 74.485825,125.847008 72.550308,127.850555 
	C66.546600,134.065216 60.325974,140.070297 54.271099,146.075806 
	C58.187107,153.846817 56.429787,161.646423 50.506325,166.916870 
	C45.407654,171.453476 34.147518,171.056290 29.108437,166.393936 
	C23.129990,160.862442 22.192430,151.154678 26.967606,144.227081 
	C31.186035,138.107178 41.188087,136.041245 48.453800,139.847748 
	C48.867527,139.175430 49.162937,138.368607 49.721336,137.839157 
	C54.613457,133.200851 59.720577,128.773239 64.379990,123.914925 
	C65.866722,122.364716 67.399551,119.316605 66.845680,117.633690 
	C65.008354,112.051064 62.230167,106.778091 59.705235,101.146271 
	C50.940662,101.146271 41.644852,101.146271 32.452747,101.146271 
	C32.065826,101.888893 31.700159,102.451180 31.464592,103.063507 
	C26.945444,114.810562 11.565650,117.255760 3.111127,106.708168 
	C2.720660,106.221031 1.717698,106.224846 0.999999,106.000000 
	C1.000000,100.645073 1.000000,95.290138 1.235212,89.805336 
	C1.744315,89.486404 2.098184,89.354652 2.280610,89.100060 
	C10.617372,77.465096 24.122272,78.259636 31.366804,90.731750 
	C31.963755,91.759453 33.464722,92.875999 34.567307,92.898697 
	C43.207546,93.076523 51.853085,92.997215 59.880547,92.997215 
	C61.945202,87.928902 63.201885,82.954597 65.838844,78.871758 
	C68.817009,74.260605 66.592896,72.114548 63.628212,69.137390 
	C58.557827,64.045662 53.913807,58.529358 49.363789,53.493568 
	C40.126434,58.255749 32.832779,56.490040 27.125391,50.089203 
	C22.506767,44.909412 22.999451,35.016041 27.435881,30.043795 
	C33.581589,23.155823 41.816494,21.981613 49.485931,26.899694 
	C56.155266,31.176451 58.166965,40.305954 54.238976,48.463608 
	C55.031094,49.017498 55.942390,49.458935 56.593876,50.146534 
	C61.233364,55.043175 65.689888,60.122780 70.505264,64.837082 
	C71.882126,66.185036 74.650864,67.640053 76.092430,67.123451 
	C81.756958,65.093513 87.146606,62.296532 92.999969,59.618919 
	C92.999969,59.037975 93.000000,57.879559 92.999969,56.721142 
	C92.999809,49.558056 93.161423,42.388248 92.864159,35.237511 
	C92.804062,33.791748 91.314735,31.700863 89.964432,31.123686 
	C78.169846,26.082172 78.438766,7.948723 88.149765,2.883246 
	C88.629967,2.632761 88.725403,1.644644 89.000000,1.000000 
M69.001144,94.769051 
	C68.504715,107.104439 73.894409,116.199615 84.554375,122.064735 
	C95.519783,128.097916 110.348610,125.390099 119.167709,114.350365 
	C128.263016,102.964844 125.926270,87.379112 118.269211,78.760460 
	C108.814857,68.118835 92.498138,65.797348 80.406052,74.782433 
	C73.763573,79.718155 70.495766,86.135284 69.001144,94.769051 
M9.934145,93.380737 
	C6.898335,96.496803 8.937512,99.286026 10.573803,102.019295 
	C12.478513,105.200928 15.833244,105.868423 18.731834,104.764435 
	C20.847349,103.958687 23.191488,101.540932 23.750349,99.401955 
	C24.504837,96.514236 24.672342,93.334846 21.049488,90.824059 
	C16.279999,87.518616 13.312369,89.569107 9.934145,93.380737 
M174.651459,89.894020 
	C171.231873,92.068748 168.568756,95.145340 170.320511,99.112961 
	C171.395538,101.547867 174.270325,103.691238 176.840057,104.841789 
	C180.432022,106.450043 182.823288,103.293846 184.446335,100.777672 
	C185.446335,99.227379 185.694656,96.296494 184.895874,94.662216 
	C183.054382,90.894562 180.145340,87.957634 174.651459,89.894020 
M147.938431,149.593384 
	C145.577148,152.437622 144.778198,155.991547 147.463226,158.402420 
	C149.554138,160.279846 153.184860,161.492233 155.988449,161.261902 
	C159.541672,160.969986 162.170837,157.578293 161.738373,154.094254 
	C161.412674,151.470291 159.286118,148.472626 157.078232,146.823059 
	C153.963791,144.496201 150.914734,146.521774 147.938431,149.593384 
M104.961349,179.964966 
	C104.972702,179.633240 104.981064,179.301376 104.995872,178.969803 
	C105.196289,174.482437 103.020287,171.407196 98.906578,170.108353 
	C94.247971,168.637466 91.373009,171.922821 89.458389,175.267410 
	C87.491882,178.702652 90.290207,181.484650 92.535286,183.773819 
	C96.114151,187.422943 99.509796,185.709503 102.643456,182.846725 
	C103.376534,182.177017 104.044075,181.435562 104.961349,179.964966 
M154.906250,32.955597 
	C150.609116,32.608292 146.480026,35.363251 146.005341,38.894356 
	C145.512192,42.562695 148.863525,47.328533 152.390610,47.974709 
	C156.782761,48.779358 160.654388,46.111580 161.801727,41.489902 
	C162.657898,38.041122 160.042648,34.418465 154.906250,32.955597 
M36.127792,33.387203 
	C35.654686,33.853146 35.129570,34.277359 34.716896,34.791779 
	C31.972111,38.213314 31.911528,41.487961 34.535511,45.217583 
	C36.944668,48.641865 39.994892,48.706394 43.041569,47.333088 
	C46.642685,45.709866 48.696732,42.657364 47.965767,38.399548 
	C47.238884,34.165474 43.224323,32.266350 36.127792,33.387203 
M44.617111,160.068588 
	C48.674820,156.819168 49.303154,153.094711 46.342491,149.841461 
	C42.018219,145.089828 38.704468,144.793625 34.748817,148.731766 
	C31.797117,151.670364 31.607082,155.131531 33.880749,158.191772 
	C36.356499,161.524002 39.805824,163.268524 44.617111,160.068588 
M100.712700,23.749222 
	C102.136871,21.616865 104.187721,19.659567 104.843353,17.312525 
	C105.918427,13.463895 103.137383,11.042448 100.015427,9.595259 
	C96.268707,7.858460 93.329201,9.351541 90.765572,12.491786 
	C88.326385,15.479617 88.728302,17.587885 90.927711,20.695330 
	C93.433716,24.235929 96.505264,24.070198 100.712700,23.749222 
z"/>
</svg>
