<?xml version="1.0" encoding="UTF-8"?>
<!DOCTYPE svg PUBLIC "-//W3C//DTD SVG 1.1//EN" "http://www.w3.org/Graphics/SVG/1.1/DTD/svg11.dtd">
<svg xmlns="http://www.w3.org/2000/svg" version="1.1" width="580px" height="580px" style="shape-rendering:geometricPrecision; text-rendering:geometricPrecision; image-rendering:optimizeQuality; fill-rule:evenodd; clip-rule:evenodd" xmlns:xlink="http://www.w3.org/1999/xlink">
<g><path style="opacity:0.998" fill="#03129b" d="M 267.5,33.5 C 368.369,28.8553 447.536,67.522 505,149.5C 550.173,224.07 557.84,302.403 528,384.5C 491.102,470.716 426.602,523.216 334.5,542C 236.322,555.841 154.822,525.674 90,451.5C 35.081,379.226 20.081,299.226 45,211.5C 73.6615,127.505 130.162,71.6718 214.5,44C 232.037,39.1257 249.703,35.6257 267.5,33.5 Z"/></g>
<g><path style="opacity:1" fill="#787eca" d="M 289.5,67.5 C 288.295,65.8624 286.962,65.5291 285.5,66.5C 285.47,65.5028 285.97,64.8361 287,64.5C 288.749,64.7483 289.582,65.7483 289.5,67.5 Z"/></g>
<g><path style="opacity:1" fill="#9ca0d8" d="M 285.5,66.5 C 285.741,68.8984 285.074,70.8984 283.5,72.5C 283.5,71.8333 283.5,71.1667 283.5,70.5C 283.66,68.847 284.326,67.5137 285.5,66.5 Z"/></g>
<g><path style="opacity:1" fill="#f7f7fc" d="M 289.5,67.5 C 289.502,71.1645 290.835,74.1645 293.5,76.5C 293.584,79.3274 294.25,81.994 295.5,84.5C 296.508,86.5439 297.508,88.5439 298.5,90.5C 299.083,93.9466 300.416,96.9466 302.5,99.5C 303.596,102.032 304.929,104.365 306.5,106.5C 306.166,109.491 307.166,111.824 309.5,113.5C 309.5,114.167 309.5,114.833 309.5,115.5C 309.942,118.343 310.942,121.009 312.5,123.5C 312.957,124.298 313.624,124.631 314.5,124.5C 314.752,128.327 316.085,131.66 318.5,134.5C 319.167,134.833 319.833,135.167 320.5,135.5C 320.12,137.698 320.787,139.365 322.5,140.5C 322.12,142.698 322.787,144.365 324.5,145.5C 324.5,146.167 324.5,146.833 324.5,147.5C 324.343,148.873 324.51,150.207 325,151.5C 325.902,153.431 327.069,155.097 328.5,156.5C 329.34,158.853 330.674,160.853 332.5,162.5C 332.12,164.698 332.787,166.365 334.5,167.5C 336.383,172.936 338.55,178.269 341,183.5C 341.977,188.793 342.477,194.126 342.5,199.5C 342.754,206.407 343.754,213.074 345.5,219.5C 345.54,224.193 345.873,228.859 346.5,233.5C 347.143,241.15 347.477,248.817 347.5,256.5C 347.784,258.415 347.451,260.081 346.5,261.5C 344.837,263.438 344.171,265.772 344.5,268.5C 343.034,269.347 342.2,270.68 342,272.5C 340.254,278.394 339.088,284.394 338.5,290.5C 338.5,291.833 338.5,293.167 338.5,294.5C 336.692,295.918 336.025,297.918 336.5,300.5C 336.5,301.833 336.5,303.167 336.5,304.5C 334.787,305.635 334.12,307.302 334.5,309.5C 334.5,310.167 334.5,310.833 334.5,311.5C 333.778,311.918 333.278,312.584 333,313.5C 331.842,318.795 331.009,324.128 330.5,329.5C 330.5,330.167 330.5,330.833 330.5,331.5C 329.351,331.791 328.684,332.624 328.5,334C 327.669,338.151 327.003,342.317 326.5,346.5C 326.5,347.167 326.5,347.833 326.5,348.5C 324.692,349.918 324.025,351.918 324.5,354.5C 322.937,358.661 322.271,362.995 322.5,367.5C 320.787,368.635 320.12,370.302 320.5,372.5C 320.5,372.833 320.5,373.167 320.5,373.5C 319.076,375.515 318.41,377.848 318.5,380.5C 318.5,381.833 318.5,383.167 318.5,384.5C 316.926,386.102 316.259,388.102 316.5,390.5C 316.5,390.833 316.5,391.167 316.5,391.5C 316.167,391.5 315.833,391.5 315.5,391.5C 312.332,398.012 310.665,405.012 310.5,412.5C 309.711,417.903 308.711,423.236 307.5,428.5C 306.883,428.611 306.383,428.944 306,429.5C 305.003,434.486 304.169,439.486 303.5,444.5C 303.167,447.167 302.833,449.833 302.5,452.5C 301.566,453.568 301.232,454.901 301.5,456.5C 300.011,458.116 299.011,460.116 298.5,462.5C 297.511,466.107 297.177,469.774 297.5,473.5C 297.634,475.292 297.301,476.958 296.5,478.5C 293.957,484.523 292.291,490.857 291.5,497.5C 290,501.33 289.333,505.33 289.5,509.5C 288.041,509.567 286.708,509.234 285.5,508.5C 285.5,507.833 285.5,507.167 285.5,506.5C 284.92,504.251 283.587,502.585 281.5,501.5C 281.068,500.29 280.401,499.29 279.5,498.5C 279.011,497.005 278.345,495.671 277.5,494.5C 277.573,492.973 276.906,491.973 275.5,491.5C 275.573,489.973 274.906,488.973 273.5,488.5C 273.5,488.167 273.5,487.833 273.5,487.5C 273.408,485.152 272.408,483.486 270.5,482.5C 269.89,480.566 268.89,478.899 267.5,477.5C 267.33,473.814 265.664,471.147 262.5,469.5C 262.759,467.011 261.759,465.344 259.5,464.5C 259.443,463.391 259.11,462.391 258.5,461.5C 258.316,458.663 256.982,456.663 254.5,455.5C 254.841,451.84 254.175,448.507 252.5,445.5C 251.631,443.283 251.298,440.95 251.5,438.5C 251.59,435.848 250.924,433.515 249.5,431.5C 249.5,430.167 249.5,428.833 249.5,427.5C 249.59,424.848 248.924,422.515 247.5,420.5C 247.5,419.833 247.5,419.167 247.5,418.5C 247.59,415.848 246.924,413.515 245.5,411.5C 245.5,408.833 245.5,406.167 245.5,403.5C 245.741,401.102 245.074,399.102 243.5,397.5C 243.492,394.455 243.159,391.455 242.5,388.5C 242.018,384.127 241.352,379.794 240.5,375.5C 241.009,369.881 240.176,364.547 238,359.5C 236.851,350.121 235.517,340.787 234,331.5C 232.92,326.979 231.42,322.646 229.5,318.5C 229.889,315.447 229.223,312.78 227.5,310.5C 226.992,304.136 226.159,297.802 225,291.5C 224.722,290.584 224.222,289.918 223.5,289.5C 223.5,289.167 223.5,288.833 223.5,288.5C 223.658,285.098 223.324,281.764 222.5,278.5C 222.59,275.848 221.924,273.515 220.5,271.5C 220.5,270.5 220.5,269.5 220.5,268.5C 220.192,264.64 219.525,260.974 218.5,257.5C 217.781,255.236 217.448,252.903 217.5,250.5C 217.081,245.069 217.081,239.736 217.5,234.5C 217.629,232.784 217.962,231.117 218.5,229.5C 219.5,227.5 220.5,225.5 221.5,223.5C 222.957,221.758 224.124,219.758 225,217.5C 226.357,213.935 227.19,210.268 227.5,206.5C 230.537,202.777 232.537,198.443 233.5,193.5C 235.742,190.918 237.076,187.918 237.5,184.5C 237.5,184.167 237.5,183.833 237.5,183.5C 242.054,176.877 245.388,169.543 247.5,161.5C 247.5,160.167 247.5,158.833 247.5,157.5C 250.274,153.41 252.607,149.077 254.5,144.5C 256.928,140.593 258.595,136.26 259.5,131.5C 259.5,130.833 259.5,130.167 259.5,129.5C 260.167,128.833 260.833,128.167 261.5,127.5C 263.38,125.245 264.38,122.578 264.5,119.5C 264.833,118.167 265.167,116.833 265.5,115.5C 267.723,112.856 269.389,109.856 270.5,106.5C 271.15,104.565 271.483,102.565 271.5,100.5C 271.5,100.167 271.5,99.8333 271.5,99.5C 272.906,99.0269 273.573,98.0269 273.5,96.5C 273.5,96.1667 273.5,95.8333 273.5,95.5C 275.818,93.8148 276.818,91.4815 276.5,88.5C 277.11,87.609 277.443,86.609 277.5,85.5C 279.4,82.4822 280.733,79.1488 281.5,75.5C 282.167,74.5 282.833,73.5 283.5,72.5C 285.074,70.8984 285.741,68.8984 285.5,66.5C 286.962,65.5291 288.295,65.8624 289.5,67.5 Z"/></g>
<g><path style="opacity:1" fill="#7d81cb" d="M 289.5,67.5 C 291.592,70.0884 292.925,73.0884 293.5,76.5C 290.835,74.1645 289.502,71.1645 289.5,67.5 Z"/></g>
<g><path style="opacity:1" fill="#555bbb" d="M 283.5,70.5 C 283.5,71.1667 283.5,71.8333 283.5,72.5C 282.833,73.5 282.167,74.5 281.5,75.5C 281.12,73.302 281.787,71.6354 283.5,70.5 Z"/></g>
<g><path style="opacity:1" fill="#6166c0" d="M 281.5,75.5 C 280.733,79.1488 279.4,82.4822 277.5,85.5C 277.77,81.6424 279.103,78.309 281.5,75.5 Z"/></g>
<g><path style="opacity:1" fill="#7f82cc" d="M 293.5,76.5 C 295.542,79.6142 297.209,82.9476 298.5,86.5C 297.5,85.8333 296.5,85.1667 295.5,84.5C 294.25,81.994 293.584,79.3274 293.5,76.5 Z"/></g>
<g><path style="opacity:1" fill="#b3b7e1" d="M 295.5,84.5 C 296.5,85.1667 297.5,85.8333 298.5,86.5C 298.5,87.1667 298.5,87.8333 298.5,88.5C 298.5,89.1667 298.5,89.8333 298.5,90.5C 297.508,88.5439 296.508,86.5439 295.5,84.5 Z"/></g>
<g><path style="opacity:1" fill="#595fbc" d="M 277.5,85.5 C 277.443,86.609 277.11,87.609 276.5,88.5C 276.167,88.5 275.833,88.5 275.5,88.5C 275.427,86.9731 276.094,85.9731 277.5,85.5 Z"/></g>
<g><path style="opacity:1" fill="#6b71c4" d="M 298.5,88.5 C 299.906,88.9731 300.573,89.9731 300.5,91.5C 299.833,91.1667 299.167,90.8333 298.5,90.5C 298.5,89.8333 298.5,89.1667 298.5,88.5 Z"/></g>
<g><path style="opacity:1" fill="#8f92d2" d="M 275.5,88.5 C 275.833,88.5 276.167,88.5 276.5,88.5C 276.818,91.4815 275.818,93.8148 273.5,95.5C 273.884,93.0706 274.551,90.7373 275.5,88.5 Z"/></g>
<g><path style="opacity:1" fill="#6268c1" d="M 300.5,92.5 C 301.906,92.9731 302.573,93.9731 302.5,95.5C 301.094,95.0269 300.427,94.0269 300.5,92.5 Z"/></g>
<g><path style="opacity:1" fill="#bbbee5" d="M 298.5,90.5 C 299.167,90.8333 299.833,91.1667 300.5,91.5C 300.5,91.8333 300.5,92.1667 300.5,92.5C 300.427,94.0269 301.094,95.0269 302.5,95.5C 302.5,95.8333 302.5,96.1667 302.5,96.5C 302.5,97.5 302.5,98.5 302.5,99.5C 300.416,96.9466 299.083,93.9466 298.5,90.5 Z"/></g>
<g><path style="opacity:1" fill="#9ba1d9" d="M 290.5,98.5 C 289.5,97.1667 288.5,97.1667 287.5,98.5C 288.5,95.8333 289.5,95.8333 290.5,98.5 Z"/></g>
<g><path style="opacity:1" fill="#8084cd" d="M 273.5,96.5 C 273.573,98.0269 272.906,99.0269 271.5,99.5C 271.427,97.9731 272.094,96.9731 273.5,96.5 Z"/></g>
<g><path style="opacity:1" fill="#898ccf" d="M 302.5,96.5 C 303.737,97.9649 304.737,99.6316 305.5,101.5C 306.301,103.042 306.634,104.708 306.5,106.5C 304.929,104.365 303.596,102.032 302.5,99.5C 302.5,98.5 302.5,97.5 302.5,96.5 Z"/></g>
<g><path style="opacity:1" fill="#5d60be" d="M 290.5,98.5 C 290.833,99.1667 291.167,99.8333 291.5,100.5C 291.5,100.833 291.5,101.167 291.5,101.5C 290.542,101.047 289.708,100.381 289,99.5C 288.768,100.737 288.268,101.737 287.5,102.5C 287.5,101.5 287.5,100.5 287.5,99.5C 287.5,99.1667 287.5,98.8333 287.5,98.5C 288.5,97.1667 289.5,97.1667 290.5,98.5 Z"/></g>
<g><path style="opacity:1" fill="#3334aa" d="M 291.5,101.5 C 292.441,103.05 293.107,104.716 293.5,106.5C 291.952,106.179 291.285,105.179 291.5,103.5C 290.5,103.5 289.5,103.5 288.5,103.5C 288.771,105.38 288.104,106.713 286.5,107.5C 286.366,105.708 286.699,104.042 287.5,102.5C 288.268,101.737 288.768,100.737 289,99.5C 289.708,100.381 290.542,101.047 291.5,101.5 Z"/></g>
<g><path style="opacity:1" fill="#b4b7e2" d="M 291.5,100.5 C 294.496,103.497 296.163,107.164 296.5,111.5C 295.857,109.924 294.857,108.59 293.5,107.5C 293.5,107.167 293.5,106.833 293.5,106.5C 293.107,104.716 292.441,103.05 291.5,101.5C 291.5,101.167 291.5,100.833 291.5,100.5 Z"/></g>
<g><path style="opacity:1" fill="#9497d5" d="M 271.5,100.5 C 271.483,102.565 271.15,104.565 270.5,106.5C 269.5,107.167 268.5,107.833 267.5,108.5C 268.65,105.702 269.983,103.035 271.5,100.5 Z"/></g>
<g><path style="opacity:1" fill="#2d31a8" d="M 305.5,101.5 C 308.351,104.934 310.351,108.934 311.5,113.5C 310.833,112.833 310.167,112.167 309.5,111.5C 308.687,109.739 307.687,108.072 306.5,106.5C 306.634,104.708 306.301,103.042 305.5,101.5 Z"/></g>
<g><path style="opacity:1" fill="#b1b5e1" d="M 306.5,106.5 C 307.687,108.072 308.687,109.739 309.5,111.5C 309.5,112.167 309.5,112.833 309.5,113.5C 307.166,111.824 306.166,109.491 306.5,106.5 Z"/></g>
<g><path style="opacity:1" fill="#4e52b7" d="M 293.5,107.5 C 294.857,108.59 295.857,109.924 296.5,111.5C 297.933,113.558 298.6,115.892 298.5,118.5C 295.872,115.287 294.205,111.62 293.5,107.5 Z"/></g>
<g><path style="opacity:1" fill="#d2d4ed" d="M 296.5,111.5 C 297.5,111.5 298.5,111.5 299.5,111.5C 301.011,117.21 302.678,122.877 304.5,128.5C 303.833,128.167 303.167,127.833 302.5,127.5C 302.657,126.127 302.49,124.793 302,123.5C 301.098,121.569 299.931,119.903 298.5,118.5C 298.6,115.892 297.933,113.558 296.5,111.5 Z"/></g>
<g><path style="opacity:1" fill="#06139b" d="M 293.5,106.5 C 293.5,106.833 293.5,107.167 293.5,107.5C 294.205,111.62 295.872,115.287 298.5,118.5C 299.083,121.947 300.416,124.947 302.5,127.5C 302.427,129.027 303.094,130.027 304.5,130.5C 304.5,130.833 304.5,131.167 304.5,131.5C 304.557,132.609 304.89,133.609 305.5,134.5C 305.87,137.71 307.203,140.377 309.5,142.5C 309.833,142.5 310.167,142.5 310.5,142.5C 310.402,144.553 311.069,146.22 312.5,147.5C 312.833,148.833 313.167,150.167 313.5,151.5C 313.755,153.967 314.755,155.967 316.5,157.5C 316.833,158.833 317.167,160.167 317.5,161.5C 318.603,165.497 320.269,169.164 322.5,172.5C 322.756,175.457 323.756,178.124 325.5,180.5C 322.75,181.875 320.084,183.208 317.5,184.5C 316.833,184.5 316.167,184.5 315.5,184.5C 309.181,185.389 303.181,187.056 297.5,189.5C 296.833,189.5 296.167,189.5 295.5,189.5C 292.302,188.964 289.635,189.631 287.5,191.5C 286.833,191.5 286.167,191.5 285.5,191.5C 282.351,191.415 279.684,192.415 277.5,194.5C 275.167,194.5 272.833,194.5 270.5,194.5C 271.716,188.539 272.716,182.539 273.5,176.5C 273.5,175.167 273.5,173.833 273.5,172.5C 274.768,170.095 275.435,167.428 275.5,164.5C 276.434,163.432 276.768,162.099 276.5,160.5C 278.156,155.366 279.489,150.033 280.5,144.5C 280.538,139.729 281.204,135.062 282.5,130.5C 282.5,129.833 282.5,129.167 282.5,128.5C 284.074,126.898 284.741,124.898 284.5,122.5C 284.5,122.167 284.5,121.833 284.5,121.5C 286.136,117.79 286.802,113.79 286.5,109.5C 286.5,108.833 286.5,108.167 286.5,107.5C 288.104,106.713 288.771,105.38 288.5,103.5C 289.5,103.5 290.5,103.5 291.5,103.5C 291.285,105.179 291.952,106.179 293.5,106.5 Z"/></g>
<g><path style="opacity:1" fill="#a9abdd" d="M 270.5,106.5 C 269.389,109.856 267.723,112.856 265.5,115.5C 265.4,112.892 266.067,110.558 267.5,108.5C 268.5,107.833 269.5,107.167 270.5,106.5 Z"/></g>
<g><path style="opacity:1" fill="#8387cd" d="M 309.5,111.5 C 310.167,112.167 310.833,112.833 311.5,113.5C 311.5,114.167 311.5,114.833 311.5,115.5C 312.11,116.391 312.443,117.391 312.5,118.5C 311.272,117.694 310.272,116.694 309.5,115.5C 309.5,114.833 309.5,114.167 309.5,113.5C 309.5,112.833 309.5,112.167 309.5,111.5 Z"/></g>
<g><path style="opacity:1" fill="#4549b3" d="M 286.5,109.5 C 286.802,113.79 286.136,117.79 284.5,121.5C 284.198,117.21 284.864,113.21 286.5,109.5 Z"/></g>
<g><path style="opacity:1" fill="#cbcdeb" d="M 309.5,115.5 C 310.272,116.694 311.272,117.694 312.5,118.5C 313.72,120.282 314.386,122.282 314.5,124.5C 313.624,124.631 312.957,124.298 312.5,123.5C 310.942,121.009 309.942,118.343 309.5,115.5 Z"/></g>
<g><path style="opacity:1" fill="#5e62be" d="M 265.5,115.5 C 265.167,116.833 264.833,118.167 264.5,119.5C 263.857,121.076 262.857,122.41 261.5,123.5C 261.609,120.101 262.942,117.434 265.5,115.5 Z"/></g>
<g><path style="opacity:1" fill="#d2d4ed" d="M 274.5,132.5 C 274.511,130.453 274.844,128.453 275.5,126.5C 275.167,125.833 274.833,125.167 274.5,124.5C 273.482,125.193 272.482,125.859 271.5,126.5C 271.316,123.679 272.649,122.012 275.5,121.5C 276.881,125.431 276.547,129.098 274.5,132.5 Z"/></g>
<g><path style="opacity:1" fill="#a5a9db" d="M 287.5,99.5 C 287.5,100.5 287.5,101.5 287.5,102.5C 286.699,104.042 286.366,105.708 286.5,107.5C 286.5,108.167 286.5,108.833 286.5,109.5C 284.864,113.21 284.198,117.21 284.5,121.5C 284.5,121.833 284.5,122.167 284.5,122.5C 282.926,124.102 282.259,126.102 282.5,128.5C 282.5,129.167 282.5,129.833 282.5,130.5C 282.167,130.5 281.833,130.5 281.5,130.5C 282.664,122.528 283.83,114.528 285,106.5C 285.156,103.809 285.989,101.476 287.5,99.5 Z"/></g>
<g><path style="opacity:1" fill="#575dbc" d="M 298.5,118.5 C 299.931,119.903 301.098,121.569 302,123.5C 302.49,124.793 302.657,126.127 302.5,127.5C 300.416,124.947 299.083,121.947 298.5,118.5 Z"/></g>
<g><path style="opacity:1" fill="#3337ab" d="M 311.5,115.5 C 314.285,119.045 316.618,123.045 318.5,127.5C 319.452,129.045 319.785,130.712 319.5,132.5C 319.167,132.5 318.833,132.5 318.5,132.5C 317.674,129.515 316.341,126.849 314.5,124.5C 314.386,122.282 313.72,120.282 312.5,118.5C 312.443,117.391 312.11,116.391 311.5,115.5 Z"/></g>
<g><path style="opacity:1" fill="#7a7fca" d="M 261.5,123.5 C 261.5,124.833 261.5,126.167 261.5,127.5C 260.833,128.167 260.167,128.833 259.5,129.5C 259.259,127.102 259.926,125.102 261.5,123.5 Z"/></g>
<g><path style="opacity:1" fill="#caccea" d="M 264.5,119.5 C 264.38,122.578 263.38,125.245 261.5,127.5C 261.5,126.167 261.5,124.833 261.5,123.5C 262.857,122.41 263.857,121.076 264.5,119.5 Z"/></g>
<g><path style="opacity:1" fill="#9ca1d8" d="M 274.5,132.5 C 274.737,133.791 274.404,134.791 273.5,135.5C 273.663,133.143 273.497,130.81 273,128.5C 271.97,130.346 270.804,132.013 269.5,133.5C 269.878,131.079 270.545,128.746 271.5,126.5C 272.482,125.859 273.482,125.193 274.5,124.5C 274.833,125.167 275.167,125.833 275.5,126.5C 274.844,128.453 274.511,130.453 274.5,132.5 Z"/></g>
<g><path style="opacity:1" fill="#565dbc" d="M 284.5,122.5 C 284.741,124.898 284.074,126.898 282.5,128.5C 282.259,126.102 282.926,124.102 284.5,122.5 Z"/></g>
<g><path style="opacity:1" fill="#b7bae3" d="M 314.5,124.5 C 316.341,126.849 317.674,129.515 318.5,132.5C 318.5,133.167 318.5,133.833 318.5,134.5C 316.085,131.66 314.752,128.327 314.5,124.5 Z"/></g>
<g><path style="opacity:1" fill="#5f65bf" d="M 302.5,127.5 C 303.167,127.833 303.833,128.167 304.5,128.5C 304.5,129.167 304.5,129.833 304.5,130.5C 303.094,130.027 302.427,129.027 302.5,127.5 Z"/></g>
<g><path style="opacity:1" fill="#6168c0" d="M 259.5,129.5 C 259.5,130.167 259.5,130.833 259.5,131.5C 258.833,131.833 258.167,132.167 257.5,132.5C 257.427,130.973 258.094,129.973 259.5,129.5 Z"/></g>
<g><path style="opacity:1" fill="#6c73c5" d="M 304.5,131.5 C 305.906,131.973 306.573,132.973 306.5,134.5C 306.167,134.5 305.833,134.5 305.5,134.5C 304.89,133.609 304.557,132.609 304.5,131.5 Z"/></g>
<g><path style="opacity:1" fill="#c9caea" d="M 304.5,128.5 C 305.5,128.5 306.5,128.5 307.5,128.5C 308.677,133.111 309.677,137.777 310.5,142.5C 310.167,142.5 309.833,142.5 309.5,142.5C 308.883,139.645 307.883,136.978 306.5,134.5C 306.573,132.973 305.906,131.973 304.5,131.5C 304.5,131.167 304.5,130.833 304.5,130.5C 304.5,129.833 304.5,129.167 304.5,128.5 Z"/></g>
<g><path style="opacity:1" fill="#6b71c5" d="M 318.5,132.5 C 318.833,132.5 319.167,132.5 319.5,132.5C 320.11,133.391 320.443,134.391 320.5,135.5C 319.833,135.167 319.167,134.833 318.5,134.5C 318.5,133.833 318.5,133.167 318.5,132.5 Z"/></g>
<g><path style="opacity:1" fill="#676fc3" d="M 257.5,134.5 C 257.573,136.027 256.906,137.027 255.5,137.5C 255.427,135.973 256.094,134.973 257.5,134.5 Z"/></g>
<g><path style="opacity:1" fill="#565bbb" d="M 273.5,135.5 C 273.5,135.833 273.5,136.167 273.5,136.5C 272.833,137.833 272.167,139.167 271.5,140.5C 271.662,138.473 271.495,136.473 271,134.5C 270.768,135.737 270.268,136.737 269.5,137.5C 269.5,136.833 269.5,136.167 269.5,135.5C 269.5,134.833 269.5,134.167 269.5,133.5C 270.804,132.013 271.97,130.346 273,128.5C 273.497,130.81 273.663,133.143 273.5,135.5 Z"/></g>
<g><path style="opacity:1" fill="#777dca" d="M 281.5,130.5 C 281.833,130.5 282.167,130.5 282.5,130.5C 281.204,135.062 280.538,139.729 280.5,144.5C 280.167,144.5 279.833,144.5 279.5,144.5C 279.5,143.833 279.5,143.167 279.5,142.5C 279.333,138.33 280,134.33 281.5,130.5 Z"/></g>
<g><path style="opacity:1" fill="#cbceea" d="M 259.5,131.5 C 258.595,136.26 256.928,140.593 254.5,144.5C 255.15,142.565 255.483,140.565 255.5,138.5C 255.5,138.167 255.5,137.833 255.5,137.5C 256.906,137.027 257.573,136.027 257.5,134.5C 257.5,133.833 257.5,133.167 257.5,132.5C 258.167,132.167 258.833,131.833 259.5,131.5 Z"/></g>
<g><path style="opacity:1" fill="#a5a9dc" d="M 269.5,135.5 C 269.5,136.167 269.5,136.833 269.5,137.5C 268.833,137.833 268.167,138.167 267.5,138.5C 267.427,136.973 268.094,135.973 269.5,135.5 Z"/></g>
<g><path style="opacity:1" fill="#7f83cb" d="M 320.5,135.5 C 321.537,136.93 322.204,138.597 322.5,140.5C 320.787,139.365 320.12,137.698 320.5,135.5 Z"/></g>
<g><path style="opacity:1" fill="#3e44b1" d="M 305.5,134.5 C 305.833,134.5 306.167,134.5 306.5,134.5C 307.883,136.978 308.883,139.645 309.5,142.5C 307.203,140.377 305.87,137.71 305.5,134.5 Z"/></g>
<g><path style="opacity:1" fill="#787dc9" d="M 255.5,138.5 C 255.483,140.565 255.15,142.565 254.5,144.5C 252.607,149.077 250.274,153.41 247.5,157.5C 249.025,150.567 251.691,144.233 255.5,138.5 Z"/></g>
<g><path style="opacity:1" fill="#969ad5" d="M 267.5,140.5 C 267.167,141.833 266.833,143.167 266.5,144.5C 266.5,145.167 266.167,145.5 265.5,145.5C 265.12,143.302 265.787,141.635 267.5,140.5 Z"/></g>
<g><path style="opacity:1" fill="#4242af" d="M 269.5,137.5 C 269.357,140.385 268.357,142.718 266.5,144.5C 266.833,143.167 267.167,141.833 267.5,140.5C 267.5,139.833 267.5,139.167 267.5,138.5C 268.167,138.167 268.833,137.833 269.5,137.5 Z"/></g>
<g><path style="opacity:1" fill="#8e93d2" d="M 322.5,140.5 C 323.537,141.93 324.204,143.597 324.5,145.5C 322.787,144.365 322.12,142.698 322.5,140.5 Z"/></g>
<g><path style="opacity:1" fill="#a8acdd" d="M 310.5,142.5 C 312.213,143.635 312.88,145.302 312.5,147.5C 311.069,146.22 310.402,144.553 310.5,142.5 Z"/></g>
<g><path style="opacity:1" fill="#9599d5" d="M 265.5,145.5 C 264.917,148.947 263.584,151.947 261.5,154.5C 261.343,153.127 261.51,151.793 262,150.5C 262.902,148.569 264.069,146.903 265.5,145.5 Z"/></g>
<g><path style="opacity:1" fill="#5057b9" d="M 271.5,142.5 C 271.741,144.898 271.074,146.898 269.5,148.5C 269.259,146.102 269.926,144.102 271.5,142.5 Z"/></g>
<g><path style="opacity:1" fill="#b9bde4" d="M 273.5,136.5 C 273.541,143.632 272.207,150.299 269.5,156.5C 269.5,155.167 269.5,153.833 269.5,152.5C 269.5,151.167 269.5,149.833 269.5,148.5C 271.074,146.898 271.741,144.898 271.5,142.5C 271.5,141.833 271.5,141.167 271.5,140.5C 272.167,139.167 272.833,137.833 273.5,136.5 Z"/></g>
<g><path style="opacity:1" fill="#a9acdd" d="M 279.5,142.5 C 279.5,143.167 279.5,143.833 279.5,144.5C 279.204,146.403 278.537,148.07 277.5,149.5C 277.171,146.772 277.837,144.438 279.5,142.5 Z"/></g>
<g><path style="opacity:1" fill="#6469c2" d="M 324.5,145.5 C 325.906,145.973 326.573,146.973 326.5,148.5C 325.833,148.167 325.167,147.833 324.5,147.5C 324.5,146.833 324.5,146.167 324.5,145.5 Z"/></g>
<g><path style="opacity:1" fill="#4f55b9" d="M 279.5,144.5 C 279.833,144.5 280.167,144.5 280.5,144.5C 279.489,150.033 278.156,155.366 276.5,160.5C 276.833,157.833 277.167,155.167 277.5,152.5C 277.5,151.5 277.5,150.5 277.5,149.5C 278.537,148.07 279.204,146.403 279.5,144.5 Z"/></g>
<g><path style="opacity:1" fill="#b7bae3" d="M 312.5,147.5 C 314.759,148.344 315.759,150.011 315.5,152.5C 314.833,152.167 314.167,151.833 313.5,151.5C 313.167,150.167 312.833,148.833 312.5,147.5 Z"/></g>
<g><path style="opacity:1" fill="#c4c6e9" d="M 324.5,147.5 C 325.167,147.833 325.833,148.167 326.5,148.5C 326.5,148.833 326.5,149.167 326.5,149.5C 326.427,151.027 327.094,152.027 328.5,152.5C 328.5,153.833 328.5,155.167 328.5,156.5C 327.069,155.097 325.902,153.431 325,151.5C 324.51,150.207 324.343,148.873 324.5,147.5 Z"/></g>
<g><path style="opacity:1" fill="#585ebc" d="M 326.5,149.5 C 327.906,149.973 328.573,150.973 328.5,152.5C 327.094,152.027 326.427,151.027 326.5,149.5 Z"/></g>
<g><path style="opacity:1" fill="#565dbc" d="M 269.5,152.5 C 269.5,153.833 269.5,155.167 269.5,156.5C 268.833,157.5 268.167,158.5 267.5,159.5C 267.41,156.848 268.076,154.515 269.5,152.5 Z"/></g>
<g><path style="opacity:1" fill="#6a70c4" d="M 328.5,152.5 C 329.537,153.93 330.204,155.597 330.5,157.5C 329.833,157.167 329.167,156.833 328.5,156.5C 328.5,155.167 328.5,153.833 328.5,152.5 Z"/></g>
<g><path style="opacity:1" fill="#6065c0" d="M 313.5,151.5 C 314.167,151.833 314.833,152.167 315.5,152.5C 316.301,154.042 316.634,155.708 316.5,157.5C 314.755,155.967 313.755,153.967 313.5,151.5 Z"/></g>
<g><path style="opacity:1" fill="#a0a4d9" d="M 277.5,152.5 C 277.167,155.167 276.833,157.833 276.5,160.5C 276.768,162.099 276.434,163.432 275.5,164.5C 275.083,160.183 275.75,156.183 277.5,152.5 Z"/></g>
<g><path style="opacity:1" fill="#878bd0" d="M 316.5,157.5 C 317.833,157.5 318.5,158.167 318.5,159.5C 318.5,160.167 318.5,160.833 318.5,161.5C 318.167,161.5 317.833,161.5 317.5,161.5C 317.167,160.167 316.833,158.833 316.5,157.5 Z"/></g>
<g><path style="opacity:1" fill="#7d82cb" d="M 247.5,157.5 C 247.5,158.833 247.5,160.167 247.5,161.5C 246.833,161.833 246.167,162.167 245.5,162.5C 245.796,160.597 246.463,158.93 247.5,157.5 Z"/></g>
<g><path style="opacity:1" fill="#bfc2e6" d="M 318.5,159.5 C 319.497,159.47 320.164,159.97 320.5,161C 321.249,163.497 321.916,165.997 322.5,168.5C 320.805,166.465 319.472,164.132 318.5,161.5C 318.5,160.833 318.5,160.167 318.5,159.5 Z"/></g>
<g><path style="opacity:1" fill="#8d91d2" d="M 328.5,156.5 C 329.167,156.833 329.833,157.167 330.5,157.5C 331.537,158.93 332.204,160.597 332.5,162.5C 330.674,160.853 329.34,158.853 328.5,156.5 Z"/></g>
<g><path style="opacity:1" fill="#8f94d3" d="M 261.5,155.5 C 260.925,158.912 259.592,161.912 257.5,164.5C 258.059,161.057 259.393,158.057 261.5,155.5 Z"/></g>
<g><path style="opacity:1" fill="#969bd5" d="M 269.5,156.5 C 269.326,158.861 268.993,161.194 268.5,163.5C 268.167,163.5 267.833,163.5 267.5,163.5C 267.5,162.167 267.5,160.833 267.5,159.5C 268.167,158.5 268.833,157.5 269.5,156.5 Z"/></g>
<g><path style="opacity:1" fill="#393fae" d="M 317.5,161.5 C 317.833,161.5 318.167,161.5 318.5,161.5C 319.472,164.132 320.805,166.465 322.5,168.5C 322.5,169.167 322.5,169.833 322.5,170.5C 322.5,171.167 322.5,171.833 322.5,172.5C 320.269,169.164 318.603,165.497 317.5,161.5 Z"/></g>
<g><path style="opacity:1" fill="#9094d3" d="M 332.5,162.5 C 333.537,163.93 334.204,165.597 334.5,167.5C 332.787,166.365 332.12,164.698 332.5,162.5 Z"/></g>
<g><path style="opacity:1" fill="#484db5" d="M 244.5,164.5 C 243.962,166.117 243.629,167.784 243.5,169.5C 242.833,169.833 242.167,170.167 241.5,170.5C 241.755,168.033 242.755,166.033 244.5,164.5 Z"/></g>
<g><path style="opacity:1" fill="#9ca1d8" d="M 275.5,164.5 C 275.435,167.428 274.768,170.095 273.5,172.5C 273.111,169.447 273.777,166.78 275.5,164.5 Z"/></g>
<g><path style="opacity:1" fill="#0d169d" d="M 271.5,140.5 C 271.5,141.167 271.5,141.833 271.5,142.5C 269.926,144.102 269.259,146.102 269.5,148.5C 269.5,149.833 269.5,151.167 269.5,152.5C 268.076,154.515 267.41,156.848 267.5,159.5C 267.5,160.833 267.5,162.167 267.5,163.5C 267.5,164.167 267.5,164.833 267.5,165.5C 265.926,167.102 265.259,169.102 265.5,171.5C 265.5,173.167 265.5,174.833 265.5,176.5C 263.787,177.635 263.12,179.302 263.5,181.5C 263.5,182.167 263.5,182.833 263.5,183.5C 262.076,185.515 261.41,187.848 261.5,190.5C 261.813,193.247 261.48,195.914 260.5,198.5C 259.026,200.717 257.36,202.717 255.5,204.5C 254.167,204.5 253.5,205.167 253.5,206.5C 249.518,208.817 246.185,211.817 243.5,215.5C 241.589,216.075 239.922,217.075 238.5,218.5C 237.957,218.44 237.624,218.107 237.5,217.5C 240.558,212.576 242.558,207.242 243.5,201.5C 243.5,200.833 243.5,200.167 243.5,199.5C 244.906,199.027 245.573,198.027 245.5,196.5C 245.5,195.833 245.5,195.167 245.5,194.5C 246.906,194.027 247.573,193.027 247.5,191.5C 247.5,190.833 247.5,190.167 247.5,189.5C 248.906,189.027 249.573,188.027 249.5,186.5C 249.5,185.5 249.5,184.5 249.5,183.5C 249.5,183.167 249.5,182.833 249.5,182.5C 249.833,182.5 250.167,182.5 250.5,182.5C 253.587,179.965 255.254,176.632 255.5,172.5C 255.584,169.673 256.25,167.006 257.5,164.5C 259.592,161.912 260.925,158.912 261.5,155.5C 261.5,155.167 261.5,154.833 261.5,154.5C 263.584,151.947 264.917,148.947 265.5,145.5C 266.167,145.5 266.5,145.167 266.5,144.5C 268.357,142.718 269.357,140.385 269.5,137.5C 270.268,136.737 270.768,135.737 271,134.5C 271.495,136.473 271.662,138.473 271.5,140.5 Z"/></g>
<g><path style="opacity:1" fill="#7379c7" d="M 267.5,165.5 C 267.741,167.898 267.074,169.898 265.5,171.5C 265.259,169.102 265.926,167.102 267.5,165.5 Z"/></g>
<g><path style="opacity:1" fill="#868bd0" d="M 243.5,169.5 C 243.573,171.027 242.906,172.027 241.5,172.5C 241.5,171.833 241.5,171.167 241.5,170.5C 242.167,170.167 242.833,169.833 243.5,169.5 Z"/></g>
<g><path style="opacity:1" fill="#8c91d2" d="M 322.5,170.5 C 323.906,170.973 324.573,171.973 324.5,173.5C 323.833,173.167 323.167,172.833 322.5,172.5C 322.5,171.833 322.5,171.167 322.5,170.5 Z"/></g>
<g><path style="opacity:1" fill="#c7c9e9" d="M 257.5,164.5 C 256.25,167.006 255.584,169.673 255.5,172.5C 252.799,175.235 251.132,178.569 250.5,182.5C 250.167,182.5 249.833,182.5 249.5,182.5C 250.006,178.317 251.172,174.317 253,170.5C 253.791,167.896 255.291,165.896 257.5,164.5 Z"/></g>
<g><path style="opacity:1" fill="#5357b8" d="M 240.5,174.5 C 240.204,176.403 239.537,178.07 238.5,179.5C 238.12,177.302 238.787,175.635 240.5,174.5 Z"/></g>
<g><path style="opacity:1" fill="#3f42b0" d="M 255.5,172.5 C 255.254,176.632 253.587,179.965 250.5,182.5C 251.132,178.569 252.799,175.235 255.5,172.5 Z"/></g>
<g><path style="opacity:1" fill="#c6c9e8" d="M 267.5,163.5 C 267.833,163.5 268.167,163.5 268.5,163.5C 268.622,169.177 267.622,174.51 265.5,179.5C 265.5,178.5 265.5,177.5 265.5,176.5C 265.5,174.833 265.5,173.167 265.5,171.5C 267.074,169.898 267.741,167.898 267.5,165.5C 267.5,164.833 267.5,164.167 267.5,163.5 Z"/></g>
<g><path style="opacity:1" fill="#c4c6e8" d="M 247.5,161.5 C 245.388,169.543 242.054,176.877 237.5,183.5C 237.833,182.167 238.167,180.833 238.5,179.5C 239.537,178.07 240.204,176.403 240.5,174.5C 240.328,173.508 240.662,172.842 241.5,172.5C 242.906,172.027 243.573,171.027 243.5,169.5C 243.629,167.784 243.962,166.117 244.5,164.5C 245.338,164.158 245.672,163.492 245.5,162.5C 246.167,162.167 246.833,161.833 247.5,161.5 Z"/></g>
<g><path style="opacity:1" fill="#6b71c5" d="M 265.5,176.5 C 265.5,177.5 265.5,178.5 265.5,179.5C 265.167,180.5 264.5,181.167 263.5,181.5C 263.12,179.302 263.787,177.635 265.5,176.5 Z"/></g>
<g><path style="opacity:1" fill="#a7aadd" d="M 325.5,175.5 C 327.141,176.871 328.141,178.704 328.5,181C 328.164,182.03 327.497,182.53 326.5,182.5C 326.552,180.097 326.219,177.764 325.5,175.5 Z"/></g>
<g><path style="opacity:1" fill="#565cbc" d="M 238.5,179.5 C 238.167,180.833 237.833,182.167 237.5,183.5C 237.5,183.833 237.5,184.167 237.5,184.5C 237.167,184.5 236.833,184.5 236.5,184.5C 236.12,182.302 236.787,180.635 238.5,179.5 Z"/></g>
<g><path style="opacity:1" fill="#3c3faf" d="M 322.5,172.5 C 323.167,172.833 323.833,173.167 324.5,173.5C 324.328,174.492 324.662,175.158 325.5,175.5C 326.219,177.764 326.552,180.097 326.5,182.5C 323.598,183.578 320.598,184.244 317.5,184.5C 320.084,183.208 322.75,181.875 325.5,180.5C 323.756,178.124 322.756,175.457 322.5,172.5 Z"/></g>
<g><path style="opacity:1" fill="#7c80cb" d="M 334.5,167.5 C 340.922,176.099 343.922,185.766 343.5,196.5C 343.5,197.5 343.5,198.5 343.5,199.5C 343.167,199.5 342.833,199.5 342.5,199.5C 342.477,194.126 341.977,188.793 341,183.5C 338.55,178.269 336.383,172.936 334.5,167.5 Z"/></g>
<g><path style="opacity:1" fill="#abaede" d="M 249.5,183.5 C 249.5,184.5 249.5,185.5 249.5,186.5C 248.094,186.973 247.427,187.973 247.5,189.5C 247.5,190.167 247.5,190.833 247.5,191.5C 246.833,191.833 246.167,192.167 245.5,192.5C 245.792,188.934 247.126,185.934 249.5,183.5 Z"/></g>
<g><path style="opacity:1" fill="#a3a6db" d="M 326.5,182.5 C 325.942,183.79 324.942,184.623 323.5,185C 318.54,186.156 313.54,186.989 308.5,187.5C 310.975,186.869 313.309,185.869 315.5,184.5C 316.167,184.5 316.833,184.5 317.5,184.5C 320.598,184.244 323.598,183.578 326.5,182.5 Z"/></g>
<g><path style="opacity:1" fill="#5d65be" d="M 249.5,186.5 C 249.573,188.027 248.906,189.027 247.5,189.5C 247.427,187.973 248.094,186.973 249.5,186.5 Z"/></g>
<g><path style="opacity:1" fill="#6066bf" d="M 315.5,184.5 C 313.309,185.869 310.975,186.869 308.5,187.5C 306.447,187.402 304.78,188.069 303.5,189.5C 301.5,189.5 299.5,189.5 297.5,189.5C 303.181,187.056 309.181,185.389 315.5,184.5 Z"/></g>
<g><path style="opacity:1" fill="#4f57ba" d="M 263.5,183.5 C 263.5,184.833 263.5,186.167 263.5,187.5C 262.833,188.5 262.167,189.5 261.5,190.5C 261.41,187.848 262.076,185.515 263.5,183.5 Z"/></g>
<g><path style="opacity:1" fill="#a5a8db" d="M 236.5,184.5 C 236.833,184.5 237.167,184.5 237.5,184.5C 237.076,187.918 235.742,190.918 233.5,193.5C 233.5,192.833 233.5,192.167 233.5,191.5C 234.227,189.046 235.227,186.713 236.5,184.5 Z"/></g>
<g><path style="opacity:1" fill="#3c42b1" d="M 295.5,189.5 C 293.162,191.04 290.495,191.706 287.5,191.5C 289.635,189.631 292.302,188.964 295.5,189.5 Z"/></g>
<g><path style="opacity:1" fill="#a7abdd" d="M 295.5,189.5 C 296.167,189.5 296.833,189.5 297.5,189.5C 299.5,189.5 301.5,189.5 303.5,189.5C 295.241,191.384 286.908,193.384 278.5,195.5C 278.5,195.167 278.5,194.833 278.5,194.5C 281.241,194.293 283.574,193.293 285.5,191.5C 286.167,191.5 286.833,191.5 287.5,191.5C 290.495,191.706 293.162,191.04 295.5,189.5 Z"/></g>
<g><path style="opacity:1" fill="#8a8ed1" d="M 273.5,176.5 C 272.716,182.539 271.716,188.539 270.5,194.5C 272.833,194.5 275.167,194.5 277.5,194.5C 277.833,194.5 278.167,194.5 278.5,194.5C 278.5,194.833 278.5,195.167 278.5,195.5C 275.518,195.963 272.518,196.296 269.5,196.5C 269.335,193.15 269.502,189.817 270,186.5C 270.937,183.02 272.104,179.687 273.5,176.5 Z"/></g>
<g><path style="opacity:1" fill="#585ebc" d="M 285.5,191.5 C 283.574,193.293 281.241,194.293 278.5,194.5C 278.167,194.5 277.833,194.5 277.5,194.5C 279.684,192.415 282.351,191.415 285.5,191.5 Z"/></g>
<g><path style="opacity:1" fill="#5860bd" d="M 247.5,191.5 C 247.573,193.027 246.906,194.027 245.5,194.5C 245.5,193.833 245.5,193.167 245.5,192.5C 246.167,192.167 246.833,191.833 247.5,191.5 Z"/></g>
<g><path style="opacity:1" fill="#7b7fca" d="M 233.5,191.5 C 233.5,192.167 233.5,192.833 233.5,193.5C 232.537,198.443 230.537,202.777 227.5,206.5C 228.587,201.098 230.587,196.098 233.5,191.5 Z"/></g>
<g><path style="opacity:1" fill="#4a50b6" d="M 315.5,194.5 C 315.833,194.5 316.167,194.5 316.5,194.5C 318.833,194.5 321.167,194.5 323.5,194.5C 323.5,195.5 323.5,196.5 323.5,197.5C 323.167,197.5 322.833,197.5 322.5,197.5C 322.03,196.307 321.03,195.64 319.5,195.5C 316.563,196.47 313.563,197.137 310.5,197.5C 312.072,196.313 313.739,195.313 315.5,194.5 Z"/></g>
<g><path style="opacity:1" fill="#8689cf" d="M 325.5,196.5 C 324.833,196.833 324.167,197.167 323.5,197.5C 323.5,196.5 323.5,195.5 323.5,194.5C 321.167,194.5 318.833,194.5 316.5,194.5C 319.273,193.343 322.273,192.676 325.5,192.5C 325.5,193.833 325.5,195.167 325.5,196.5 Z"/></g>
<g><path style="opacity:1" fill="#959ad6" d="M 245.5,194.5 C 245.5,195.167 245.5,195.833 245.5,196.5C 244.833,196.833 244.167,197.167 243.5,197.5C 243.427,195.973 244.094,194.973 245.5,194.5 Z"/></g>
<g><path style="opacity:1" fill="#a5a9dc" d="M 315.5,194.5 C 313.739,195.313 312.072,196.313 310.5,197.5C 308.833,197.5 307.167,197.5 305.5,197.5C 303.435,197.517 301.435,197.85 299.5,198.5C 299.611,197.883 299.944,197.383 300.5,197C 305.611,196.571 310.611,195.738 315.5,194.5 Z"/></g>
<g><path style="opacity:1" fill="#555ebc" d="M 245.5,196.5 C 245.573,198.027 244.906,199.027 243.5,199.5C 243.5,198.833 243.5,198.167 243.5,197.5C 244.167,197.167 244.833,196.833 245.5,196.5 Z"/></g>
<g><path style="opacity:1" fill="#656bc2" d="M 305.5,197.5 C 303.898,199.074 301.898,199.741 299.5,199.5C 299.5,199.167 299.5,198.833 299.5,198.5C 301.435,197.85 303.435,197.517 305.5,197.5 Z"/></g>
<g><path style="opacity:1" fill="#999cd7" d="M 263.5,187.5 C 263.001,191.49 262.501,195.49 262,199.5C 260.442,202.021 258.275,203.688 255.5,204.5C 257.36,202.717 259.026,200.717 260.5,198.5C 261.48,195.914 261.813,193.247 261.5,190.5C 262.167,189.5 262.833,188.5 263.5,187.5 Z"/></g>
<g><path style="opacity:1" fill="#c5c7e8" d="M 299.5,198.5 C 299.5,198.833 299.5,199.167 299.5,199.5C 296.813,199.336 294.146,199.503 291.5,200C 290.584,200.278 289.918,200.778 289.5,201.5C 288.833,201.5 288.167,201.5 287.5,201.5C 287.414,200.504 287.748,199.671 288.5,199C 292.152,198.501 295.818,198.335 299.5,198.5 Z"/></g>
<g><path style="opacity:1" fill="#6d73c4" d="M 299.5,199.5 C 296.373,200.581 293.04,201.247 289.5,201.5C 289.918,200.778 290.584,200.278 291.5,200C 294.146,199.503 296.813,199.336 299.5,199.5 Z"/></g>
<g><path style="opacity:1" fill="#08149c" d="M 322.5,197.5 C 322.5,198.167 322.5,198.833 322.5,199.5C 321.094,199.973 320.427,200.973 320.5,202.5C 320.5,202.833 320.5,203.167 320.5,203.5C 319.094,203.973 318.427,204.973 318.5,206.5C 317.094,206.973 316.427,207.973 316.5,209.5C 316.672,210.492 316.338,211.158 315.5,211.5C 314.094,211.973 313.427,212.973 313.5,214.5C 313.5,214.833 313.5,215.167 313.5,215.5C 311.755,217.033 310.755,219.033 310.5,221.5C 308.437,223.449 307.104,225.782 306.5,228.5C 303.875,231.698 302.209,235.365 301.5,239.5C 299.952,239.821 299.285,240.821 299.5,242.5C 298.5,242.5 297.5,242.5 296.5,242.5C 296.5,242.167 296.5,241.833 296.5,241.5C 296.573,239.973 295.906,238.973 294.5,238.5C 294.573,236.973 293.906,235.973 292.5,235.5C 289.802,232.362 287.469,229.029 285.5,225.5C 285.262,223.596 284.262,222.262 282.5,221.5C 281.92,219.251 280.587,217.585 278.5,216.5C 278.267,214.938 277.6,213.605 276.5,212.5C 276.08,210.906 275.414,209.406 274.5,208C 275.347,206.229 276.68,205.063 278.5,204.5C 279.833,204.167 281.167,203.833 282.5,203.5C 285.152,203.59 287.485,202.924 289.5,201.5C 293.04,201.247 296.373,200.581 299.5,199.5C 301.898,199.741 303.898,199.074 305.5,197.5C 307.167,197.5 308.833,197.5 310.5,197.5C 313.563,197.137 316.563,196.47 319.5,195.5C 321.03,195.64 322.03,196.307 322.5,197.5 Z"/></g>
<g><path style="opacity:1" fill="#c2c4e7" d="M 325.5,196.5 C 324.89,198.434 323.89,200.101 322.5,201.5C 322.5,200.833 322.5,200.167 322.5,199.5C 322.5,198.833 322.5,198.167 322.5,197.5C 322.833,197.5 323.167,197.5 323.5,197.5C 324.167,197.167 324.833,196.833 325.5,196.5 Z"/></g>
<g><path style="opacity:1" fill="#797eca" d="M 322.5,199.5 C 322.5,200.167 322.5,200.833 322.5,201.5C 321.833,201.833 321.167,202.167 320.5,202.5C 320.427,200.973 321.094,199.973 322.5,199.5 Z"/></g>
<g><path style="opacity:1" fill="#575fbc" d="M 285.5,201.5 C 286.167,201.5 286.833,201.5 287.5,201.5C 288.167,201.5 288.833,201.5 289.5,201.5C 287.485,202.924 285.152,203.59 282.5,203.5C 283.5,202.833 284.5,202.167 285.5,201.5 Z"/></g>
<g><path style="opacity:1" fill="#8e93d3" d="M 332.5,202.5 C 330.801,202.527 329.467,203.194 328.5,204.5C 328.45,202.41 329.45,201.077 331.5,200.5C 332.298,200.957 332.631,201.624 332.5,202.5 Z"/></g>
<g><path style="opacity:1" fill="#3c43b1" d="M 343.5,196.5 C 344.924,198.515 345.59,200.848 345.5,203.5C 344.833,202.5 344.167,201.5 343.5,200.5C 343.5,200.167 343.5,199.833 343.5,199.5C 343.5,198.5 343.5,197.5 343.5,196.5 Z"/></g>
<g><path style="opacity:1" fill="#9498d5" d="M 243.5,199.5 C 243.5,200.167 243.5,200.833 243.5,201.5C 241.773,205.284 239.773,208.951 237.5,212.5C 238.56,208.82 239.726,205.154 241,201.5C 241.708,200.619 242.542,199.953 243.5,199.5 Z"/></g>
<g><path style="opacity:1" fill="#acb0de" d="M 285.5,201.5 C 284.5,202.167 283.5,202.833 282.5,203.5C 281.167,203.833 279.833,204.167 278.5,204.5C 276.5,204.5 274.5,204.5 272.5,204.5C 272.5,205.833 272.5,207.167 272.5,208.5C 271.549,207.081 271.216,205.415 271.5,203.5C 275.959,202.024 280.626,201.358 285.5,201.5 Z"/></g>
<g><path style="opacity:1" fill="#7e83cc" d="M 320.5,203.5 C 320.573,205.027 319.906,206.027 318.5,206.5C 318.427,204.973 319.094,203.973 320.5,203.5 Z"/></g>
<g><path style="opacity:1" fill="#5156ba" d="M 278.5,204.5 C 276.68,205.063 275.347,206.229 274.5,208C 275.414,209.406 276.08,210.906 276.5,212.5C 276.167,212.5 275.833,212.5 275.5,212.5C 274.488,211.128 273.488,209.795 272.5,208.5C 272.5,207.167 272.5,205.833 272.5,204.5C 274.5,204.5 276.5,204.5 278.5,204.5 Z"/></g>
<g><path style="opacity:1" fill="#a6abdd" d="M 328.5,204.5 C 328.5,205.167 328.5,205.833 328.5,206.5C 327.833,206.833 327.167,207.167 326.5,207.5C 326.427,205.973 327.094,204.973 328.5,204.5 Z"/></g>
<g><path style="opacity:1" fill="#bec1e6" d="M 342.5,199.5 C 342.833,199.5 343.167,199.5 343.5,199.5C 343.5,199.833 343.5,200.167 343.5,200.5C 343.808,204.36 344.475,208.026 345.5,211.5C 345.5,212.833 345.5,214.167 345.5,215.5C 345.5,216.833 345.5,218.167 345.5,219.5C 343.754,213.074 342.754,206.407 342.5,199.5 Z"/></g>
<g><path style="opacity:1" fill="#656bc2" d="M 343.5,200.5 C 344.167,201.5 344.833,202.5 345.5,203.5C 345.5,206.167 345.5,208.833 345.5,211.5C 344.475,208.026 343.808,204.36 343.5,200.5 Z"/></g>
<g><path style="opacity:1" fill="#c3c5e8" d="M 255.5,204.5 C 255.288,207.712 253.621,209.712 250.5,210.5C 251.5,209.167 252.5,207.833 253.5,206.5C 253.5,205.167 254.167,204.5 255.5,204.5 Z"/></g>
<g><path style="opacity:1" fill="#5b62be" d="M 318.5,206.5 C 318.5,207.167 318.5,207.833 318.5,208.5C 317.833,208.833 317.167,209.167 316.5,209.5C 316.427,207.973 317.094,206.973 318.5,206.5 Z"/></g>
<g><path style="opacity:1" fill="#b3b7e2" d="M 326.5,208.5 C 325.89,209.391 325.557,210.391 325.5,211.5C 324.655,212.671 323.989,214.005 323.5,215.5C 323.167,215.5 322.833,215.5 322.5,215.5C 322.736,212.379 324.069,210.046 326.5,208.5 Z"/></g>
<g><path style="opacity:1" fill="#4c53b7" d="M 226.5,208.5 C 226.573,210.027 225.906,211.027 224.5,211.5C 224.427,209.973 225.094,208.973 226.5,208.5 Z"/></g>
<g><path style="opacity:1" fill="#5255b9" d="M 272.5,221.5 C 268.919,219.087 266.253,215.921 264.5,212C 263.181,211.805 261.847,211.972 260.5,212.5C 260.833,211.833 261.167,211.167 261.5,210.5C 262.251,209.427 263.251,209.26 264.5,210C 267.441,213.692 270.108,217.526 272.5,221.5 Z"/></g>
<g><path style="opacity:1" fill="#4f52b7" d="M 328.5,206.5 C 328.408,208.848 327.408,210.514 325.5,211.5C 325.557,210.391 325.89,209.391 326.5,208.5C 326.5,208.167 326.5,207.833 326.5,207.5C 327.167,207.167 327.833,206.833 328.5,206.5 Z"/></g>
<g><path style="opacity:1" fill="#b1b4e0" d="M 227.5,206.5 C 227.19,210.268 226.357,213.935 225,217.5C 224.124,219.758 222.957,221.758 221.5,223.5C 221.5,222.167 221.5,220.833 221.5,219.5C 223.02,217.11 224.02,214.443 224.5,211.5C 225.906,211.027 226.573,210.027 226.5,208.5C 226.328,207.508 226.662,206.842 227.5,206.5 Z"/></g>
<g><path style="opacity:1" fill="#a1a6da" d="M 261.5,210.5 C 261.167,211.167 260.833,211.833 260.5,212.5C 259.391,212.557 258.391,212.89 257.5,213.5C 258.035,211.554 259.368,210.554 261.5,210.5 Z"/></g>
<g><path style="opacity:1" fill="#858acf" d="M 253.5,206.5 C 252.5,207.833 251.5,209.167 250.5,210.5C 248.445,212.555 246.112,214.221 243.5,215.5C 246.185,211.817 249.518,208.817 253.5,206.5 Z"/></g>
<g><path style="opacity:1" fill="#b8bbe3" d="M 318.5,208.5 C 318.408,210.848 317.408,212.514 315.5,213.5C 315.5,212.833 315.5,212.167 315.5,211.5C 316.338,211.158 316.672,210.492 316.5,209.5C 317.167,209.167 317.833,208.833 318.5,208.5 Z"/></g>
<g><path style="opacity:1" fill="#a0a4da" d="M 275.5,212.5 C 275.833,212.5 276.167,212.5 276.5,212.5C 277.6,213.605 278.267,214.938 278.5,216.5C 276.738,215.738 275.738,214.404 275.5,212.5 Z"/></g>
<g><path style="opacity:1" fill="#494db3" d="M 315.5,211.5 C 315.5,212.167 315.5,212.833 315.5,213.5C 314.833,213.833 314.167,214.167 313.5,214.5C 313.427,212.973 314.094,211.973 315.5,211.5 Z"/></g>
<g><path style="opacity:1" fill="#bbbee5" d="M 332.5,203.5 C 335.223,209.003 336.223,215.003 335.5,221.5C 334.566,220.432 334.232,219.099 334.5,217.5C 334.59,214.848 333.924,212.515 332.5,210.5C 332.5,208.167 332.5,205.833 332.5,203.5 Z"/></g>
<g><path style="opacity:1" fill="#6d74c5" d="M 332.5,210.5 C 333.924,212.515 334.59,214.848 334.5,217.5C 333.833,216.5 333.167,215.5 332.5,214.5C 332.5,213.167 332.5,211.833 332.5,210.5 Z"/></g>
<g><path style="opacity:1" fill="#09149c" d="M 272.5,221.5 C 272.738,223.404 273.738,224.738 275.5,225.5C 275.427,227.027 276.094,228.027 277.5,228.5C 277.833,228.5 278.167,228.5 278.5,228.5C 278.615,230.947 279.615,232.947 281.5,234.5C 281.738,236.404 282.738,237.738 284.5,238.5C 285.338,238.842 285.672,239.508 285.5,240.5C 286.292,241.967 286.292,243.3 285.5,244.5C 283.929,243.691 282.262,243.357 280.5,243.5C 279.5,243.5 278.5,243.5 277.5,243.5C 269.63,241.656 261.63,239.989 253.5,238.5C 252.167,238.5 250.833,238.5 249.5,238.5C 249.167,238.5 248.833,238.5 248.5,238.5C 244.003,236.692 239.336,235.359 234.5,234.5C 241.36,228.472 248.36,222.638 255.5,217C 256.305,215.887 256.972,214.721 257.5,213.5C 258.391,212.89 259.391,212.557 260.5,212.5C 261.847,211.972 263.181,211.805 264.5,212C 266.253,215.921 268.919,219.087 272.5,221.5 Z"/></g>
<g><path style="opacity:1" fill="#7e83cb" d="M 322.5,215.5 C 322.833,215.5 323.167,215.5 323.5,215.5C 322.564,218.671 320.897,221.338 318.5,223.5C 319.308,220.55 320.642,217.883 322.5,215.5 Z"/></g>
<g><path style="opacity:1" fill="#888cd0" d="M 278.5,216.5 C 280.587,217.585 281.92,219.251 282.5,221.5C 280.413,220.415 279.08,218.749 278.5,216.5 Z"/></g>
<g><path style="opacity:1" fill="#9296d4" d="M 236.5,216.5 C 236.322,217.695 235.989,218.862 235.5,220C 235.836,221.03 236.503,221.53 237.5,221.5C 236.817,223.176 235.483,223.843 233.5,223.5C 233.464,220.539 234.464,218.206 236.5,216.5 Z"/></g>
<g><path style="opacity:1" fill="#3b41b0" d="M 243.5,201.5 C 242.558,207.242 240.558,212.576 237.5,217.5C 237.624,218.107 237.957,218.44 238.5,218.5C 237.89,219.391 237.557,220.391 237.5,221.5C 236.503,221.53 235.836,221.03 235.5,220C 235.989,218.862 236.322,217.695 236.5,216.5C 236.833,215.167 237.167,213.833 237.5,212.5C 239.773,208.951 241.773,205.284 243.5,201.5 Z"/></g>
<g><path style="opacity:1" fill="#868bcf" d="M 243.5,215.5 C 241.833,217.833 239.833,219.833 237.5,221.5C 237.557,220.391 237.89,219.391 238.5,218.5C 239.922,217.075 241.589,216.075 243.5,215.5 Z"/></g>
<g><path style="opacity:1" fill="#6468c1" d="M 313.5,215.5 C 313.245,217.967 312.245,219.967 310.5,221.5C 310.755,219.033 311.755,217.033 313.5,215.5 Z"/></g>
<g><path style="opacity:1" fill="#4c51b6" d="M 332.5,214.5 C 333.167,215.5 333.833,216.5 334.5,217.5C 334.232,219.099 334.566,220.432 335.5,221.5C 335.5,223.167 335.5,224.833 335.5,226.5C 335.5,227.5 335.5,228.5 335.5,229.5C 333.775,224.777 332.775,219.777 332.5,214.5 Z"/></g>
<g><path style="opacity:1" fill="#5358ba" d="M 345.5,215.5 C 346.222,215.918 346.722,216.584 347,217.5C 347.497,220.146 347.664,222.813 347.5,225.5C 346.833,223.5 346.167,221.5 345.5,219.5C 345.5,218.167 345.5,216.833 345.5,215.5 Z"/></g>
<g><path style="opacity:1" fill="#7176c7" d="M 282.5,221.5 C 284.262,222.262 285.262,223.596 285.5,225.5C 284.5,224.833 283.5,224.167 282.5,223.5C 282.5,222.833 282.5,222.167 282.5,221.5 Z"/></g>
<g><path style="opacity:1" fill="#d1d3ed" d="M 315.5,213.5 C 314.495,216.721 313.661,220.054 313,223.5C 311.951,225.384 310.451,226.718 308.5,227.5C 309.63,225.685 310.296,223.685 310.5,221.5C 312.245,219.967 313.245,217.967 313.5,215.5C 313.5,215.167 313.5,214.833 313.5,214.5C 314.167,214.167 314.833,213.833 315.5,213.5 Z"/></g>
<g><path style="opacity:1" fill="#777cc9" d="M 272.5,221.5 C 274.262,222.262 275.262,223.596 275.5,225.5C 273.738,224.738 272.738,223.404 272.5,221.5 Z"/></g>
<g><path style="opacity:1" fill="#6062be" d="M 221.5,219.5 C 221.5,220.833 221.5,222.167 221.5,223.5C 220.5,225.5 219.5,227.5 218.5,229.5C 218.025,225.584 219.025,222.251 221.5,219.5 Z"/></g>
<g><path style="opacity:1" fill="#b2b5e1" d="M 282.5,223.5 C 283.5,224.167 284.5,224.833 285.5,225.5C 287.469,229.029 289.802,232.362 292.5,235.5C 292.427,237.027 293.094,238.027 294.5,238.5C 294.5,239.167 294.5,239.833 294.5,240.5C 289.759,235.415 285.759,229.748 282.5,223.5 Z"/></g>
<g><path style="opacity:1" fill="#7c80cb" d="M 275.5,225.5 C 276.906,225.973 277.573,226.973 277.5,228.5C 276.094,228.027 275.427,227.027 275.5,225.5 Z"/></g>
<g><path style="opacity:1" fill="#888ed1" d="M 318.5,223.5 C 318.771,225.38 318.104,226.713 316.5,227.5C 316.66,225.847 317.326,224.514 318.5,223.5 Z"/></g>
<g><path style="opacity:1" fill="#9397d4" d="M 257.5,213.5 C 256.972,214.721 256.305,215.887 255.5,217C 248.36,222.638 241.36,228.472 234.5,234.5C 233.662,234.842 233.328,235.508 233.5,236.5C 232.224,235.614 232.224,234.614 233.5,233.5C 241.641,226.796 249.641,220.13 257.5,213.5 Z"/></g>
<g><path style="opacity:1" fill="#8b8fd1" d="M 310.5,221.5 C 310.296,223.685 309.63,225.685 308.5,227.5C 308.443,228.609 308.11,229.609 307.5,230.5C 307.167,230.5 306.833,230.5 306.5,230.5C 306.5,229.833 306.5,229.167 306.5,228.5C 307.104,225.782 308.437,223.449 310.5,221.5 Z"/></g>
<g><path style="opacity:1" fill="#a2a7db" d="M 316.5,227.5 C 316.5,228.167 316.5,228.833 316.5,229.5C 315.833,229.833 315.167,230.167 314.5,230.5C 314.427,228.973 315.094,227.973 316.5,227.5 Z"/></g>
<g><path style="opacity:1" fill="#d2d4ee" d="M 278.5,228.5 C 280.213,229.305 281.879,230.305 283.5,231.5C 282.873,232.417 282.539,233.417 282.5,234.5C 282.167,234.5 281.833,234.5 281.5,234.5C 279.615,232.947 278.615,230.947 278.5,228.5 Z"/></g>
<g><path style="opacity:1" fill="#adb1df" d="M 335.5,226.5 C 336.268,227.263 336.768,228.263 337,229.5C 337.498,232.817 337.665,236.15 337.5,239.5C 337.768,241.099 337.434,242.432 336.5,243.5C 336.5,243.167 336.5,242.833 336.5,242.5C 336.769,238.069 336.436,233.735 335.5,229.5C 335.5,228.5 335.5,227.5 335.5,226.5 Z"/></g>
<g><path style="opacity:1" fill="#a4a8db" d="M 345.5,219.5 C 346.167,221.5 346.833,223.5 347.5,225.5C 347.5,226.833 347.5,228.167 347.5,229.5C 347.5,230.833 347.5,232.167 347.5,233.5C 347.167,233.5 346.833,233.5 346.5,233.5C 345.873,228.859 345.54,224.193 345.5,219.5 Z"/></g>
<g><path style="opacity:1" fill="#d8d9f0" d="M 306.5,230.5 C 306.833,230.5 307.167,230.5 307.5,230.5C 306.48,234.571 305.146,238.571 303.5,242.5C 302.5,242.5 301.5,242.5 300.5,242.5C 300.557,241.391 300.89,240.391 301.5,239.5C 303.345,236.667 305.011,233.667 306.5,230.5 Z"/></g>
<g><path style="opacity:1" fill="#9fa4da" d="M 314.5,231.5 C 314.573,233.027 313.906,234.027 312.5,234.5C 312.427,232.973 313.094,231.973 314.5,231.5 Z"/></g>
<g><path style="opacity:1" fill="#5458ba" d="M 316.5,229.5 C 315.717,233.605 313.717,236.939 310.5,239.5C 310.893,237.716 311.559,236.05 312.5,234.5C 313.906,234.027 314.573,233.027 314.5,231.5C 314.5,231.167 314.5,230.833 314.5,230.5C 315.167,230.167 315.833,229.833 316.5,229.5 Z"/></g>
<g><path style="opacity:1" fill="#0f169c" d="M 332.5,202.5 C 332.5,202.833 332.5,203.167 332.5,203.5C 332.5,205.833 332.5,208.167 332.5,210.5C 332.5,211.833 332.5,213.167 332.5,214.5C 332.775,219.777 333.775,224.777 335.5,229.5C 336.436,233.735 336.769,238.069 336.5,242.5C 327.932,242.679 319.599,243.679 311.5,245.5C 310.5,245.5 309.5,245.5 308.5,245.5C 308.704,243.315 309.37,241.315 310.5,239.5C 313.717,236.939 315.717,233.605 316.5,229.5C 316.5,228.833 316.5,228.167 316.5,227.5C 318.104,226.713 318.771,225.38 318.5,223.5C 320.897,221.338 322.564,218.671 323.5,215.5C 323.989,214.005 324.655,212.671 325.5,211.5C 327.408,210.514 328.408,208.848 328.5,206.5C 328.5,205.833 328.5,205.167 328.5,204.5C 329.467,203.194 330.801,202.527 332.5,202.5 Z"/></g>
<g><path style="opacity:1" fill="#7176c7" d="M 218.5,229.5 C 217.962,231.117 217.629,232.784 217.5,234.5C 216.883,234.611 216.383,234.944 216,235.5C 215.436,240.194 215.603,244.86 216.5,249.5C 215.778,249.082 215.278,248.416 215,247.5C 214.333,243.167 214.333,238.833 215,234.5C 215.697,232.416 216.864,230.749 218.5,229.5 Z"/></g>
<g><path style="opacity:1" fill="#6e74c5" d="M 281.5,234.5 C 281.833,234.5 282.167,234.5 282.5,234.5C 283.6,235.605 284.267,236.938 284.5,238.5C 282.738,237.738 281.738,236.404 281.5,234.5 Z"/></g>
<g><path style="opacity:1" fill="#5f64be" d="M 306.5,228.5 C 306.5,229.167 306.5,229.833 306.5,230.5C 305.011,233.667 303.345,236.667 301.5,239.5C 302.209,235.365 303.875,231.698 306.5,228.5 Z"/></g>
<g><path style="opacity:1" fill="#686dc3" d="M 292.5,235.5 C 293.906,235.973 294.573,236.973 294.5,238.5C 293.094,238.027 292.427,237.027 292.5,235.5 Z"/></g>
<g><path style="opacity:1" fill="#7176c6" d="M 347.5,229.5 C 348.928,234.088 349.595,238.921 349.5,244C 349.498,247.021 349.164,249.854 348.5,252.5C 348.653,246.131 348.32,239.797 347.5,233.5C 347.5,232.167 347.5,230.833 347.5,229.5 Z"/></g>
<g><path style="opacity:1" fill="#565dbc" d="M 234.5,234.5 C 239.336,235.359 244.003,236.692 248.5,238.5C 243.364,238.567 238.364,237.9 233.5,236.5C 233.328,235.508 233.662,234.842 234.5,234.5 Z"/></g>
<g><path style="opacity:1" fill="#d6d8ef" d="M 217.5,234.5 C 217.081,239.736 217.081,245.069 217.5,250.5C 217.167,250.5 216.833,250.5 216.5,250.5C 216.5,250.167 216.5,249.833 216.5,249.5C 215.603,244.86 215.436,240.194 216,235.5C 216.383,234.944 216.883,234.611 217.5,234.5 Z"/></g>
<g><path style="opacity:1" fill="#8c91d1" d="M 249.5,238.5 C 250.833,238.5 252.167,238.5 253.5,238.5C 253.833,239.167 254.167,239.833 254.5,240.5C 252.302,240.88 250.635,240.213 249.5,238.5 Z"/></g>
<g><path style="opacity:1" fill="#6d74c5" d="M 294.5,238.5 C 295.906,238.973 296.573,239.973 296.5,241.5C 295.833,241.167 295.167,240.833 294.5,240.5C 294.5,239.833 294.5,239.167 294.5,238.5 Z"/></g>
<g><path style="opacity:1" fill="#bcbfe5" d="M 233.5,236.5 C 238.364,237.9 243.364,238.567 248.5,238.5C 248.833,238.5 249.167,238.5 249.5,238.5C 250.635,240.213 252.302,240.88 254.5,240.5C 256.099,240.232 257.432,240.566 258.5,241.5C 251.29,240.393 243.956,239.393 236.5,238.5C 235.398,237.824 234.398,237.158 233.5,236.5 Z"/></g>
<g><path style="opacity:1" fill="#6167c0" d="M 253.5,238.5 C 261.63,239.989 269.63,241.656 277.5,243.5C 277.167,243.5 276.833,243.5 276.5,243.5C 271.114,243.223 265.781,242.556 260.5,241.5C 259.833,241.5 259.167,241.5 258.5,241.5C 257.432,240.566 256.099,240.232 254.5,240.5C 254.167,239.833 253.833,239.167 253.5,238.5 Z"/></g>
<g><path style="opacity:1" fill="#9296d3" d="M 310.5,239.5 C 309.37,241.315 308.704,243.315 308.5,245.5C 309.5,245.5 310.5,245.5 311.5,245.5C 313.5,245.5 315.5,245.5 317.5,245.5C 314.456,247.011 311.122,247.678 307.5,247.5C 307.5,246.167 307.5,244.833 307.5,243.5C 307.738,241.596 308.738,240.262 310.5,239.5 Z"/></g>
<g><path style="opacity:1" fill="#696ec3" d="M 301.5,239.5 C 300.89,240.391 300.557,241.391 300.5,242.5C 300.5,242.833 300.5,243.167 300.5,243.5C 298.901,243.768 297.568,243.434 296.5,242.5C 297.5,242.5 298.5,242.5 299.5,242.5C 299.285,240.821 299.952,239.821 301.5,239.5 Z"/></g>
<g><path style="opacity:1" fill="#c7c9e9" d="M 260.5,241.5 C 265.781,242.556 271.114,243.223 276.5,243.5C 278.261,244.313 279.928,245.313 281.5,246.5C 275.908,245.267 270.241,244.434 264.5,244C 263.142,243.066 261.808,242.232 260.5,241.5 Z"/></g>
<g><path style="opacity:1" fill="#cfd1ec" d="M 276.5,252.5 C 275.833,252.5 275.167,252.5 274.5,252.5C 273.167,252.5 271.833,252.5 270.5,252.5C 268.012,250.612 265.012,249.945 261.5,250.5C 261.167,250.5 260.833,250.5 260.5,250.5C 258.898,248.926 256.898,248.259 254.5,248.5C 245.775,248.022 237.108,247.022 228.5,245.5C 228.5,247.167 228.5,248.833 228.5,250.5C 227.883,250.389 227.383,250.056 227,249.5C 226.505,247.527 226.338,245.527 226.5,243.5C 241.737,246.173 257.07,248.34 272.5,250C 274.32,250.2 275.653,251.034 276.5,252.5 Z"/></g>
<g><path style="opacity:1" fill="#575fbd" d="M 285.5,240.5 C 286.5,240.833 287.167,241.5 287.5,242.5C 287.5,243.5 287.5,244.5 287.5,245.5C 284.848,245.59 282.515,244.924 280.5,243.5C 282.262,243.357 283.929,243.691 285.5,244.5C 286.292,243.3 286.292,241.967 285.5,240.5 Z"/></g>
<g><path style="opacity:1" fill="#3f49b3" d="M 336.5,242.5 C 336.5,242.833 336.5,243.167 336.5,243.5C 331.269,243.444 326.269,244.111 321.5,245.5C 320.167,245.5 318.833,245.5 317.5,245.5C 315.5,245.5 313.5,245.5 311.5,245.5C 319.599,243.679 327.932,242.679 336.5,242.5 Z"/></g>
<g><path style="opacity:1" fill="#bec1e6" d="M 346.5,233.5 C 346.833,233.5 347.167,233.5 347.5,233.5C 348.32,239.797 348.653,246.131 348.5,252.5C 348.768,254.099 348.434,255.432 347.5,256.5C 347.477,248.817 347.143,241.15 346.5,233.5 Z"/></g>
<g><path style="opacity:1" fill="#9fa4d9" d="M 287.5,242.5 C 289.104,243.287 289.771,244.62 289.5,246.5C 286.833,246.5 284.167,246.5 281.5,246.5C 279.928,245.313 278.261,244.313 276.5,243.5C 276.833,243.5 277.167,243.5 277.5,243.5C 278.5,243.5 279.5,243.5 280.5,243.5C 282.515,244.924 284.848,245.59 287.5,245.5C 287.5,244.5 287.5,243.5 287.5,242.5 Z"/></g>
<g><path style="opacity:1" fill="#d4d6ee" d="M 294.5,240.5 C 295.167,240.833 295.833,241.167 296.5,241.5C 296.5,241.833 296.5,242.167 296.5,242.5C 297.568,243.434 298.901,243.768 300.5,243.5C 300.5,244.5 300.5,245.5 300.5,246.5C 296.347,246.798 294.347,244.798 294.5,240.5 Z"/></g>
<g><path style="opacity:1" fill="#cfd1ec" d="M 337.5,239.5 C 338.807,241.223 338.807,243.057 337.5,245C 327.006,245.816 316.672,247.316 306.5,249.5C 306.205,247.265 306.539,245.265 307.5,243.5C 307.5,244.833 307.5,246.167 307.5,247.5C 311.122,247.678 314.456,247.011 317.5,245.5C 318.833,245.5 320.167,245.5 321.5,245.5C 326.731,245.556 331.731,244.889 336.5,243.5C 337.434,242.432 337.768,241.099 337.5,239.5 Z"/></g>
<g><path style="opacity:1" fill="#868cd0" d="M 336.5,243.5 C 331.731,244.889 326.731,245.556 321.5,245.5C 326.269,244.111 331.269,243.444 336.5,243.5 Z"/></g>
<g><path style="opacity:1" fill="#6065bf" d="M 254.5,248.5 C 256.102,250.074 258.102,250.741 260.5,250.5C 260.833,250.5 261.167,250.5 261.5,250.5C 261.5,250.833 261.5,251.167 261.5,251.5C 251.028,250.671 240.695,249.004 230.5,246.5C 230.167,247 229.833,247.5 229.5,248C 230.945,252.727 231.612,257.56 231.5,262.5C 230.833,261.5 230.167,260.5 229.5,259.5C 229.736,256.391 229.403,253.391 228.5,250.5C 228.5,248.833 228.5,247.167 228.5,245.5C 237.108,247.022 245.775,248.022 254.5,248.5 Z"/></g>
<g><path style="opacity:1" fill="#acb0df" d="M 254.5,248.5 C 256.898,248.259 258.898,248.926 260.5,250.5C 258.102,250.741 256.102,250.074 254.5,248.5 Z"/></g>
<g><path style="opacity:1" fill="#a4a9dc" d="M 261.5,251.5 C 261.5,251.167 261.5,250.833 261.5,250.5C 265.012,249.945 268.012,250.612 270.5,252.5C 269.167,252.5 267.833,252.5 266.5,252.5C 265.081,251.549 263.415,251.216 261.5,251.5 Z"/></g>
<g><path style="opacity:1" fill="#04129b" d="M 261.5,251.5 C 263.415,251.216 265.081,251.549 266.5,252.5C 275.312,254.378 284.312,255.712 293.5,256.5C 293.5,264.5 293.5,272.5 293.5,280.5C 293.5,280.833 293.5,281.167 293.5,281.5C 291.803,288.93 291.136,296.597 291.5,304.5C 291.5,310.167 291.5,315.833 291.5,321.5C 290.698,322.952 290.198,324.618 290,326.5C 289.501,331.823 289.334,337.156 289.5,342.5C 289.5,344.833 289.5,347.167 289.5,349.5C 287.824,357.605 287.157,365.938 287.5,374.5C 287.5,379.167 287.5,383.833 287.5,388.5C 286.698,389.952 286.198,391.618 286,393.5C 285.501,399.157 285.334,404.824 285.5,410.5C 285.5,416.167 285.5,421.833 285.5,427.5C 285.5,428.5 285.5,429.5 285.5,430.5C 284.732,431.263 284.232,432.263 284,433.5C 283.501,439.157 283.334,444.824 283.5,450.5C 283.5,453.5 283.5,456.5 283.5,459.5C 282.282,464.463 281.282,469.463 280.5,474.5C 279.343,472.322 278.01,470.322 276.5,468.5C 275.532,465.9 274.199,463.566 272.5,461.5C 272.573,459.973 271.906,458.973 270.5,458.5C 269.358,455.741 268.024,453.074 266.5,450.5C 265.622,445.445 264.622,440.445 263.5,435.5C 263.59,432.848 262.924,430.515 261.5,428.5C 261.784,426.585 261.451,424.919 260.5,423.5C 260.802,419.21 260.136,415.21 258.5,411.5C 258.884,407.511 258.217,403.845 256.5,400.5C 256.708,395.364 256.041,390.364 254.5,385.5C 253.996,378.141 253.163,370.807 252,363.5C 251.617,364.056 251.117,364.389 250.5,364.5C 250.672,363.508 250.338,362.842 249.5,362.5C 249.737,361.209 249.404,360.209 248.5,359.5C 248.5,357.833 248.5,356.167 248.5,354.5C 248.989,348.751 247.989,343.418 245.5,338.5C 245.5,337.833 245.5,337.167 245.5,336.5C 245.59,333.848 244.924,331.515 243.5,329.5C 243.57,325.575 242.903,321.909 241.5,318.5C 241.5,317.167 241.5,315.833 241.5,314.5C 241.741,312.102 241.074,310.102 239.5,308.5C 239.5,307.167 239.5,305.833 239.5,304.5C 239.326,302.139 238.993,299.806 238.5,297.5C 238.335,293.818 238.501,290.152 239,286.5C 240.967,285.269 240.801,284.269 238.5,283.5C 237.583,284.127 236.583,284.461 235.5,284.5C 235.5,284.167 235.5,283.833 235.5,283.5C 235.59,280.848 234.924,278.515 233.5,276.5C 233.5,275.5 233.5,274.5 233.5,273.5C 233.664,270.813 233.497,268.146 233,265.5C 232.722,264.584 232.222,263.918 231.5,263.5C 231.5,263.167 231.5,262.833 231.5,262.5C 231.612,257.56 230.945,252.727 229.5,248C 229.833,247.5 230.167,247 230.5,246.5C 240.695,249.004 251.028,250.671 261.5,251.5 Z"/></g>
<g><path style="opacity:1" fill="#6a6fc3" d="M 266.5,252.5 C 267.833,252.5 269.167,252.5 270.5,252.5C 271.833,252.5 273.167,252.5 274.5,252.5C 279.1,253.334 283.766,254.334 288.5,255.5C 290.5,255.5 292.5,255.5 294.5,255.5C 295.269,261.09 295.269,266.757 294.5,272.5C 294.5,275.167 294.5,277.833 294.5,280.5C 294.167,280.5 293.833,280.5 293.5,280.5C 293.5,272.5 293.5,264.5 293.5,256.5C 284.312,255.712 275.312,254.378 266.5,252.5 Z"/></g>
<g><path style="opacity:1" fill="#b1b5e0" d="M 274.5,252.5 C 275.167,252.5 275.833,252.5 276.5,252.5C 280.982,252.034 284.982,253.034 288.5,255.5C 283.766,254.334 279.1,253.334 274.5,252.5 Z"/></g>
<g><path style="opacity:1" fill="#acb0de" d="M 335.5,253.5 C 327.428,253.403 319.428,254.07 311.5,255.5C 313.476,253.989 315.809,253.156 318.5,253C 324.349,252.182 330.015,252.348 335.5,253.5 Z"/></g>
<g><path style="opacity:1" fill="#5b61bd" d="M 335.5,253.5 C 335.737,254.791 335.404,255.791 334.5,256.5C 333.129,255.213 331.295,254.547 329,254.5C 322.864,255.494 316.698,256.161 310.5,256.5C 310.5,256.167 310.5,255.833 310.5,255.5C 310.833,255.5 311.167,255.5 311.5,255.5C 319.428,254.07 327.428,253.403 335.5,253.5 Z"/></g>
<g><path style="opacity:1" fill="#8388ce" d="M 310.5,255.5 C 310.5,255.833 310.5,256.167 310.5,256.5C 307.881,256.232 305.381,256.565 303,257.5C 302.5,266.16 302.334,274.827 302.5,283.5C 302.167,283.5 301.833,283.5 301.5,283.5C 301.5,280.833 301.5,278.167 301.5,275.5C 301.5,268.833 301.5,262.167 301.5,255.5C 304.5,255.5 307.5,255.5 310.5,255.5 Z"/></g>
<g><path style="opacity:1" fill="#666ac2" d="M 216.5,250.5 C 216.833,250.5 217.167,250.5 217.5,250.5C 217.448,252.903 217.781,255.236 218.5,257.5C 218.5,258.167 218.5,258.833 218.5,259.5C 217.883,259.389 217.383,259.056 217,258.5C 216.503,255.854 216.336,253.187 216.5,250.5 Z"/></g>
<g><path style="opacity:1" fill="#09149c" d="M 334.5,256.5 C 334.5,256.833 334.5,257.167 334.5,257.5C 333.232,259.905 332.565,262.572 332.5,265.5C 332.5,266.833 332.5,268.167 332.5,269.5C 332.5,270.167 332.5,270.833 332.5,271.5C 330.787,272.635 330.12,274.302 330.5,276.5C 329.076,278.515 328.41,280.848 328.5,283.5C 328.5,284.5 328.5,285.5 328.5,286.5C 327.076,288.515 326.41,290.848 326.5,293.5C 326.5,294.5 326.5,295.5 326.5,296.5C 325.655,297.671 324.989,299.005 324.5,300.5C 321.961,306.833 320.295,313.5 319.5,320.5C 319.296,323.518 318.963,326.518 318.5,329.5C 318.5,329.833 318.5,330.167 318.5,330.5C 317.076,332.515 316.41,334.848 316.5,337.5C 316.5,338.833 316.5,340.167 316.5,341.5C 316.5,341.833 316.5,342.167 316.5,342.5C 316.167,342.5 315.833,342.5 315.5,342.5C 314.778,342.918 314.278,343.584 314,344.5C 313.452,348.17 312.952,351.837 312.5,355.5C 312.5,356.167 312.5,356.833 312.5,357.5C 311.076,359.515 310.41,361.848 310.5,364.5C 308.421,369.873 307.088,375.539 306.5,381.5C 306.5,382.833 306.5,384.167 306.5,385.5C 304.787,386.635 304.12,388.302 304.5,390.5C 304.5,390.833 304.5,391.167 304.5,391.5C 303.232,393.905 302.565,396.572 302.5,399.5C 301.656,402.345 300.99,405.345 300.5,408.5C 300.768,410.099 300.434,411.432 299.5,412.5C 297.69,417.601 296.19,422.934 295,428.5C 294.503,425.854 294.336,423.187 294.5,420.5C 294.5,418.5 294.5,416.5 294.5,414.5C 295.901,404.03 296.567,393.364 296.5,382.5C 296.5,378.5 296.5,374.5 296.5,370.5C 296.5,368.5 296.5,366.5 296.5,364.5C 297.725,356.025 298.392,347.358 298.5,338.5C 300.145,333.766 300.811,328.766 300.5,323.5C 300.5,320.5 300.5,317.5 300.5,314.5C 300.5,311.833 300.5,309.167 300.5,306.5C 300.5,304.167 300.5,301.833 300.5,299.5C 301.957,294.402 302.624,289.069 302.5,283.5C 302.334,274.827 302.5,266.16 303,257.5C 305.381,256.565 307.881,256.232 310.5,256.5C 316.698,256.161 322.864,255.494 329,254.5C 331.295,254.547 333.129,255.213 334.5,256.5 Z"/></g>
<g><path style="opacity:1" fill="#3f47b1" d="M 334.5,257.5 C 334.706,260.495 334.04,263.162 332.5,265.5C 332.565,262.572 333.232,259.905 334.5,257.5 Z"/></g>
<g><path style="opacity:1" fill="#8e93d2" d="M 218.5,257.5 C 219.525,260.974 220.192,264.64 220.5,268.5C 219.833,267.833 219.167,267.167 218.5,266.5C 218.5,264.167 218.5,261.833 218.5,259.5C 218.5,258.833 218.5,258.167 218.5,257.5 Z"/></g>
<g><path style="opacity:1" fill="#b2b5e0" d="M 229.5,259.5 C 230.167,260.5 230.833,261.5 231.5,262.5C 231.5,262.833 231.5,263.167 231.5,263.5C 231.833,266.167 232.167,268.833 232.5,271.5C 231.883,271.389 231.383,271.056 231,270.5C 230.452,266.83 229.952,263.163 229.5,259.5 Z"/></g>
<g><path style="opacity:1" fill="#9a9fd8" d="M 335.5,253.5 C 336.139,254.097 336.472,254.93 336.5,256C 335.871,260.619 334.871,265.119 333.5,269.5C 333.167,269.5 332.833,269.5 332.5,269.5C 332.5,268.167 332.5,266.833 332.5,265.5C 334.04,263.162 334.706,260.495 334.5,257.5C 334.5,257.167 334.5,256.833 334.5,256.5C 335.404,255.791 335.737,254.791 335.5,253.5 Z"/></g>
<g><path style="opacity:1" fill="#5459ba" d="M 231.5,263.5 C 232.222,263.918 232.722,264.584 233,265.5C 233.497,268.146 233.664,270.813 233.5,273.5C 233.167,273.5 232.833,273.5 232.5,273.5C 232.5,272.833 232.5,272.167 232.5,271.5C 232.167,268.833 231.833,266.167 231.5,263.5 Z"/></g>
<g><path style="opacity:1" fill="#585ebc" d="M 218.5,266.5 C 219.167,267.167 219.833,267.833 220.5,268.5C 220.5,269.5 220.5,270.5 220.5,271.5C 220.5,271.833 220.5,272.167 220.5,272.5C 218.926,270.898 218.259,268.898 218.5,266.5 Z"/></g>
<g><path style="opacity:1" fill="#b5b9e3" d="M 294.5,255.5 C 295.794,257.048 296.461,259.048 296.5,261.5C 296.221,265.18 295.888,268.847 295.5,272.5C 295.167,272.5 294.833,272.5 294.5,272.5C 295.269,266.757 295.269,261.09 294.5,255.5 Z"/></g>
<g><path style="opacity:1" fill="#d3d5ee" d="M 344.5,268.5 C 343.85,270.435 343.517,272.435 343.5,274.5C 342.419,277.627 341.753,280.96 341.5,284.5C 339.926,286.102 339.259,288.102 339.5,290.5C 339.167,290.5 338.833,290.5 338.5,290.5C 339.088,284.394 340.254,278.394 342,272.5C 342.2,270.68 343.034,269.347 344.5,268.5 Z"/></g>
<g><path style="opacity:1" fill="#797ecb" d="M 346.5,261.5 C 346.237,266.124 345.237,270.458 343.5,274.5C 343.517,272.435 343.85,270.435 344.5,268.5C 344.171,265.772 344.837,263.438 346.5,261.5 Z"/></g>
<g><path style="opacity:1" fill="#7e83cb" d="M 332.5,271.5 C 332.88,273.698 332.213,275.365 330.5,276.5C 330.12,274.302 330.787,272.635 332.5,271.5 Z"/></g>
<g><path style="opacity:1" fill="#d2d3ed" d="M 332.5,269.5 C 332.833,269.5 333.167,269.5 333.5,269.5C 333.261,274.768 332.261,279.768 330.5,284.5C 330.5,283.167 330.5,281.833 330.5,280.5C 330.5,279.167 330.5,277.833 330.5,276.5C 332.213,275.365 332.88,273.698 332.5,271.5C 332.5,270.833 332.5,270.167 332.5,269.5 Z"/></g>
<g><path style="opacity:1" fill="#a6aadc" d="M 220.5,271.5 C 221.924,273.515 222.59,275.848 222.5,278.5C 221.833,277.5 221.167,276.5 220.5,275.5C 220.5,274.5 220.5,273.5 220.5,272.5C 220.5,272.167 220.5,271.833 220.5,271.5 Z"/></g>
<g><path style="opacity:1" fill="#5057b9" d="M 330.5,276.5 C 330.5,277.833 330.5,279.167 330.5,280.5C 329.833,281.5 329.167,282.5 328.5,283.5C 328.41,280.848 329.076,278.515 330.5,276.5 Z"/></g>
<g><path style="opacity:1" fill="#b1b4e0" d="M 232.5,273.5 C 232.833,273.5 233.167,273.5 233.5,273.5C 233.5,274.5 233.5,275.5 233.5,276.5C 233.41,279.152 234.076,281.485 235.5,283.5C 235.5,283.833 235.5,284.167 235.5,284.5C 235.833,287.167 236.167,289.833 236.5,292.5C 235.883,292.389 235.383,292.056 235,291.5C 233.632,285.567 232.799,279.567 232.5,273.5 Z"/></g>
<g><path style="opacity:1" fill="#6b70c5" d="M 233.5,276.5 C 234.924,278.515 235.59,280.848 235.5,283.5C 234.076,281.485 233.41,279.152 233.5,276.5 Z"/></g>
<g><path style="opacity:1" fill="#262aa4" d="M 238.5,297.5 C 237.833,295.833 237.167,294.167 236.5,292.5C 236.167,289.833 235.833,287.167 235.5,284.5C 236.583,284.461 237.583,284.127 238.5,283.5C 240.801,284.269 240.967,285.269 239,286.5C 238.501,290.152 238.335,293.818 238.5,297.5 Z"/></g>
<g><path style="opacity:1" fill="#5a5fbd" d="M 343.5,274.5 C 343.664,277.187 343.497,279.854 343,282.5C 342.722,283.416 342.222,284.082 341.5,284.5C 341.753,280.96 342.419,277.627 343.5,274.5 Z"/></g>
<g><path style="opacity:1" fill="#999dd6" d="M 330.5,280.5 C 330.5,281.833 330.5,283.167 330.5,284.5C 329.833,285.5 329.167,286.5 328.5,287.5C 328.5,287.167 328.5,286.833 328.5,286.5C 328.5,285.5 328.5,284.5 328.5,283.5C 329.167,282.5 329.833,281.5 330.5,280.5 Z"/></g>
<g><path style="opacity:1" fill="#7d82cb" d="M 220.5,275.5 C 221.167,276.5 221.833,277.5 222.5,278.5C 223.324,281.764 223.658,285.098 223.5,288.5C 222.34,284.319 221.34,279.985 220.5,275.5 Z"/></g>
<g><path style="opacity:1" fill="#6067c0" d="M 328.5,286.5 C 328.5,286.833 328.5,287.167 328.5,287.5C 328.5,288.5 328.5,289.5 328.5,290.5C 327.833,291.5 327.167,292.5 326.5,293.5C 326.41,290.848 327.076,288.515 328.5,286.5 Z"/></g>
<g><path style="opacity:1" fill="#8288cd" d="M 341.5,284.5 C 341.5,285.833 341.5,287.167 341.5,288.5C 340.833,289.167 340.167,289.833 339.5,290.5C 339.259,288.102 339.926,286.102 341.5,284.5 Z"/></g>
<g><path style="opacity:1" fill="#363fb0" d="M 341.5,288.5 C 341.741,290.898 341.074,292.898 339.5,294.5C 339.5,293.167 339.5,291.833 339.5,290.5C 340.167,289.833 340.833,289.167 341.5,288.5 Z"/></g>
<g><path style="opacity:1" fill="#4248b2" d="M 293.5,281.5 C 293.18,289.344 292.513,297.011 291.5,304.5C 291.136,296.597 291.803,288.93 293.5,281.5 Z"/></g>
<g><path style="opacity:1" fill="#c6c9e9" d="M 338.5,294.5 C 337.85,296.435 337.517,298.435 337.5,300.5C 337.167,300.5 336.833,300.5 336.5,300.5C 336.025,297.918 336.692,295.918 338.5,294.5 Z"/></g>
<g><path style="opacity:1" fill="#565cba" d="M 301.5,283.5 C 301.833,283.5 302.167,283.5 302.5,283.5C 302.624,289.069 301.957,294.402 300.5,299.5C 300.179,293.974 300.512,288.64 301.5,283.5 Z"/></g>
<g><path style="opacity:1" fill="#7980cb" d="M 326.5,296.5 C 326.59,299.152 325.924,301.485 324.5,303.5C 324.5,302.5 324.5,301.5 324.5,300.5C 324.989,299.005 325.655,297.671 326.5,296.5 Z"/></g>
<g><path style="opacity:1" fill="#787cc9" d="M 338.5,290.5 C 338.833,290.5 339.167,290.5 339.5,290.5C 339.5,291.833 339.5,293.167 339.5,294.5C 339.741,296.898 339.074,298.898 337.5,300.5C 337.517,298.435 337.85,296.435 338.5,294.5C 338.5,293.167 338.5,291.833 338.5,290.5 Z"/></g>
<g><path style="opacity:1" fill="#bbbee5" d="M 328.5,290.5 C 328.448,297.694 326.782,304.361 323.5,310.5C 323.674,308.139 324.007,305.806 324.5,303.5C 325.924,301.485 326.59,299.152 326.5,296.5C 326.5,295.5 326.5,294.5 326.5,293.5C 327.167,292.5 327.833,291.5 328.5,290.5 Z"/></g>
<g><path style="opacity:1" fill="#888dd0" d="M 223.5,289.5 C 224.222,289.918 224.722,290.584 225,291.5C 226.159,297.802 226.992,304.136 227.5,310.5C 226.596,309.791 226.263,308.791 226.5,307.5C 226.59,304.848 225.924,302.515 224.5,300.5C 224.448,296.802 224.114,293.135 223.5,289.5 Z"/></g>
<g><path style="opacity:1" fill="#4248b3" d="M 224.5,300.5 C 225.924,302.515 226.59,304.848 226.5,307.5C 225.076,305.485 224.41,303.152 224.5,300.5 Z"/></g>
<g><path style="opacity:1" fill="#7679c8" d="M 236.5,292.5 C 237.167,294.167 237.833,295.833 238.5,297.5C 238.993,299.806 239.326,302.139 239.5,304.5C 238.833,303.5 238.167,302.5 237.5,301.5C 236.597,298.609 236.264,295.609 236.5,292.5 Z"/></g>
<g><path style="opacity:1" fill="#dcddf1" d="M 294.5,272.5 C 294.833,272.5 295.167,272.5 295.5,272.5C 295.667,285.171 295.5,297.838 295,310.5C 293.79,319.106 293.123,327.773 293,336.5C 292.465,340.038 291.632,343.372 290.5,346.5C 290.5,345.167 290.5,343.833 290.5,342.5C 290.476,336.143 290.81,329.81 291.5,323.5C 293.052,309.353 294.052,295.02 294.5,280.5C 294.5,277.833 294.5,275.167 294.5,272.5 Z"/></g>
<g><path style="opacity:1" fill="#969bd6" d="M 293.5,280.5 C 293.833,280.5 294.167,280.5 294.5,280.5C 294.052,295.02 293.052,309.353 291.5,323.5C 291.5,322.833 291.5,322.167 291.5,321.5C 291.5,315.833 291.5,310.167 291.5,304.5C 292.513,297.011 293.18,289.344 293.5,281.5C 293.5,281.167 293.5,280.833 293.5,280.5 Z"/></g>
<g><path style="opacity:1" fill="#3336aa" d="M 324.5,300.5 C 324.5,301.5 324.5,302.5 324.5,303.5C 324.007,305.806 323.674,308.139 323.5,310.5C 322.549,311.919 322.216,313.585 322.5,315.5C 321.313,317.072 320.313,318.739 319.5,320.5C 320.295,313.5 321.961,306.833 324.5,300.5 Z"/></g>
<g><path style="opacity:1" fill="#b2b6e2" d="M 336.5,304.5 C 336.204,306.403 335.537,308.07 334.5,309.5C 334.12,307.302 334.787,305.635 336.5,304.5 Z"/></g>
<g><path style="opacity:1" fill="#9ba0d7" d="M 237.5,301.5 C 238.167,302.5 238.833,303.5 239.5,304.5C 239.5,305.833 239.5,307.167 239.5,308.5C 238.076,306.485 237.41,304.152 237.5,301.5 Z"/></g>
<g><path style="opacity:1" fill="#b8bce3" d="M 301.5,275.5 C 301.5,278.167 301.5,280.833 301.5,283.5C 300.512,288.64 300.179,293.974 300.5,299.5C 300.5,301.833 300.5,304.167 300.5,306.5C 299.111,311.269 298.444,316.269 298.5,321.5C 298.5,324.167 298.5,326.833 298.5,329.5C 298.5,330.5 298.5,331.5 298.5,332.5C 298.167,332.5 297.833,332.5 297.5,332.5C 298.712,313.868 299.545,295.201 300,276.5C 300.383,275.944 300.883,275.611 301.5,275.5 Z"/></g>
<g><path style="opacity:1" fill="#555bbb" d="M 239.5,308.5 C 241.074,310.102 241.741,312.102 241.5,314.5C 240.833,313.833 240.167,313.167 239.5,312.5C 239.5,311.167 239.5,309.833 239.5,308.5 Z"/></g>
<g><path style="opacity:1" fill="#9ca1d8" d="M 227.5,310.5 C 229.223,312.78 229.889,315.447 229.5,318.5C 229.167,318.5 228.833,318.5 228.5,318.5C 228.167,315.833 227.833,313.167 227.5,310.5 Z"/></g>
<g><path style="opacity:1" fill="#9094d2" d="M 239.5,312.5 C 240.167,313.167 240.833,313.833 241.5,314.5C 241.5,315.833 241.5,317.167 241.5,318.5C 239.926,316.898 239.259,314.898 239.5,312.5 Z"/></g>
<g><path style="opacity:1" fill="#575cbc" d="M 336.5,300.5 C 336.833,300.5 337.167,300.5 337.5,300.5C 337.664,303.187 337.497,305.854 337,308.5C 336.154,312.388 334.987,316.055 333.5,319.5C 333.833,316.833 334.167,314.167 334.5,311.5C 334.5,310.833 334.5,310.167 334.5,309.5C 335.537,308.07 336.204,306.403 336.5,304.5C 336.5,303.167 336.5,301.833 336.5,300.5 Z"/></g>
<g><path style="opacity:1" fill="#8389cf" d="M 300.5,306.5 C 300.5,309.167 300.5,311.833 300.5,314.5C 299.833,316.833 299.167,319.167 298.5,321.5C 298.444,316.269 299.111,311.269 300.5,306.5 Z"/></g>
<g><path style="opacity:1" fill="#858acf" d="M 322.5,315.5 C 322.483,317.565 322.15,319.565 321.5,321.5C 320.686,323.631 320.186,325.964 320,328.5C 319.617,329.056 319.117,329.389 318.5,329.5C 318.963,326.518 319.296,323.518 319.5,320.5C 320.313,318.739 321.313,317.072 322.5,315.5 Z"/></g>
<g><path style="opacity:1" fill="#a7abdc" d="M 334.5,311.5 C 334.167,314.167 333.833,316.833 333.5,319.5C 332.79,323.025 331.79,326.358 330.5,329.5C 331.009,324.128 331.842,318.795 333,313.5C 333.278,312.584 333.778,311.918 334.5,311.5 Z"/></g>
<g><path style="opacity:1" fill="#5358b9" d="M 228.5,318.5 C 228.833,318.5 229.167,318.5 229.5,318.5C 229.704,321.518 230.037,324.518 230.5,327.5C 229.883,327.389 229.383,327.056 229,326.5C 228.503,323.854 228.336,321.187 228.5,318.5 Z"/></g>
<g><path style="opacity:1" fill="#787dc9" d="M 241.5,318.5 C 242.903,321.909 243.57,325.575 243.5,329.5C 243.5,330.167 243.5,330.833 243.5,331.5C 243.167,331.5 242.833,331.5 242.5,331.5C 241.92,327.19 241.586,322.857 241.5,318.5 Z"/></g>
<g><path style="opacity:1" fill="#5d64bf" d="M 300.5,314.5 C 300.5,317.5 300.5,320.5 300.5,323.5C 299.833,325.5 299.167,327.5 298.5,329.5C 298.5,326.833 298.5,324.167 298.5,321.5C 299.167,319.167 299.833,316.833 300.5,314.5 Z"/></g>
<g><path style="opacity:1" fill="#cfd1ec" d="M 321.5,321.5 C 321.428,328.688 319.761,335.355 316.5,341.5C 316.5,340.167 316.5,338.833 316.5,337.5C 317.924,335.485 318.59,333.152 318.5,330.5C 318.5,330.167 318.5,329.833 318.5,329.5C 319.117,329.389 319.617,329.056 320,328.5C 320.186,325.964 320.686,323.631 321.5,321.5 Z"/></g>
<g><path style="opacity:1" fill="#4950b7" d="M 291.5,321.5 C 291.5,322.167 291.5,322.833 291.5,323.5C 290.81,329.81 290.476,336.143 290.5,342.5C 290.167,342.5 289.833,342.5 289.5,342.5C 289.334,337.156 289.501,331.823 290,326.5C 290.198,324.618 290.698,322.952 291.5,321.5 Z"/></g>
<g><path style="opacity:1" fill="#666dc3" d="M 318.5,330.5 C 318.59,333.152 317.924,335.485 316.5,337.5C 316.41,334.848 317.076,332.515 318.5,330.5 Z"/></g>
<g><path style="opacity:1" fill="#9095d3" d="M 230.5,329.5 C 233.035,333.355 234.035,337.688 233.5,342.5C 232.596,341.791 232.263,340.791 232.5,339.5C 232.741,337.102 232.074,335.102 230.5,333.5C 230.5,332.167 230.5,330.833 230.5,329.5 Z"/></g>
<g><path style="opacity:1" fill="#dedff2" d="M 229.5,318.5 C 231.42,322.646 232.92,326.979 234,331.5C 235.517,340.787 236.851,350.121 238,359.5C 240.176,364.547 241.009,369.881 240.5,375.5C 240.167,375.5 239.833,375.5 239.5,375.5C 239.01,369.191 237.677,363.191 235.5,357.5C 235.5,356.833 235.5,356.167 235.5,355.5C 235.884,351.511 235.217,347.845 233.5,344.5C 233.5,343.833 233.5,343.167 233.5,342.5C 234.035,337.688 233.035,333.355 230.5,329.5C 230.5,328.833 230.5,328.167 230.5,327.5C 230.037,324.518 229.704,321.518 229.5,318.5 Z"/></g>
<g><path style="opacity:1" fill="#c9ccea" d="M 242.5,331.5 C 242.833,331.5 243.167,331.5 243.5,331.5C 243.5,332.167 243.5,332.833 243.5,333.5C 243.41,336.152 244.076,338.485 245.5,340.5C 245.5,341.5 245.5,342.5 245.5,343.5C 245.5,345.167 245.5,346.833 245.5,348.5C 243.926,343.056 242.926,337.389 242.5,331.5 Z"/></g>
<g><path style="opacity:1" fill="#4e55b9" d="M 243.5,329.5 C 244.924,331.515 245.59,333.848 245.5,336.5C 244.833,335.5 244.167,334.5 243.5,333.5C 243.5,332.833 243.5,332.167 243.5,331.5C 243.5,330.833 243.5,330.167 243.5,329.5 Z"/></g>
<g><path style="opacity:1" fill="#333fb1" d="M 300.5,323.5 C 300.811,328.766 300.145,333.766 298.5,338.5C 298.5,336.5 298.5,334.5 298.5,332.5C 298.5,331.5 298.5,330.5 298.5,329.5C 299.167,327.5 299.833,325.5 300.5,323.5 Z"/></g>
<g><path style="opacity:1" fill="#545aba" d="M 230.5,333.5 C 232.074,335.102 232.741,337.102 232.5,339.5C 230.926,337.898 230.259,335.898 230.5,333.5 Z"/></g>
<g><path style="opacity:1" fill="#858cd0" d="M 243.5,333.5 C 244.167,334.5 244.833,335.5 245.5,336.5C 245.5,337.167 245.5,337.833 245.5,338.5C 245.5,339.167 245.5,339.833 245.5,340.5C 244.076,338.485 243.41,336.152 243.5,333.5 Z"/></g>
<g><path style="opacity:1" fill="#3337aa" d="M 245.5,338.5 C 247.989,343.418 248.989,348.751 248.5,354.5C 247.775,350.769 246.775,347.102 245.5,343.5C 245.5,342.5 245.5,341.5 245.5,340.5C 245.5,339.833 245.5,339.167 245.5,338.5 Z"/></g>
<g><path style="opacity:1" fill="#9398d5" d="M 330.5,331.5 C 330.5,332.167 330.5,332.833 330.5,333.5C 329.349,337.906 328.016,342.239 326.5,346.5C 327.003,342.317 327.669,338.151 328.5,334C 328.684,332.624 329.351,331.791 330.5,331.5 Z"/></g>
<g><path style="opacity:1" fill="#3e43b0" d="M 330.5,333.5 C 330.386,341.116 328.72,348.116 325.5,354.5C 325.517,352.435 325.85,350.435 326.5,348.5C 326.5,347.833 326.5,347.167 326.5,346.5C 328.016,342.239 329.349,337.906 330.5,333.5 Z"/></g>
<g><path style="opacity:1" fill="#7d83cc" d="M 297.5,332.5 C 297.833,332.5 298.167,332.5 298.5,332.5C 298.5,334.5 298.5,336.5 298.5,338.5C 298.392,347.358 297.725,356.025 296.5,364.5C 296.686,353.828 297.019,343.161 297.5,332.5 Z"/></g>
<g><path style="opacity:1" fill="#c8caea" d="M 315.5,342.5 C 315.833,342.5 316.167,342.5 316.5,342.5C 316.87,348.683 315.536,354.349 312.5,359.5C 312.5,358.833 312.5,358.167 312.5,357.5C 312.5,356.833 312.5,356.167 312.5,355.5C 314.237,351.458 315.237,347.124 315.5,342.5 Z"/></g>
<g><path style="opacity:1" fill="#838acf" d="M 233.5,344.5 C 235.217,347.845 235.884,351.511 235.5,355.5C 234.475,352.026 233.808,348.36 233.5,344.5 Z"/></g>
<g><path style="opacity:1" fill="#a4a7db" d="M 245.5,343.5 C 246.775,347.102 247.775,350.769 248.5,354.5C 248.5,356.167 248.5,357.833 248.5,359.5C 247.055,356.063 246.055,352.397 245.5,348.5C 245.5,346.833 245.5,345.167 245.5,343.5 Z"/></g>
<g><path style="opacity:1" fill="#a9aede" d="M 326.5,348.5 C 325.85,350.435 325.517,352.435 325.5,354.5C 325.167,354.5 324.833,354.5 324.5,354.5C 324.025,351.918 324.692,349.918 326.5,348.5 Z"/></g>
<g><path style="opacity:1" fill="#666bc1" d="M 315.5,342.5 C 315.237,347.124 314.237,351.458 312.5,355.5C 312.952,351.837 313.452,348.17 314,344.5C 314.278,343.584 314.778,342.918 315.5,342.5 Z"/></g>
<g><path style="opacity:1" fill="#757cc9" d="M 312.5,357.5 C 312.5,358.167 312.5,358.833 312.5,359.5C 312.204,361.403 311.537,363.07 310.5,364.5C 310.41,361.848 311.076,359.515 312.5,357.5 Z"/></g>
<g><path style="opacity:1" fill="#6f75c6" d="M 324.5,354.5 C 324.833,354.5 325.167,354.5 325.5,354.5C 324.415,358.76 323.748,363.094 323.5,367.5C 323.167,367.5 322.833,367.5 322.5,367.5C 322.271,362.995 322.937,358.661 324.5,354.5 Z"/></g>
<g><path style="opacity:1" fill="#3c43b0" d="M 289.5,349.5 C 289.629,358.044 288.962,366.377 287.5,374.5C 287.157,365.938 287.824,357.605 289.5,349.5 Z"/></g>
<g><path style="opacity:1" fill="#777cc9" d="M 249.5,362.5 C 250.338,362.842 250.672,363.508 250.5,364.5C 250.993,366.806 251.326,369.139 251.5,371.5C 250.883,371.389 250.383,371.056 250,370.5C 249.503,367.854 249.336,365.187 249.5,362.5 Z"/></g>
<g><path style="opacity:1" fill="#969ad5" d="M 322.5,367.5 C 322.204,369.403 321.537,371.07 320.5,372.5C 320.12,370.302 320.787,368.635 322.5,367.5 Z"/></g>
<g><path style="opacity:1" fill="#3e43af" d="M 322.5,367.5 C 322.833,367.5 323.167,367.5 323.5,367.5C 322.253,371.715 321.42,376.048 321,380.5C 320.066,381.858 319.232,383.192 318.5,384.5C 318.5,383.167 318.5,381.833 318.5,380.5C 319.924,378.485 320.59,376.152 320.5,373.5C 320.5,373.167 320.5,372.833 320.5,372.5C 321.537,371.07 322.204,369.403 322.5,367.5 Z"/></g>
<g><path style="opacity:1" fill="#7b80ca" d="M 235.5,357.5 C 237.677,363.191 239.01,369.191 239.5,375.5C 239.167,375.5 238.833,375.5 238.5,375.5C 237.129,369.568 236.129,363.568 235.5,357.5 Z"/></g>
<g><path style="opacity:1" fill="#777cc9" d="M 310.5,364.5 C 310.736,367.609 310.403,370.609 309.5,373.5C 308.686,375.631 308.186,377.964 308,380.5C 307.617,381.056 307.117,381.389 306.5,381.5C 307.088,375.539 308.421,369.873 310.5,364.5 Z"/></g>
<g><path style="opacity:1" fill="#c7c9e9" d="M 248.5,359.5 C 249.404,360.209 249.737,361.209 249.5,362.5C 249.336,365.187 249.503,367.854 250,370.5C 250.383,371.056 250.883,371.389 251.5,371.5C 251.5,373.167 251.5,374.833 251.5,376.5C 251.5,377.5 251.5,378.5 251.5,379.5C 248.966,373.202 247.966,366.536 248.5,359.5 Z"/></g>
<g><path style="opacity:1" fill="#a6aadc" d="M 289.5,342.5 C 289.833,342.5 290.167,342.5 290.5,342.5C 290.5,343.833 290.5,345.167 290.5,346.5C 290.228,367.69 289.228,388.69 287.5,409.5C 287.5,405.167 287.5,400.833 287.5,396.5C 287.5,393.833 287.5,391.167 287.5,388.5C 287.5,383.833 287.5,379.167 287.5,374.5C 288.962,366.377 289.629,358.044 289.5,349.5C 289.5,347.167 289.5,344.833 289.5,342.5 Z"/></g>
<g><path style="opacity:1" fill="#272ca6" d="M 254.5,385.5 C 254.167,385.5 253.833,385.5 253.5,385.5C 253.58,382.219 252.913,379.219 251.5,376.5C 251.5,374.833 251.5,373.167 251.5,371.5C 251.326,369.139 250.993,366.806 250.5,364.5C 251.117,364.389 251.617,364.056 252,363.5C 253.163,370.807 253.996,378.141 254.5,385.5 Z"/></g>
<g><path style="opacity:1" fill="#9a9fd8" d="M 320.5,373.5 C 320.59,376.152 319.924,378.485 318.5,380.5C 318.41,377.848 319.076,375.515 320.5,373.5 Z"/></g>
<g><path style="opacity:1" fill="#aeb2e0" d="M 239.5,375.5 C 239.833,375.5 240.167,375.5 240.5,375.5C 241.352,379.794 242.018,384.127 242.5,388.5C 241.833,387.5 241.167,386.5 240.5,385.5C 240.384,382.14 240.051,378.807 239.5,375.5 Z"/></g>
<g><path style="opacity:1" fill="#d3d5ee" d="M 309.5,373.5 C 309.946,379.245 308.946,384.579 306.5,389.5C 306.5,388.167 306.5,386.833 306.5,385.5C 306.5,384.167 306.5,382.833 306.5,381.5C 307.117,381.389 307.617,381.056 308,380.5C 308.186,377.964 308.686,375.631 309.5,373.5 Z"/></g>
<g><path style="opacity:1" fill="#3f43b1" d="M 238.5,375.5 C 238.833,375.5 239.167,375.5 239.5,375.5C 240.051,378.807 240.384,382.14 240.5,385.5C 240.5,386.167 240.5,386.833 240.5,387.5C 238.864,383.79 238.198,379.79 238.5,375.5 Z"/></g>
<g><path style="opacity:1" fill="#a4a7db" d="M 251.5,376.5 C 252.913,379.219 253.58,382.219 253.5,385.5C 253.5,386.5 253.5,387.5 253.5,388.5C 252.087,385.781 251.42,382.781 251.5,379.5C 251.5,378.5 251.5,377.5 251.5,376.5 Z"/></g>
<g><path style="opacity:1" fill="#7d81cc" d="M 306.5,385.5 C 306.5,386.833 306.5,388.167 306.5,389.5C 305.833,389.5 305.5,389.833 305.5,390.5C 305.167,390.5 304.833,390.5 304.5,390.5C 304.12,388.302 304.787,386.635 306.5,385.5 Z"/></g>
<g><path style="opacity:1" fill="#7b82cb" d="M 318.5,384.5 C 318.5,385.833 318.5,387.167 318.5,388.5C 317.833,389.167 317.167,389.833 316.5,390.5C 316.259,388.102 316.926,386.102 318.5,384.5 Z"/></g>
<g><path style="opacity:1" fill="#7b81cb" d="M 240.5,385.5 C 241.167,386.5 241.833,387.5 242.5,388.5C 243.159,391.455 243.492,394.455 243.5,397.5C 243.5,398.167 243.5,398.833 243.5,399.5C 242.596,398.791 242.263,397.791 242.5,396.5C 242.59,393.848 241.924,391.515 240.5,389.5C 240.5,388.833 240.5,388.167 240.5,387.5C 240.5,386.833 240.5,386.167 240.5,385.5 Z"/></g>
<g><path style="opacity:1" fill="#565cbb" d="M 253.5,385.5 C 253.833,385.5 254.167,385.5 254.5,385.5C 256.041,390.364 256.708,395.364 256.5,400.5C 255.903,396.733 254.903,393.066 253.5,389.5C 253.5,389.167 253.5,388.833 253.5,388.5C 253.5,387.5 253.5,386.5 253.5,385.5 Z"/></g>
<g><path style="opacity:1" fill="#9398d5" d="M 296.5,370.5 C 296.5,374.5 296.5,378.5 296.5,382.5C 295.833,386.167 295.167,389.833 294.5,393.5C 294.5,390.833 294.5,388.167 294.5,385.5C 294.444,380.269 295.111,375.269 296.5,370.5 Z"/></g>
<g><path style="opacity:1" fill="#3b43b0" d="M 318.5,388.5 C 318.741,390.898 318.074,392.898 316.5,394.5C 316.5,393.5 316.5,392.5 316.5,391.5C 316.5,391.167 316.5,390.833 316.5,390.5C 317.167,389.833 317.833,389.167 318.5,388.5 Z"/></g>
<g><path style="opacity:1" fill="#8f95d4" d="M 315.5,391.5 C 315.833,391.5 316.167,391.5 316.5,391.5C 316.5,392.5 316.5,393.5 316.5,394.5C 316.5,394.833 316.5,395.167 316.5,395.5C 315.833,396.5 315.167,397.5 314.5,398.5C 314.674,396.139 315.007,393.806 315.5,391.5 Z"/></g>
<g><path style="opacity:1" fill="#3f48b2" d="M 240.5,389.5 C 241.924,391.515 242.59,393.848 242.5,396.5C 241.076,394.485 240.41,392.152 240.5,389.5 Z"/></g>
<g><path style="opacity:1" fill="#464cb5" d="M 296.5,382.5 C 296.567,393.364 295.901,404.03 294.5,414.5C 294.5,413.5 294.5,412.5 294.5,411.5C 294.5,405.5 294.5,399.5 294.5,393.5C 295.167,389.833 295.833,386.167 296.5,382.5 Z"/></g>
<g><path style="opacity:1" fill="#9194d3" d="M 304.5,391.5 C 305.036,394.698 304.369,397.365 302.5,399.5C 302.565,396.572 303.232,393.905 304.5,391.5 Z"/></g>
<g><path style="opacity:1" fill="#4046b1" d="M 287.5,388.5 C 287.5,391.167 287.5,393.833 287.5,396.5C 286.833,401.167 286.167,405.833 285.5,410.5C 285.334,404.824 285.501,399.157 286,393.5C 286.198,391.618 286.698,389.952 287.5,388.5 Z"/></g>
<g><path style="opacity:1" fill="#dadbf0" d="M 315.5,391.5 C 315.007,393.806 314.674,396.139 314.5,398.5C 314.5,399.833 314.5,401.167 314.5,402.5C 313.883,402.611 313.383,402.944 313,403.5C 312.505,405.473 312.338,407.473 312.5,409.5C 312.5,410.167 312.5,410.833 312.5,411.5C 311.833,411.833 311.167,412.167 310.5,412.5C 310.665,405.012 312.332,398.012 315.5,391.5 Z"/></g>
<g><path style="opacity:1" fill="#454eb7" d="M 316.5,395.5 C 316.59,398.152 315.924,400.485 314.5,402.5C 314.5,401.167 314.5,399.833 314.5,398.5C 315.167,397.5 315.833,396.5 316.5,395.5 Z"/></g>
<g><path style="opacity:1" fill="#b6bae4" d="M 243.5,397.5 C 245.074,399.102 245.741,401.102 245.5,403.5C 244.833,402.833 244.167,402.167 243.5,401.5C 243.5,400.833 243.5,400.167 243.5,399.5C 243.5,398.833 243.5,398.167 243.5,397.5 Z"/></g>
<g><path style="opacity:1" fill="#adafdf" d="M 253.5,389.5 C 254.903,393.066 255.903,396.733 256.5,400.5C 256.808,404.36 257.475,408.026 258.5,411.5C 260.136,415.21 260.802,419.21 260.5,423.5C 260.167,423.5 259.833,423.5 259.5,423.5C 257.413,417.688 255.913,411.688 255,405.5C 254.609,400.146 254.109,394.812 253.5,389.5 Z"/></g>
<g><path style="opacity:1" fill="#767cca" d="M 243.5,401.5 C 244.167,402.167 244.833,402.833 245.5,403.5C 245.5,406.167 245.5,408.833 245.5,411.5C 244.419,408.373 243.753,405.04 243.5,401.5 Z"/></g>
<g><path style="opacity:1" fill="#5057b7" d="M 256.5,400.5 C 258.217,403.845 258.884,407.511 258.5,411.5C 257.475,408.026 256.808,404.36 256.5,400.5 Z"/></g>
<g><path style="opacity:1" fill="#888dd0" d="M 302.5,399.5 C 302.664,402.187 302.497,404.854 302,407.5C 301.617,408.056 301.117,408.389 300.5,408.5C 300.99,405.345 301.656,402.345 302.5,399.5 Z"/></g>
<g><path style="opacity:1" fill="#7a7fca" d="M 314.5,402.5 C 314.326,404.861 313.993,407.194 313.5,409.5C 313.167,409.5 312.833,409.5 312.5,409.5C 312.338,407.473 312.505,405.473 313,403.5C 313.383,402.944 313.883,402.611 314.5,402.5 Z"/></g>
<g><path style="opacity:1" fill="#d8daf0" d="M 304.5,390.5 C 304.833,390.5 305.167,390.5 305.5,390.5C 305.666,394.514 305.499,398.514 305,402.5C 303.141,408.594 300.975,414.594 298.5,420.5C 298.833,417.833 299.167,415.167 299.5,412.5C 300.434,411.432 300.768,410.099 300.5,408.5C 301.117,408.389 301.617,408.056 302,407.5C 302.497,404.854 302.664,402.187 302.5,399.5C 304.369,397.365 305.036,394.698 304.5,391.5C 304.5,391.167 304.5,390.833 304.5,390.5 Z"/></g>
<g><path style="opacity:1" fill="#bcc0e5" d="M 294.5,385.5 C 294.5,388.167 294.5,390.833 294.5,393.5C 294.5,399.5 294.5,405.5 294.5,411.5C 293.833,413.5 293.167,415.5 292.5,417.5C 292.948,406.668 293.615,396.001 294.5,385.5 Z"/></g>
<g><path style="opacity:1" fill="#2d31a8" d="M 312.5,409.5 C 312.833,409.5 313.167,409.5 313.5,409.5C 313.151,414.567 312.318,419.567 311,424.5C 310.626,426.491 309.793,428.158 308.5,429.5C 309.74,423.492 311.074,417.492 312.5,411.5C 312.5,410.833 312.5,410.167 312.5,409.5 Z"/></g>
<g><path style="opacity:1" fill="#858bcf" d="M 245.5,411.5 C 246.924,413.515 247.59,415.848 247.5,418.5C 247.167,418.5 246.833,418.5 246.5,418.5C 246.007,416.194 245.674,413.861 245.5,411.5 Z"/></g>
<g><path style="opacity:1" fill="#9195d4" d="M 312.5,411.5 C 311.074,417.492 309.74,423.492 308.5,429.5C 308.204,431.403 307.537,433.07 306.5,434.5C 306.517,432.435 306.85,430.435 307.5,428.5C 308.711,423.236 309.711,417.903 310.5,412.5C 311.167,412.167 311.833,411.833 312.5,411.5 Z"/></g>
<g><path style="opacity:1" fill="#a7aadc" d="M 247.5,420.5 C 248.924,422.515 249.59,424.848 249.5,427.5C 248.076,425.485 247.41,423.152 247.5,420.5 Z"/></g>
<g><path style="opacity:1" fill="#8d92d2" d="M 294.5,411.5 C 294.5,412.5 294.5,413.5 294.5,414.5C 294.5,416.5 294.5,418.5 294.5,420.5C 293.539,422.265 293.205,424.265 293.5,426.5C 293.167,426.5 292.833,426.5 292.5,426.5C 292.5,423.5 292.5,420.5 292.5,417.5C 293.167,415.5 293.833,413.5 294.5,411.5 Z"/></g>
<g><path style="opacity:1" fill="#8b90d1" d="M 287.5,396.5 C 287.5,400.833 287.5,405.167 287.5,409.5C 286.759,415.471 286.425,421.471 286.5,427.5C 286.167,427.5 285.833,427.5 285.5,427.5C 285.5,421.833 285.5,416.167 285.5,410.5C 286.167,405.833 286.833,401.167 287.5,396.5 Z"/></g>
<g><path style="opacity:1" fill="#adafdf" d="M 298.5,422.5 C 298.741,424.898 298.074,426.898 296.5,428.5C 296.259,426.102 296.926,424.102 298.5,422.5 Z"/></g>
<g><path style="opacity:1" fill="#4e54b8" d="M 299.5,412.5 C 299.167,415.167 298.833,417.833 298.5,420.5C 298.5,421.167 298.5,421.833 298.5,422.5C 296.926,424.102 296.259,426.102 296.5,428.5C 296.5,429.5 296.5,430.5 296.5,431.5C 295.833,432.167 295.167,432.833 294.5,433.5C 293.532,431.393 293.198,429.059 293.5,426.5C 293.205,424.265 293.539,422.265 294.5,420.5C 294.336,423.187 294.503,425.854 295,428.5C 296.19,422.934 297.69,417.601 299.5,412.5 Z"/></g>
<g><path style="opacity:1" fill="#6770c4" d="M 292.5,426.5 C 292.833,426.5 293.167,426.5 293.5,426.5C 293.198,429.059 293.532,431.393 294.5,433.5C 294.509,435.308 294.009,436.975 293,438.5C 292.502,435.183 292.335,431.85 292.5,428.5C 292.5,427.833 292.5,427.167 292.5,426.5 Z"/></g>
<g><path style="opacity:1" fill="#4f55b7" d="M 246.5,418.5 C 246.833,418.5 247.167,418.5 247.5,418.5C 247.5,419.167 247.5,419.833 247.5,420.5C 247.41,423.152 248.076,425.485 249.5,427.5C 249.5,428.833 249.5,430.167 249.5,431.5C 249.5,432.833 249.5,434.167 249.5,435.5C 247.675,430.105 246.675,424.438 246.5,418.5 Z"/></g>
<g><path style="opacity:1" fill="#4750b7" d="M 261.5,428.5 C 262.924,430.515 263.59,432.848 263.5,435.5C 262.833,434.5 262.167,433.5 261.5,432.5C 261.5,431.167 261.5,429.833 261.5,428.5 Z"/></g>
<g><path style="opacity:1" fill="#a8acdc" d="M 285.5,427.5 C 285.833,427.5 286.167,427.5 286.5,427.5C 285.723,444.332 284.723,460.999 283.5,477.5C 283.5,474.167 283.5,470.833 283.5,467.5C 283.5,464.833 283.5,462.167 283.5,459.5C 283.5,456.5 283.5,453.5 283.5,450.5C 284.598,444.021 285.265,437.354 285.5,430.5C 285.5,429.5 285.5,428.5 285.5,427.5 Z"/></g>
<g><path style="opacity:1" fill="#a6abdd" d="M 249.5,431.5 C 250.924,433.515 251.59,435.848 251.5,438.5C 250.833,437.5 250.167,436.5 249.5,435.5C 249.5,434.167 249.5,432.833 249.5,431.5 Z"/></g>
<g><path style="opacity:1" fill="#cdceec" d="M 259.5,423.5 C 259.833,423.5 260.167,423.5 260.5,423.5C 261.451,424.919 261.784,426.585 261.5,428.5C 261.5,429.833 261.5,431.167 261.5,432.5C 262.755,437.776 263.755,443.109 264.5,448.5C 262.603,446.731 261.436,444.398 261,441.5C 260.301,435.511 259.801,429.511 259.5,423.5 Z"/></g>
<g><path style="opacity:1" fill="#a7abdd" d="M 292.5,428.5 C 292.335,431.85 292.502,435.183 293,438.5C 294.009,436.975 294.509,435.308 294.5,433.5C 295.167,432.833 295.833,432.167 296.5,431.5C 295.774,435.678 294.441,439.678 292.5,443.5C 291.186,438.348 291.186,433.348 292.5,428.5 Z"/></g>
<g><path style="opacity:1" fill="#666cc1" d="M 249.5,435.5 C 250.167,436.5 250.833,437.5 251.5,438.5C 251.298,440.95 251.631,443.283 252.5,445.5C 252.833,448.167 253.167,450.833 253.5,453.5C 252.883,453.389 252.383,453.056 252,452.5C 251.025,446.844 250.192,441.177 249.5,435.5 Z"/></g>
<g><path style="opacity:1" fill="#6368c0" d="M 261.5,432.5 C 262.167,433.5 262.833,434.5 263.5,435.5C 264.622,440.445 265.622,445.445 266.5,450.5C 266.167,450.5 265.833,450.5 265.5,450.5C 265.672,449.508 265.338,448.842 264.5,448.5C 263.755,443.109 262.755,437.776 261.5,432.5 Z"/></g>
<g><path style="opacity:1" fill="#bec0e5" d="M 307.5,428.5 C 306.85,430.435 306.517,432.435 306.5,434.5C 306.5,435.833 306.5,437.167 306.5,438.5C 305.5,440.5 304.5,442.5 303.5,444.5C 304.169,439.486 305.003,434.486 306,429.5C 306.383,428.944 306.883,428.611 307.5,428.5 Z"/></g>
<g><path style="opacity:1" fill="#585ebb" d="M 285.5,430.5 C 285.265,437.354 284.598,444.021 283.5,450.5C 283.334,444.824 283.501,439.157 284,433.5C 284.232,432.263 284.732,431.263 285.5,430.5 Z"/></g>
<g><path style="opacity:1" fill="#c0c3e6" d="M 252.5,445.5 C 254.175,448.507 254.841,451.84 254.5,455.5C 253.662,455.158 253.328,454.492 253.5,453.5C 253.167,450.833 252.833,448.167 252.5,445.5 Z"/></g>
<g><path style="opacity:1" fill="#666bc2" d="M 306.5,438.5 C 305.784,443.46 304.451,448.126 302.5,452.5C 302.833,449.833 303.167,447.167 303.5,444.5C 304.5,442.5 305.5,440.5 306.5,438.5 Z"/></g>
<g><path style="opacity:1" fill="#9196d3" d="M 265.5,450.5 C 265.833,450.5 266.167,450.5 266.5,450.5C 268.024,453.074 269.358,455.741 270.5,458.5C 268.103,456.338 266.436,453.671 265.5,450.5 Z"/></g>
<g><path style="opacity:1" fill="#c8caea" d="M 254.5,455.5 C 256.982,456.663 258.316,458.663 258.5,461.5C 258.167,461.5 257.833,461.5 257.5,461.5C 257.262,459.596 256.262,458.262 254.5,457.5C 254.5,456.833 254.5,456.167 254.5,455.5 Z"/></g>
<g><path style="opacity:1" fill="#676cc2" d="M 254.5,457.5 C 256.262,458.262 257.262,459.596 257.5,461.5C 255.738,460.738 254.738,459.404 254.5,457.5 Z"/></g>
<g><path style="opacity:1" fill="#767bca" d="M 270.5,458.5 C 271.906,458.973 272.573,459.973 272.5,461.5C 271.094,461.027 270.427,460.027 270.5,458.5 Z"/></g>
<g><path style="opacity:1" fill="#6367bf" d="M 302.5,452.5 C 302.664,455.187 302.497,457.854 302,460.5C 301.722,461.416 301.222,462.082 300.5,462.5C 300.517,460.435 300.85,458.435 301.5,456.5C 301.232,454.901 301.566,453.568 302.5,452.5 Z"/></g>
<g><path style="opacity:1" fill="#8489cf" d="M 257.5,461.5 C 257.833,461.5 258.167,461.5 258.5,461.5C 259.11,462.391 259.443,463.391 259.5,464.5C 258.094,464.027 257.427,463.027 257.5,461.5 Z"/></g>
<g><path style="opacity:1" fill="#c1c3e7" d="M 301.5,456.5 C 300.85,458.435 300.517,460.435 300.5,462.5C 300.5,462.833 300.5,463.167 300.5,463.5C 298.926,465.102 298.259,467.102 298.5,469.5C 298.768,471.099 298.434,472.432 297.5,473.5C 297.177,469.774 297.511,466.107 298.5,462.5C 299.011,460.116 300.011,458.116 301.5,456.5 Z"/></g>
<g><path style="opacity:1" fill="#858acf" d="M 272.5,461.5 C 274.199,463.566 275.532,465.9 276.5,468.5C 274.058,466.879 272.725,464.546 272.5,461.5 Z"/></g>
<g><path style="opacity:1" fill="#999cd7" d="M 259.5,464.5 C 261.759,465.344 262.759,467.011 262.5,469.5C 260.75,468.341 259.75,466.674 259.5,464.5 Z"/></g>
<g><path style="opacity:1" fill="#373faf" d="M 283.5,459.5 C 283.5,462.167 283.5,464.833 283.5,467.5C 282.834,470.028 282.168,472.694 281.5,475.5C 280.893,475.376 280.56,475.043 280.5,474.5C 281.282,469.463 282.282,464.463 283.5,459.5 Z"/></g>
<g><path style="opacity:1" fill="#6f75c7" d="M 300.5,463.5 C 300.741,465.898 300.074,467.898 298.5,469.5C 298.259,467.102 298.926,465.102 300.5,463.5 Z"/></g>
<g><path style="opacity:1" fill="#afb1e0" d="M 262.5,469.5 C 265.664,471.147 267.33,473.814 267.5,477.5C 265.336,475.178 263.669,472.511 262.5,469.5 Z"/></g>
<g><path style="opacity:1" fill="#878cd0" d="M 283.5,467.5 C 283.5,470.833 283.5,474.167 283.5,477.5C 282.167,477.5 280.833,477.5 279.5,477.5C 278.317,474.619 277.317,471.619 276.5,468.5C 278.01,470.322 279.343,472.322 280.5,474.5C 280.56,475.043 280.893,475.376 281.5,475.5C 282.168,472.694 282.834,470.028 283.5,467.5 Z"/></g>
<g><path style="opacity:1" fill="#6b6ec4" d="M 267.5,477.5 C 268.89,478.899 269.89,480.566 270.5,482.5C 271.11,483.391 271.443,484.391 271.5,485.5C 269.604,483.163 268.27,480.496 267.5,477.5 Z"/></g>
<g><path style="opacity:1" fill="#4c52b7" d="M 296.5,482.5 C 296.59,485.152 295.924,487.485 294.5,489.5C 294.41,486.848 295.076,484.515 296.5,482.5 Z"/></g>
<g><path style="opacity:1" fill="#9498d5" d="M 270.5,482.5 C 272.408,483.486 273.408,485.152 273.5,487.5C 272.167,487.5 271.5,486.833 271.5,485.5C 271.443,484.391 271.11,483.391 270.5,482.5 Z"/></g>
<g><path style="opacity:1" fill="#a9addd" d="M 296.5,478.5 C 296.5,479.833 296.5,481.167 296.5,482.5C 295.076,484.515 294.41,486.848 294.5,489.5C 294.5,489.833 294.5,490.167 294.5,490.5C 293.076,492.515 292.41,494.848 292.5,497.5C 292.167,497.5 291.833,497.5 291.5,497.5C 292.291,490.857 293.957,484.523 296.5,478.5 Z"/></g>
<g><path style="opacity:1" fill="#6f75c5" d="M 273.5,488.5 C 274.906,488.973 275.573,489.973 275.5,491.5C 274.094,491.027 273.427,490.027 273.5,488.5 Z"/></g>
<g><path style="opacity:1" fill="#8086cd" d="M 275.5,491.5 C 276.906,491.973 277.573,492.973 277.5,494.5C 276.833,494.167 276.167,493.833 275.5,493.5C 275.5,492.833 275.5,492.167 275.5,491.5 Z"/></g>
<g><path style="opacity:1" fill="#575ebc" d="M 294.5,490.5 C 294.59,493.152 293.924,495.485 292.5,497.5C 292.41,494.848 293.076,492.515 294.5,490.5 Z"/></g>
<g><path style="opacity:1" fill="#484db5" d="M 275.5,493.5 C 276.167,493.833 276.833,494.167 277.5,494.5C 278.345,495.671 279.011,497.005 279.5,498.5C 277.469,497.461 276.136,495.795 275.5,493.5 Z"/></g>
<g><path style="opacity:1" fill="#a2a4da" d="M 281.5,501.5 C 283.587,502.585 284.92,504.251 285.5,506.5C 284.833,506.167 284.167,505.833 283.5,505.5C 282.4,504.395 281.733,503.062 281.5,501.5 Z"/></g>
<g><path style="opacity:1" fill="#5f65bf" d="M 283.5,505.5 C 284.167,505.833 284.833,506.167 285.5,506.5C 285.5,507.167 285.5,507.833 285.5,508.5C 284.094,508.027 283.427,507.027 283.5,505.5 Z"/></g>
<g><path style="opacity:1" fill="#797eca" d="M 291.5,497.5 C 291.833,497.5 292.167,497.5 292.5,497.5C 291.362,502.091 290.529,506.757 290,511.5C 287.448,512.487 285.948,511.487 285.5,508.5C 286.708,509.234 288.041,509.567 289.5,509.5C 289.333,505.33 290,501.33 291.5,497.5 Z"/></g>
</svg>