<svg data-v-2611e420="" height="23" xmlns="http://www.w3.org/2000/svg" xmlns:xlink="http://www.w3.org/1999/xlink" viewBox="0 0 88.543 19.778"><defs data-v-2611e420=""><radialGradient data-v-2611e420="" id="radial-gradient" cx="186.265" cy="548.022" r="10.828" gradientTransform="translate(-1.516 -6.064) scale(0.942 0.942)" gradientUnits="userSpaceOnUse"><stop data-v-2611e420="" offset="0" stop-color="#f79420"></stop> <stop data-v-2611e420="" offset="0.555" stop-color="#f69220"></stop> <stop data-v-2611e420="" offset="0.755" stop-color="#f58b21"></stop> <stop data-v-2611e420="" offset="0.897" stop-color="#f47f24"></stop> <stop data-v-2611e420="" offset="1" stop-color="#f27128"></stop></radialGradient> <linearGradient data-v-2611e420="" id="linear-gradient" x1="0.5" y1="1.236" x2="0.5" y2="0.119" gradientUnits="objectBoundingBox"><stop data-v-2611e420="" offset="0" stop-color="#f05a2a"></stop> <stop data-v-2611e420="" offset="0.238" stop-color="#f05f29"></stop> <stop data-v-2611e420="" offset="0.55" stop-color="#f27026"></stop> <stop data-v-2611e420="" offset="0.901" stop-color="#f58b21"></stop> <stop data-v-2611e420="" offset="1" stop-color="#f79420"></stop></linearGradient> <linearGradient data-v-2611e420="" id="linear-gradient-2" x1="0.26" y1="0.681" x2="0.729" y2="0.155" gradientUnits="objectBoundingBox"><stop data-v-2611e420="" offset="0" stop-color="#f79420"></stop> <stop data-v-2611e420="" offset="0.345" stop-color="#f47e23"></stop> <stop data-v-2611e420="" offset="1" stop-color="#f05a2a"></stop></linearGradient> <linearGradient data-v-2611e420="" id="linear-gradient-3" x1="0.131" y1="1.055" x2="1.024" y2="0.056" gradientUnits="objectBoundingBox"><stop data-v-2611e420="" offset="0" stop-color="#f05a2a"></stop> <stop data-v-2611e420="" offset="0.655" stop-color="#f47e23"></stop> <stop data-v-2611e420="" offset="1" stop-color="#f79420"></stop></linearGradient> <linearGradient data-v-2611e420="" id="linear-gradient-4" x1="-0.73" y1="0.836" x2="2.001" y2="0.224" gradientUnits="objectBoundingBox"><stop data-v-2611e420="" offset="0" stop-color="#f27128"></stop> <stop data-v-2611e420="" offset="1" stop-color="#f79420"></stop></linearGradient> <linearGradient data-v-2611e420="" id="linear-gradient-5" x1="0.191" y1="0.846" x2="0.735" y2="-0.231" xlink:href="#linear-gradient-4"></linearGradient> <linearGradient data-v-2611e420="" id="linear-gradient-6" x1="0.5" y1="1" x2="0.5" gradientUnits="objectBoundingBox"><stop data-v-2611e420="" offset="0" stop-color="#f27128"></stop> <stop data-v-2611e420="" offset="0.584" stop-color="#f79420"></stop> <stop data-v-2611e420="" offset="0.815" stop-color="#f69220"></stop> <stop data-v-2611e420="" offset="0.898" stop-color="#f58b21"></stop> <stop data-v-2611e420="" offset="0.957" stop-color="#f47f24"></stop> <stop data-v-2611e420="" offset="1" stop-color="#f27128"></stop></linearGradient> <linearGradient data-v-2611e420="" id="linear-gradient-7" x1="0.5" y1="1.001" x2="0.5" y2="0" xlink:href="#linear-gradient-6"></linearGradient></defs> <g data-v-2611e420="" id="Group_4096" data-name="Group 4096" transform="translate(-235.906 -609.045)"><path data-v-2611e420="" id="Path_2446" data-name="Path 2446" d="M1122.306,764.223v7.261h-3.093a4.846,4.846,0,0,1,.368-2.044l-.1-.055a4.2,4.2,0,0,1-3.964,2.466,3.858,3.858,0,0,1-4.114-4.046,3.818,3.818,0,0,1,4.169-3.992,4.293,4.293,0,0,1,3.869,2l.1-.055a5.662,5.662,0,0,1-.2-1.7c-.082-1.2-.967-1.853-2.548-1.853a13.851,13.851,0,0,0-3.419.5l-.6-2.575a18.6,18.6,0,0,1,4.346-.572C1120.767,759.578,1122.306,760.954,1122.306,764.223Zm-7.643,3.5a1.807,1.807,0,0,0,2.043,1.771,1.918,1.918,0,0,0,2.153-1.8,1.881,1.881,0,0,0-2.125-1.771A1.858,1.858,0,0,0,1114.664,767.724Z" transform="translate(-815.296 -143.315)" fill="#1253a4"></path> <path data-v-2611e420="" id="Path_2447" data-name="Path 2447" d="M1305.044,688.983h-3.052v-17.86h3.052Z" transform="translate(-993.111 -60.8)" fill="#1253a4"></path> <path data-v-2611e420="" id="Path_2448" data-name="Path 2448" d="M1382.752,764.223v7.261h-3.092a4.641,4.641,0,0,1,.381-2.044l-.1-.055a4.2,4.2,0,0,1-3.964,2.466,3.858,3.858,0,0,1-4.114-4.046,3.818,3.818,0,0,1,4.169-3.992,4.293,4.293,0,0,1,3.869,2l.1-.055a5.658,5.658,0,0,1-.2-1.7c-.068-1.2-.967-1.853-2.548-1.853a13.849,13.849,0,0,0-3.419.5l-.6-2.575a18.6,18.6,0,0,1,4.346-.572C1381.212,759.578,1382.752,760.954,1382.752,764.223Zm-7.642,3.5a1.807,1.807,0,0,0,2.043,1.771,1.917,1.917,0,0,0,2.152-1.8,1.881,1.881,0,0,0-2.125-1.771A1.858,1.858,0,0,0,1375.109,767.724Z" transform="translate(-1058.303 -143.315)" fill="#1253a4"></path> <path data-v-2611e420="" id="Path_2449" data-name="Path 2449" d="M919.136,768.961a6.394,6.394,0,1,1-6.389-6.144,6.049,6.049,0,0,1,6.389,6.144Zm-9.632,0a3.242,3.242,0,1,0,3.242-3.242A3.075,3.075,0,0,0,909.5,768.961Z" transform="translate(-623.986 -146.35)" fill="#1253a4"></path> <path data-v-2611e420="" id="Path_2450" data-name="Path 2450" d="M604.718,668a9.647,9.647,0,0,0,2.188-6.262,9.359,9.359,0,0,0-9.672-9.686h0l-.077,0h-.065l-.077,0h0a9.359,9.359,0,0,0-9.672,9.686,9.473,9.473,0,0,0,9.672,9.671v0h9.941V668Zm-13.769-6.277a6.177,6.177,0,1,1,12.352,0,6.176,6.176,0,1,1-12.352,0Z" transform="translate(-326.347 -43)" fill="#1253a4"></path> <g data-v-2611e420="" id="Group_3018" data-name="Group 3018" transform="translate(235.907 609.049)"><path data-v-2611e420="" id="Path_2451" data-name="Path 2451" d="M233.587,661.159c-.106-.393-.242-.785-.378-1.148a8.956,8.956,0,0,0-.514-1.088c-.121-.227-.272-.453-.408-.68a2.67,2.67,0,0,0-.242-.332,9.622,9.622,0,0,0-1.722-1.782c-.106-.091-.227-.166-.332-.257a11.065,11.065,0,0,0-.952-.6c-.076-.045-.166-.091-.242-.136a6.7,6.7,0,0,0-1.012-.453,4.981,4.981,0,0,0-.8-.272,1.413,1.413,0,0,0-.332-.106c.423-.151.529-.347.514-.483a.777.777,0,0,0-.242-.378c-.091-.091-.317-.287.091-.468.408-.166.453-.363.393-.559-.136-.453-.65-.287-1.224-.2a5.447,5.447,0,0,0-2.236,1.133,7.672,7.672,0,0,0-4.758-.181,6.187,6.187,0,0,0-1.057.393,7.315,7.315,0,0,0-3.807-.952c-.725.091-1.42.06-1.42.665,0,.257.121.483.68.544s.363.393.287.529a.934.934,0,0,0-.166.559c.03.181.211.332.8.423.136.045.272,0,.211.514-.015.227-.06.468.438.695a2.28,2.28,0,0,0,1.193-.166,4.93,4.93,0,0,0,.8,3.535s.332.378.514.544a5.3,5.3,0,0,0,1.224.831c.227.106.453.211.71.3a1.764,1.764,0,0,1-1.375-.287,11.909,11.909,0,0,1-2.13-1.586,1.508,1.508,0,0,0-.166.151,4.989,4.989,0,0,0-.634,1.269c-.076.227-.136.438-.2.68a5.135,5.135,0,0,0-.106.695c-.03.287-.045.574-.06.846a6.726,6.726,0,0,0,.332,2.553,8.325,8.325,0,0,0,.8,1.646,7.193,7.193,0,0,0,1.163,1.375,7.048,7.048,0,0,0,.982.755,6.33,6.33,0,0,0,.891.483,6.973,6.973,0,0,0,.937.347c.212.06.423.121.65.166a4.337,4.337,0,0,0,1.586.106,2.074,2.074,0,0,0,.544-.166,1.406,1.406,0,0,0,.151-.076,1.462,1.462,0,0,0,.755-1.239v-.03a2.462,2.462,0,0,1-.332.015,2.817,2.817,0,0,1-2.734-2.16,1.216,1.216,0,0,1-.619.257c-.332-.045-.347-.2-.378-.332-.06-.317-.136-.257-.211-.272-.347.045-.5-.015-.544-.121a.547.547,0,0,1,0-.347c.03-.106.076-.317-.257-.257s-.438-.045-.483-.2c-.106-.347.3-.453.71-.634a4.148,4.148,0,0,1,2.054-.151h.03a2.738,2.738,0,0,1,.517-.64,2.047,2.047,0,0,1,1.065-.863l0,0,.007,0h0l.012,0a.059.059,0,0,1,.032.112h0a2.039,2.039,0,0,0-.324.221,1.636,1.636,0,0,1,.59-.234h.019a.048.048,0,0,1,.044.051.046.046,0,0,1-.012.027,2.852,2.852,0,0,1,.461-.039c.121,0,.242.015.347.015a4.366,4.366,0,0,1,1.088-1c.423-.227.785-.514,1.012-.2.106.136.121.3-.151.559s-.045.347.06.393a.6.6,0,0,1,.3.242c.045.106.015.257-.257.544-.045.076-.151.106.076.363.091.121.227.227.03.544a.032.032,0,0,1-.03.03,2.865,2.865,0,0,1,.166.378,1.614,1.614,0,0,1,.136.5s.453-.589.6-.438.68.5-1,2.523a9.291,9.291,0,0,1-1.541,2.341l-.015-.015c-.03.03-.06.076-.091.106l-.136.136c-.06.06-.121.106-.181.166-.2.151-.393.287-.574.453a.24.24,0,0,0-.076.121.442.442,0,0,0-.03.136.114.114,0,0,0,.015.076c.03.075.2.136.3.151h.755c.257,0,.5,0,.74.015a2.677,2.677,0,0,0,.786-.06,1.957,1.957,0,0,0,.68-.3,2.093,2.093,0,0,0,.393-.347c.211-.242.423-.468.65-.7a12.448,12.448,0,0,0,1.027-1.178,15.87,15.87,0,0,0,.937-1.526,12.374,12.374,0,0,0,1-5.372.192.192,0,0,1,.174-.145.2.2,0,0,1,.21.115,4.93,4.93,0,0,1,.138.992c.015.2.015.393.03.589a12.9,12.9,0,0,1-.076,1.722,11.339,11.339,0,0,1-2.674,6.118.536.536,0,0,0,.06.136,4.5,4.5,0,0,1,.468-.045c.106-.015.212-.015.3-.03.045-.015.106-.015.151-.03a2.021,2.021,0,0,0,.272-.106c.136-.076.257-.151.393-.242a8.88,8.88,0,0,0,1.979-1.858c.091-.121.2-.242.287-.362a9.224,9.224,0,0,0,1.027-1.737c.045-.091.076-.181.106-.257.076-.181.136-.347.2-.529a7.907,7.907,0,0,0,.362-1.677c.045-.468.091-.952.091-1.42A10.131,10.131,0,0,0,233.587,661.159Zm-14.26-4.2a.648.648,0,0,1-.725.483.531.531,0,0,1-.5-.589.653.653,0,0,1,.74-.5A.533.533,0,0,1,219.327,656.96Zm2.749,2.13a1.188,1.188,0,0,1-1.48-1.133c-.181-1,.227-1.918.906-2.039s1.39.589,1.571,1.586A1.2,1.2,0,0,1,222.076,659.09Zm2.644-2.7a.459.459,0,0,1-.544.332.468.468,0,0,1-.423-.514.459.459,0,0,1,.544-.332A.476.476,0,0,1,224.72,656.386Z" transform="translate(-212.907 -652.111)" fill="url(#radial-gradient)"></path> <path data-v-2611e420="" id="Path_2452" data-name="Path 2452" d="M463.592,737.14l.087.13c.057.084.142.208.239.371.051.081.1.171.16.272s.118.208.178.326c.126.234.252.506.377.809a10.165,10.165,0,0,1,.35,1,9.206,9.206,0,0,1,.266,1.15,10.446,10.446,0,0,1,.134,1.256c.007.213.016.435.008.65l-.007.325-.023.328c-.011.22-.049.435-.073.652s-.068.43-.116.639l-.07.314c-.024.1-.055.205-.082.307-.052.2-.12.4-.183.6s-.14.382-.212.565-.152.359-.238.526-.162.333-.251.485-.168.3-.257.441-.168.273-.255.394-.164.24-.247.344-.155.205-.227.294l-.2.242c-.12.148-.229.251-.3.328l-.106.114.1-.119c.064-.079.167-.188.283-.339l.194-.247c.069-.091.139-.193.217-.3s.154-.225.234-.35.164-.256.245-.4.165-.288.247-.443.159-.318.24-.486.148-.347.226-.526.141-.369.2-.561.128-.389.177-.591c.026-.1.056-.2.079-.3l.067-.311c.047-.208.075-.421.111-.633s.058-.428.068-.643l.025-.322.009-.325c.009-.217,0-.428,0-.642a10.324,10.324,0,0,0-.125-1.243,10.59,10.59,0,0,0-.247-1.143,10.074,10.074,0,0,0-.328-1c-.06-.151-.117-.3-.178-.431s-.116-.264-.175-.383-.113-.23-.167-.331-.1-.194-.151-.276c-.093-.166-.17-.294-.224-.38Z" transform="translate(-445.818 -731.443)" fill="#f79420"></path> <path data-v-2611e420="" id="Path_2453" data-name="Path 2453" d="M266.614,703.892a3.911,3.911,0,0,1,.329,1.56c0,2.605-2.6,4.717-5.818,4.717a7.057,7.057,0,0,1-1.829-.239h0a.975.975,0,0,1-.119.013c-.023,0-.047,0-.071,0s-.047,0-.072,0-.05-.006-.075-.009l-.08-.012-.077-.017-.09-.023-.078-.023-.1-.036-.076-.029c-.04-.016-.082-.035-.124-.053l-.066-.029c-.065-.031-.132-.064-.2-.1a11.906,11.906,0,0,1-2.13-1.586h0c-.039.039-.1.079-.145.128h0a8.335,8.335,0,0,0,7.632,10.044h0c0-.009.008-.02.012-.029q.027-.063.048-.13c.006-.019.011-.038.017-.058.011-.039.021-.08.029-.121,0-.019.008-.037.011-.056.01-.06.019-.121.024-.185h0v-.03c-.035.005-.073.007-.111.009-.075,0-.151.006-.222.006a2.8,2.8,0,0,1-2.234-1.11,2.849,2.849,0,0,1-.5-1.05,1.692,1.692,0,0,1-.516.249.445.445,0,0,1-.057.009.212.212,0,0,1-.046,0,.678.678,0,0,1-.195-.052.293.293,0,0,1-.107-.08.349.349,0,0,1-.064-.149l-.011-.051c-.008-.04-.015-.073-.023-.1a.567.567,0,0,0-.025-.072.15.15,0,0,0-.066-.083.36.36,0,0,0-.1-.014c-.347.045-.5-.015-.544-.121a.547.547,0,0,1,0-.347l.006-.021a.313.313,0,0,0,.01-.147.12.12,0,0,0-.088-.089.217.217,0,0,0-.035-.008l-.042,0-.05,0-.058.008a.868.868,0,0,1-.209.016.356.356,0,0,1-.14-.035.236.236,0,0,1-.086-.075.348.348,0,0,1-.048-.1c-.06-.2.044-.314.218-.413.136-.077.314-.142.492-.221q.145-.051.288-.088a4.067,4.067,0,0,1,1.093-.127,4.314,4.314,0,0,1,.673.064h.03a2.713,2.713,0,0,1,.2-.3,2.743,2.743,0,0,1,.237-.268c.027-.027.054-.052.082-.078a2.047,2.047,0,0,1,1.064-.86h0l.007,0h0l.012,0a.059.059,0,0,1,.032.112h0a2.04,2.04,0,0,0-.324.221,1.637,1.637,0,0,1,.59-.234h.019a.047.047,0,0,1,.044.051.047.047,0,0,1-.01.026,2.866,2.866,0,0,1,.459-.038c.03,0,.06,0,.09,0,.09,0,.178.011.258.011a4.365,4.365,0,0,1,1.088-1c.053-.028.1-.058.156-.087a1.426,1.426,0,0,1,.607-.251.282.282,0,0,1,.159.049.365.365,0,0,1,.091.092.408.408,0,0,1,.035.053c.07.126.052.282-.186.506-.17.16-.145.256-.077.316a.3.3,0,0,0,.045.032c.016.009.032.018.048.025l.023.01.021.009.042.019a.554.554,0,0,1,.261.223.224.224,0,0,1,.01.143.967.967,0,0,1-.267.4c-.026.042-.07.071-.064.133a.476.476,0,0,0,.139.23c.028.038.061.074.087.116l.014.026a.265.265,0,0,1,.03.123.374.374,0,0,1-.023.122.8.8,0,0,1-.078.158.03.03,0,0,1-.02.025s-.007,0-.01,0c.03.06.06.121.089.183a1.974,1.974,0,0,1,.077.194,1.614,1.614,0,0,1,.136.5,2.784,2.784,0,0,1,.3-.323.814.814,0,0,1,.15-.111.225.225,0,0,1,.089-.029.086.086,0,0,1,.069.025.539.539,0,0,1,.185.285c0,.014.006.03.008.045a.649.649,0,0,1,.006.1.9.9,0,0,1-.012.124,1.266,1.266,0,0,1-.033.146,2.029,2.029,0,0,1-.1.265q-.044.1-.1.21t-.138.24q-.078.128-.176.271-.049.072-.1.148c-.146.2-.321.43-.53.683h0c-.032.074-.067.15-.1.227l-.038.077q-.04.08-.083.162l-.049.092c-.031.057-.064.115-.1.173l-.056.1q-.065.108-.137.22c-.026.041-.054.082-.081.123s-.061.092-.093.138l-.1.136c-.033.047-.068.094-.1.141s-.065.089-.1.134h0c.169-.013.015.137-.283.357-.071.087-.143.174-.22.263l-.015-.015c-.03.03-.06.076-.091.106l-.136.136c-.06.06-.121.106-.181.166-.2.151-.393.287-.574.453a.239.239,0,0,0-.076.121.443.443,0,0,0-.03.136.113.113,0,0,0,.015.076c.024.06.132.109.228.135,3.945-.6,5.607-6.87,5.607-9.419C268.805,708.051,268.285,705.691,266.614,703.892Z" transform="translate(-252.743 -700.422)" fill="url(#linear-gradient)"></path> <path data-v-2611e420="" id="Path_2454" data-name="Path 2454" d="M255.6,793.225l.03.448.015.236.04.275a6.365,6.365,0,0,0,.114.654l.081.371.117.389c.071.27.194.538.3.823.06.139.13.277.2.419.034.07.066.142.1.212l.119.206c.082.136.153.281.246.413l.274.4c.093.132.2.255.3.383.051.063.1.128.151.188l.163.176.161.175a1.929,1.929,0,0,0,.166.167l.339.315c.112.1.234.189.346.283a3.734,3.734,0,0,0,.341.26l.334.231c.108.074.221.132.326.2s.206.121.3.175l.283.139.249.123c.078.036.152.062.218.089l.416.168-.424-.146c-.067-.025-.143-.047-.223-.08l-.255-.112-.291-.128c-.1-.05-.2-.109-.31-.167s-.223-.116-.334-.188l-.344-.224a3.818,3.818,0,0,1-.352-.253c-.116-.091-.239-.18-.354-.283l-.346-.316a1.967,1.967,0,0,1-.169-.168l-.165-.176-.167-.177c-.055-.06-.1-.126-.155-.189-.1-.129-.209-.253-.3-.386l-.274-.409c-.093-.135-.164-.282-.246-.421l-.119-.21c-.036-.071-.068-.144-.1-.216-.066-.144-.136-.284-.2-.426a7.848,7.848,0,0,1-.286-.839l-.108-.4-.072-.377c-.02-.121-.052-.235-.059-.347l-.032-.317-.028-.278q0-.129,0-.236Z" transform="translate(-252.743 -783.769)" fill="#f79420"></path> <path data-v-2611e420="" id="Path_2455" data-name="Path 2455" d="M214.72,668.3c-.015.227-.06.468.438.695a2.177,2.177,0,0,0,1.13-.146,4.244,4.244,0,0,1,.613-1.455,3.283,3.283,0,0,0-3.983-1.776.647.647,0,0,0-.01.115c0,.257.121.483.68.544s.363.393.287.529a.934.934,0,0,0-.166.559c.03.181.211.332.8.423C214.644,667.833,214.78,667.788,214.72,668.3Z" transform="translate(-212.907 -664.57)" fill="url(#linear-gradient-2)"></path> <path data-v-2611e420="" id="Path_2456" data-name="Path 2456" d="M396.281,657.149l.023.018a8.041,8.041,0,0,1,1.548.164.365.365,0,0,0-.112-.023c.423-.151.529-.347.514-.483a.777.777,0,0,0-.242-.378c-.091-.091-.317-.287.091-.468.408-.166.453-.363.393-.559a.543.543,0,0,0-.031-.079c-.045,0-.091-.007-.137-.007A2.063,2.063,0,0,0,396.281,657.149Z" transform="translate(-383.994 -655.119)" fill="url(#linear-gradient-3)"></path> <path data-v-2611e420="" id="Path_2457" data-name="Path 2457" d="M230.871,667.293l-.083-.139a1.716,1.716,0,0,0-.1-.156c-.038-.06-.085-.125-.138-.194a2.719,2.719,0,0,0-.177-.218c-.065-.076-.141-.148-.217-.225s-.162-.149-.252-.218a3.191,3.191,0,0,0-.279-.2,3.256,3.256,0,0,0-.3-.172c-.1-.055-.2-.1-.3-.141s-.2-.078-.295-.1a2.364,2.364,0,0,0-.272-.072c-.085-.021-.164-.033-.234-.045a1.511,1.511,0,0,0-.183-.025l-.161-.018.162-.006a1.517,1.517,0,0,1,.187,0,1.712,1.712,0,0,1,.242.023,2.423,2.423,0,0,1,.283.053,2.708,2.708,0,0,1,.31.089,2.991,2.991,0,0,1,.317.136,3.349,3.349,0,0,1,.311.175,3.313,3.313,0,0,1,.287.212,3,3,0,0,1,.254.234,2.855,2.855,0,0,1,.21.245,2.788,2.788,0,0,1,.165.236,1.658,1.658,0,0,1,.121.211,1.732,1.732,0,0,1,.081.168Z" transform="translate(-226.878 -664.468)" fill="#f79420"></path> <path data-v-2611e420="" id="Path_2458" data-name="Path 2458" d="M398.328,655.234l-.128.018a.922.922,0,0,0-.145.025c-.055.012-.117.024-.183.045l-.1.03-.107.042c-.075.025-.146.068-.224.1a2.512,2.512,0,0,0-.223.138,2.054,2.054,0,0,0-.4.358,2.583,2.583,0,0,0-.163.206c-.043.073-.095.139-.129.21a1.55,1.55,0,0,0-.1.2c-.028.063-.049.123-.067.177a.98.98,0,0,0-.042.14l-.033.125.01-.129a1,1,0,0,1,.022-.147,1.056,1.056,0,0,1,.046-.188,1.618,1.618,0,0,1,.081-.216,1.772,1.772,0,0,1,.119-.23,2.008,2.008,0,0,1,.164-.224,2.274,2.274,0,0,1,.2-.207,2.306,2.306,0,0,1,.229-.172,2.038,2.038,0,0,1,.241-.136,1.831,1.831,0,0,1,.242-.09l.115-.033.109-.021a1.109,1.109,0,0,1,.193-.023.956.956,0,0,1,.148,0Z" transform="translate(-383.994 -655.018)" fill="#f79420"></path> <g data-v-2611e420="" id="Group_3016" data-name="Group 3016" transform="translate(3.356 3.848)"><path data-v-2611e420="" id="Path_2459" data-name="Path 2459" d="M263.092,709.545a4.328,4.328,0,0,0-.1.439l.077-.024C263.072,709.82,263.079,709.682,263.092,709.545Z" transform="translate(-262.994 -709.545)" fill="url(#linear-gradient-4)"></path> <path data-v-2611e420="" id="Path_2460" data-name="Path 2460" d="M269.555,723.218a5.307,5.307,0,0,1-5.521-4.858,5.649,5.649,0,0,0,.331,2.531,5.134,5.134,0,0,0,2.307,2.243c.2.091.4.181.617.259l-.011,0a6.106,6.106,0,0,0,2.1.367,5.372,5.372,0,0,0,5.357-3.805A5.532,5.532,0,0,1,269.555,723.218Z" transform="translate(-263.953 -717.769)" fill="url(#linear-gradient-5)"></path></g> <path data-v-2611e420="" id="Path_2461" data-name="Path 2461" d="M284.08,756.015l-.083.06c-.054.04-.134.1-.24.164a5.384,5.384,0,0,1-.924.472,5.823,5.823,0,0,1-1.424.364,6,6,0,0,1-.831.041c-.14,0-.282-.005-.426-.021l-.216-.019-.214-.032a6.25,6.25,0,0,1-.836-.2,6.181,6.181,0,0,1-.772-.309,3.728,3.728,0,0,1-.351-.186c-.114-.063-.22-.133-.322-.2a5.221,5.221,0,0,1-.55-.426c-.083-.068-.155-.143-.225-.211a2.73,2.73,0,0,1-.191-.2c-.119-.128-.21-.251-.287-.349s-.126-.184-.165-.239l-.057-.085.062.082c.042.052.1.133.178.228s.177.212.3.333c.06.063.125.128.2.191s.145.137.229.2a5.149,5.149,0,0,0,.554.4c.1.065.209.131.322.19s.227.122.348.178a6.078,6.078,0,0,0,.761.3,6.237,6.237,0,0,0,.822.186l.209.033.209.021c.138.017.28.021.421.025a5.89,5.89,0,0,0,.816-.032,6.138,6.138,0,0,0,1.412-.323,5.925,5.925,0,0,0,.936-.428c.108-.063.192-.112.248-.149Z" transform="translate(-271.741 -747.766)" fill="#f9a41a"></path> <g data-v-2611e420="" id="Group_3017" data-name="Group 3017" transform="translate(12.333 2.049)"><path data-v-2611e420="" id="Path_2462" data-name="Path 2462" d="M405.309,689.7c-.106-.393-.242-.785-.378-1.148-.015-.037-.03-.072-.045-.109h0v0q-.05-.121-.1-.24l-.015-.033c-.031-.071-.063-.141-.1-.211-.014-.03-.029-.06-.044-.09-.025-.052-.05-.1-.077-.155q-.06-.117-.124-.231l-.009-.016c-.06-.113-.128-.227-.2-.34s-.142-.227-.21-.34a2.689,2.689,0,0,0-.242-.332q-.187-.249-.388-.487t-.416-.461a9.143,9.143,0,0,0-.918-.835c-.106-.091-.227-.166-.332-.257q-.119-.085-.238-.165t-.238-.155c-.159-.1-.317-.194-.476-.285l-.081-.045c-.055-.03-.111-.06-.161-.091a6.68,6.68,0,0,0-1.012-.453c-.111-.046-.225-.091-.34-.133-.085-.031-.17-.061-.256-.086-.068-.02-.136-.038-.2-.053h0c-.03-.009-.062-.021-.094-.034l-.076-.031.018.01c-.025-.01-.05-.021-.076-.028a8.04,8.04,0,0,0-1.518-.162,3.259,3.259,0,0,1,1.736,1.647,7.951,7.951,0,0,1,1.7,3.539,1.151,1.151,0,0,1,1.264-.833,2.226,2.226,0,0,1,1.9,1.617,10.406,10.406,0,0,1-3.556,11.752c.146-.027.293-.028.453-.043.106-.015.211-.015.3-.03.045-.015.106-.015.151-.03a2.014,2.014,0,0,0,.272-.106c.136-.075.257-.151.393-.242a8.872,8.872,0,0,0,1.979-1.858c.091-.121.2-.242.287-.363a9.215,9.215,0,0,0,1.027-1.737c.045-.091.076-.181.106-.257.076-.181.136-.347.2-.529a7.913,7.913,0,0,0,.362-1.677c.045-.468.091-.952.091-1.42A10.129,10.129,0,0,0,405.309,689.7Z" transform="translate(-396.962 -682.697)" fill="url(#linear-gradient-6)"></path> <path data-v-2611e420="" id="Path_2463" data-name="Path 2463" d="M419.064,684.953l.037.011h.007Z" transform="translate(-417.583 -684.802)" fill="url(#linear-gradient-7)"></path></g> <path data-v-2611e420="" id="Path_2464" data-name="Path 2464" d="M396.883,743.2l.13-.105c.087-.066.205-.174.355-.312a6.583,6.583,0,0,0,.5-.537,8.175,8.175,0,0,0,.565-.764,9.809,9.809,0,0,0,.564-.971c.181-.355.353-.74.516-1.143a15.591,15.591,0,0,0,.78-2.61,13.447,13.447,0,0,0,.22-1.366c.025-.227.039-.453.046-.675s0-.447,0-.663c-.012-.435-.035-.856-.074-1.253s-.095-.771-.162-1.113-.141-.653-.223-.924-.162-.505-.233-.7-.135-.338-.183-.436l-.069-.153.075.15c.051.1.118.243.2.43s.169.42.255.691a8.755,8.755,0,0,1,.247.924,13.2,13.2,0,0,1,.275,2.377c.007.22.011.439.008.668s-.018.455-.043.685a13.419,13.419,0,0,1-.214,1.38,15.707,15.707,0,0,1-.8,2.625,11.16,11.16,0,0,1-1.122,2.114,7.162,7.162,0,0,1-.588.755,6.643,6.643,0,0,1-.518.524c-.154.135-.278.236-.367.3Z" transform="translate(-384.556 -724.297)" fill="#f79420"></path></g></g></svg>