<svg xmlns="http://www.w3.org/2000/svg" viewBox="0 0 1024 1024" width="1024" height="1024">
  <defs>
    <pattern id="grid" width="56" height="56" patternUnits="userSpaceOnUse">
      <path d="M 56 0 L 0 0 0 56" fill="none" stroke="rgba(255,255,255,0.14)" stroke-width="1.5"></path>
    </pattern>
    <clipPath id="squircle">
      <path d="M 0 512 C 0 90.85 90.85 0 512 0 C 933.15 0 1024 90.85 1024 512 C 1024 933.15 933.15 1024 512 1024 C 90.85 1024 0 933.15 0 512 Z"></path>
    </clipPath>
  </defs>
  <g clip-path="url(#squircle)">
    <rect width="1024" height="1024" fill="#0B2F5B"></rect>
    <rect width="1024" height="1024" fill="url(#grid)"></rect>
    <rect x="262" y="220" width="560" height="604" rx="10" fill="#EAF2FF"></rect>
    <rect x="242" y="200" width="560" height="604" rx="10" fill="#F6F9FF"></rect>
    <path d="M 222 180 H 762 A 10 10 0 0 1 772 190 V 740 L 652 780 L 222 780 Z" fill="#FFFFFF"></path>
    <path d="M 772 740 L 652 780 L 772 780 Z" fill="#D9E3F2"></path>
    <g transform="translate(252 220)">
      <rect x="20" y="30" width="280" height="22" rx="6" fill="#0B2F5B"></rect>
      <rect x="20" y="64" width="180" height="12" rx="4" fill="#7C8AA3"></rect>
      <g stroke="#0B2F5B" fill="none" stroke-width="6">
        <rect x="20" y="110" width="460" height="200" rx="6"></rect>
        <line x1="240" y1="110" x2="240" y2="310"></line>
        <line x1="20" y1="220" x2="480" y2="220"></line>
      </g>
      <rect x="26" y="116" width="208" height="98" rx="4" fill="#E5EEF8"></rect>
      <rect x="246" y="226" width="228" height="78" rx="4" fill="#EAF1F8"></rect>
      <g fill="#C4CDDC">
        <rect x="20" y="346" width="460" height="10" rx="4"></rect>
        <rect x="20" y="368" width="430" height="10" rx="4"></rect>
        <rect x="20" y="390" width="380" height="10" rx="4"></rect>
        <rect x="20" y="412" width="450" height="10" rx="4"></rect>
        <rect x="20" y="434" width="300" height="10" rx="4"></rect>
      </g>
      <g>
        <circle cx="28" cy="478" r="5" fill="#0B2F5B"></circle>
        <rect x="44" y="473" width="220" height="10" rx="4" fill="#C4CDDC"></rect>
        <circle cx="28" cy="502" r="5" fill="#0B2F5B"></circle>
        <rect x="44" y="497" width="280" height="10" rx="4" fill="#C4CDDC"></rect>
      </g>
    </g>
  </g>
</svg>