<svg id="Layer_1" data-name="Layer 1" xmlns="http://www.w3.org/2000/svg" viewBox="0 0 189.48 61.36">
  <defs>
    <style>
      .cls-1 {
        fill: #fff;
      }

      .cls-2 {
        fill: #b32025;
      }
    </style>
  </defs>
  <title>brand</title>
  <g>
    <g>
      <path class="cls-1" d="M51.22,13.33c0.37-.33.11-0.7-0.17-1l-0.18-.2L50,12.85l0.18,0.2C50.48,13.36,50.83,13.67,51.22,13.33Z"/>
      <path class="cls-1" d="M28.34,31.74l-1.21.12c-0.69.07-1.29,0.14-1.84,0.15l-1.61,0c0,1.18,0,9.49,0,10.64h1.08c1,0,1.68-.09,2.33-0.15s1.32-.12,2.19-0.12a2,2,0,0,1,.75.14V31.91a1.39,1.39,0,0,0-.31-0.11A5,5,0,0,0,28.34,31.74Zm-1.57,1.62c0.27,0,.59,0,1-0.08l0.59-.06,0.39,0V34H28.4L27.81,34c-0.39,0-.72.08-1,0.08l-1.81,0,0-.75Zm1.92,7.49H28.4l-0.58.06c-0.39,0-.72.08-1,0.08H26.54l-1.56,0V40.31l1.55,0h0.25c0.27,0,.59,0,1-0.08l0.59-.06,0.39,0v0.75Zm0-2.3h-0.3l-0.63.06c-0.37,0-.69.07-1,0.08H26.6l-1.62,0V38l1.61,0h0.2c0.26,0,.56,0,0.91-0.07l0.63-.06h0.39Zm0-2.3H28.4l-0.59.06c-0.38,0-.72.08-1,0.08l-1.8,0,0-.75,1.81,0c0.27,0,.59,0,1-0.08l0.61-.06h0.38Z"/>
      <path class="cls-1" d="M30.68,1.43A29.25,29.25,0,1,0,59.92,30.68,29.28,29.28,0,0,0,30.68,1.43Zm28,27L57,29.49l1.79,0.88,0,0.87-2.57-1.32L54.63,30l0-.81,1.63-.09,2.41-1.62Zm-1.12-5.94,0.76,3.06-0.63.16L57.4,24.57,54,25.4l-0.19-.8,3.38-.83-0.28-1.13Zm-0.75-2L53,22l-0.31-.76,3.82-1.56Zm-3.68-4.6a1.25,1.25,0,0,1,1.81.58,3.08,3.08,0,0,1,.37.91l-0.62.28a2.09,2.09,0,0,0-.27-0.8,0.57,0.57,0,0,0-.82-0.26C53,16.93,54.14,18.31,53,19a1.29,1.29,0,0,1-1.85-.68,3.51,3.51,0,0,1-.4-1L51.39,17a2,2,0,0,0,.25.92,0.64,0.64,0,0,0,.83.35C53.14,17.91,52,16.55,53.13,15.85Zm-1.72-4.11c0.58,0.66,1.29,1.42.43,2.19a1,1,0,0,1-1.28,0h0a0.6,0.6,0,0,1,0,.61l-0.78,1.56-0.6-.69,0.65-1.22a0.5,0.5,0,0,0-.05-0.7l-0.17-.2-1.29,1.13-0.54-.62,3.11-2.72ZM48.92,9.29l-0.4.51-1.25-1-0.63.8,1.14,0.9-0.4.51-1.14-.89-0.72.91,1.26,1-0.4.52-1.9-1.49L47,7.81ZM41.67,4.76l0.78,0.4L41.92,8.52h0L44.31,6.1,45,6.46,41.95,9.53l-0.9-.45Zm-2.91-1L39.54,4,38.3,8l-0.78-.25ZM32.91,2.66l1,0.14L35,6.06h0L35.45,3l0.78,0.1L35.67,7.2l-1-.13L33.55,3.8h0L33.13,6.86l-0.78-.1ZM27.6,2.8l0.19,2.38c0.06,0.7.32,1.14,0.94,1.09s0.8-.53.75-1.23l-0.2-2.38,0.82-.07,0.22,2.63a1.43,1.43,0,0,1-1.53,1.7A1.43,1.43,0,0,1,27,5.5L26.78,2.87ZM21,4.38l1.18,3.27,1.49-.54,0.22,0.61-2.26.82L20.2,4.66Zm-4.25,2,1.71,3,1.38-.78,0.32,0.57L18,10.37l-2-3.6Zm-2.9,1.87,0.41,0.51L13,9.73l0.65,0.79,1.13-.92,0.41,0.51L14,11l0.73,0.9,1.24-1,0.41,0.51L14.55,13,11.94,9.74ZM8.45,13.46l3.37,0.78h0l-2.38-2,0.5-.6,3.18,2.64-0.64.77-3.37-.77h0l2.38,2-0.5.6L7.8,14.24Zm-3,4.72c0.41-.77.87-1.71,1.89-1.17a0.94,0.94,0,0,1,.45,1.19h0A0.61,0.61,0,0,1,8.36,18l1.73,0.18L9.66,19l-1.37-.18a0.51,0.51,0,0,0-.64.3l-0.12.23L9,20.17l-0.39.72L5,19Zm-2.06,5A1.92,1.92,0,0,1,6,21.89a2,2,0,1,1-1.09,3.84A1.9,1.9,0,0,1,3.37,23.23Zm-1,5.17a2.68,2.68,0,0,1,.23-0.91l0.69,0.1a1.65,1.65,0,0,0-.27.87,1.37,1.37,0,0,0,1.41,1.46A1.35,1.35,0,0,0,6,28.63a2.27,2.27,0,0,0-.12-0.9H6.6a4.09,4.09,0,0,1,.07.94,2,2,0,0,1-2.2,2.1A2,2,0,0,1,2.4,28.4Zm0.87,9,4-1.15,0.64,2.2-0.63.18L6.84,37.22l-1,.28,0.38,1.34L5.62,39,5.24,37.68l-1.74.5Zm2.07,5.81a1.93,1.93,0,0,1,1-2.76,1.92,1.92,0,0,1,2.8.87,1.93,1.93,0,0,1-1,2.75A1.94,1.94,0,0,1,5.34,43.19Zm3.35,5.3a1.44,1.44,0,0,1,.18-2.3l2.07-1.64,0.51,0.65L9.58,46.69c-0.55.44-.77,0.9-0.38,1.39s0.89,0.39,1.44-.05l1.87-1.48L13,47.2,11,48.83A1.44,1.44,0,0,1,8.69,48.49Zm4.86,4.73,0.74-3.39h0l-2,2.39-0.61-.5,2.62-3.19,0.79,0.64-0.74,3.39h0l2-2.39,0.61,0.5-2.62,3.2Zm7.17,1.88c-0.74,1.46-1.92,1.34-3,.77l-1-.5,1.85-3.69,1,0.5C20.65,52.75,21.46,53.63,20.72,55.1Zm4.76,0-1.55-.41-0.26,1L25.08,56l-0.17.63-1.42-.38-0.3,1.12,1.56,0.42-0.17.63-2.36-.63,1.06-4,2.35,0.63Zm2.88,3.89-1.12-.06,0.23-4.13,1.12,0.06c1.26,0.07,2.35.56,2.26,2.2S29.61,59,28.35,58.94Zm9.15-.79L37,57.3l-1.63.35-0.15,1-0.84.18L35,54.45l0.91-.19L38.4,58Zm2.1-.66-0.28-.78,0.78-.28,0.28,0.78Zm3.72-1.6-1,.54-2-3.63,1-.54c1.11-.61,2.29-0.76,3.08.68S44.44,55.29,43.33,55.89Zm2.78-1.65-0.47-.68,0.68-.47,0.47,0.68Zm-15.42-.53a23,23,0,1,1,23-23A23.07,23.07,0,0,1,30.68,53.72Zm19.49-2.8-2.24-2.27-0.1.89-0.67-.09,0.18-1.54,0.52-.51,2.9,2.94Zm3.07-3.43a1.23,1.23,0,0,1-1.82.46A1.12,1.12,0,0,1,51,46.74h0a1.06,1.06,0,0,1-1.18,0,1.12,1.12,0,0,1-.1-1.7,1.16,1.16,0,0,1,1.62-.52,1.08,1.08,0,0,1,.39,1.14h0a1.16,1.16,0,0,1,1.34,0A1.2,1.2,0,0,1,53.24,47.5Zm2.63-4.29c-0.51,1-1.48.83-2.35,0.39S51.58,42.22,52.18,41a2.59,2.59,0,0,1,.52-0.71l0.55,0.4a1.74,1.74,0,0,0-.47.57,1.12,1.12,0,0,0,.71,1.45h0a0.89,0.89,0,0,1,0-.9,1.14,1.14,0,0,1,1.67-.52A1.3,1.3,0,0,1,55.87,43.2Zm1.77-4.42a4.45,4.45,0,0,1-.39.89l-0.7-.23A2.1,2.1,0,0,0,57,38.69a0.77,0.77,0,0,0-.45-1.05,0.79,0.79,0,0,0-1,.7,2.38,2.38,0,0,0-.1.74l-2.12-.67L54,36.14l0.59,0.17-0.45,1.52L55,38.1a1.88,1.88,0,0,1,.07-0.37,1.23,1.23,0,0,1,1.67-.89A1.41,1.41,0,0,1,57.64,38.78Z"/>
      <path class="cls-1" d="M17.46,34.83C17.46,43.27,27,48.76,30,50.3V44.4a1.83,1.83,0,0,1-.29-0.3,0.48,0.48,0,0,0-.46-0.26,19.82,19.82,0,0,0-2.05.11c-0.65.06-1.38,0.13-2.43,0.15s-1.84,0-1.87,0l-0.68,0v-2.3H20.83V40h1.41V38.21H20.83V36.49h1.41V34.24H20.83V32.53h1.41V30.61h3c0.49,0,1.06-.07,1.72-0.14l1.22-.12a6.31,6.31,0,0,1,1.83.08V28.6H17.46C17.46,32,17.46,34.83,17.46,34.83Z"/>
      <path class="cls-1" d="M5.1,24.91a1.19,1.19,0,1,0,.63-2.2,1.27,1.27,0,0,0-1.73.7A1.27,1.27,0,0,0,5.1,24.91Z"/>
      <path class="cls-1" d="M6.76,41.21a1.27,1.27,0,0,0-.83,1.7,1.27,1.27,0,0,0,1.85.38,1.27,1.27,0,0,0,.81-1.69A1.28,1.28,0,0,0,6.76,41.21Z"/>
      <path class="cls-1" d="M19.37,52.83L19,52.63l-1.27,2.53,0.41,0.21A1.42,1.42,0,0,0,19.37,52.83Z"/>
      <path class="cls-1" d="M7,17.79c-0.44-.23-0.69.15-0.88,0.51L6,18.54l1,0.52,0.13-.24C7.27,18.47,7.43,18,7,17.79Z"/>
      <path class="cls-1" d="M41.81,52.76L41.4,53l1.35,2.49,0.4-.22A1.42,1.42,0,0,0,41.81,52.76Z"/>
      <polygon class="cls-1" points="35.65 55.17 35.42 56.96 36.6 56.71 35.66 55.17 35.65 55.17"/>
      <path class="cls-1" d="M28.71,55.47l-0.46,0-0.16,2.82,0.46,0A1.42,1.42,0,0,0,28.71,55.47Z"/>
      <path class="cls-1" d="M50.3,45.31a0.54,0.54,0,0,0,0,.78,0.79,0.79,0,0,0,.89-0.15A0.71,0.71,0,0,0,51,45.22,0.48,0.48,0,0,0,50.3,45.31Z"/>
      <path class="cls-1" d="M54.9,42.11a0.65,0.65,0,0,0-.94.16,0.64,0.64,0,0,0,.45.85,0.62,0.62,0,0,0,.91-0.19A0.63,0.63,0,0,0,54.9,42.11Z"/>
      <path class="cls-1" d="M43.88,16.58H17.46c0,0.71,0,5.92,0,10.59H43.88C43.88,22.47,43.88,17.29,43.88,16.58ZM28.54,23a2.35,2.35,0,0,1-1.26,1.85c-1,.68-2.63,1.56-2.7,1.6l-0.36.19-0.35-.2c-0.06,0-1.56-.92-2.57-1.59A2.51,2.51,0,0,1,20,23c0-.13,0-2.81,0-5V17.29h8.57V18C28.55,22.88,28.54,23,28.54,23Zm13.25,0a2.36,2.36,0,0,1-1.26,1.85c-1,.68-2.63,1.56-2.7,1.6l-0.35.19-0.35-.2c-0.06,0-1.56-.91-2.56-1.59A2.51,2.51,0,0,1,33.22,23s0-.17,0-5V17.26h8.57V18C41.79,21.2,41.79,22.9,41.78,23Z"/>
      <path class="cls-1" d="M51.66,46.46a0.75,0.75,0,0,0,.24.83,0.6,0.6,0,0,0,.84-0.15,0.54,0.54,0,0,0-.09-0.8A0.82,0.82,0,0,0,51.66,46.46Z"/>
      <path class="cls-1" d="M34.64,18.69c0,0.53,0,1.1,0,1.64V21L37,19.27l0.4-.29,2.92,1.95c0-.71,0-1.5,0-2.24H34.64Z"/>
      <path class="cls-1" d="M30.68,9.06A21.62,21.62,0,1,0,52.3,30.68,21.64,21.64,0,0,0,30.68,9.06Zm7.41,38.6A35.12,35.12,0,0,1,31,52.07l-0.29.13-0.28-.12a33.73,33.73,0,0,1-7.14-4.42C18.53,43.82,16,39.39,16,34.83V15.15H45.31v20C45.31,39.55,42.82,43.87,38.09,47.66Z"/>
      <path class="cls-1" d="M31.22,28.6v1.82l0.11,0a6.28,6.28,0,0,1,1.8-.08l1.24,0.13c0.66,0.07,1.23.13,1.72,0.14h3v2.26h1.26v1.71H39.1v2.25h1.34v1.71H39.1v1.83h1.26v1.71H39.1v2l-0.68,0s-0.84,0-1.87,0S34.77,44,34.12,44a19.8,19.8,0,0,0-2.05-.11,0.58,0.58,0,0,0-.53.29,2,2,0,0,1-.32.31v5.93c2.91-1.47,12.66-7,12.66-15.19,0,0,0-3,0-6.58H31.22Z"/>
      <path class="cls-1" d="M37.47,20.73l-2.82,2h0c0,0.07,0,.13,0,0.15h0a1.43,1.43,0,0,0,.7.75C36,24.12,37,24.69,37.49,25c0.53-.3,1.55-0.87,2.23-1.33a1.38,1.38,0,0,0,.63-0.7V22.91h0s0-.13,0-0.26Z"/>
      <path class="cls-1" d="M34.22,31.87L33,31.74a4.88,4.88,0,0,0-1.34.05,1.2,1.2,0,0,0-.42.17V42.58a2,2,0,0,1,.85-0.18c0.87,0,1.51.06,2.19,0.12s1.33,0.12,2.33.15h1.08c0-1.15,0-9.46,0-10.64l-1.61,0C35.51,32,34.91,31.94,34.22,31.87Zm2.1,9.22-1.8,0c-0.29,0-.61,0-1-0.08l-0.64-.06H32.59l0-.75,0.41,0,0.65,0.07c0.35,0,.65.07,0.91,0.08l1.8,0Zm-3.76-3.26,0.41,0,0.65,0.06c0.35,0,.65.07,0.91,0.07l0.85,0,0.95,0v0.75l-1,0-0.85,0c-0.29,0-.6,0-1-0.08l-0.64-.06H32.6Zm3.76-1.35-1.8,0c-0.29,0-.62,0-1-0.08l-0.62-.06H32.6l0-.76,0.41,0,0.63,0.06c0.36,0,.67.07,0.93,0.08l1.8,0Zm0-2.3-1.81,0c-0.29,0-.62,0-1-0.08L32.91,34H32.59l0-.75H33l0.62,0.06c0.36,0,.67.07,0.93,0.08l1.8,0.05v0.75Z"/>
      <path class="cls-1" d="M27.11,18.72H21.4V20h5.71C27.11,19.55,27.11,19.13,27.11,18.72Z"/>
      <path class="cls-1" d="M21.4,21.4c0,0.83,0,1.46,0,1.54a1.39,1.39,0,0,0,.7.75c0.69,0.46,1.64,1,2.14,1.33,0.53-.29,1.55-0.87,2.23-1.33a1.38,1.38,0,0,0,.63-0.7V22.94h0c0-.08,0-0.59,0-1.3,0-.08,0-0.16,0-0.24H21.4Z"/>
    </g>
    <g>
      <path class="cls-2" d="M72.05,25.85a4.06,4.06,0,0,1,3-1.07h0.11c1.88,0,2.85.47,2.95,1.43v0.87h0.45a11.44,11.44,0,0,1,.16-1.46,4.86,4.86,0,0,1,.24-0.8l-1-.26a12,12,0,0,0-1.4-.3,9.9,9.9,0,0,0-1.43-.07,6.22,6.22,0,0,0-4.31,1.55,5.15,5.15,0,0,0-1.65,3.92A5.21,5.21,0,0,0,73,34.85a7.52,7.52,0,0,0,2.13.29,7.88,7.88,0,0,0,1.81-.2,7.75,7.75,0,0,0,1.7-.64l0.29-.69-0.13-.16a4.45,4.45,0,0,1-1.18.61,6.09,6.09,0,0,1-2.06.28,4.67,4.67,0,0,1-4.81-5,5.62,5.62,0,0,1,.36-2.13A4.25,4.25,0,0,1,72.05,25.85Z"/>
      <path class="cls-2" d="M86.23,28.73a3.41,3.41,0,0,0-2.53-1,3.6,3.6,0,0,0-3.75,3.77,4.43,4.43,0,0,0,.34,1.73,3.11,3.11,0,0,0,1.53,1.62,3.28,3.28,0,0,0,1.45.29,4.1,4.1,0,0,0,2-.51,3.61,3.61,0,0,0,1.42-1.41,4,4,0,0,0,.5-2A3.44,3.44,0,0,0,86.23,28.73Zm-1,5.25a1.8,1.8,0,0,1-1.43.69,2,2,0,0,1-1.24-.44,2.73,2.73,0,0,1-.88-1.39,6.14,6.14,0,0,1-.3-1.87,3.16,3.16,0,0,1,.57-2.07,1.84,1.84,0,0,1,1.47-.66,2.12,2.12,0,0,1,2.05,1.57,5.52,5.52,0,0,1,.34,2.05A3.24,3.24,0,0,1,85.21,34Z"/>
      <path class="cls-2" d="M90.51,28.22a3.61,3.61,0,0,0-.41.49c-0.19.25-.39,0.51-0.61,0.76,0-.86,0-1.41,0-1.49a0.16,0.16,0,0,0,0-.11,0.1,0.1,0,0,0-.08,0,0.61,0.61,0,0,0-.2.07l-0.09,0a8.36,8.36,0,0,1-2.11.5v0.43h0a5.61,5.61,0,0,1,1,0,0.29,0.29,0,0,1,.17.12,1.58,1.58,0,0,1,.06.52c0,0.45,0,.88,0,1.27,0,0,0,.94,0,2.93a0.89,0.89,0,0,1-.19.67,0.45,0.45,0,0,1-.19.07l-0.9,0v0.43c1.11,0,1.75,0,1.84,0,1.14,0,2,0,2.23,0V34.51a7.83,7.83,0,0,1-1.2-.13,0.3,0.3,0,0,1-.24-0.27,3.6,3.6,0,0,1,0-.58q0-1.3,0-1.78V31a2.14,2.14,0,0,1,.4-1.41,1.21,1.21,0,0,1,1-.47,1,1,0,0,1,1,.68h0.33q0-.75.13-1.74l0-.1A1.63,1.63,0,0,0,90.51,28.22Z"/>
      <path class="cls-2" d="M100.24,34.08a12.18,12.18,0,0,1,0-1.31V31.45q0-1.53-.05-1.86A1.85,1.85,0,0,0,99,28a2.89,2.89,0,0,0-2.28,0L95.31,29.2c0-.67,0-1.14,0-1.21a0.17,0.17,0,0,0,0-.11,0.1,0.1,0,0,0-.08,0,0.61,0.61,0,0,0-.2.07h0a8.09,8.09,0,0,1-2.18.52v0.43h0.06a5.19,5.19,0,0,1,.9,0A0.3,0.3,0,0,1,94,29a1.69,1.69,0,0,1,.07.52c0,0.45,0,.88,0,1.27,0,0,0,2.22,0,3a1.32,1.32,0,0,1-.1.52,0.41,0.41,0,0,1-.37.18H92.85v0.42h0l2,0c0.85,0,1.44,0,1.65,0V34.51l-0.82,0a0.34,0.34,0,0,1-.27-0.19,1.58,1.58,0,0,1-.09-0.54c0-.8,0-3,0-3a2.49,2.49,0,0,1,.2-1.16A1.72,1.72,0,0,1,96.17,29a2,2,0,0,1,1-.27,1.59,1.59,0,0,1,1.65,1.11,8.13,8.13,0,0,1,.09,1.53v1.25q0,0.48-.09,2.3v0l1.35,0c0.53,0,1,0,1.18,0V34.51l-0.77,0A0.38,0.38,0,0,1,100.24,34.08Z"/>
      <path class="cls-2" d="M106.72,28.13a3,3,0,0,0-1.5-.38,3.66,3.66,0,0,0-2.16.73,3.92,3.92,0,0,0-.67.55,3,3,0,0,0-.53,1,4.8,4.8,0,0,0-.23,1.54,3.32,3.32,0,0,0,1.67,3.12,3.8,3.8,0,0,0,1.77.41,4.27,4.27,0,0,0,1.74-.38,6.7,6.7,0,0,0,.75-0.43l0.24-.53-0.12-.13a5.55,5.55,0,0,1-1.11.55A2.64,2.64,0,0,1,103,31.33h2.37q0.8,0,1.6-.06a8,8,0,0,0,1-.13,3.51,3.51,0,0,0,0-.51A2.69,2.69,0,0,0,106.72,28.13Zm-0.08,2.67c-0.21,0-.64,0-1.3,0h-0.09c-0.76,0-1.81-.05-2.21-0.08a3,3,0,0,1,.52-1.91,1.69,1.69,0,0,1,1.35-.6c1.05,0,1.74.71,1.74,2.28C106.65,30.58,106.64,30.68,106.64,30.79Z"/>
      <path class="cls-2" d="M111.05,34.41a0.82,0.82,0,0,1-.18-0.66c0-.1,0-0.8,0-2.08l0-5s0.07-2.57.07-2.65a0.14,0.14,0,0,0,0-.09,0.11,0.11,0,0,0-.08,0,0.41,0.41,0,0,0-.15,0l0,0a8.58,8.58,0,0,1-2.29.52V24.9a5,5,0,0,1,1,.05,0.21,0.21,0,0,1,.12.1,4.81,4.81,0,0,1,.08,1q0,1.32,0,2.55v3.07q0,2,0,2.12a1.3,1.3,0,0,1-.1.53,0.42,0.42,0,0,1-.38.18h-0.71v0.42h0c1.29,0,1.81,0,1.92,0,0.94,0,1.59,0,1.78,0V34.51l-0.83,0A0.48,0.48,0,0,1,111.05,34.41Z"/>
      <path class="cls-2" d="M115.55,34.41a0.82,0.82,0,0,1-.18-0.66q0-.15,0-2.08l0-5s0.07-2.57.07-2.65a0.14,0.14,0,0,0,0-.09,0.1,0.1,0,0,0-.08,0,3.44,3.44,0,0,0-.4.15,10.11,10.11,0,0,1-2.08.43V24.9a5,5,0,0,1,1,.05,0.21,0.21,0,0,1,.12.1,4.92,4.92,0,0,1,.08,1q0,1.32,0,2.55v3.07q0,2,0,2.12a1.29,1.29,0,0,1-.1.53,0.42,0.42,0,0,1-.38.18h-0.71v0.43c1.19,0,1.73,0,1.92,0,0.8,0,1.43,0,1.78,0V34.51l-0.83,0A0.47,0.47,0,0,1,115.55,34.41Z"/>
      <path class="cls-2" d="M131.16,24.41c-1.16,0-1.92,0-2.12,0l-1.48,0v0.47a4.91,4.91,0,0,1,1,.08,0.48,0.48,0,0,1,.27.19,2.35,2.35,0,0,1,.1.83c0,0.64,0,1.3,0,2v2.28a7.21,7.21,0,0,1-.3,2.59A2.07,2.07,0,0,1,127.26,34a4.89,4.89,0,0,1-1.47.2,3.89,3.89,0,0,1-2.2-.55,1.94,1.94,0,0,1-.65-0.84,6.83,6.83,0,0,1-.2-2.1V28q0-2,0-2.1a1.77,1.77,0,0,1,.12-0.72,0.43,0.43,0,0,1,.25-0.17,4.93,4.93,0,0,1,1-.08V24.41c-1.08,0-2.2,0-2.45,0-0.58,0-1.21,0-1.87,0v0.47a4.85,4.85,0,0,1,1,.08,0.49,0.49,0,0,1,.27.19,2.37,2.37,0,0,1,.1.83c0,0.64,0,1.3,0,2v3.27a7,7,0,0,0,.21,2,2.49,2.49,0,0,0,.6.9,4.66,4.66,0,0,0,3.25,1,5,5,0,0,0,3.1-.87,2.88,2.88,0,0,0,.94-1.28,8.71,8.71,0,0,0,.26-2.55V28q0-2,.07-2.1a1.91,1.91,0,0,1,.11-0.72,0.46,0.46,0,0,1,.26-0.17,4.91,4.91,0,0,1,1-.08V24.41Z"/>
      <path class="cls-2" d="M138.11,34.08a12.49,12.49,0,0,1,0-1.31V31.45a18.25,18.25,0,0,0-.05-1.86A1.85,1.85,0,0,0,136.84,28a2.9,2.9,0,0,0-2.28,0l-1.38,1.18c0-.66,0-1.14,0-1.21a0.17,0.17,0,0,0,0-.11,0.1,0.1,0,0,0-.08,0,0.56,0.56,0,0,0-.19.07h0a8,8,0,0,1-2.19.53v0.43h0.07a5.09,5.09,0,0,1,.89,0,0.3,0.3,0,0,1,.16.12,1.68,1.68,0,0,1,.07.52c0,0.45,0,.88,0,1.27,0,0,0,2.22,0,3a1.32,1.32,0,0,1-.1.52,0.41,0.41,0,0,1-.37.18h-0.71v0.42h0l2,0c0.87,0,1.46,0,1.65,0V34.51l-0.82,0a0.34,0.34,0,0,1-.27-0.19,1.59,1.59,0,0,1-.09-0.54c0-.8,0-3,0-3a2.5,2.5,0,0,1,.2-1.16A1.72,1.72,0,0,1,134,29a2,2,0,0,1,1-.27,1.59,1.59,0,0,1,1.65,1.11,8.21,8.21,0,0,1,.09,1.53v1.25q0,0.48-.09,2.31h0l1.35,0c0.55,0,1,0,1.18,0V34.51l-0.77,0A0.38,0.38,0,0,1,138.11,34.08Z"/>
      <path class="cls-2" d="M141.8,26.16a0.83,0.83,0,0,0,.82-0.83,0.81,0.81,0,0,0-.24-0.59,0.79,0.79,0,0,0-.59-0.24,0.83,0.83,0,0,0-.83.83,0.79,0.79,0,0,0,.24.58A0.8,0.8,0,0,0,141.8,26.16Z"/>
      <path class="cls-2" d="M142.74,34.41a0.83,0.83,0,0,1-.18-0.66q0-.15,0-2.08V30.33q0-.84,0-2.42l-0.16-.12a7.66,7.66,0,0,1-2.41.63v0.43a4.52,4.52,0,0,1,1,.05,0.31,0.31,0,0,1,.16.17,6.14,6.14,0,0,1,.07,1.31v1.3c0,1.35,0,2.06,0,2.12a1.35,1.35,0,0,1-.1.52,0.41,0.41,0,0,1-.37.18H140v0.41h0c1.3,0,1.79,0,2,0,0.82,0,1.51,0,1.81,0V34.51l-0.83,0A0.49,0.49,0,0,1,142.74,34.41Z"/>
      <path class="cls-2" d="M151.72,28c-1,0-1.49,0-1.72,0l-1.12,0v0.42a2.84,2.84,0,0,1,.95.12,0.33,0.33,0,0,1,.07.4,11.68,11.68,0,0,1-.47,1.35c-0.37.92-.59,1.46-0.68,1.66L148,33.62h0l-0.71-1.66-0.9-2.24a3.48,3.48,0,0,1-.3-1,0.25,0.25,0,0,1,.14-0.22,3,3,0,0,1,.94-0.1V28c-1,0-1.79,0-2,0l-1.52,0v0.42a3.37,3.37,0,0,1,.55,0,0.78,0.78,0,0,1,.48.58L146.84,34c0.08,0.17.21,0.51,0.4,1H148q1.1-2.6,1.29-3L150,30.48c0.46-.95.73-1.48,0.8-1.6a0.9,0.9,0,0,1,.3-0.35,1.6,1.6,0,0,1,.61-0.11V28Z"/>
      <path class="cls-2" d="M156.59,28.13a3,3,0,0,0-1.5-.38,3.68,3.68,0,0,0-2.16.73,3.92,3.92,0,0,0-.67.55,2.9,2.9,0,0,0-.53,1,4.75,4.75,0,0,0-.23,1.54,3.32,3.32,0,0,0,1.67,3.12,3.79,3.79,0,0,0,1.77.41,4.27,4.27,0,0,0,1.74-.38,6.77,6.77,0,0,0,.75-0.43l0.24-.53-0.12-.13a5.9,5.9,0,0,1-1.11.55,2.64,2.64,0,0,1-3.52-2.87h2.38c0.53,0,1.07,0,1.6-.06a8,8,0,0,0,1-.13,3.5,3.5,0,0,0,0-.51A2.69,2.69,0,0,0,156.59,28.13Zm-0.08,2.67q-0.31,0-1.3,0l-1.52,0-0.78,0a3,3,0,0,1,.52-1.91,1.69,1.69,0,0,1,1.35-.6c1.06,0,1.74.71,1.74,2.28C156.52,30.58,156.51,30.68,156.51,30.79Z"/>
      <path class="cls-2" d="M162.32,28.22a3.74,3.74,0,0,0-.41.49c-0.28.36-.49,0.62-0.61,0.76,0-1,0-1.41,0-1.49a0.16,0.16,0,0,0,0-.11,0.1,0.1,0,0,0-.08,0c-0.1,0-.28.11-0.48,0.19a9.58,9.58,0,0,1-1.92.42v0.43a5.67,5.67,0,0,1,1,0A0.29,0.29,0,0,1,160,29a1.61,1.61,0,0,1,.06.52c0,0.45,0,.88,0,1.27,0,0,0,.94,0,2.93a0.88,0.88,0,0,1-.19.67,0.44,0.44,0,0,1-.19.07l-0.9,0v0.43c1.07,0,1.7,0,1.84,0,1,0,1.83,0,2.23,0V34.51a7.8,7.8,0,0,1-1.2-.13,0.3,0.3,0,0,1-.24-0.27,3.51,3.51,0,0,1,0-.58q0-1.3,0-1.78V31a2.14,2.14,0,0,1,.4-1.41,1.22,1.22,0,0,1,1-.47,1,1,0,0,1,1,.68h0.33q0-.75.14-1.74l0-.1A1.63,1.63,0,0,0,162.32,28.22Z"/>
      <path class="cls-2" d="M169.21,31.25a8,8,0,0,0-1.28-.41l-1.22-.3a1.23,1.23,0,0,1-.84-0.57,1,1,0,0,1-.11-0.5,1.22,1.22,0,0,1,.39-0.9,1.43,1.43,0,0,1,1-.38,1.77,1.77,0,0,1,1.56.67,1.21,1.21,0,0,1,.13.3,4.34,4.34,0,0,1,.08.71h0.43q0-.85.07-1.68a4.24,4.24,0,0,0-1-.32,5.11,5.11,0,0,0-1.28-.12,3.29,3.29,0,0,0-1.22.3,2,2,0,0,0-1.27,1.87,1.75,1.75,0,0,0,.53,1.3,2,2,0,0,0,.66.38q0.27,0.1,1.21.31a7.61,7.61,0,0,1,1.22.35,1,1,0,0,1,.59.92,1.34,1.34,0,0,1-.48,1.09,1.88,1.88,0,0,1-1.24.4c-0.21,0-.46,0-0.68,0a1.54,1.54,0,0,1-.85-0.38,1.47,1.47,0,0,1-.4-0.9,5.64,5.64,0,0,1,0-.68h-0.43q0,1,0,1.26c0,0.41-.09.67-0.1,0.75a0.09,0.09,0,0,0,0,.07,2.59,2.59,0,0,0,.62.16,9.48,9.48,0,0,0,1.68.2,3.15,3.15,0,0,0,2.19-.74,2.28,2.28,0,0,0,.82-1.74A1.46,1.46,0,0,0,169.21,31.25Z"/>
      <path class="cls-2" d="M173.6,34.41a0.83,0.83,0,0,1-.18-0.66q0-.15,0-2.08V30.33q0-.84,0-2.42l-0.16-.12a7.54,7.54,0,0,1-2.41.63v0.43a4.52,4.52,0,0,1,1,.05,0.31,0.31,0,0,1,.16.17,6.07,6.07,0,0,1,.07,1.31v1.3c0,1.35,0,2.06,0,2.12a1.37,1.37,0,0,1-.1.52,0.41,0.41,0,0,1-.37.18h-0.71v0.42h0l2,0c0.86,0,1.56,0,1.81,0V34.51l-0.83,0A0.48,0.48,0,0,1,173.6,34.41Z"/>
      <path class="cls-2" d="M173.25,25.92a0.79,0.79,0,0,0,.24-0.58,0.81,0.81,0,0,0-.24-0.59,0.83,0.83,0,0,0-1.17,0,0.83,0.83,0,0,0,0,1.17A0.82,0.82,0,0,0,173.25,25.92Z"/>
      <path class="cls-2" d="M177.33,29h1.95l0.15-.65-0.05,0c-1,0-1.38.05-1.62,0h-0.43q0.1-2.1.18-2.72l-0.17-.15a6,6,0,0,1-1.24.57v2.25a12.34,12.34,0,0,1-1.14.47v0.31c0.75,0,1.14,0,1.14,0s0,3.2,0,3.36c0,0.4,0,.77,0,1.11a2,2,0,0,0,.17.78A1.4,1.4,0,0,0,177,35a1.79,1.79,0,0,0,.62.09,2.82,2.82,0,0,0,1.08-.17q0.32-.3.67-0.57L179.26,34a2.82,2.82,0,0,1-.4.11l-0.08,0a3.56,3.56,0,0,1-.5,0H178.2a0.9,0.9,0,0,1-.76-0.4,1,1,0,0,1-.14-0.38,11.42,11.42,0,0,1,0-1.34Z"/>
      <path class="cls-2" d="M187.35,28.59a1.08,1.08,0,0,1,.59-0.17L188,28a26.39,26.39,0,0,1-2.85,0v0.42a3,3,0,0,1,.89.16,0.36,0.36,0,0,1,.09.43q-0.1.34-.68,1.79t-0.81,2l-0.39.87c-0.36-.83-1.18-2.83-1.18-2.83-0.17-.43-0.35-0.95-0.55-1.55a2,2,0,0,1-.13-0.48,0.26,0.26,0,0,1,.19-0.26,5.47,5.47,0,0,1,.87-0.1V28c-0.84,0-1.75,0-1.89,0-0.53,0-1.06,0-1.6,0v0.42a2,2,0,0,1,.68.15,0.85,0.85,0,0,1,.29.36q0.33,0.68.86,2L183,33.83q0.33,0.83.57,1.49c-0.21.55-.44,1.09-0.7,1.61a3.51,3.51,0,0,1-.45.73,1.13,1.13,0,0,1-.86.41l-0.25,0-0.09,0a1.36,1.36,0,0,1-.45-0.3h-0.18l-0.38,1.14a1.65,1.65,0,0,0,.88.25,2,2,0,0,0,1.66-.83,7.81,7.81,0,0,0,.75-1.36l1.7-4q1.13-2.49,1.55-3.34A3.31,3.31,0,0,1,187.35,28.59Z"/>
      <path class="cls-2" d="M30.68,0A30.68,30.68,0,1,0,61.36,30.68,30.71,30.71,0,0,0,30.68,0Zm0,59.92A29.25,29.25,0,1,1,59.92,30.68,29.28,29.28,0,0,1,30.68,59.92Z"/>
      <path class="cls-2" d="M30.68,7.64a23,23,0,1,0,23,23A23.07,23.07,0,0,0,30.68,7.64Zm0,44.66A21.62,21.62,0,1,1,52.3,30.68,21.64,21.64,0,0,1,30.68,52.3Z"/>
      <path class="cls-2" d="M26.79,34.12c0.3,0,.63,0,1-0.08L28.4,34H28.7V33.21l-0.39,0-0.59.06c-0.37,0-.69.07-1,0.08l-1.81,0,0,0.75Z"/>
      <path class="cls-2" d="M27.73,40.18c-0.37,0-.69.07-1,0.08H26.52l-1.55,0v0.75l1.56,0h0.25c0.3,0,.63,0,1-0.08l0.58-.06h0.3V40.11l-0.39,0Z"/>
      <path class="cls-2" d="M27.69,37.89c-0.35,0-.66.07-0.91,0.07h-0.2L25,38v0.75l1.62,0h0.19c0.29,0,.61,0,1-0.08l0.63-.06h0.3l0-.75H28.32Z"/>
      <path class="cls-2" d="M27.72,35.59c-0.37,0-.69.07-1,0.08l-1.81,0,0,0.75,1.8,0c0.3,0,.63,0,1-0.08l0.59-.06h0.3l0-.75H28.33Z"/>
      <path class="cls-2" d="M32.91,38.59l0.64,0.06c0.37,0,.68.07,1,0.08l0.85,0,1,0V38l-0.95,0-0.85,0c-0.26,0-.56,0-0.91-0.07L33,37.84l-0.41,0,0,0.75h0.31Z"/>
      <path class="cls-2" d="M33.6,33.31L33,33.24H32.57l0,0.75h0.32l0.62,0.06c0.38,0,.7.08,1,0.08l1.81,0V33.43l-1.8-.05C34.27,33.38,34,33.35,33.6,33.31Z"/>
      <path class="cls-2" d="M33.62,40.21L33,40.14l-0.41,0,0,0.75h0.31L33.54,41c0.37,0,.68.07,1,0.08l1.8,0,0-.75-1.8,0C34.28,40.28,34,40.25,33.62,40.21Z"/>
      <path class="cls-2" d="M44.59,15.15H16V34.83c0,4.56,2.5,9,7.24,12.83a33.73,33.73,0,0,0,7.14,4.42l0.28,0.12L31,52.07a35.12,35.12,0,0,0,7.12-4.41c4.73-3.79,7.22-8.11,7.22-12.49v-20H44.59ZM30,42.55a2,2,0,0,0-.75-0.14c-0.87,0-1.51.06-2.19,0.12s-1.33.12-2.33,0.15H23.67c0-1.15,0-9.46,0-10.64l1.61,0c0.55,0,1.15-.08,1.84-0.15l1.21-.12a5,5,0,0,1,1.38,0,1.39,1.39,0,0,1,.31.11V42.55Zm0-12.15a6.31,6.31,0,0,0-1.83-.08L27,30.44c-0.66.07-1.24,0.13-1.72,0.14h-3v1.92H20.83v1.71h1.41v2.25H20.83v1.71h1.41V40H20.83v1.71h1.41V44l0.68,0s0.84,0,1.87,0S26.57,44,27.22,44a19.82,19.82,0,0,1,2.05-.11,0.48,0.48,0,0,1,.46.26,1.83,1.83,0,0,0,.29.3v5.9c-3.06-1.55-12.57-7-12.57-15.48,0,0,0-2.81,0-6.23H30v1.79ZM17.46,27.18c0-4.67,0-9.88,0-10.59H43.88c0,0.7,0,5.88,0,10.6H17.46ZM37.66,42.67H36.58c-1,0-1.67-.09-2.33-0.15s-1.32-.12-2.19-0.12a2,2,0,0,0-.85.18V32a1.2,1.2,0,0,1,.42-0.17A4.88,4.88,0,0,1,33,31.74l1.24,0.13c0.69,0.07,1.29.14,1.83,0.15l1.61,0C37.66,33.21,37.66,41.52,37.66,42.67Zm-6.45,7.69V44.44a2,2,0,0,0,.32-0.31,0.58,0.58,0,0,1,.53-0.29,19.8,19.8,0,0,1,2.05.11c0.65,0.06,1.38.13,2.43,0.15s1.84,0,1.87,0l0.68,0v-2h1.26V40.37H39.1V38.54h1.34V36.83H39.1V34.58h1.26V32.87H39.1V30.61h-3c-0.48,0-1.05-.07-1.72-0.14l-1.24-.13a6.28,6.28,0,0,0-1.8.08l-0.11,0V28.6H43.88c0,3.59,0,6.58,0,6.58C43.88,43.35,34.13,48.89,31.22,50.36Z"/>
      <path class="cls-2" d="M28.54,17.29H20V18c0,2.22,0,4.9,0,5a2.51,2.51,0,0,0,1.33,1.85c1,0.67,2.5,1.55,2.57,1.59l0.35,0.2,0.36-.19c0.07,0,1.68-.92,2.7-1.6A2.35,2.35,0,0,0,28.54,23s0-.16,0-5V17.29ZM21.4,18.72h5.71c0,0.41,0,.83,0,1.25H21.4V18.72Zm5.71,4.22h0V23a1.38,1.38,0,0,1-.63.7c-0.69.46-1.7,1-2.23,1.33-0.5-.3-1.46-0.87-2.14-1.33a1.39,1.39,0,0,1-.7-0.75c0-.08,0-0.71,0-1.54h5.71c0,0.08,0,.17,0,0.24C27.11,22.35,27.11,22.86,27.11,22.94Z"/>
      <path class="cls-2" d="M33.61,35.61L33,35.54l-0.41,0,0,0.76h0.31l0.62,0.06c0.37,0,.7.07,1,0.08l1.8,0,0-.75-1.8,0C34.27,35.68,34,35.65,33.61,35.61Z"/>
      <path class="cls-2" d="M41.78,17.26H33.21V18c0,4.88,0,5,0,5a2.51,2.51,0,0,0,1.33,1.83c1,0.67,2.5,1.55,2.56,1.59l0.35,0.2,0.35-.19c0.07,0,1.69-.92,2.7-1.6A2.36,2.36,0,0,0,41.78,23c0-.1,0-1.8,0-5V17.26Zm-1.43,5.65V23a1.38,1.38,0,0,1-.63.7c-0.69.46-1.7,1-2.23,1.33-0.5-.3-1.45-0.87-2.14-1.33a1.43,1.43,0,0,1-.7-0.75h0s0-.08,0-0.15h0l2.82-2,2.88,1.92c0,0.14,0,.23,0,0.26h0ZM37.44,19l-0.4.29L34.64,21V20.33c0-.54,0-1.11,0-1.64h5.71c0,0.74,0,1.53,0,2.24Z"/>
      <path class="cls-2" d="M6.67,28.67a4.09,4.09,0,0,0-.07-0.94H5.9a2.27,2.27,0,0,1,.12.9,1.35,1.35,0,0,1-1.56,1.29,1.37,1.37,0,0,1-1.41-1.46,1.65,1.65,0,0,1,.27-0.87l-0.69-.1a2.68,2.68,0,0,0-.23.91,2,2,0,0,0,2.07,2.37A2,2,0,0,0,6.67,28.67Z"/>
      <path class="cls-2" d="M4.87,25.73A2,2,0,1,0,6,21.89a1.92,1.92,0,0,0-2.59,1.34A1.9,1.9,0,0,0,4.87,25.73ZM4,23.41a1.27,1.27,0,0,1,1.73-.7,1.19,1.19,0,1,1-.63,2.2A1.27,1.27,0,0,1,4,23.41Z"/>
      <path class="cls-2" d="M9,20.17l-1.52-.81,0.12-.23a0.51,0.51,0,0,1,.64-0.3L9.66,19l0.43-.81L8.36,18a0.61,0.61,0,0,0-.58.18h0A0.94,0.94,0,0,0,7.32,17c-1-.54-1.48.4-1.89,1.17L5,19,8.66,20.9Zm-2-1.35L7,19.06l-1-.52L6.1,18.3c0.19-.36.44-0.74,0.88-0.51S7.27,18.47,7.08,18.83Z"/>
      <polygon class="cls-2" points="11.48 16.27 9.11 14.3 9.11 14.29 12.49 15.06 13.13 14.29 9.94 11.65 9.45 12.26 11.82 14.23 11.82 14.24 8.45 13.46 7.8 14.23 10.98 16.87 11.48 16.27"/>
      <polygon class="cls-2" points="16.43 11.43 16.02 10.92 14.78 11.93 14.04 11.03 15.17 10.11 14.76 9.61 13.63 10.53 12.99 9.73 14.22 8.73 13.81 8.23 11.95 9.74 14.55 12.95 16.43 11.43"/>
      <polygon class="cls-2" points="20.11 9.19 19.8 8.62 18.42 9.4 16.71 6.36 16 6.76 18.02 10.37 20.11 9.19"/>
      <polygon class="cls-2" points="23.86 7.73 23.64 7.12 22.15 7.65 20.96 4.38 20.2 4.66 21.6 8.55 23.86 7.73"/>
      <path class="cls-2" d="M28.79,6.92a1.43,1.43,0,0,0,1.53-1.7L30.1,2.59l-0.82.07L29.48,5c0.06,0.7-.13,1.18-0.75,1.23s-0.89-.39-0.94-1.09L27.6,2.8l-0.82.07L27,5.5A1.43,1.43,0,0,0,28.79,6.92Z"/>
      <polygon class="cls-2" points="33.54 3.8 33.55 3.8 34.68 7.07 35.67 7.2 36.23 3.1 35.45 3 35.04 6.07 35.02 6.06 33.9 2.79 32.91 2.66 32.35 6.75 33.13 6.86 33.54 3.8"/>
      <rect class="cls-2" x="36.47" y="5.46" width="4.13" height="0.82" transform="translate(21.38 40.87) rotate(-72.56)"/>
      <polygon class="cls-2" points="45.04 6.46 44.31 6.1 41.93 8.53 41.92 8.52 42.45 5.16 41.67 4.76 41.05 9.08 41.95 9.53 45.04 6.46"/>
      <polygon class="cls-2" points="46.38 12.55 46.78 12.04 45.52 11.05 46.24 10.14 47.38 11.03 47.78 10.52 46.64 9.63 47.27 8.82 48.52 9.8 48.92 9.29 47.02 7.81 44.48 11.06 46.38 12.55"/>
      <path class="cls-2" d="M47.72,13.8l0.54,0.62,1.29-1.13,0.17,0.2a0.5,0.5,0,0,1,.05.7l-0.65,1.22,0.6,0.69,0.78-1.56a0.6,0.6,0,0,0,0-.61h0a1,1,0,0,0,1.28,0c0.86-.76.15-1.53-0.43-2.19l-0.58-.66Zm3.33-1.48c0.27,0.3.54,0.68,0.17,1s-0.74,0-1-.27L50,12.85l0.83-.74Z"/>
      <path class="cls-2" d="M51.64,18A2,2,0,0,1,51.39,17l-0.68.32a3.51,3.51,0,0,0,.4,1A1.29,1.29,0,0,0,53,19c1.19-.7,0-2.09.64-2.45a0.57,0.57,0,0,1,.82.26,2.09,2.09,0,0,1,.27.8l0.62-.28a3.08,3.08,0,0,0-.37-0.91,1.25,1.25,0,0,0-1.81-.58c-1.18.7,0,2.07-.67,2.47A0.64,0.64,0,0,1,51.64,18Z"/>
      <rect class="cls-2" x="52.67" y="20.43" width="4.13" height="0.82" transform="translate(-3.82 22.2) rotate(-22.18)"/>
      <polygon class="cls-2" points="53.83 24.61 54.02 25.4 57.4 24.57 57.68 25.71 58.31 25.55 57.56 22.49 56.92 22.64 57.2 23.77 53.83 24.61"/>
      <polygon class="cls-2" points="54.58 29.19 54.63 30 56.26 29.92 58.84 31.24 58.79 30.37 57 29.49 58.68 28.43 58.63 27.48 56.21 29.1 54.58 29.19"/>
      <polygon class="cls-2" points="5.63 39.02 6.25 38.84 5.86 37.5 6.84 37.22 7.25 38.63 7.87 38.44 7.24 36.24 3.27 37.39 3.5 38.18 5.24 37.68 5.63 39.02"/>
      <path class="cls-2" d="M9.18,41.31a1.92,1.92,0,0,0-2.8-.87,1.93,1.93,0,0,0-1,2.76,1.94,1.94,0,0,0,2.82.87A1.93,1.93,0,0,0,9.18,41.31Zm-1.4,2a1.27,1.27,0,0,1-1.85-.38,1.27,1.27,0,0,1,.83-1.7,1.28,1.28,0,0,1,1.83.39A1.27,1.27,0,0,1,7.78,43.29Z"/>
      <path class="cls-2" d="M12.51,46.55L10.64,48c-0.55.44-1.05,0.55-1.44,0.05s-0.17-1,.38-1.39l1.87-1.48-0.51-.65L8.86,46.2a1.44,1.44,0,0,0-.18,2.3,1.44,1.44,0,0,0,2.27.34L13,47.2Z"/>
      <polygon class="cls-2" points="16.33 50.16 14.38 52.55 14.37 52.54 15.11 49.16 14.32 48.52 11.71 51.71 12.32 52.21 14.27 49.82 14.29 49.83 13.55 53.22 14.33 53.86 16.95 50.66 16.33 50.16"/>
      <path class="cls-2" d="M19.52,52.18l-1-.5-1.85,3.69,1,0.5c1.13,0.57,2.31.69,3-.77S20.65,52.75,19.52,52.18ZM20,54.71a1.36,1.36,0,0,1-1.85.66l-0.41-.21L19,52.63l0.41,0.21A1.35,1.35,0,0,1,20,54.71Z"/>
      <polygon class="cls-2" points="22.23 57.79 24.59 58.42 24.76 57.79 23.2 57.38 23.49 56.25 24.91 56.63 25.08 56 23.66 55.63 23.92 54.64 25.47 55.06 25.64 54.43 23.29 53.8 22.23 57.79"/>
      <path class="cls-2" d="M28.58,54.82l-1.12-.06-0.23,4.13,1.12,0.06c1.26,0.07,2.4-.29,2.49-1.93S29.84,54.89,28.58,54.82Zm0,3.48-0.46,0,0.16-2.82,0.46,0A1.42,1.42,0,0,1,28.55,58.3Z"/>
      <path class="cls-2" d="M35,54.45l-0.7,4.38,0.84-.18,0.15-1L37,57.3l0.54,0.85L38.4,58l-2.45-3.7ZM35.42,57l0.22-1.79h0l0.94,1.54Z"/>
      <rect class="cls-2" x="39.44" y="56.55" width="0.82" height="0.83" transform="matrix(0.94, -0.34, 0.34, 0.94, -17.07, 17.05)"/>
      <path class="cls-2" d="M41.36,52.26l-1,.54,2,3.63,1-.54c1.11-.6,1.89-1.5,1.11-2.95S42.47,51.66,41.36,52.26Zm1.8,3-0.4.22L41.4,53l0.4-.22A1.42,1.42,0,0,1,43.16,55.25Z"/>
      <rect class="cls-2" x="45.79" y="53.25" width="0.83" height="0.83" transform="translate(-22.34 35.86) rotate(-34.7)"/>
      <polygon class="cls-2" points="47.34 47.91 47.16 49.45 47.83 49.55 47.93 48.65 50.17 50.92 50.76 50.34 47.85 47.4 47.34 47.91"/>
      <path class="cls-2" d="M53.11,45.64a1.16,1.16,0,0,0-1.34,0h0a1.08,1.08,0,0,0-.39-1.14,1.16,1.16,0,0,0-1.62.52,1.12,1.12,0,0,0,.1,1.7,1.06,1.06,0,0,0,1.18,0h0A1.12,1.12,0,0,0,51.42,48a1.23,1.23,0,0,0,1.82-.46A1.2,1.2,0,0,0,53.11,45.64Zm-1.88.3a0.79,0.79,0,0,1-.89.15,0.54,0.54,0,0,1,0-.78,0.48,0.48,0,0,1,.72-0.1A0.71,0.71,0,0,1,51.23,45.94Zm1.51,1.19a0.6,0.6,0,0,1-.84.15,0.75,0.75,0,0,1-.24-0.83,0.82,0.82,0,0,1,1-.13A0.54,0.54,0,0,1,52.74,47.13Z"/>
      <path class="cls-2" d="M55.15,41.31a1.14,1.14,0,0,0-1.67.52,0.89,0.89,0,0,0,0,.9h0a1.12,1.12,0,0,1-.71-1.45,1.74,1.74,0,0,1,.47-0.57l-0.55-.4a2.59,2.59,0,0,0-.52.71c-0.6,1.19.34,2.06,1.35,2.56s1.83,0.63,2.35-.39A1.3,1.3,0,0,0,55.15,41.31Zm0.17,1.61a0.62,0.62,0,0,1-.91.19A0.64,0.64,0,0,1,54,42.27a0.65,0.65,0,0,1,.94-0.16A0.63,0.63,0,0,1,55.32,42.93Z"/>
      <path class="cls-2" d="M56.75,36.84a1.23,1.23,0,0,0-1.67.89,1.88,1.88,0,0,0-.07.37l-0.84-.27,0.45-1.52L54,36.14l-0.68,2.27,2.12,0.67a2.38,2.38,0,0,1,.1-0.74,0.79,0.79,0,0,1,1-.7A0.77,0.77,0,0,1,57,38.69a2.1,2.1,0,0,1-.44.75l0.7,0.23a4.45,4.45,0,0,0,.39-0.89A1.41,1.41,0,0,0,56.75,36.84Z"/>
      <path class="cls-2" d="M188,35.5a1.38,1.38,0,1,0-1.51-1.38A1.43,1.43,0,0,0,188,35.5h0Zm-1.21-1.38A1.21,1.21,0,1,1,188,35.27a1.16,1.16,0,0,1-1.21-1.15h0Zm0.9,0.11H188l0.45,0.69h0.29l-0.49-.7a0.43,0.43,0,0,0,.44-0.44c0-.31-0.2-0.45-0.61-0.45H187.4v1.59h0.26V34.23h0Zm0-.2V33.53H188c0.18,0,.37,0,0.37.23S188.2,34,188,34h-0.31Z"/>
    </g>
  </g>
</svg>
