<?xml version="1.0" standalone="no"?>
<!DOCTYPE svg PUBLIC "-//W3C//DTD SVG 20010904//EN"
 "http://www.w3.org/TR/2001/REC-SVG-20010904/DTD/svg10.dtd">
<svg version="1.0" xmlns="http://www.w3.org/2000/svg"
 width="768.000000pt" height="768.000000pt" viewBox="0 0 768.000000 768.000000"
 preserveAspectRatio="xMidYMid meet">

<g transform="translate(0.000000,768.000000) scale(0.100000,-0.100000)"
fill="#000000" stroke="none">
<path d="M2145 6573 c-353 -24 -606 -131 -806 -340 -151 -159 -237 -335 -286
-584 -17 -89 -18 -189 -18 -1804 0 -1626 1 -1715 19 -1815 54 -305 186 -533
400 -692 154 -114 357 -193 567 -220 150 -19 3501 -19 3634 0 203 29 372 89
517 184 249 164 385 382 455 733 17 85 18 194 18 1805 0 1611 -1 1720 -18
1805 -105 525 -404 818 -932 912 -80 15 -276 17 -1795 18 -938 1 -1727 0
-1755 -2z m1383 -1160 c6 -16 37 -102 70 -193 33 -91 121 -331 195 -535 74
-203 196 -536 270 -740 74 -203 197 -539 272 -745 75 -206 155 -423 176 -483
l39 -107 -306 2 -306 3 -27 75 c-15 41 -63 180 -107 308 l-79 232 -536 0 -536
0 -31 -87 c-17 -49 -56 -162 -87 -253 -31 -91 -65 -191 -77 -222 l-20 -58
-305 0 -304 0 6 23 c16 54 177 501 512 1412 68 187 168 462 223 610 194 533
281 768 286 776 3 5 153 9 334 9 l328 0 10 -27z m1882 -1260 l0 -1278 -132
-132 -133 -133 -162 0 -163 0 0 1410 0 1410 295 0 295 0 0 -1277z m423 -806
c57 -43 82 -93 82 -162 0 -97 -61 -176 -147 -194 l-33 -7 -5 -92 -5 -91 -55
-58 c-31 -32 -93 -96 -138 -143 l-81 -85 97 -3 c85 -3 98 -1 107 15 6 10 28
37 50 59 122 126 315 43 315 -135 0 -54 -23 -113 -57 -143 -28 -25 -88 -48
-126 -48 -56 0 -138 49 -165 98 l-23 42 -162 0 -161 0 -73 -76 c-86 -88 -118
-104 -208 -104 -64 0 -65 0 -79 -34 -27 -64 -124 -113 -197 -100 -137 27 -203
171 -130 285 69 109 224 118 305 17 14 -18 31 -39 38 -47 8 -9 28 -12 72 -9
l60 5 258 263 258 263 0 72 c0 71 -1 73 -39 112 -69 69 -80 181 -24 251 67 84
190 107 266 49z"/>
<path d="M3166 4753 c-8 -27 -55 -165 -104 -308 -50 -143 -126 -365 -170 -492
l-81 -233 375 0 c206 0 374 2 374 4 0 2 -66 194 -146 427 -80 233 -162 474
-182 536 -20 62 -40 113 -44 113 -4 0 -14 -21 -22 -47z"/>
<path d="M5776 2509 c-33 -39 -34 -82 -1 -114 51 -52 145 -16 145 54 0 44 -44
91 -85 91 -25 0 -40 -8 -59 -31z"/>
</g>
</svg>
