<svg width="512" height="512" viewBox="0 0 512 512" fill="none" xmlns="http://www.w3.org/2000/svg">
<mask id="mask0_6_10" style="mask-type:luminance" maskUnits="userSpaceOnUse" x="10" y="0" width="501" height="512">
<path d="M510.5 0H10.6905V512H510.5V0Z" fill="white"/>
</mask>
<g mask="url(#mask0_6_10)">
<mask id="mask1_6_10" style="mask-type:alpha" maskUnits="userSpaceOnUse" x="14" y="5" width="491" height="503">
<path d="M259.416 5.26611C124.204 5.26611 14.592 117.551 14.592 256.062C14.592 394.572 124.204 506.858 259.416 506.858C394.629 506.858 504.241 394.572 504.241 256.062C504.241 117.551 394.629 5.26611 259.416 5.26611Z" fill="black" stroke="#242424" stroke-width="0.405723"/>
</mask>
<g mask="url(#mask1_6_10)">
<path d="M274.44 2.93903C404.034 10.8826 506.739 121.031 506.739 255.78C506.739 332.036 473.839 400.411 421.798 446.854C355.167 370.73 275.246 294.586 274.928 218.463C274.629 146.622 274.545 74.78 274.44 2.93903ZM12.1428 255.78C12.1428 121.043 114.828 10.9006 244.404 2.93903C244.3 74.78 244.228 146.622 243.929 218.463C243.611 294.585 163.689 370.72 97.0594 446.841C45.0296 400.399 12.1428 332.027 12.1428 255.78Z" fill="#242424"/>
<path d="M273.179 250.378C290.994 327.744 350.688 405.112 392.75 482.475C398.091 492.299 403.148 502.127 407.797 511.951H369.726C366.373 502.127 362.746 492.299 358.929 482.475C328.867 405.111 286.948 327.744 273.179 250.378ZM111.059 511.951C115.71 502.127 120.766 492.299 126.107 482.475C168.169 405.112 227.863 327.744 245.678 250.378C231.909 327.744 189.99 405.111 159.928 482.475C156.111 492.299 152.485 502.127 149.131 511.951H111.059Z" fill="#242424"/>
<path d="M259.429 -65.1903C259.429 -59.4694 259.441 -53.7485 259.467 -48.0275C259.862 40.3901 263.259 128.808 268.284 217.225C273.309 305.643 310.146 394.06 335.849 482.478C338.705 492.302 341.424 502.126 343.946 511.95C287.601 511.95 231.256 511.95 174.911 511.95C177.434 502.126 180.152 492.302 183.008 482.478C208.711 394.06 245.548 305.643 250.573 217.225C255.598 128.808 258.995 40.3901 259.39 -48.0275C259.416 -53.7485 259.429 -59.4694 259.429 -65.1903Z" fill="#242424"/>
</g>
</g>
</svg>
