<svg width="510" height="218" viewBox="0 0 510 218" fill="none" xmlns="http://www.w3.org/2000/svg">
<path d="M320.42 144.755C328.799 155.015 344.36 163.052 365.393 163.052C392.753 163.052 410.366 149.201 410.366 129.536C410.366 112.436 395.318 103.373 383.69 102.176C396.344 99.953 408.656 90.548 408.656 76.184C408.656 57.203 392.24 45.233 365.564 45.233C345.557 45.233 331.193 52.928 321.959 63.359L333.929 78.407C341.966 70.712 351.884 66.437 362.999 66.437C374.969 66.437 384.203 71.054 384.203 80.117C384.203 88.667 375.824 92.771 363.17 92.771C358.724 92.771 351.029 92.771 348.977 92.6V113.804C350.687 113.633 358.382 113.633 363.17 113.633C379.073 113.633 386.084 117.908 386.084 127.142C386.084 135.863 378.389 141.848 364.538 141.848C353.423 141.848 340.94 137.06 333.074 128.852L320.42 144.755Z" fill="#103B41"/>
<path d="M447.514 161H471.967V68.318H505.141V46.943H414.169V68.318H447.514V161Z" fill="#103B41"/>
<path fill-rule="evenodd" clip-rule="evenodd" d="M285.841 90.901C283.667 87.8765 281.557 84.7813 279.921 81.3975C278.466 78.3878 277.389 75.1738 276.312 71.9594C274.997 68.0353 273.681 64.1104 271.678 60.5555C245.324 13.7932 198.299 -0.636655 152.857 0.0213467C111.169 0.624085 42.4664 24.575 11.5026 97.0003C9.51767 101.749 7.77495 106.611 6.30572 111.561C4.03706 119.196 2.36421 127.061 1.26409 135.018L1.21894 135.011C-3.8586 185.365 7.52161 211.547 24.3173 216.839C35.5584 220.381 45.4628 215.567 57.09 205.794C69.8718 195.05 74.8852 186.945 73.4694 175.79C72.0062 164.258 59.5603 155.869 48.2929 152.888C31.9926 148.178 38.5786 137.718 38.5786 137.718C38.5786 137.718 56.1258 150.304 84.4616 147.089C110.312 144.156 115.235 138.755 115.235 138.755C115.235 112.102 129.576 93.491 148.284 91.6724C135.277 97.8151 127.738 118.98 127.738 136.144V181.574H134.205C153.162 181.574 169.35 162.499 169.35 140.959V132.039C169.35 132.039 183.547 124.332 203.685 122.046C213.036 120.985 220.389 121.914 226.742 123.757C223.131 119.256 220.811 113.951 220.619 107.715C220.534 104.94 225.119 103.715 226.119 107.715C229.588 123.415 238.406 130.36 260.131 137.071C264.546 137.984 269.437 138.305 275.151 137.656C285.147 136.27 295.131 130.725 296.745 118.98C298.257 107.981 292.79 100.464 287.198 92.7736C286.745 92.1512 286.292 91.5276 285.841 90.901ZM177.579 136.378C180.127 161.91 165.619 172.715 165.619 172.715C185.842 171.471 208.739 152.947 207.618 129.198C207.618 129.198 198.654 127.906 177.579 136.378ZM253.619 95.7151C258.314 95.7151 262.119 91.6856 262.119 86.7151C262.119 81.7445 258.314 77.7151 253.619 77.7151C248.925 77.7151 245.119 81.7445 245.119 86.7151C245.119 91.6856 248.925 95.7151 253.619 95.7151Z" fill="white"/>
<path fill-rule="evenodd" clip-rule="evenodd" d="M285.802 91.1661C283.624 88.1359 281.508 85.0351 279.867 81.646C278.407 78.6318 277.325 75.4136 276.243 72.1948C274.922 68.2656 273.601 64.3356 271.592 60.7748C245.162 13.9353 198.107 -0.575021 152.656 0.0172949C110.96 0.559773 42.2783 24.4304 11.4153 96.8706C9.43694 101.62 7.70106 106.483 6.23885 111.436C3.98101 119.074 2.31947 126.943 1.2309 134.905L1.18573 134.898C-3.8183 185.286 7.60308 211.507 24.4101 216.828C35.6589 220.389 45.5582 215.585 57.1734 205.821C69.942 195.087 74.9444 186.982 73.5118 175.816C72.0312 164.272 59.5703 155.858 48.296 152.858C31.9854 148.12 38.5573 137.662 38.5573 137.662C38.5573 137.662 56.1268 150.284 84.4638 147.107C110.315 144.209 115.232 138.811 115.232 138.811C115.192 112.136 129.508 93.5305 148.218 91.7376C135.217 97.8664 127.708 119.038 127.733 136.216L127.801 181.684L134.269 181.693C153.23 181.721 169.393 162.654 169.361 141.096L169.348 132.168C169.348 132.168 183.536 124.475 203.675 122.218C213.207 121.149 220.666 122.146 227.106 124.072C223.36 119.51 220.939 114.115 220.733 107.756C220.644 104.982 225.231 103.765 226.238 107.764C229.827 123.884 239.048 130.784 262.107 137.698C266.008 138.332 270.293 138.493 275.179 137.945C285.175 136.571 295.153 131.037 296.75 119.285C298.246 108.278 292.767 100.747 287.162 93.0422C286.708 92.4186 286.254 91.7939 285.802 91.1661ZM177.698 136.341C180.286 161.865 165.782 172.643 165.782 172.643C186.021 171.429 208.91 152.948 207.753 129.209C207.753 129.209 198.779 127.905 177.698 136.341ZM252.737 91.8107C256.33 91.8159 259.238 88.6877 259.232 84.8237C259.226 80.9596 256.309 77.8229 252.716 77.8177C249.123 77.8125 246.215 80.9407 246.221 84.8047C246.227 88.6688 249.144 91.8055 252.737 91.8107Z" fill="#17AF66"/>
</svg>
