<svg xmlns="http://www.w3.org/2000/svg" xmlns:xlink="http://www.w3.org/1999/xlink" width="500" zoomAndPan="magnify" viewBox="0 0 375 374.999991" height="500" preserveAspectRatio="xMidYMid meet" version="1.0"><defs><clipPath id="448c6f1139"><path d="M 89 126.304688 L 286 126.304688 L 286 310 L 89 310 Z M 89 126.304688 " clip-rule="nonzero"/></clipPath><clipPath id="3c4fc82a8b"><path d="M 228.539062 208.171875 C 213.617188 211.902344 201.578125 258.226562 223.164062 237.765625 C 227.695312 233.472656 240.027344 210.378906 231.410156 207.890625 C 230.40625 207.609375 229.503906 207.933594 228.539062 208.171875 M 147.570312 197.894531 C 145.585938 215.441406 137.027344 239.378906 163.101562 240.964844 C 165.808594 239.796875 165.988281 238.386719 165.585938 235.679688 C 165.234375 233.324219 152.988281 206.054688 150.914062 202.027344 C 150.117188 200.472656 150.058594 198.074219 147.585938 197.894531 M 217.539062 259.265625 C 233.101562 267.171875 276.421875 255.886719 284.015625 275.074219 C 293.652344 299.460938 263.6875 305.128906 246.292969 307.410156 C 217.878906 311.140625 186.699219 309.925781 158.453125 309.203125 C 140.109375 308.742188 96.3125 310.625 90.183594 287.71875 C 82.308594 258.242188 122.414062 261.085938 140.566406 265.585938 C 160.582031 270.546875 175.152344 285.1875 195.777344 287.660156 C 196.25 283.46875 194.324219 280.570312 191.628906 277.695312 C 174.425781 259.457031 132.070312 245.464844 128.070312 218.238281 C 119.160156 157.625 148.871094 112.308594 214.089844 130.5625 C 254.996094 142.007812 260.121094 221.539062 230.554688 245.125 C 224.914062 249.625 215.363281 250.734375 217.539062 259.265625 " clip-rule="nonzero"/></clipPath><clipPath id="dffe3bd33c"><path d="M 0 0.304688 L 197 0.304688 L 197 184 L 0 184 Z M 0 0.304688 " clip-rule="nonzero"/></clipPath><clipPath id="496dd6cda4"><path d="M 139.539062 82.171875 C 124.617188 85.902344 112.578125 132.226562 134.164062 111.765625 C 138.695312 107.472656 151.027344 84.378906 142.410156 81.890625 C 141.40625 81.609375 140.503906 81.933594 139.539062 82.171875 M 58.570312 71.894531 C 56.585938 89.441406 48.027344 113.378906 74.101562 114.964844 C 76.808594 113.796875 76.988281 112.386719 76.585938 109.679688 C 76.234375 107.324219 63.988281 80.054688 61.914062 76.027344 C 61.117188 74.472656 61.058594 72.074219 58.585938 71.894531 M 128.539062 133.265625 C 144.101562 141.171875 187.421875 129.886719 195.015625 149.074219 C 204.652344 173.460938 174.6875 179.128906 157.292969 181.410156 C 128.878906 185.140625 97.699219 183.925781 69.453125 183.203125 C 51.109375 182.742188 7.3125 184.625 1.183594 161.71875 C -6.691406 132.242188 33.414062 135.085938 51.566406 139.585938 C 71.582031 144.546875 86.152344 159.1875 106.777344 161.660156 C 107.25 157.46875 105.324219 154.570312 102.628906 151.695312 C 85.425781 133.457031 43.070312 119.464844 39.070312 92.238281 C 30.160156 31.625 59.871094 -13.691406 125.089844 4.5625 C 165.996094 16.007812 171.121094 95.539062 141.554688 119.125 C 135.914062 123.625 126.363281 124.734375 128.539062 133.265625 " clip-rule="nonzero"/></clipPath><clipPath id="2b2de9b760"><rect x="0" width="197" y="0" height="184"/></clipPath><clipPath id="d1788be77a"><path d="M 159 65 L 216 65 L 216 122 L 159 122 Z M 159 65 " clip-rule="nonzero"/></clipPath><clipPath id="4d2405197b"><path d="M 215.882812 93.207031 C 215.882812 108.738281 203.296875 121.324219 187.765625 121.324219 C 172.234375 121.324219 159.652344 108.738281 159.652344 93.207031 C 159.652344 77.675781 172.21875 65.09375 187.75 65.09375 C 203.28125 65.09375 215.867188 77.675781 215.867188 93.207031 " clip-rule="nonzero"/></clipPath><clipPath id="86f898cc3f"><path d="M 0.601562 0.0390625 L 57 0.0390625 L 57 56.441406 L 0.601562 56.441406 Z M 0.601562 0.0390625 " clip-rule="nonzero"/></clipPath><clipPath id="87931a5803"><path d="M 56.882812 28.207031 C 56.882812 43.738281 44.296875 56.324219 28.765625 56.324219 C 13.234375 56.324219 0.652344 43.738281 0.652344 28.207031 C 0.652344 12.675781 13.21875 0.09375 28.75 0.09375 C 44.28125 0.09375 56.867188 12.675781 56.867188 28.207031 " clip-rule="nonzero"/></clipPath><clipPath id="84a098d9b1"><rect x="0" width="57" y="0" height="57"/></clipPath><clipPath id="cea734b344"><path d="M 158.890625 64.089844 L 217 64.089844 L 217 122.226562 L 158.890625 122.226562 Z M 158.890625 64.089844 " clip-rule="nonzero"/></clipPath><clipPath id="25f4f69a5a"><path d="M 216.621094 93.207031 C 216.621094 109.152344 203.695312 122.0625 187.765625 122.0625 L 187.765625 121.324219 L 187.765625 122.0625 C 171.820312 122.0625 158.910156 109.140625 158.910156 93.207031 L 159.652344 93.207031 L 158.910156 93.207031 C 158.894531 77.277344 171.820312 64.351562 187.75 64.351562 L 187.75 65.09375 L 187.75 64.351562 C 203.695312 64.351562 216.605469 77.277344 216.605469 93.207031 L 215.867188 93.207031 L 216.605469 93.207031 M 215.125 93.207031 C 215.140625 78.09375 202.882812 65.832031 187.75 65.832031 C 172.621094 65.832031 160.375 78.09375 160.375 93.207031 C 160.375 108.324219 172.636719 120.582031 187.75 120.582031 C 202.867188 120.582031 215.125 108.324219 215.125 93.207031 Z M 215.125 93.207031 " clip-rule="nonzero"/></clipPath><clipPath id="0e85d32893"><path d="M 0.890625 0.320312 L 58.71875 0.320312 L 58.71875 58.160156 L 0.890625 58.160156 Z M 0.890625 0.320312 " clip-rule="nonzero"/></clipPath><clipPath id="bab24abdc0"><path d="M 58.621094 29.207031 C 58.621094 45.152344 45.695312 58.0625 29.765625 58.0625 L 29.765625 57.324219 L 29.765625 58.0625 C 13.820312 58.0625 0.910156 45.140625 0.910156 29.207031 L 1.652344 29.207031 L 0.910156 29.207031 C 0.894531 13.277344 13.820312 0.351562 29.75 0.351562 L 29.75 1.09375 L 29.75 0.351562 C 45.695312 0.351562 58.605469 13.277344 58.605469 29.207031 L 57.867188 29.207031 L 58.605469 29.207031 M 57.125 29.207031 C 57.140625 14.09375 44.882812 1.832031 29.75 1.832031 C 14.621094 1.832031 2.375 14.09375 2.375 29.207031 C 2.375 44.324219 14.636719 56.582031 29.75 56.582031 C 44.867188 56.582031 57.125 44.324219 57.125 29.207031 Z M 57.125 29.207031 " clip-rule="nonzero"/></clipPath><clipPath id="cc510108de"><rect x="0" width="59" y="0" height="59"/></clipPath><clipPath id="14ac41277b"><path d="M 61 121.207031 L 136.453125 121.207031 L 136.453125 255 L 61 255 Z M 61 121.207031 " clip-rule="nonzero"/></clipPath><clipPath id="ff9a508ff5"><path d="M 67.5625 121.886719 C 67.5625 121.886719 114.050781 125.929688 128.425781 148.152344 C 131.015625 152.148438 128.972656 153.851562 126.515625 157.640625 C 118.09375 170.65625 116.300781 190.847656 116.390625 206.113281 C 116.507812 224.308594 121.617188 243.214844 136.421875 254.957031 C 134.453125 253.386719 129.890625 252.851562 127.539062 251.875 C 120.003906 248.738281 112.867188 244.605469 106.308594 239.75 C 84.589844 223.640625 70.433594 199.390625 64.617188 173.140625 C 61.078125 157.195312 60.261719 136.957031 67.578125 121.886719 " clip-rule="nonzero"/></clipPath><clipPath id="6db1bdfb10"><path d="M 0 0.679688 L 75.453125 0.679688 L 75.453125 134 L 0 134 Z M 0 0.679688 " clip-rule="nonzero"/></clipPath><clipPath id="5cc51dd524"><path d="M 6.5625 0.886719 C 6.5625 0.886719 53.050781 4.929688 67.425781 27.152344 C 70.015625 31.148438 67.972656 32.851562 65.515625 36.640625 C 57.09375 49.65625 55.300781 69.847656 55.390625 85.113281 C 55.507812 103.308594 60.617188 122.214844 75.421875 133.957031 C 73.453125 132.386719 68.890625 131.851562 66.539062 130.875 C 59.003906 127.738281 51.867188 123.605469 45.308594 118.75 C 23.589844 102.640625 9.433594 78.390625 3.617188 52.140625 C 0.078125 36.195312 -0.738281 15.957031 6.578125 0.886719 " clip-rule="nonzero"/></clipPath><clipPath id="c77348a4ff"><rect x="0" width="76" y="0" height="134"/></clipPath><clipPath id="51e76f435a"><path d="M 61 121 L 137 121 L 137 255.835938 L 61 255.835938 Z M 61 121 " clip-rule="nonzero"/></clipPath><clipPath id="1558c5aabc"><path d="M 67.636719 121.144531 C 67.710938 121.144531 114.523438 125.292969 129.046875 147.734375 L 128.425781 148.136719 L 129.046875 147.734375 C 131.535156 151.585938 130.085938 153.703125 128.128906 156.558594 C 127.804688 157.019531 127.480469 157.507812 127.136719 158.039062 L 126.515625 157.640625 L 127.136719 158.039062 C 118.832031 170.847656 117.042969 190.847656 117.128906 206.113281 L 116.390625 206.113281 L 117.128906 206.113281 C 117.25 224.207031 122.328125 242.832031 136.878906 254.378906 L 136.421875 254.957031 L 135.960938 255.53125 C 134.882812 254.675781 132.824219 254.125 130.664062 253.578125 C 129.433594 253.269531 128.191406 252.941406 127.257812 252.558594 C 119.660156 249.402344 112.464844 245.230469 105.878906 240.34375 L 106.324219 239.75 L 105.878906 240.34375 C 83.980469 224.117188 69.753906 199.703125 63.890625 173.304688 C 60.335938 157.300781 59.480469 136.867188 66.894531 121.558594 L 67.117188 121.101562 L 67.621094 121.144531 M 67.488281 122.625 L 67.546875 121.886719 L 68.214844 122.210938 C 61.03125 137.078125 61.804688 157.109375 65.339844 172.992188 L 64.617188 173.15625 L 65.339844 172.992188 C 71.128906 199.082031 85.179688 223.167969 106.75 239.160156 C 113.25 243.984375 120.34375 248.085938 127.820312 251.195312 L 127.539062 251.875 L 127.820312 251.195312 C 128.632812 251.535156 129.757812 251.832031 131.03125 252.144531 C 133.0625 252.660156 135.503906 253.269531 136.894531 254.378906 L 135.976562 255.53125 C 120.921875 243.585938 115.78125 224.414062 115.664062 206.113281 C 115.5625 190.835938 117.351562 170.433594 125.910156 157.226562 C 126.265625 156.679688 126.605469 156.191406 126.917969 155.714844 C 128.839844 152.917969 129.773438 151.554688 127.820312 148.535156 C 113.664062 126.699219 67.652344 122.640625 67.503906 122.625 Z M 67.488281 122.625 " clip-rule="nonzero"/></clipPath><clipPath id="eb4f2ef3c0"><path d="M 0 0 L 76 0 L 76 134.601562 L 0 134.601562 Z M 0 0 " clip-rule="nonzero"/></clipPath><clipPath id="ab2dd0cba2"><path d="M 6.636719 0.144531 C 6.710938 0.144531 53.523438 4.292969 68.046875 26.734375 L 67.425781 27.136719 L 68.046875 26.734375 C 70.535156 30.585938 69.085938 32.703125 67.128906 35.558594 C 66.804688 36.019531 66.480469 36.507812 66.136719 37.039062 L 65.515625 36.640625 L 66.136719 37.039062 C 57.832031 49.847656 56.042969 69.847656 56.128906 85.113281 L 55.390625 85.113281 L 56.128906 85.113281 C 56.25 103.207031 61.328125 121.832031 75.878906 133.378906 L 75.421875 133.957031 L 74.960938 134.53125 C 73.882812 133.675781 71.824219 133.125 69.664062 132.578125 C 68.433594 132.269531 67.191406 131.941406 66.257812 131.558594 C 58.660156 128.402344 51.464844 124.230469 44.878906 119.34375 L 45.324219 118.75 L 44.878906 119.34375 C 22.980469 103.117188 8.753906 78.703125 2.890625 52.304688 C -0.664062 36.300781 -1.519531 15.867188 5.894531 0.558594 L 6.117188 0.101562 L 6.621094 0.144531 M 6.488281 1.625 L 6.546875 0.886719 L 7.214844 1.210938 C 0.03125 16.078125 0.804688 36.109375 4.339844 51.992188 L 3.617188 52.15625 L 4.339844 51.992188 C 10.128906 78.082031 24.179688 102.167969 45.75 118.160156 C 52.25 122.984375 59.34375 127.085938 66.820312 130.195312 L 66.539062 130.875 L 66.820312 130.195312 C 67.632812 130.535156 68.757812 130.832031 70.03125 131.144531 C 72.0625 131.660156 74.503906 132.269531 75.894531 133.378906 L 74.976562 134.53125 C 59.921875 122.585938 54.78125 103.414062 54.664062 85.113281 C 54.5625 69.835938 56.351562 49.433594 64.910156 36.226562 C 65.265625 35.679688 65.605469 35.191406 65.917969 34.714844 C 67.839844 31.917969 68.773438 30.554688 66.820312 27.535156 C 52.664062 5.699219 6.652344 1.640625 6.503906 1.625 Z M 6.488281 1.625 " clip-rule="nonzero"/></clipPath><clipPath id="23feef39e2"><rect x="0" width="76" y="0" height="135"/></clipPath><clipPath id="810e3d4275"><path d="M 238.441406 121.207031 L 313.917969 121.207031 L 313.917969 255 L 238.441406 255 Z M 238.441406 121.207031 " clip-rule="nonzero"/></clipPath><clipPath id="717cdb6f5f"><path d="M 307.4375 121.886719 C 307.4375 121.886719 260.949219 125.929688 246.574219 148.152344 C 243.980469 152.148438 246.023438 153.851562 248.484375 157.640625 C 256.90625 170.65625 258.699219 190.847656 258.609375 206.113281 C 258.492188 224.308594 253.382812 243.214844 238.578125 254.957031 C 240.546875 253.386719 245.105469 252.851562 247.460938 251.875 C 254.996094 248.738281 262.132812 244.605469 268.691406 239.75 C 290.425781 223.640625 304.566406 199.390625 310.398438 173.140625 C 313.9375 157.195312 314.75 136.957031 307.4375 121.886719 " clip-rule="nonzero"/></clipPath><clipPath id="635f288351"><path d="M 0.558594 0.679688 L 75.917969 0.679688 L 75.917969 134 L 0.558594 134 Z M 0.558594 0.679688 " clip-rule="nonzero"/></clipPath><clipPath id="32bb735d5e"><path d="M 69.4375 0.886719 C 69.4375 0.886719 22.949219 4.929688 8.574219 27.152344 C 5.980469 31.148438 8.023438 32.851562 10.484375 36.640625 C 18.90625 49.65625 20.699219 69.847656 20.609375 85.113281 C 20.492188 103.308594 15.382812 122.214844 0.578125 133.957031 C 2.546875 132.386719 7.105469 131.851562 9.460938 130.875 C 16.996094 127.738281 24.132812 123.605469 30.691406 118.75 C 52.425781 102.640625 66.566406 78.390625 72.398438 52.140625 C 75.9375 36.195312 76.75 15.957031 69.4375 0.886719 " clip-rule="nonzero"/></clipPath><clipPath id="eaf44bae7b"><rect x="0" width="76" y="0" height="134"/></clipPath><clipPath id="6e257f9d1d"><path d="M 238 121 L 313.917969 121 L 313.917969 255.835938 L 238 255.835938 Z M 238 121 " clip-rule="nonzero"/></clipPath><clipPath id="5e0f161a95"><path d="M 307.496094 122.625 C 307.363281 122.640625 261.332031 126.699219 247.195312 148.550781 C 245.238281 151.570312 246.171875 152.917969 248.097656 155.730469 C 248.410156 156.191406 248.765625 156.691406 249.105469 157.242188 C 257.660156 170.449219 259.4375 190.847656 259.347656 206.128906 C 259.230469 224.425781 254.09375 243.601562 239.035156 255.546875 L 238.117188 254.394531 C 239.511719 253.296875 241.953125 252.675781 243.980469 252.15625 C 245.238281 251.832031 246.367188 251.550781 247.195312 251.210938 L 247.476562 251.890625 L 247.195312 251.210938 C 254.671875 248.101562 261.761719 244 268.261719 239.171875 C 289.832031 223.183594 303.882812 199.09375 309.6875 173.007812 L 310.414062 173.171875 L 309.6875 173.007812 C 313.210938 157.121094 313.996094 137.089844 306.785156 122.226562 L 307.453125 121.902344 L 307.511719 122.640625 M 307.378906 121.160156 L 307.882812 121.117188 L 308.101562 121.574219 C 315.519531 136.882812 314.660156 157.316406 311.109375 173.320312 C 305.246094 199.703125 291.019531 224.132812 269.121094 240.359375 L 268.675781 239.765625 L 269.121094 240.359375 C 262.519531 245.242188 255.335938 249.417969 247.742188 252.570312 C 246.808594 252.957031 245.566406 253.28125 244.335938 253.59375 C 242.175781 254.140625 240.117188 254.6875 239.035156 255.546875 L 238.578125 254.96875 L 238.117188 254.394531 C 252.671875 242.84375 257.765625 224.207031 257.867188 206.128906 L 258.609375 206.128906 L 257.867188 206.128906 C 257.972656 190.863281 256.167969 170.863281 247.859375 158.054688 L 248.484375 157.65625 L 247.859375 158.054688 C 247.519531 157.535156 247.195312 157.046875 246.867188 156.574219 C 244.914062 153.71875 243.449219 151.601562 245.949219 147.75 L 246.574219 148.152344 L 245.949219 147.75 C 260.476562 125.304688 307.304688 121.160156 307.363281 121.160156 Z M 307.378906 121.160156 " clip-rule="nonzero"/></clipPath><clipPath id="d8fb730bc2"><path d="M 0.078125 0 L 75.917969 0 L 75.917969 134.601562 L 0.078125 134.601562 Z M 0.078125 0 " clip-rule="nonzero"/></clipPath><clipPath id="6799f2cbe1"><path d="M 69.496094 1.625 C 69.363281 1.640625 23.332031 5.699219 9.195312 27.550781 C 7.238281 30.570312 8.171875 31.917969 10.097656 34.730469 C 10.410156 35.191406 10.765625 35.691406 11.105469 36.242188 C 19.660156 49.449219 21.4375 69.847656 21.347656 85.128906 C 21.230469 103.425781 16.09375 122.601562 1.035156 134.546875 L 0.117188 133.394531 C 1.511719 132.296875 3.953125 131.675781 5.980469 131.15625 C 7.238281 130.832031 8.367188 130.550781 9.195312 130.210938 L 9.476562 130.890625 L 9.195312 130.210938 C 16.671875 127.101562 23.761719 123 30.261719 118.171875 C 51.832031 102.183594 65.882812 78.09375 71.6875 52.007812 L 72.414062 52.171875 L 71.6875 52.007812 C 75.210938 36.121094 75.996094 16.089844 68.785156 1.226562 L 69.453125 0.902344 L 69.511719 1.640625 M 69.378906 0.160156 L 69.882812 0.117188 L 70.101562 0.574219 C 77.519531 15.882812 76.660156 36.316406 73.109375 52.320312 C 67.246094 78.703125 53.019531 103.132812 31.121094 119.359375 L 30.675781 118.765625 L 31.121094 119.359375 C 24.519531 124.242188 17.335938 128.417969 9.742188 131.570312 C 8.808594 131.957031 7.566406 132.28125 6.335938 132.59375 C 4.175781 133.140625 2.117188 133.6875 1.035156 134.546875 L 0.578125 133.96875 L 0.117188 133.394531 C 14.671875 121.84375 19.765625 103.207031 19.867188 85.128906 L 20.609375 85.128906 L 19.867188 85.128906 C 19.972656 69.863281 18.167969 49.863281 9.859375 37.054688 L 10.484375 36.65625 L 9.859375 37.054688 C 9.519531 36.535156 9.195312 36.046875 8.867188 35.574219 C 6.914062 32.71875 5.449219 30.601562 7.949219 26.75 L 8.574219 27.152344 L 7.949219 26.75 C 22.476562 4.304688 69.304688 0.160156 69.363281 0.160156 Z M 69.378906 0.160156 " clip-rule="nonzero"/></clipPath><clipPath id="c612dfc3dd"><rect x="0" width="76" y="0" height="135"/></clipPath></defs><g clip-path="url(#448c6f1139)"><g clip-path="url(#3c4fc82a8b)"><g transform="matrix(1, 0, 0, 1, 89, 126)"><g clip-path="url(#2b2de9b760)"><g clip-path="url(#dffe3bd33c)"><g clip-path="url(#496dd6cda4)"><rect x="-171.5" width="540" fill="#e48f38" height="539.999987" y="-208.499998" fill-opacity="1"/></g></g></g></g></g></g><g clip-path="url(#d1788be77a)"><g clip-path="url(#4d2405197b)"><g transform="matrix(1, 0, 0, 1, 159, 65)"><g clip-path="url(#84a098d9b1)"><g clip-path="url(#86f898cc3f)"><g clip-path="url(#87931a5803)"><rect x="-241.5" width="540" fill="#e48f38" height="539.999987" y="-147.499998" fill-opacity="1"/></g></g></g></g></g></g><g clip-path="url(#cea734b344)"><g clip-path="url(#25f4f69a5a)"><g transform="matrix(1, 0, 0, 1, 158, 64)"><g clip-path="url(#cc510108de)"><g clip-path="url(#0e85d32893)"><g clip-path="url(#bab24abdc0)"><rect x="-240.5" width="540" fill="#e48f38" height="539.999987" y="-146.499998" fill-opacity="1"/></g></g></g></g></g></g><g clip-path="url(#14ac41277b)"><g clip-path="url(#ff9a508ff5)"><g transform="matrix(1, 0, 0, 1, 61, 121)"><g clip-path="url(#c77348a4ff)"><g clip-path="url(#6db1bdfb10)"><g clip-path="url(#5cc51dd524)"><rect x="-143.5" width="540" fill="#42a6ac" height="539.999987" y="-203.499998" fill-opacity="1"/></g></g></g></g></g></g><g clip-path="url(#51e76f435a)"><g clip-path="url(#1558c5aabc)"><g transform="matrix(1, 0, 0, 1, 61, 121)"><g clip-path="url(#23feef39e2)"><g clip-path="url(#eb4f2ef3c0)"><g clip-path="url(#ab2dd0cba2)"><rect x="-143.5" width="540" fill="#42a6ac" height="539.999987" y="-203.499998" fill-opacity="1"/></g></g></g></g></g></g><g clip-path="url(#810e3d4275)"><g clip-path="url(#717cdb6f5f)"><g transform="matrix(1, 0, 0, 1, 238, 121)"><g clip-path="url(#eaf44bae7b)"><g clip-path="url(#635f288351)"><g clip-path="url(#32bb735d5e)"><rect x="-320.5" width="540" fill="#42a6ac" height="539.999987" y="-203.499998" fill-opacity="1"/></g></g></g></g></g></g><g clip-path="url(#6e257f9d1d)"><g clip-path="url(#5e0f161a95)"><g transform="matrix(1, 0, 0, 1, 238, 121)"><g clip-path="url(#c612dfc3dd)"><g clip-path="url(#d8fb730bc2)"><g clip-path="url(#6799f2cbe1)"><rect x="-320.5" width="540" fill="#42a6ac" height="539.999987" y="-203.499998" fill-opacity="1"/></g></g></g></g></g></g></svg>