<?xml version="1.0" encoding="utf-8"?>
<!-- Generator: Adobe Illustrator 22.0.0, SVG Export Plug-In . SVG Version: 6.00 Build 0)  -->
<svg version="1.1" id="Layer_1" xmlns="http://www.w3.org/2000/svg" xmlns:xlink="http://www.w3.org/1999/xlink" x="0px" y="0px"
	 viewBox="0 0 800 800" enable-background="new 0 0 800 800" xml:space="preserve">
<path id="XMLID_346_" fill="#FFD040" d="M21.9,393.7c0,206.8,168.2,375,375,375c206.8,0,375-168.2,375-375
	c0-206.8-168.2-375-375-375C190.1,18.7,21.9,186.9,21.9,393.7z"/>
<g id="XMLID_3_">
	<path id="XMLID_397_" fill="#C10230" d="M396.9,14.5c-209.1,0-379.1,170.1-379.1,379.1c0,209,170.1,379.1,379.1,379.1
		c209.1,0,379.1-170.1,379.1-379.1C776,184.6,605.9,14.5,396.9,14.5z M396.9,764.5C192.4,764.5,26,598.1,26,393.7
		C26,189.2,192.4,22.8,396.9,22.8c204.5,0,370.8,166.4,370.8,370.9C767.7,598.1,601.3,764.5,396.9,764.5z"/>
	<path id="XMLID_396_" fill="#C10230" d="M170.5,134.9l28.7,33.2l7-5.9l-19.6-23.6c-1.6-2.1-2.2-4.7-1.7-8c0.5-3.7,2.1-6.6,5-8.9
		c3.7-2.9,8.1-3,11.6,1.4l19.7,27.4l7-4.9l-19.8-28.3c-6.4-8.2-15-8.6-22.7-2.6c-4.1,3.2-6.6,7.6-7.5,13l-3.6-4.2l-11.3,9.7l0.7,0.9
		C163.8,134.1,168.1,132.4,170.5,134.9z"/>
	<path id="XMLID_395_" fill="#C10230" d="M412.1,95c17.2,1.3,26.3-5.1,27.2-17.5c0.6-8.6-4.2-14.4-14.2-17.3
		c-8.4-2.4-10.1-2.9-10.4-3c-3-1.1-4.1-2.1-4-2.7c0-0.6,1-1.3,2.6-1.8c2-0.7,4.4-0.9,7-0.7c6.8,0.5,12.2,3,15.8,7.4l1.9,2.3
		l0.8-10.3l-0.3-0.4c-3.5-4.3-9.5-6.7-17.9-7.4c-4.8-0.4-9,0.4-12.6,2.3c-3.8,1.9-5.8,4.8-6.1,8.4c-0.3,3.7,1.4,6.7,5,8.7
		c0.9,0.5,2,1,3.5,1.6l1.6,0.6c1.6,0.6,3.6,1.1,5.8,1.7c8.8,2.3,13.1,5.7,12.7,10c-0.6,7.8-7.6,11.4-20.6,9.9l0.3-17.4l-9.1,0
		l-0.3,24.3l1,0.2C405.2,94.5,408.9,94.8,412.1,95z"/>
	<path id="XMLID_394_" fill="#C10230" d="M90.3,239.8l39.1,21l4.3-7.9l-19.3-10.4c-0.7-2.8-2.1-9-3.7-15.7c2.6-2.3,7.3-4.9,11.3-2.5
		l20.8,12.3l4.6-7.3L125,215.7c-5.9-3.7-12.3-1.2-16.4,2c-2-8.6-3.6-16-3.6-16l-6.5,10.2l5.8,25.2L89,228.8l-6.1,12.4l1,0.5
		C83.9,241.8,87.1,238.5,90.3,239.8z"/>
	<path id="XMLID_393_" fill="#C10230" d="M656.7,183c1.9-1,4-1,6.2,0c2.4,1.1,4.5,2.9,6.3,5.4c1.9,2.7,3,5.2,3.3,7.5
		c0.2,2.1-0.4,4-1.9,5.1c-0.7,0.5-2.7,1.6-6.9-2.4c-2.6-2.9-5.3-5.8-8-8.7c-7.2-7.4-14.5-8.5-21.8-3.2c-7.9,5.7-8.7,13.4-2.3,22.3
		c1.3,1.9,3,3.9,4.9,6l0.7,0.8l7.2-5.2l-1.2-1c-2-1.6-3.6-3.3-4.8-5c-4.4-6-1.7-9,0.7-10.7c3.8-2.8,7.7-1.8,12,3
		c4.7,5.3,8.2,9,10.4,11.1l-15.1,10.2c-1.8,1.4-4.7,4.6-2.2,8l2.5,3.5l2,2.8l0.9-0.6c0,0-1-3.6,1.5-6l23.9-15.6
		c3.6-2.6,5.9-6.5,6.3-10.5l0,0.2c2.7,0.6,5,0.2,6.9-1.2l1-0.7l-5.5-7.6l-1,0.7c-0.9,0.6-1.8,0.7-2.8,0.2c-0.9-2.2-2.3-5.4-3.9-7.7
		c-3-4.2-6.6-7.1-10.5-8.7c-4.6-1.9-9.3-1.7-13.8,0.6l-1.2,0.6l5.3,7.3L656.7,183z"/>
	<path id="XMLID_392_" fill="#C10230" d="M542.6,83.3l-16.1,33.4c-2.2,3.6-7.1,2.4-7.1,2.4l-0.5,0.9l12.3,6.1l2.2-4.3
		c1.7,5.2,4.9,9.1,9.4,11.7c8.5,4.8,15.7,2.5,20.7-6.6l17.8-29.1l-8-5l-17.5,29.5c-2.7,4.9-5.9,6.1-9.9,3.8
		c-3.2-1.8-5.3-4.4-6.3-8.1c-0.9-3.2-0.8-5.9,0.4-8.1L553.8,82l-12.6-6.2l-0.5,0.9C540.7,76.8,544,80.1,542.6,83.3z"/>
	<path id="XMLID_391_" fill="#C10230" d="M297.2,74.7l8.7-2.2l-0.1-1c-0.2-2.2,0.6-4,2.4-5.8c1.9-1.8,4.4-3.1,7.4-3.9
		c3.2-0.8,7.3-1.2,9.5-0.6c2,0.6,3.2,1.7,3.7,3.4c0.2,0.8,0.8,3.3-4.5,5.7c-3.6,1.4-8.6,3.1-12.4,4.4c-9.5,3.9-13.2,10.3-11.1,19.1
		c2.4,9.5,9.2,13.1,19.8,10.5c2.2-0.6,4.7-1.3,7.4-2.3l1-0.4l-2.2-8.6l-1.3,0.7c-2.3,1.2-4.4,2.1-6.5,2.6c-7.2,1.8-9-1.8-9.7-4.6
		c-1.1-4.6,1.2-7.8,7.3-10c6.6-2.4,11.9-4.5,14.5-6.3l3.8,18.2c0.7,2.2,2.5,6.1,6.7,5l6.8-1.3l-0.3-1.1c0,0-3.2-0.2-4.5-4.2
		l-5.8-28.8c-1.3-5.2-4.4-8.6-9.3-10.1c-3.8-1.2-9.7-0.9-15,0.5c-5,1.3-9,3.4-12,6.5c-3.5,3.6-5.1,8-4.6,13.1L297.2,74.7z"/>
	<path id="XMLID_390_" fill="#C10230" d="M671.7,223.6c-6.5,3.2-10.9,7.5-13.3,12.9c-2.5,5.9-2.1,12.2,1.2,18.8
		c0.6,1.2,1.3,2.4,2,3.6l0.6,0.9l7.6-3.8l-0.9-1.1c-0.7-0.9-1.3-1.9-1.8-2.9c-1.9-3.9-2.1-7.6-0.6-11.2c1.5-3.7,4.6-6.7,9.2-9
		c3.6-1.8,7.4-2.4,11.2-1.8c3.4,0.6,5.5,1.6,8,4.4l-5.6,10.3l8,2.7l-28.6,13.9c-1.9,1.3-4,3.7-2.4,6.9l1.8,3.5l1.5,3.1l1-0.5
		c0,0-0.2-3.3,2.7-5.1l39.9-18.1l-3.7-7.4l-10.1-3.2l4.9-8.6l-0.4-0.5c-3.8-5.6-8.6-8.6-14.3-10C683.5,220,677.6,220.7,671.7,223.6z
		"/>
	<path id="XMLID_389_" fill="#C10230" d="M70.1,289.1l36.6,11.8c3.2,1.5,3.2,6.6,3.2,6.6l1,0.4l1.6-4.5l2.9-8.4l0-0.1l-4.6-1.6
		c4.8-2.6,8.1-6.3,9.9-11.2c3.2-9.2-0.3-15.9-10-19.3l-31.5-13.8l-3.7,8.5l31.9,13.7c5.3,1.8,7,4.7,5.4,9.1
		c-1.2,3.5-3.5,5.9-6.9,7.6c-3,1.5-5.7,1.8-8.1,1L68,278.5l-0.3-0.3l-4.3,13.4l1,0.4C64.5,291.9,66.7,288.3,70.1,289.1z"/>
	<path id="XMLID_388_" fill="#C10230" d="M346.7,42.3l2.8-7.6c-23.5,4.1-26.1,4.8-26.1,4.8l-1.2-4.7l-9.4,2.2l3,11.6
		C315.9,48.6,324.8,45.7,346.7,42.3z"/>
	<path id="XMLID_387_" fill="#C10230" d="M460.1,101.7c1.3,0.3,4.5,0.8,7.7,0.5c2.6-0.3,5.3-1.3,6.2-1.7c4.4-2,7.3-5.9,8.5-11.6
		c1.9-8.6-2.4-15-12.6-19.1c-3.7-1.5-6.3-2.6-7.5-3.6c-2.8-1.9-2.5-3.4-2.4-3.9c0.4-1.6,1.4-2.6,3.5-3.2c1.9-0.6,4.3-0.6,6.9,0
		c5.6,1.3,9.9,4,12.8,8.2l1.5,2.3l2.2-10l-0.4-0.5c-3.6-4.1-8.7-7-15.2-8.4c-4.7-1-8.9-0.7-12.7,0.9c-3.9,1.7-6.3,4.6-7.2,8.6
		c-1,4.6,0.4,8.5,4.1,11.6c2.2,1.8,6,3.8,11.6,6c5.5,2.2,7.8,5.3,6.9,9.3c-0.8,3.6-2.9,8.2-12.6,6c-5.7-1.3-10.3-3.6-13-7.7
		l-1.5-2.3l-2.2,10.2l0.4,0.5C448.1,97.5,453.2,100.2,460.1,101.7z"/>
	<path id="XMLID_386_" fill="#C10230" d="M735.5,295.3c0.8-0.2,1.3-0.2,1.8,0.1c0.5,0.3,0.8,1,1.1,1.9l1.1,4l8.7,2l-3.2-10.5
		c-0.7-2.6-2-4.6-3.8-5.9c-1.9-1.3-4-1.6-6.3-1l-3.8,1l2.4,8.9L735.5,295.3z"/>
	<path id="XMLID_385_" fill="#C10230" d="M706,266c-4.4,1.6-6.9,4.8-7.5,9.5c-0.3,2.8,0,7,1.2,13c1.1,5.8-0.3,9.3-4.1,10.7
		c-2.7,1-4.9,0.8-6.8-0.4c-2-1.2-3.6-3.7-4.9-7.3c-2-5.5-1.9-10.5,0.1-15l1.4-3.1l-10,4l-0.2,0.6c-1.4,4.7-1,10.5,1.4,17.1
		c1.8,5.1,4.4,8.8,7.8,11.1c2.5,1.6,5.2,2.4,8.1,2.3c1.9,0,3.9-0.4,6.1-1.2c8.2-2.9,11.3-9.9,9.2-20.7c-0.8-3.9-1.1-6.7-1-8.3
		c0.1-3.4,1.5-3.9,2-4.1c1.5-0.5,3-0.1,4.5,1.3c1.5,1.3,2.8,3.3,3.7,5.8c1.9,5.4,1.9,10.5,0,15.1l-1.1,2.5l9.2-2.7l0.4-1.3
		c1.5-5.2,1.2-11-1.1-17.3c-1.6-4.5-4.1-7.9-7.5-10.3C713.6,265.2,709.8,264.6,706,266z"/>
	<path id="XMLID_384_" fill="#C10230" d="M137.2,164.4l-0.2,2.5l7.2,6.8l0.2-4.5c0.1-4.4,1.8-8.3,4.9-11.6
		c5.5-5.8,12.4-5.1,20.8,2.9c8.4,8,9.6,15.2,4.1,20.9c-3.4,3.5-7.2,5.4-11.3,5.5l-2.9,0.1l7.3,7l0.6-0.2c4.8-1.2,8.9-3.5,12-6.8
		c4.7-5,6.8-10.3,6.1-15.8c-0.7-5.4-4.1-11-10.1-16.8v0c-6-5.7-11.9-8.9-17.3-9.3c-5.5-0.5-10.7,1.8-15.5,6.8
		C140.1,155.3,138.1,159.5,137.2,164.4z"/>
	<path id="XMLID_383_" fill="#C10230" d="M151.9,135l-5.4-5.6c-15.4,15.2-23.2,24.5-23.2,24.5l3,8.8
		C126.3,162.7,130.2,156.7,151.9,135z"/>
	<path id="XMLID_382_" fill="#C10230" d="M484.9,102.9c2.6,4.2,7.3,7.7,13.9,10.2c1.2,0.5,4.3,1.5,7.5,1.6c2.6,0.1,5.4-0.5,6.4-0.8
		c4.7-1.4,8.1-4.8,10.1-10.2c3.1-8.2-0.1-15.2-9.7-20.8c-3.5-2-5.8-3.5-6.9-4.7c-2.5-2.3-2-3.7-1.8-4.2c0.6-1.5,1.8-2.4,3.9-2.6
		c2-0.3,4.3,0,6.8,1c5.4,2.1,9.2,5.4,11.4,10l1.2,2.5l3.6-9.5l-0.3-0.5c-2.9-4.6-7.6-8.2-13.8-10.6c-4.4-1.7-8.7-2.1-12.7-1
		c-4.1,1.1-7,3.6-8.4,7.5c-1.7,4.4-0.9,8.5,2.3,12.1c1.9,2.1,5.4,4.6,10.6,7.7c5.1,3,6.9,6.3,5.4,10.2c-1.3,3.4-4,7.7-13.3,4.1
		c-5.4-2.1-9.6-5.1-11.7-9.6l-1.2-2.5l-3.7,9.8L484.9,102.9z"/>
	<path id="XMLID_381_" fill="#C10230" d="M118.3,196.2L118.3,196.2c0.5-1.5,1.2-3,2.3-4.5c1.5-2.1,3.4-3.8,5.1-4.3
		c2-0.6,4.1-0.1,6.4,1.3l28.3,21.9l4.6-5.9l2.8-3.5l-0.9-0.7c0,0-3,1.6-5.9-0.3l0,0l-23.7-18.9c-3.5-2.6-7.2-3.4-10.5-3.2
		c-4.5,0.3-8.4,2.7-12.3,7.9c-2.4,3.3-4.3,8.8-4.7,12.3l-0.1,0.7l7.3,5.4C117.2,199,118.3,196.2,118.3,196.2z"/>
	<path id="XMLID_380_" fill="#C10230" d="M261.2,80.1L261.2,80.1c1.2-1,2.6-1.9,4.4-2.6c2.4-1,4.9-1.4,6.6-1c2,0.5,3.7,1.9,4.8,4.5
		l12.4,33.1l0.6-0.2l0,0l5.4-2.1l2.1-0.8l0,0l3.3-1.3l-0.4-1c0,0-3.4-0.1-4.9-3.3l0,0l-10.2-28.1c-1.7-3.9-4.4-6.6-7.3-8.1
		c-3.9-2.1-8.6-2.1-14.6,0.3c-3.8,1.5-8.2,5.2-10.5,8l-0.4,0.5l3.4,8.4C258.9,81.9,261.2,80.1,261.2,80.1z"/>
	<path id="XMLID_379_" fill="#C10230" d="M629.9,146.7L629.9,146.7c1.4,0.7,3.5,2.2,4.9,3.5c1.8,1.9,3.1,4,3.3,5.7c0.3,2-1,4-3,6
		l-23.8,23l0.2,0.2l0,0l4,4.2l1.5,1.6l0,0l2.5,2.6l0.8-0.7c0,0-1.2-3.2,1.1-5.8l20.6-18.5c3.1-3.1,4.5-6.6,4.8-9.9
		c0.5-4.5-1.7-9.4-6.3-14c-2.9-2.9-8-5.6-11.4-6.6l-0.7-0.2l-6.4,6.4C627.3,145.2,629.9,146.7,629.9,146.7z"/>
	<path id="XMLID_378_" fill="#C10230" d="M220.3,114.3c1.2,0.4,2.4,0.5,3.6,0.4c-2.3,4.5-1.9,9.3,1,14.3c2.3,4,5.3,6.5,8.8,7.4
		c1.2,0.3,2.5,0.4,3.8,0.4c3.4-0.1,7.3-1.5,11.5-4l17.5-9.7l-19.9-39.2l0,0c-1.2-3.3,2.2-6.5,2.2-6.5l-0.5-1l-4.4,2.2l0,0l-1.6,0.8
		l-6.4,3.1l0,0l-0.8,0.4l19.2,37.3l-7.4,4.5c-3.1,1.9-5.7,3-7.6,3.3c-3,0.4-5.4-1-7.2-4.1c-1.5-2.5-1.6-5-0.4-7.7
		c1.2-2.7,3.2-4.7,5.9-6l1.8-0.9l-7.1-5.1l-0.7,0.5c-0.5,0.4-1,0.7-1.6,1c-5.1,3-7,1-8-0.7c-1-1.7-1.7-4.3,3.6-7.4
		c1.1-0.6,2.2-1.1,3.5-1.5l1.4-0.4l-4.2-7.2l-0.9,0.3c-1.6,0.5-3.1,1.2-4.5,2.1c-3.7,2.2-6.3,4.9-7.7,8.1c-1.4,3.4-1.1,6.8,0.9,10.3
		C215.6,111.8,217.6,113.5,220.3,114.3z"/>
	<path id="XMLID_377_" fill="#C10230" d="M353.6,65.6c0.9,0.8,1.9,1.5,3,1.9c-4,3.1-5.8,7.5-5.4,13.3c0.3,4.6,1.9,8.1,4.7,10.5
		c3,2.5,7.3,3.7,12.9,3.6c0.8,0,1.6-0.1,2.5-0.1l19.9-1l-1-43.9h0c0.3-3.5,4.7-4.9,4.7-4.9l0-1.1L384.2,44l-4,0.1l1.5,41.7l-8.6,0.8
		c-3.6,0.3-6.5,0.2-8.3-0.4c-2.9-1-4.4-3.3-4.7-6.8c-0.2-2.9,0.8-5.3,3-7.1c2.3-1.9,4.9-2.9,8-2.8l2,0l-4.1-7.7l-0.9,0.2
		c-0.6,0.1-1.2,0.2-1.9,0.2c-2.3,0.2-4.1-0.1-5.2-0.8c-1-0.7-1.6-1.7-1.7-3.3c-0.1-1.5,0.3-2.7,1.3-3.5c1.1-0.9,2.8-1.4,5.2-1.6
		c1.3-0.1,2.5,0,3.8,0.2l1.5,0.2l-0.6-8.3l-1-0.1c-1.7-0.2-3.3-0.2-5-0.1c-4.3,0.3-7.8,1.6-10.4,4c-2.8,2.4-4,5.6-3.7,9.6
		C350.5,61.3,351.6,63.7,353.6,65.6z"/>
	<path id="XMLID_376_" fill="#C10230" d="M570.5,150l8.5-11.8c0,0,3.2-5,7.2-1.8l5.5,4.2l5.4-6.6l-6.4-5c-1.7-1.3-3.3-1.3-4.6-0.8
		l4.2-5.5c2.1-2.7,6.8-6,14.3-0.2c7.5,5.8,5.6,10.8,3.6,13.5l-21.9,26.1l6,5l3.1,2.6l0.7-0.8c0,0-1.5-2.9,0.4-5.8l19.1-22.1
		c2.8-3.7,3.8-7.8,2.7-12.1c2.4-0.3,4.3-1.3,5.6-3l0.7-0.9l-7.4-5.8l-0.7,0.9c-0.6,0.8-1.3,1.1-2.4,1c-1.2-1.5-2.8-3.3-4.6-4.7
		c-3.8-2.9-8.5-5.3-12.8-5.4c-5.4-0.2-9.8,1.4-13,5.6l-20,28.3L570.5,150z"/>
	<path id="XMLID_375_" fill="#C10230" d="M108.8,514.5l7.6-2.8l-12.3-34.6l-12.7,3.7l0.4,1c0,0,4.8,0.7,6.4,3.7l2.7,7.4l-38.5,13.4
		l3.5,9.6l38.3-14L108.8,514.5z"/>
	<path id="XMLID_372_" fill="#C10230" d="M154.5,576.6l-10.8-14.7l-0.9,0.6c0,0,1.6,4.4-1,6.7l0,0l-41.3,15.2l-0.2,0.1l5.4,7.7
		l10.3-3.9l8.9,11.8l-7,8.8l5.7,7.3l30.8-39.6L154.5,576.6z M130,593.8l-6.4-8.4l19.6-7.6L130,593.8z"/>
	<path id="XMLID_371_" fill="#C10230" d="M188.1,614.2l-30,16.5l16.9-29.1l0-0.4l-11.7-13.1l-0.8,0.8c0,0,2.2,4.1-0.1,6.7
		l-31.9,28.6l5.8,6.4l27.5-25.1l-19.3,33.6l5.2,5.1l33.8-18.7l-24.6,27.3l6.7,5.9l31.9-35.9L188.1,614.2z"/>
	<path id="XMLID_370_" fill="#C10230" d="M449.1,692.3l-9.2,1.4l4.5,30.3c0.7,7.3-1.9,10.3-8.3,10.9c-6.4,0.6-10.3-1.2-11-8.5
		l-2.2-30.7l-14.3,0.9l0.1,1.1c0,0,4.6,0.9,5.3,4.3l1.5,25c0.7,7,5.2,17.6,21.3,15.9c16.1-1.6,17.7-13.3,17-20.3L449.1,692.3z"/>
	<path id="XMLID_369_" fill="#C10230" d="M486.6,683.3l10.9,32.4l-27.2-27.7l-0.1-0.1l-14.7,3.4l0.3,1c0,0,4.7,0.1,5.9,3.4l0,0
		l9.3,40.2l9.1-2.1l-7.5-32.3l26.3,27.1l11.3-3.7l-14.5-44.8L486.6,683.3z"/>
	<path id="XMLID_368_" fill="#C10230" d="M591.2,675.3l-7.5-10.4l14.5-10.5l-4.8-6.5L579.8,658l-6.1-8.8l17.6-12.9l-4.7-6.2
		l-29.3,20.7l0.8,1c-0.1,0,4-2,6.7,1l23.1,34.3l27.7-20.4l-5.2-6.2L591.2,675.3z"/>
	<path id="XMLID_365_" fill="#C10230" d="M629.5,610.7c-6.3-6.6-14-6.6-21.2,0.1l-17.6,16.5l0.7,0.8c0,0,4.1-2,6.7,0.2l27.9,31
		l7.6-6.5l-13.1-14.1l5.8-5.4l19.5,7.8l7.2-7.6l-21.5-7.8C634.5,620.8,633.7,615.2,629.5,610.7z M620.3,628.3l-5.1,4.7l-8.8-9.8
		l6-5.6c3.7-3.4,7.1-3.6,10.1-0.4C625.2,620.1,625.9,623.1,620.3,628.3z"/>
	<path id="XMLID_364_" fill="#C10230" d="M502,677.9l0.4,1c0,0,4.6-0.4,6.3,2.7l15.4,38.8l9.2-3.8l-18.3-43.9L502,677.9z"/>
	<path id="XMLID_363_" fill="#C10230" d="M554.2,652.9l-8.3,4.8l9.1,33.8l-21.6-23.3l0,0c-2.9-2.6-5.9-1-5.9-1l-8.2,3.9l0.5,1
		c0,0,3.8-0.7,5.9,1.3l30.6,32.2l9.6-5.1l-11.7-47.3L554.2,652.9z"/>
	<path id="XMLID_362_" fill="#C10230" d="M646.4,566.1l0.9,0.6c0,0,3.6-3,6.7-1.3l35.3,23.6l5.7-8.8l-40.7-25.6L646.4,566.1z"/>
	<path id="XMLID_361_" fill="#C10230" d="M231.9,648.4l-26.3,21.7l11.2-32.1l0-0.1l-14.3-11l-0.6,0.9c0,0,2.9,3.6,1.2,6.7
		l-26.3,33.3l6.8,5.3l22.8-28.7l-12.3,36l0,0.1l5.9,4.1l29.6-24.1l-19,31l7.2,4.3l24.3-41.1L231.9,648.4z"/>
	<path id="XMLID_358_" fill="#C10230" d="M252.6,660.6l-0.5,1c0,0,3.3,3.3,2.1,6.5l0,0l-29.1,31.9l8.3,4.4l7-8l13.4,6.6l-2.5,10.4
		l8.8,3.8l8.7-48.5L252.6,660.6z M255.5,695.1l-9.7-4.7l13.6-15.3L255.5,695.1z"/>
	<path id="XMLID_357_" fill="#C10230" d="M293.5,697.9c-4.1-3.5-8.1-6.2-6.9-9.3c1.3-3.4,5.9-2.9,8.2-2.1c0.7,0.2,4.6,1.6,7.8,4.1
		c2.6,2.1,4.6,4.6,5.5,6l3-8.7c-3.7-4.3-6.9-6.5-14-8.9c-8.7-3-17.6-0.4-19.3,7.4c-1.7,7.7,4.5,12.7,10,17.5
		c4.5,3.9,8.9,7.4,7.5,11.2c-1.7,4.8-7,4.9-10.6,3.6c-3.3-1.2-7-4.1-9.4-7.9c-1.9-3.1-2.8-5.5-3-6.1l-3.8,9.2
		c1.7,5.9,9.4,11,13.4,12.3c10.8,3.6,19.1,0.5,22.2-8.6C307.2,709.3,299.2,702.6,293.5,697.9z"/>
	<path id="XMLID_354_" fill="#C10230" d="M339.9,691.3l-17.9-3.6l-0.2,1.1c0,0,4.1,2.2,3.8,5.7l0,0l-20.1,38.1l9.1,2.2l4.9-9.8
		l14.5,3.1l0.5,10.6l0,0.1l9.2,1.6l-3.8-49L339.9,691.3z M323.1,717.7l9.2-17.8l1.2,20.1L323.1,717.7z"/>
	<path id="XMLID_353_" fill="#C10230" d="M348.9,706.3l1.1,0.1c0,0,1.7-4.2,5.1-4.3l8.3,0.7l-3.8,39.6l9.5,0.9l3.8-39.6l13.4,1.3
		l0.4-8l-36-3.4L348.9,706.3z"/>
	<path id="XMLID_352_" fill="#C10230" d="M681.6,520.9l-7.4-3.5l-16.6,31.4l11.4,6.4l0.5-1c0,0-3.2-3.2-2-6.4l3.7-6.9l35.9,18.7
		l4.4-8.7l-35.9-18.1L681.6,520.9z"/>
	<path id="XMLID_351_" fill="#C10230" d="M688.6,478.1l-2.8,9.5l14.1,15.9l-16.4,0.8c-3.9,0-5.1,3.2-5.1,3.2l-3.6,8.4l1,0.4
		c0,0,2.1-2.3,4.7-2.7l26.3-2l19,7.1l3.5-9.1l-18.4-6.4L688.6,478.1z"/>
	<path id="XMLID_350_" fill="#C10230" d="M670.9,590.9c-7-5.8-16.7-0.9-23.2,2.7c-4.7,2.6-8.6,5.4-11.1,3.2
		c-2.8-2.5-0.6-6.5,0.9-8.4c0.4-0.5,3.1-3.8,6.6-5.8c2.8-1.7,5.9-2.7,7.6-3l-7.7-5.6c-5.3,1.9-7.9,3.9-12.7,9.7
		c-5.9,7.1-6.5,16.3,0.2,20.7c6.6,4.3,13.5,0.3,19.9-3.3c5.2-2.8,10.7-5.5,13.8-2.9c4,3.3,1.4,8-1,10.9c-2.3,2.7-7.2,5.3-11.6,6.2
		c-3.6,0.7-6.1,0.7-6.7,0.6l8,6.6c6.2,0.4,13.9-4.9,16.5-8.1C677.6,605.6,678.4,597,670.9,590.9z"/>
	<path id="XMLID_349_" fill="#C10230" d="M131.5,542.9l-16.4,9.5l-8.4-15.7l17-8.3l-6.3-12.9l-1,0.5c0,0,0.8,4.6-2.2,6.4L76.2,541
		l4.2,8.6l18.7-9.1l8.7,16.2l-18,10.4l4.8,8.3l41.9-24.2L131.5,542.9z"/>
	<path id="XMLID_348_" fill="#C10230" d="M69,399.9c3.8,0,6.9-3.1,6.9-6.9c0-3.8-3.1-6.9-6.9-6.9c-3.8,0-6.8,3.1-6.8,6.9
		C62.1,396.8,65.2,399.9,69,399.9z"/>
	<path id="XMLID_347_" fill="#C10230" d="M69,384.2c3.3,0,5.9-2.7,5.9-6c0-3.3-5.9-15.5-5.9-15.5S63,374.8,63,378.2
		C63,381.5,65.7,384.2,69,384.2z"/>
	<path id="XMLID_345_" fill="#C10230" d="M54.2,387c-3.3,0-15.5,5.9-15.5,5.9s12.2,5.9,15.5,5.9c3.3,0,6-2.6,6-5.9
		C60.1,389.7,57.5,387,54.2,387z"/>
	<path id="XMLID_344_" fill="#C10230" d="M68.9,401.7c-3.3,0-5.9,2.7-5.9,6c0,3.3,5.9,15.5,5.9,15.5s5.9-12.2,5.9-15.5
		C74.9,404.4,72.2,401.7,68.9,401.7z"/>
	<path id="XMLID_343_" fill="#C10230" d="M77.7,393c0,3.3,2.7,5.9,6,5.9c3.3,0,15.5-5.9,15.5-5.9S87.1,387,83.7,387
		C80.4,387,77.7,389.7,77.7,393z"/>
	<path id="XMLID_342_" fill="#C10230" d="M724.2,386.1c-3.8,0-6.8,3.1-6.8,6.9c0,3.8,3.1,6.9,6.8,6.9c3.8,0,6.9-3.1,6.9-6.9
		C731.1,389.2,728,386.1,724.2,386.1z"/>
	<path id="XMLID_341_" fill="#C10230" d="M718.3,378.2c0,3.3,2.6,6,5.9,6c3.3,0,5.9-2.7,5.9-6c0-3.3-5.9-15.5-5.9-15.5
		S718.3,374.9,718.3,378.2z"/>
	<path id="XMLID_340_" fill="#C10230" d="M693.9,393c0,0,12.2,5.9,15.5,5.9c3.3,0,6-2.6,6-5.9c0-3.3-2.7-5.9-6-5.9
		C706.1,387.1,693.9,393,693.9,393z"/>
	<path id="XMLID_339_" fill="#C10230" d="M724.2,401.8c-3.3,0-5.9,2.7-5.9,6c0,3.3,5.9,15.5,5.9,15.5s5.9-12.2,5.9-15.5
		C730.1,404.5,727.5,401.8,724.2,401.8z"/>
	<path id="XMLID_338_" fill="#C10230" d="M739,387.1c-3.3,0-6,2.6-6,5.9c0,3.3,2.7,5.9,6,5.9c3.3,0,15.5-5.9,15.5-5.9
		S742.3,387.1,739,387.1z"/>
	<path id="XMLID_179_" fill="#C10230" d="M682.1,393.6c0-157.3-127.9-285.2-285.2-285.2c-157.3,0-285.2,127.9-285.2,285.2
		c0,157.3,127.9,285.2,285.2,285.2C554.1,678.8,682.1,550.9,682.1,393.6z M614.8,559.9c0-0.1,0-0.3-0.1-0.4
		c-1.8-9.9-15.2-18.4-20.9-21.6c-10-5.7-15.8-11.8-16.6-17.8c-0.4-2.9,0.4-5.3,1.3-6.9l0.4-0.7c3,2.3,10.4,7.6,28.3,19.8
		c7.7,5.2,11.6,10.8,11.7,16.7C618.9,553.1,617,556.9,614.8,559.9z M509.3,547.3c-0.8,3.4-3.8,5.5-5.2,6.3l-22.3,12.9
		c-1.3,0.8-4.7,2.4-8.1,1.3c-2.5-0.8-4.6-3-6.3-6.6l-3.5-7.4c0.2-0.2,0.4-0.4,0.5-0.6c1.6-1.8,3-3.5,4.5-3.7
		c1.2-0.1,2.1-1.2,2.1-2.3c0-1.2-0.9-2.2-2.1-2.3c-1.4-0.2-2.9-1.9-4.5-3.7c-2.4-2.8-5.4-6.2-10.3-6.4v-7.9c17-2.5,28-7.2,35.4-13.5
		c0,0,0,0,0,0l17.2,25.2C509,541.8,509.8,544.8,509.3,547.3z M511.3,556.1c0.7,0,1.3,0.1,2,0.3c2,0.5,3.6,1.8,4.7,3.6
		c1,1.8,1.3,3.8,0.8,5.8c-0.5,2-1.8,3.6-3.6,4.7l-1.5,0.9c-0.1,0.1-0.2,0.1-0.3,0.2l-22.7,13.1c-3.7,2.1-8.4,0.9-10.5-2.8
		c-1-1.8-1.3-3.8-0.8-5.8c0.5-2,1.8-3.6,3.6-4.7l1.1-0.6c0,0,0,0,0,0l22.3-12.9c0,0,0,0,0,0l1-0.6
		C508.7,556.5,510,556.1,511.3,556.1z M460.8,550.2c-2.1,2.5-4.2,4.8-7.1,4.8H342.6c-3,0-5-2.3-7.1-4.8c-0.9-1-1.8-2.1-2.8-2.9
		c1-0.9,1.9-1.9,2.8-2.9c2.1-2.5,4.2-4.8,7.1-4.8h111.1c3,0,5,2.3,7.1,4.8c0.9,1,1.8,2.1,2.8,2.9
		C462.6,548.1,461.7,549.2,460.8,550.2z M345.6,616.6c7.6-4.9,12.6-13.2,14.9-24.6c3.2,7.6,11.6,12.9,19.3,17.6
		c5.6,3.5,11,6.8,13.4,10.5h-55.1C340.6,619.3,343.2,618.1,345.6,616.6z M324.2,616.9c5.1-2.1,10.8-6.2,13.5-14
		c0.5-1.5,0.9-2.9,1.4-4.4c1.1-3.8,2.3-7.7,4.7-11.8c3.6-6.1,9.4-12.1,13.3-14.2l0,8.1c-0.8,15.7-5.6,26.4-14.2,32
		C337.2,616.4,330.3,617.2,324.2,616.9z M382.3,605.6c-9.1-5.6-18.4-11.4-18.4-20.2v-15.1l31.4,0v29.8c0,1,0.8,1.8,1.8,1.8
		c1,0,1.8-0.8,1.8-1.8v-29.8l30.6,0c0,2.2,0,6.5,0,15.1c0,8.8-9.4,14.6-18.4,20.2c-5.8,3.6-11.3,7-14.3,11.2
		C393.5,612.6,388,609.1,382.3,605.6z M413.4,609.6c7.9-4.9,16.7-10.3,19.6-18.4c2.2,11.8,7.3,20.3,15.1,25.4
		c2.4,1.5,4.9,2.7,7.5,3.5h-55.5C402.4,616.4,407.8,613.1,413.4,609.6z M450.7,612.6c-8.6-5.5-13.3-16.3-14.1-31.8v-8.6
		c3.9,1.6,10.3,8.1,14.2,14.6c2.4,4.1,3.6,8,4.7,11.8c0.4,1.5,0.9,2.9,1.4,4.4c2.7,7.8,8.3,11.8,13.4,14
		C464,617.3,456.8,616.5,450.7,612.6z M398,565.4c-0.3-0.2-0.6-0.4-1-0.4s-0.7,0.1-1,0.4h-51.3v-5.7h104.7v5.7H398z M352.8,570.3
		h1.2c-4.7,3.1-10,9.3-13.2,14.6c-2.7,4.4-3.9,8.6-5.1,12.6c-0.4,1.4-0.9,2.9-1.3,4.3c-2.6,7.4-8.1,10.9-12.8,12.5
		c2.4-4.3,3.1-10.5,3.7-16.2c0.4-3.3,0.7-6.5,1.4-8.3C333.1,571.5,351.6,570.4,352.8,570.3z M480.4,624.8c3.4,0,6.1,2.7,6.1,6.1
		c0,3.4-2.7,6.1-6.1,6.1H313.8c-3.4,0-6.1-2.7-6.1-6.1s2.7-6.1,6.1-6.1H480.4z M460.2,601.7c-0.5-1.4-0.9-2.8-1.3-4.3
		c-1.2-4-2.4-8.1-5.1-12.6c-3.2-5.4-8.5-11.5-13.2-14.6h0.3c1.2,0.1,19.8,1.2,26.2,19.5c0.6,1.8,1,5,1.4,8.3
		c0.6,5.5,1.3,11.4,3.5,15.7C467.5,612,462.5,608.5,460.2,601.7z M327.4,544.9c-1.2,0.1-2.1,1.2-2.1,2.3c0,1.2,0.9,2.2,2.1,2.3
		c1.1,0.1,2.2,1.1,3.3,2.4l-4.5,9.3c-1.7,3.6-3.8,5.8-6.3,6.6c-3.3,1.1-6.7-0.6-8-1.3l-21.3-12.3l-1-0.6c-1.3-0.8-4.4-2.9-5.2-6.3
		c-0.6-2.6,0.3-5.5,2.6-8.8l17.3-25.4c7.4,6.5,18.4,11.2,35.6,13.8v8.2c-3.6,1-6.1,3.7-8.1,6.1C330.3,543,328.8,544.7,327.4,544.9z
		 M313.4,581.7c-2.1,3.7-6.8,4.9-10.5,2.8l-22.7-13.1c0,0-0.1,0-0.1-0.1l-1.6-1c-1.8-1-3-2.7-3.6-4.7c-0.5-2-0.3-4.1,0.8-5.8
		c1.4-2.5,4-3.8,6.7-3.8c1.3,0,2.6,0.3,3.8,1l22.3,12.9l1,0.6l0,0l1.1,0.6C314.3,573.3,315.5,578,313.4,581.7z M206,487.5
		c-1-1.8-1.3-3.8-0.8-5.8c0.5-2,1.8-3.6,3.6-4.7c1.2-0.7,2.5-1,3.8-1c0.7,0,1.3,0.1,2,0.3c2,0.5,3.6,1.8,4.7,3.6l14.1,24.4
		c1,1.8,1.3,3.8,0.8,5.8c-0.5,2-1.8,3.6-3.6,4.7c-3.7,2.1-8.4,0.9-10.5-2.8L206,487.5z M212.2,508.4L185.8,527
		c-0.6,0.4-1.2,0.8-1.9,1.3c-0.4,0.3-0.8,0.6-1.2,0.9l-1,0.7c-7.9,5.5-18.3,2.3-22.2,0.8c0.6-4.1,3.1-14.7,11.8-18.8l33.9-15.7
		L212.2,508.4z M224,478.6c-0.8-1.3-2.4-4.7-1.3-8.1c0.8-2.5,3-4.6,6.6-6.3l49.1-23.6c0.6,1.4,1.2,2.8,1.8,4.3
		c3.5,10,5.3,19.3,7.1,28.4c0.3,1.8,0.7,3.6,1,5.3l-36.4,24.8c-3.2,2.3-6.2,3.1-8.7,2.6c-3.4-0.8-5.5-3.8-6.3-5.2L224,478.6z
		 M284.6,443.3c-5.6-15.6-14.7-21.8-22.1-26.7c-5.4-3.6-9.7-6.5-11.3-12.2c1.1,1.2,7.3,7.8,20.3,11.4c15.9,4.4,22.2,11.5,26.6,30.1
		c1.3,5.4,2.1,11.3,3,17.5c3.3,23.6,7,50,37.8,58.5c-38.7-6.2-42.2-24.5-47-49.6C290.2,463.6,288.3,453.6,284.6,443.3z M251.1,413.6
		L251.1,413.6l-34.7,2.6c-3.9,0.3-6.9-0.4-8.9-2.1c-2.6-2.4-2.9-6.1-2.9-7.6v-25.7c0-1.5,0.3-5.3,2.9-7.6c1.6-1.5,4-2.2,7-2.2
		c0.6,0,1.2,0,1.9,0.1L337,380l0.1,0l12.9,1l-0.1,0l1.7,0.1v25.3c-3.4-2.1-6.7-4.2-7-5.9c-0.2-1.1-1.2-2-2.3-2c-1.1,0-2.1,0.8-2.3,2
		c-0.5,3-5.2,5.8-9.7,8.6c-0.4,0.2-0.8,0.5-1.1,0.7c-1.7-1.6-3.9-2.9-5.8-4.1c-2.4-1.5-5.1-3.2-5.4-4.5c-0.2-1.1-1.2-2-2.3-2
		c-1.1,0-2.1,0.8-2.3,2c-0.2,1.3-3,3-5.4,4.5c-2.1,1.3-4.5,2.8-6.3,4.7c-7-3.5-15.6-5.8-26.4-6.4c-12.9-0.7-20.6-2.9-25.9-7.3
		c-0.7-0.6-1.7-0.7-2.5-0.3c-0.8,0.4-1.4,1.2-1.4,2.1C245.7,405.6,247.9,410.1,251.1,413.6z M206,299.7l14.1-24.4
		c1-1.8,2.7-3,4.7-3.6c0.7-0.2,1.3-0.3,2-0.3c1.3,0,2.6,0.3,3.8,1c1.8,1,3,2.7,3.6,4.7c0.5,2,0.3,4.1-0.8,5.8l-14.1,24.4
		c-2.1,3.7-6.8,4.9-10.5,2.8C205.1,308.1,203.9,303.3,206,299.7z M175.8,277.5c-0.7-0.3-1.4-0.6-2.1-1c-0.5-0.2-0.9-0.4-1.4-0.6
		l-1.1-0.5c-8.7-4.1-11.2-14.7-11.8-18.8c3.9-1.5,14.3-4.6,22.2,0.8l30.6,21.5l-7,12.2L175.8,277.5z M224,308.6l12.9-22.3
		c0.8-1.3,2.9-4.4,6.3-5.2c0.5-0.1,1-0.2,1.6-0.2c2.2,0,4.6,0.9,7.2,2.8l99.8,68.1l1.7,2.5l0,0c-0.2,0.3-0.3,0.7-0.3,1.1
		c0,1.2,0.9,2.2,2.1,2.3c0.5,0.1,1.4,1.2,2.1,2c1.5,1.9,3.7,4.5,7.2,4.5h1.9v0.1c-0.1,0.2-0.2,0.4-0.3,0.7c-0.2,1.3-3.1,3-5.3,4.4
		c-3,1.8-6.4,3.9-8.1,7l-14.5-1.1L229.3,323c-3.6-1.7-5.8-3.8-6.6-6.3C221.6,313.4,223.3,310,224,308.6z M555.9,188
		c4.2,0,7.7,3.4,7.7,7.7v6.3H230.1v-6.3c0-4.2,3.4-7.7,7.7-7.7H555.9z M377.7,183.3c1.4-1.2,3.1-2,5.1-2H411c2,0,3.7,0.8,5.1,2
		H377.7z M563.6,206.8v12.1H230.1v-12.1H563.6z M563.6,223.6v6c0,4.2-3.4,7.7-7.7,7.7H237.8c-4.2,0-7.7-3.4-7.7-7.7v-6H563.6z
		 M457.5,294.3c0.2,16.9-4,29.1-12.5,36.1c-5.1,4.2-11,5.9-16,6.5c0.5-0.3,1-0.6,1.5-1c9.5-7.1,14.3-24.2,14.3-50.6
		c0-4.8,1.5-27.1,28.1-35.5c-0.5,0.4-1.1,0.8-1.6,1.3C458.2,262.7,457.4,287.1,457.5,294.3z M587.8,299.7c1,1.8,1.3,3.8,0.8,5.8
		c-0.5,2-1.8,3.6-3.6,4.7c-1.8,1-3.8,1.3-5.8,0.8c-2-0.5-3.6-1.8-4.7-3.6l-0.6-1.1c0,0,0,0,0,0l-6.4-11.1l-7.1-12.2
		c-1-1.8-1.3-3.8-0.8-5.8c0.5-2,1.8-3.6,3.6-4.7c1.2-0.7,2.5-1,3.8-1c2.7,0,5.2,1.4,6.7,3.8L587.8,299.7z M581.6,278.9l26.4-18.6
		c0.6-0.4,1.2-0.8,1.9-1.3c0.4-0.3,0.8-0.6,1.2-0.9l1-0.7c7.9-5.5,18.3-2.3,22.2-0.9c-0.7,4.1-3.2,14.7-11.8,18.8L588.6,291
		L581.6,278.9z M567.9,305.5l1.9,3.2c0.8,1.3,2.4,4.7,1.3,8.1c-0.8,2.5-3,4.6-6.6,6.3l-108.9,52.4l-13.2,1l0,0
		c-1.7-3-5.2-5.1-8.1-6.9c-1.9-1.1-4.2-2.5-5-3.7v-1.4h2.5c3.6,0,5.7-2.6,7.2-4.5c0.7-0.8,1.6-2,2.1-2c1.2-0.2,2.1-1.2,2.1-2.3
		c0-1.2-0.8-2.1-2-2.3l0.9-1.3l99.9-68.2c3.2-2.3,6.2-3.1,8.7-2.6c3.4,0.8,5.6,3.9,6.3,5.2L567.9,305.5z M577.3,371
		c3.9-0.4,6.9,0.4,8.9,2.1c2.6,2.4,2.9,6.1,2.9,7.7v25.7c0,1.5-0.3,5.3-2.9,7.6c-1.9,1.8-4.9,2.5-8.9,2.1l-34.2-2.6
		c3.3-3.5,5.5-8.1,5.5-15.2c0-0.9-0.5-1.7-1.4-2.1c-0.8-0.4-1.8-0.3-2.5,0.3c-5.3,4.4-13,6.5-25.9,7.3c-10.3,0.6-18.7,2.7-25.5,6
		c-1.8-1.7-4-3.1-6-4.4c-2.4-1.5-5.1-3.2-5.4-4.5c-0.2-1.1-1.2-2-2.3-2c-1.1,0-2.1,0.8-2.3,2c-0.2,1.3-3,3-5.4,4.5
		c-2.1,1.3-4.4,2.8-6.2,4.6c-0.7-0.4-1.3-0.8-2-1.2c-4.5-2.8-9.1-5.7-9.7-8.6c-0.2-1.1-1.2-2-2.3-2c-1.1,0-2.1,0.8-2.3,2
		c-0.4,2.1-2.9,4.2-6,6.3v-25.7l35.7-2.7l0,0L577.3,371z M363.9,424.1c-2.9,3.4-4.8,7.3-4.8,12v82.1c-13.5-7.5-15-29-15-38.4v-53.5
		c0-1-0.8-1.8-1.8-1.8c-1,0-1.8,0.8-1.8,1.8v53.5c0,8.4,1.2,25.9,10.5,36.3c-5.9-3.9-11.2-10-13.9-20.2c-1.6-5.9-2.5-13-3.5-20.6
		c-2.1-15.8-4.5-33.7-13.1-47.6v-1.3c0-5.6,6.3-9.5,12.3-13.3c3.8-2.4,7.5-4.6,9.7-7.4c2,1.9,4.8,3.6,7.9,5.5
		C356.1,414.6,362.5,418.4,363.9,424.1z M440,247.7c-1.2,0.8-2.4,1.6-3.5,2.6c-1.5-1.2-3.1-2.2-4.6-3.1c-2.3-1.4-5.1-3.1-5.3-4.4
		c0-0.3-0.1-0.5-0.3-0.8h28C449.2,243.1,444.4,244.9,440,247.7z M474,245.8c-16.4,4.9-32.7,17.3-32.7,39.5c0,31.3-7,43.2-12.8,47.7
		c-3,2.3-5.9,2.7-7.7,2.7c1-6,2.9-20.5,6.4-55.6c1.3-13.3,6.5-22.9,15.2-28.5C451.9,245.6,464,244.9,474,245.8z M429.4,251.2
		c1.3,0.8,2.5,1.6,3.6,2.4c-4,4.4-6.9,9.9-8.7,16.5c-0.2-1.1-0.4-2.1-0.7-2.9c-1.7-5.1-5.8-8.9-10.1-12.1c1.3-1.4,3.4-2.6,5.4-3.9
		c1.9-1.2,3.8-2.3,5.2-3.6C425.6,248.9,427.5,250,429.4,251.2z M421.9,242.8c-0.2,1.3-3.1,3-5.3,4.4c-2.4,1.4-5,3-6.9,5.2
		c-0.2-0.1-0.3-0.2-0.5-0.3c-4.7-3.2-9.1-6.2-9.6-9.4c0-0.2-0.1-0.4-0.2-0.6h22.8C422,242.3,421.9,242.5,421.9,242.8z M406.5,255.9
		c5.4,3.7,10.9,7.4,12.7,12.7c1.8,5.4,2.2,24.5,0.1,42.1l-3.5,26.5h-17.1v-74.1c0-1-0.8-1.8-1.8-1.8c-1,0-1.8,0.8-1.8,1.8v74.1
		h-16.2l-3.5-26.6c-2-18.6-1.7-37.1-0.1-42.1c1.7-5.3,7.3-9.1,12.7-12.7c3.6-2.4,7.1-4.8,9.3-7.6
		C399.5,251.1,402.9,253.4,406.5,255.9z M394.9,242.6c-0.6,3.2-5,6.2-9.6,9.4c-0.1,0.1-0.2,0.2-0.4,0.3c-1.8-2-4.3-3.5-6.6-4.9
		c-2.3-1.4-5.1-3.1-5.3-4.4c-0.1-0.4-0.2-0.7-0.4-0.9h22.5C395,242.2,395,242.4,394.9,242.6z M375.9,251.4c1.9,1.1,3.8,2.3,5.1,3.6
		c-4.4,3.2-8.6,7-10.2,12.2c-0.2,0.7-0.4,1.5-0.6,2.5c-1.8-6.3-4.6-11.6-8.4-15.9c1.1-0.8,2.4-1.6,3.7-2.4c1.9-1.2,3.8-2.3,5.2-3.6
		C372.1,249.1,374,250.2,375.9,251.4z M368.4,243c-0.2,1.3-3.1,3-5.3,4.4c-1.5,0.9-3.1,1.9-4.6,3.1c-1.2-1-2.4-1.9-3.7-2.7
		c-4.4-2.8-9.3-4.6-14.2-5.7h28.3C368.6,242.3,368.4,242.6,368.4,243z M352.2,251.7c8.8,5.6,13.9,15.2,15.2,28.5
		c3.5,34.9,5.5,49.4,6.4,55.5c-1.4,0.2-5,0.3-8.8-2.6c-5.8-4.5-12.8-16.4-12.8-47.7c0-22-16.1-34.4-32.4-39.4
		C329.9,244.9,342.5,245.4,352.2,251.7z M371.2,342c0.1,0,0.2,0,0.3,0h5.4c0,0,0,0,0,0h41c0,0,0,0,0,0h5.4c0.4,0,0.8,0,1.2,0
		c0,0,0,0,0,0v4.7h-53.3V342z M431.7,351.4c1.2,0,2.2,1,3.6,2.7c0.4,0.5,0.8,0.9,1.2,1.4c-0.4,0.5-0.8,0.9-1.2,1.4
		c-1.4,1.7-2.3,2.7-3.6,2.7h-67.2c-1.2,0-2.2-1-3.6-2.7c-0.4-0.5-0.8-0.9-1.2-1.4c0.4-0.5,0.8-0.9,1.2-1.4c1.4-1.7,2.3-2.7,3.6-2.7
		H431.7z M451.8,406c2.3,2.7,5.8,4.9,9.5,7.1c6.1,3.8,12.3,7.7,12.3,13.3v1.5c-8.6,13.9-10.9,31.6-13,47.4c-1,7.6-2,14.7-3.5,20.6
		c-3,11.5-9.3,17.8-16.1,21.5c10.4-10.2,11.7-28.9,11.7-37.6v-53.5c0-1-0.8-1.8-1.8-1.8s-1.8,0.8-1.8,1.8v53.5
		c0,9.3-1.5,30.9-15.1,38.4c0-18.9,0-67.5,0-82.1c0-4.3-1.6-8-4-11.1c1-4.9,6.7-8.4,12.2-11.9C446,410.8,449.5,408.6,451.8,406z
		 M469.7,413c1.3-1.2,3-2.3,4.7-3.3c1.9-1.2,3.8-2.3,5.2-3.7c1.4,1.4,3.3,2.5,5.2,3.7c1.4,0.9,2.9,1.8,4.1,2.8
		c-4.5,2.8-8.2,6.1-11.2,9.8C476.3,418.5,473.2,415.6,469.7,413z M438.7,409.8c-4.2,2.6-8.6,5.5-11.2,9.4v-39.7c0-1-0.8-1.8-1.8-1.8
		s-1.8,0.8-1.8,1.8V419c-3-2.4-6.3-4.5-9.6-6.5v-32c0-2.7,3.5-4.9,6.9-6.9c1.9-1.2,3.8-2.3,5.2-3.6c1.4,1.3,3.3,2.5,5.2,3.6
		c3.4,2.1,6.9,4.2,6.9,6.9V409.8z M396.2,423.5c-1,0-1.8,0.8-1.8,1.8v98.3h-22.7c-0.8-0.2-1.5-0.4-2.4-0.6c-1.7-0.4-3.6-0.8-5.5-1.4
		v-85.5c0-8.8,9.4-14.6,18.4-20.2c5.8-3.6,11.3-7,14.3-11.2c3.1,4.2,8.6,7.6,14.3,11.2c9.1,5.6,18.4,11.4,18.4,20.2
		c0,15.6,0,70.4,0,85.7c-1.6,0.4-3.1,0.8-4.5,1.1c-0.8,0.2-1.6,0.4-2.4,0.6H398v-98.3C398,424.3,397.2,423.5,396.2,423.5z
		 M402.8,373.6c3.4,2.1,6.9,4.2,6.9,6.9v29c-5.5-3.5-10.1-7-10.7-10.9c-0.1-0.6-0.5-1.1-0.9-1.5c0.2-0.3,0.3-0.6,0.3-0.9v-16.8
		c0-1-0.8-1.8-1.8-1.8c-1,0-1.8,0.8-1.8,1.8v16.8c0,0.4,0.1,0.7,0.3,1c-0.4,0.3-0.7,0.8-0.8,1.4c-0.6,3.4-4.3,6.6-8.9,9.7v-27.8
		c0-2.7,3.5-4.9,6.9-6.9c1.9-1.2,3.8-2.3,5.2-3.6C398.9,371.3,400.8,372.4,402.8,373.6z M399.6,364.4h24.9v0.1
		c-0.1,0.2-0.2,0.4-0.3,0.7c-0.2,1.3-3.1,3-5.3,4.4c-2.3,1.4-5,3-6.9,5.2c-1.9-2.1-4.5-3.8-6.9-5.2c-2.3-1.4-5.1-3.1-5.3-4.4
		C399.8,364.9,399.7,364.6,399.6,364.4z M395.2,365.2c-0.2,1.3-3.1,3-5.3,4.4c-2.3,1.4-5,3-6.9,5.2c-1.9-2.1-4.5-3.8-6.9-5.2
		c-1.9-1.1-4.2-2.5-5-3.7v-1.4h24.3C395.4,364.6,395.3,364.9,395.2,365.2z M373.7,373.6c3.4,2.1,6.9,4.2,6.9,6.9v30.9
		c-0.3,0.2-0.6,0.4-0.9,0.5c-3.5,2.1-7.1,4.4-10.3,6.9v-39.3c0-1-0.8-1.8-1.8-1.8s-1.8,0.8-1.8,1.8v38c-2.4-3.4-6-6-9.6-8.2v-28.8
		c0-2.7,3.5-4.9,6.9-6.9c1.9-1.2,3.8-2.3,5.2-3.6C369.9,371.3,371.8,372.4,373.7,373.6z M316.5,422.2c-2.9-3.5-6.4-6.7-10.5-9.3
		c1.3-1.1,2.9-2.2,4.6-3.2c1.9-1.2,3.8-2.3,5.2-3.7c1.4,1.4,3.3,2.5,5.2,3.7c1.5,0.9,2.9,1.8,4.1,2.8
		C321.3,415.2,318,418.2,316.5,422.2z M328.9,476c1,7.7,2,15,3.6,21.2c3.2,12,9.5,19,16.4,23.3c-37.1-5.1-40.8-31.6-44.4-57.4
		c-0.9-6.3-1.7-12.3-3-17.9c-4.7-19.7-12.1-28-29.1-32.7c-5.9-1.6-10.3-3.9-13.3-6c5.2,1.4,10.8,1.9,16,2.2
		C320.3,411.2,324.9,445.6,328.9,476z M344.7,529.1h104.7v5.7H344.7V529.1z M445.5,520.3c6.8-4.3,13-11.3,16.1-23.1
		c1.6-6.2,2.6-13.5,3.6-21.2c4-30.3,8.6-64.7,53.8-67.2c4.7-0.3,9.7-0.7,14.5-1.9c-3,1.9-7.2,4.1-12.8,5.6
		c-17.1,4.7-24.4,13-29.1,32.7c-1.3,5.6-2.2,11.5-3,17.9C485.1,488.5,481.4,514.8,445.5,520.3z M438.6,348.6l-1.2,0.8
		c-1.4-1.4-3.2-2.7-5.7-2.7h-2.5v-5c5.7-0.6,12.7-2.6,18.8-7.6c0.5-0.4,0.8-0.8,1.3-1.2L438.6,348.6z M474.5,254.6
		c4.9-4.3,11.2-6,18.9-4.9c1.2,0.2,2.3-0.6,2.6-1.8c0.3-1.2-0.4-2.4-1.5-2.8c-0.5-0.2-5.5-1.8-12.7-3h27.7c-0.1,2-1,4.3-2.7,6.7
		l-48.8,71.5c2.9-7.1,4.4-15.7,4.3-25.9C462.1,287.6,462.8,264.9,474.5,254.6z M313,242c-7.2,1.2-12.2,2.9-12.7,3
		c-1.2,0.4-1.8,1.6-1.5,2.8c0.3,1.2,1.4,2,2.6,1.8c7.6-1,14,0.6,18.9,4.9c11.7,10.4,12.4,33,12.3,39.7c-0.1,12.6,2.1,22.8,6.5,30.5
		l-52-76.1c-1.7-2.4-2.6-4.6-2.7-6.6H313z M337.2,294.3c0.1-7.2-0.7-31.6-13.9-43.3c-0.2-0.2-0.5-0.4-0.7-0.5
		c24.6,9,26,30.2,26,34.8c0,26.4,4.8,43.5,14.3,50.6c0.4,0.3,0.8,0.6,1.2,0.8c-4.6-0.7-9.9-2.5-14.5-6.3
		C341.2,323.5,337,311.3,337.2,294.3z M346.7,334.1c6.5,5.3,13.8,7.2,19.8,7.7v4.9h-1.9c-3.1,0-5.1,2-6.6,3.7l0,0l-2.7-1.9l-13-19.1
		l0,0C343.6,331.1,345,332.7,346.7,334.1z M452.8,522.4c32.2-8.1,36-34.9,39.3-58.9c0.9-6.2,1.7-12.1,3-17.5
		c4.5-18.7,10.7-25.7,26.6-30.1c14.1-3.9,20.2-11.3,20.5-11.6c0.1-0.2,0.2-0.4,0.3-0.6c0.3-0.1,0.6-0.3,0.8-0.4
		c-1.4,6.5-5.9,9.5-11.7,13.4c-7.4,4.9-16.5,11-22.1,26.7c-3.7,10.3-5.6,20.3-7.3,29.1C497.4,498,493.8,516.5,452.8,522.4z
		 M506.9,473.3c1.7-9,3.5-18.4,7.1-28.4c0.5-1.5,1.1-2.8,1.7-4.1l48.8,23.5c3.6,1.7,5.8,3.8,6.6,6.3c1.1,3.4-0.6,6.8-1.3,8.1
		l-12.9,22.3c-0.8,1.3-2.9,4.4-6.3,5.2c-2.6,0.6-5.5-0.3-8.8-2.6L505.8,479c0,0,0,0,0,0C506.2,477.1,506.6,475.2,506.9,473.3z
		 M560.3,504.3l0.6-1c0,0,0,0,0,0l6.4-11.1l7.1-12.2c2.1-3.7,6.8-4.9,10.5-2.8c3.7,2.1,4.9,6.8,2.8,10.5L573.6,512
		c-1,1.8-2.7,3-4.7,3.6c-2,0.5-4.1,0.3-5.8-0.8C559.5,512.7,558.2,508,560.3,504.3z M618,509.8c0.7,0.3,1.3,0.6,2,1
		c0.4,0.2,0.7,0.3,1.1,0.5l1.4,0.7c8.7,4.1,11.2,14.7,11.8,18.8c-3.9,1.5-14.3,4.6-22.2-0.9l-30.5-21.5l7-12.2L618,509.8z
		 M623.1,553.1c0.3-1.4,0.5-2.8,0.4-4.3c-0.1-4-1.4-7.7-4-11.3c1.1,0.1,2.2,0.2,3.3,0.2c4.6,0,8.8-1.1,11.6-2
		C630.9,541.6,627.1,547.4,623.1,553.1z M638.7,528.3c-0.7-3.5-2.3-9-5.8-13.8c0.7,0.1,1.5,0.2,2.2,0.2c3.5,0,6.7-0.8,9.5-2.4
		c1.3-0.8,2.5-1.6,3.6-2.6C645.3,516.1,642.1,522.3,638.7,528.3z M642.3,508.2c-4.8,2.7-11,2.3-18.7-1l-3.8-1.7
		c-18-8.6-25.8-12.1-29.1-13.6l0.1-0.1c0.9-1.6,2.6-3.9,5.6-5.1c5.6-2.3,13.8-0.4,23.8,5.5c5.6,3.3,19.7,10.7,29.2,7.3
		c0.1,0,0.3-0.1,0.4-0.2C648.3,502.6,646,506.2,642.3,508.2z M656.5,489.8c-0.3-0.6-0.8-1-1.5-1.2c-1.2-0.3-2.3,0.4-2.7,1.5
		c-0.9,2.4-2.3,4-4.5,4.8c-6.2,2.2-17-2.1-25.2-6.9c-11.5-6.8-20.9-8.7-28-5.8c-0.4,0.2-0.8,0.4-1.2,0.5c-0.3-3.9-2.5-7.7-6.2-9.8
		c-3.6-2-7.7-2.1-11.2-0.6c0-1.1-0.2-2.2-0.5-3.3c-1.2-3.8-4.3-6.9-9.1-9.1l-48.6-23.4c4.8-8.2,10.9-12.3,16.4-16
		c1.2-0.8,2.5-1.7,3.7-2.5l38.9,2.9c0.8,0.1,1.6,0.1,2.3,0.1c4.2,0,7.6-1.2,10.2-3.5c0.9-0.8,1.6-1.7,2.1-2.6
		c2.3,3.1,5.9,5.1,10,5.1c4.3,0,8-2.2,10.3-5.5c0.2,0.3,0.5,0.7,0.7,1c4.7,6.1,13.9,9.1,27.1,9c9.5-0.1,21,1.6,25.2,6.6
		c1.5,1.7,2,3.8,1.5,6.4c-0.2,1.2,0.5,2.3,1.6,2.7c0.2,0.1,0.5,0.1,0.7,0.1c0.4,0,0.8-0.1,1.2-0.3
		C666.9,457.3,662.4,473.9,656.5,489.8z M593.8,407.8v-1.2v-25.7v-1.2c0-4.2,3.4-7.7,7.7-7.7s7.7,3.4,7.7,7.7v28.2
		c0,4.2-3.4,7.7-7.7,7.7S593.8,412,593.8,407.8z M650,378.6l-4,0.4c-19.9,1.5-28.5,2.4-32.1,2.8V381c0.1-1.8,0.6-4.3,2.4-6.6
		c3.6-4.7,11.4-7.1,22.6-7.1c0.2,0,0.5,0,0.7,0c6.5,0.1,22.4-0.6,28.9-8.3c0.1-0.1,0.2-0.2,0.3-0.3c0.4,3.7,0.2,7.9-2,11.6
		C663.9,374.9,658.3,377.7,650,378.6z M671,393.6c-2.6,3.2-10.1,11.2-19.7,10.4l-37.2-3.3v-14l32.2-2.9c0.7-0.1,1.4-0.1,2.2-0.2
		c0.5,0,1-0.1,1.5-0.2l1.3-0.1C660.9,382.4,668.4,390.4,671,393.6z M648.3,408.5c9.2,0.7,15.5,3.6,18.5,8.6c2.2,3.6,2.4,7.9,2,11.6
		c-0.1-0.1-0.2-0.2-0.3-0.3c-6.2-7.4-21.3-8.3-28.2-8.3c-0.2,0-0.5,0-0.7,0c-11.6,0.1-19.6-2.4-23.3-7.1c-1.8-2.3-2.3-4.8-2.4-6.6
		v-0.8C617.6,405.9,626.7,406.8,648.3,408.5z M672.6,418.8c-0.4-1.4-1-2.8-1.8-4.2c-2-3.4-5.1-6-9.1-7.9c5.5-2.3,9.7-6.4,12.1-9.1
		C673.6,404.9,673.2,411.9,672.6,418.8z M672.6,368.4c0.6,6.9,1,13.9,1.1,21c-2.4-2.7-6.5-6.7-12-9c4-1.8,7-4.4,9-7.8
		C671.6,371.2,672.2,369.8,672.6,368.4z M652.3,297.1c0.4,1.1,1.6,1.8,2.7,1.5c0.7-0.2,1.2-0.6,1.5-1.2
		c5.9,15.9,10.4,32.5,13.3,49.7c-0.6-0.3-1.2-0.5-1.9-0.3c-1.1,0.4-1.8,1.5-1.6,2.7c0.5,2.5,0,4.6-1.5,6.4c-4.2,5-15.7,6.7-25.2,6.6
		c-13.2-0.1-22.4,2.9-27.1,9c-0.3,0.4-0.5,0.7-0.7,1.1c-2.2-3.3-6-5.4-10.2-5.4c-4.1,0-7.7,2-10,5.1c-0.6-0.9-1.2-1.8-2.1-2.6
		c-3-2.7-7.2-3.8-12.4-3.4l-108.5,8.2l98-47.1c4.8-2.2,7.9-5.3,9.1-9.2c0.4-1.1,0.5-2.2,0.5-3.3c0.6,0.3,1.2,0.5,1.8,0.7
		c1.1,0.3,2.2,0.4,3.2,0.4c2.1,0,4.3-0.6,6.2-1.7c2.9-1.7,4.9-4.3,5.8-7.5c0.2-0.8,0.3-1.5,0.4-2.3c0.4,0.2,0.7,0.4,1.1,0.5
		c2.1,0.9,4.5,1.3,7,1.3c5.9,0,12.9-2.4,20.9-7.1c8.1-4.8,19-9.1,25.2-6.9C649.9,293.1,651.4,294.7,652.3,297.1z M649.4,287.9
		c-9.4-3.4-23.5,3.9-29.2,7.3c-9.9,5.9-18.1,7.8-23.7,5.5c-3.1-1.3-4.8-3.5-5.7-5.2l0-0.1c3.5-1.5,11.8-5.2,31.3-14.6
		c8.4-4,15.2-4.6,20.3-1.8c3.7,2.1,6,5.6,7.5,9C649.7,288,649.5,287.9,649.4,287.9z M648.2,277.6c-1.1-1-2.3-1.9-3.6-2.6
		c-3.5-1.9-7.4-2.7-11.8-2.2c3.6-4.8,5.2-10.3,5.9-13.8C642.1,264.9,645.3,271.2,648.2,277.6z M623.1,234.2
		c4,5.6,7.8,11.4,11.3,17.4c-3.4-1.2-8.9-2.5-14.8-1.8c2.5-3.6,3.9-7.4,3.9-11.3C623.6,237,623.4,235.5,623.1,234.2z M614.8,227.4
		c2.2,3,4.1,6.8,4.1,11c-0.1,5.5-3.6,10.8-10.3,15.7l-3.2,2.3c-16.5,11.3-23.5,16.3-26.4,18.5l-0.4-0.7c-0.9-1.6-1.6-4-1.3-6.8
		c0.8-6,6.5-12.2,16.6-17.9c5.7-3.2,19.1-11.8,20.9-21.6C614.7,227.7,614.7,227.5,614.8,227.4z M569.8,182.3
		c0.9,0.8,2.3,0.7,3.1-0.1c0.5-0.4,0.7-1,0.7-1.6c13.1,10.9,25.2,23,36.2,36.2c-0.6,0-1.1,0.3-1.6,0.7c-0.8,0.9-0.8,2.2-0.1,3.1
		c1.7,2,2.3,4,1.9,6.3c-1.2,6.4-10.3,13.7-18.6,18.4c-11.6,6.5-18,13.7-19,21.4c-0.1,0.4-0.1,0.9-0.1,1.3c-3.6-1.7-7.9-1.7-11.6,0.4
		c-3.6,2.1-5.7,5.6-6.1,9.4c-0.9-0.5-2-0.9-3.1-1.2c-3.9-0.9-8.1,0.2-12.5,3.3l-89.9,61.3l61.3-89.8c2.3-3.2,3.5-6.4,3.6-9.4h41.7
		c6.8,0,12.4-5.6,12.4-12.4v-33.9c0-6.8-5.6-12.4-12.4-12.4c0.5,0,1.1,0.1,1.6,0.2c2-1.6,4-2.7,6-3
		C565.8,180,567.8,180.7,569.8,182.3z M562.7,175.8c-4.4,0.8-8.5,3.8-12,7.5h-15.3c5.2-7.6,10.8-11.6,16.7-11.6c4.1,0,8,1.9,11,4.1
		C563,175.8,562.8,175.8,562.7,175.8z M556.4,167.4c-1.3-0.3-2.6-0.5-4-0.5c-0.1,0-0.2,0-0.2,0c-4,0.1-7.8,1.4-11.4,4
		c0.7-5.9-0.6-11.5-1.8-14.9C544.9,159.6,550.7,163.4,556.4,167.4z M533.1,178.4l-3.5,4.9H508l5-10.8c0.3-0.6,0.6-1.3,0.9-1.9
		c0.2-0.4,0.4-0.9,0.6-1.3l0.6-1.2c4.1-8.7,14.7-11.2,18.8-11.8C535.4,160,538.6,170.5,533.1,178.4z M531.6,151.8
		c-3.5,0.7-9,2.3-13.7,5.8c0.4-4.4-0.3-8.3-2.3-11.7c-0.8-1.3-1.6-2.5-2.6-3.6C519.3,145.2,525.5,148.4,531.6,151.8z M511.5,148.2
		c2.7,4.8,2.3,11.1-1,18.7l-1.7,3.7c-2.4,5-4.4,9.2-6,12.7h-13c1-3.9,2.8-8.2,5.7-13c3.3-5.6,10.7-19.7,7.3-29.2
		c-0.1-0.1-0.1-0.3-0.2-0.4C505.8,142.2,509.4,144.5,511.5,148.2z M434.6,125.7c1.7-1.5,3.8-2,6.4-1.5c1.2,0.2,2.3-0.5,2.7-1.6
		c0.2-0.7,0.1-1.3-0.3-1.9c17.1,2.9,33.7,7.4,49.7,13.3c-0.6,0.3-1,0.8-1.1,1.5c-0.3,1.2,0.4,2.3,1.5,2.7c2.4,0.9,4,2.3,4.8,4.5
		c2.2,6.2-2.1,17-6.9,25.2c-3.3,5.6-5.5,10.8-6.5,15.4H422c-1-1.8-2.3-3.4-4-4.5c0.3-0.2,0.7-0.5,1-0.7c6.1-4.7,9.1-13.8,9-27.1
		C427.9,141.5,429.6,129.9,434.6,125.7z M431.9,121.8c-0.1,0.1-0.2,0.2-0.3,0.3c-7.7,6.5-8.4,22.4-8.3,28.9
		c0.1,11.5-2.4,19.6-7.1,23.3c-2.3,1.8-4.8,2.3-6.7,2.4h-0.8c0.4-3.8,1.4-12.8,3-34.4c0.7-9.2,3.6-15.5,8.6-18.5
		C423.9,121.6,428.2,121.4,431.9,121.8z M422.1,117.9c-1.4,0.4-2.8,1-4.2,1.8c-3.4,2-6,5.1-7.9,9.1c-2.3-5.5-6.4-9.7-9.1-12.1
		C408.1,116.9,415.1,117.3,422.1,117.9z M396.8,119.5c3.2,2.6,11.2,10.1,10.4,19.6l-3.3,37.2h-14l-2.9-32.2
		c-0.1-0.7-0.1-1.5-0.2-2.2c0-0.5-0.1-1-0.2-1.5l-0.1-1.3C385.7,129.5,393.6,122.1,396.8,119.5z M392.7,116.8c-2.7,2.4-6.7,6.5-9,12
		c-1.8-4-4.4-7-7.8-9c-1.3-0.8-2.7-1.4-4.2-1.8C378.6,117.3,385.6,116.9,392.7,116.8z M373.4,123.8c4.7,2.8,7.5,8.4,8.4,16.7
		l0.4,4.1c1.5,19.9,2.4,28.4,2.8,32h-0.8c-1.8-0.1-4.3-0.5-6.6-2.3c-4.8-3.7-7.3-11.8-7.2-23.3c0.1-6.5-0.6-22.4-8.3-28.9
		c-0.1-0.1-0.2-0.2-0.3-0.3C365.5,121.4,369.8,121.6,373.4,123.8z M295.6,142.7c0.8-2.1,2.3-3.6,4.8-4.5c1.1-0.4,1.8-1.6,1.5-2.7
		c-0.2-0.7-0.6-1.2-1.1-1.5c15.9-5.9,32.5-10.4,49.7-13.3c-0.3,0.6-0.5,1.2-0.3,1.9c0.4,1.1,1.5,1.8,2.7,1.6c2.5-0.5,4.6,0,6.4,1.5
		c5,4.2,6.7,15.8,6.6,25.2c-0.1,13.3,2.9,22.4,9,27.1c0.4,0.3,0.7,0.5,1.1,0.7c-1.7,1.2-3.1,2.7-4,4.5h-62.9
		c-1-4.6-3.1-9.8-6.5-15.4C297.7,159.8,293.4,148.9,295.6,142.7z M291.3,140.7c-0.1,0.1-0.1,0.3-0.2,0.4c-3.4,9.4,3.9,23.5,7.3,29.2
		c2.8,4.8,4.7,9.1,5.7,13h-13c-1.9-4-4.2-8.9-7.1-14.8c-4-8.4-4.6-15.2-1.8-20.3C284.3,144.5,287.9,142.2,291.3,140.7z M280.8,142.3
		c-1,1.1-1.9,2.3-2.6,3.6c-1.9,3.5-2.7,7.4-2.2,11.8c-4.8-3.6-10.3-5.2-13.8-5.9C268.2,148.4,274.4,145.2,280.8,142.3z M259.7,156.2
		c4.1,0.7,14.7,3.2,18.8,11.8l7.1,15.3H264l-0.6-0.8c-0.4-0.6-0.8-1.2-1.3-1.8c-0.3-0.4-0.6-0.8-0.9-1.2l-0.8-1.1
		C255.1,170.5,258.3,160.1,259.7,156.2z M254.8,156.1c-1.2,3.4-2.5,8.9-1.8,14.8c-3.6-2.5-7.4-3.9-11.3-3.9c-1.5,0-2.9,0.1-4.2,0.4
		C243.1,163.4,248.9,159.6,254.8,156.1z M241.4,171.7c0.1,0,0.1,0,0.2,0c5.5,0.1,10.8,3.6,15.7,10.3l0.9,1.3H243
		c-3.5-3.7-7.6-6.7-12-7.5c-0.1,0-0.3,0-0.4-0.1C233.5,173.6,237.3,171.7,241.4,171.7z M185.5,217.6c-0.4-0.5-1-0.7-1.6-0.7
		c10.9-13.1,23-25.2,36.2-36.2c0,0.6,0.3,1.1,0.7,1.6c0.9,0.8,2.2,0.8,3.1,0.1c2-1.7,4-2.3,6.3-1.9c2,0.4,4,1.4,6,3
		c0.5-0.1,1-0.2,1.6-0.2c-6.8,0-12.4,5.6-12.4,12.4v33.9c0,6.8,5.6,12.4,12.4,12.4h41.8c0.1,3,1.3,6.1,3.6,9.3l61.3,89.9l-89.8-61.3
		c-4.4-3.1-8.6-4.2-12.5-3.3c-1.2,0.3-2.2,0.7-3.1,1.2c-0.1-0.6-0.1-1.3-0.3-1.9c-0.9-3.2-2.9-5.9-5.8-7.5c-3.7-2.1-8-2.1-11.6-0.4
		c0-0.4-0.1-0.8-0.1-1.2c-1-7.6-7.4-14.8-19-21.4c-8.2-4.6-17.4-11.9-18.6-18.4c-0.4-2.2,0.2-4.3,1.9-6.3
		C186.3,219.8,186.3,218.5,185.5,217.6z M179,227.4c0,0.1,0,0.3,0.1,0.4c1.8,9.9,15.2,18.4,20.9,21.6c10,5.7,15.8,11.8,16.6,17.8
		c0.4,2.9-0.4,5.3-1.3,6.9l-0.4,0.7c-3-2.3-10.4-7.6-28.3-19.8c-7.7-5.2-11.6-10.8-11.7-16.7C174.8,234.2,176.8,230.4,179,227.4z
		 M170.6,234.2c-0.3,1.4-0.5,2.8-0.4,4.3c0.1,4,1.4,7.8,4,11.4c-5.9-0.7-11.5,0.7-14.9,1.8C162.8,245.7,166.6,239.8,170.6,234.2z
		 M155,258.9c0.7,3.5,2.3,9,5.8,13.7c-4.4-0.4-8.3,0.3-11.7,2.3c-1.3,0.8-2.5,1.7-3.6,2.6C148.5,271.2,151.6,265,155,258.9z
		 M151.4,279c4.8-2.7,11.1-2.3,18.7,1l3.7,1.7c18,8.6,25.8,12.2,29.2,13.6l-0.1,0.1c-0.9,1.6-2.6,3.9-5.6,5.1
		c-5.6,2.3-13.8,0.4-23.8-5.5c-4.6-2.7-14.9-8.1-23.7-8.1c-1.9,0-3.8,0.3-5.5,0.9c-0.1,0.1-0.3,0.1-0.4,0.2
		C145.4,284.7,147.7,281.1,151.4,279z M137.2,297.4c0.3,0.6,0.8,1,1.5,1.2c1.2,0.3,2.3-0.4,2.7-1.5c0.9-2.4,2.3-4,4.5-4.8
		c6.2-2.2,17,2.1,25.2,6.9c8,4.7,15,7.1,20.9,7.1c2.6,0,4.9-0.4,7-1.3c0.4-0.2,0.8-0.4,1.2-0.5c0.3,3.9,2.5,7.7,6.2,9.8
		c1.9,1.1,4.1,1.7,6.2,1.7c1.7,0,3.4-0.4,5-1.1c0,1.1,0.2,2.2,0.5,3.3c1.2,3.8,4.3,6.9,9.1,9.1l98,47.1l-108.5-8.2
		c-5.3-0.5-9.5,0.7-12.5,3.4c-0.9,0.8-1.6,1.7-2.1,2.6c-2.3-3.1-5.9-5.1-10-5.1c-4.3,0-8,2.2-10.3,5.5c-0.2-0.3-0.5-0.7-0.7-1
		c-4.7-6.1-13.8-9.1-27.1-9c-9.4,0.1-21-1.6-25.2-6.6c-1.5-1.7-2-3.8-1.5-6.4c0.2-1.2-0.5-2.3-1.6-2.7c-0.7-0.2-1.3-0.1-1.9,0.3
		C126.8,330,131.3,313.4,137.2,297.4z M200,379.5v1.2v25.7v1.2c0,4.2-3.4,7.7-7.7,7.7c-4.2,0-7.7-3.4-7.7-7.7v-28.2
		c0-4.2,3.4-7.7,7.7-7.7C196.5,371.8,200,375.3,200,379.5z M143.7,408.7l4.1-0.4c19.9-1.5,28.4-2.4,32-2.8v0.8
		c-0.1,1.8-0.6,4.3-2.3,6.6c-3.7,4.8-11.8,7.2-23.3,7.2c-6.5-0.1-22.4,0.6-28.9,8.3c-0.1,0.1-0.2,0.2-0.3,0.3
		c-0.4-3.7-0.2-7.9,2-11.6C129.8,412.4,135.4,409.6,143.7,408.7z M122.7,393.7c2.6-3.2,10-11.2,19.6-10.4l37.2,3.3v14l-32.2,2.9
		c-0.7,0.1-1.5,0.1-2.2,0.2c-0.5,0-1,0.1-1.5,0.2l-1.3,0.1C132.8,404.8,125.3,396.9,122.7,393.7z M145.5,378.8
		c-9.2-0.7-15.5-3.6-18.5-8.6c-2.2-3.6-2.4-7.9-2-11.6c0.1,0.1,0.2,0.2,0.3,0.3c6.5,7.7,22.4,8.4,28.9,8.3
		c11.6-0.1,19.6,2.4,23.3,7.1c1.8,2.3,2.3,4.8,2.4,6.6v0.8C176.1,381.3,167.1,380.4,145.5,378.8z M121.1,368.4
		c0.4,1.4,1,2.8,1.8,4.2c2,3.4,5.1,6,9.1,7.9c-5.5,2.3-9.7,6.4-12.1,9.1C120.1,382.4,120.5,375.4,121.1,368.4z M121.1,418.8
		c-0.6-6.9-1-13.9-1.1-21c2.4,2.7,6.5,6.7,11.9,9c-4,1.8-7,4.4-9,7.8C122.2,416,121.6,417.4,121.1,418.8z M141.5,490.2
		c-0.4-1.1-1.6-1.8-2.7-1.5c-0.7,0.2-1.2,0.6-1.5,1.2c-5.9-15.9-10.4-32.5-13.3-49.7c0.4,0.2,0.8,0.3,1.2,0.3c0.2,0,0.5,0,0.7-0.1
		c1.1-0.4,1.8-1.5,1.6-2.7c-0.5-2.5,0-4.6,1.5-6.4c4.2-5,15.8-6.7,25.2-6.6c13.3,0.1,22.4-2.9,27.1-9c0.3-0.4,0.5-0.7,0.7-1.1
		c2.2,3.3,6,5.4,10.2,5.4c4.1,0,7.7-2,10-5.1c0.6,0.9,1.2,1.8,2.1,2.6c2.5,2.3,5.9,3.5,10.2,3.5c0.7,0,1.5,0,2.3-0.1l39.3-3
		c1.2,0.9,2.5,1.7,3.8,2.6c5.5,3.6,11.5,7.7,16.3,15.8l-48.9,23.5c-4.8,2.2-7.9,5.3-9.1,9.1c-0.4,1.1-0.5,2.2-0.5,3.3
		c-0.6-0.3-1.2-0.5-1.8-0.7c-3.2-0.9-6.5-0.4-9.4,1.2c-2.9,1.7-4.9,4.3-5.8,7.5c-0.2,0.8-0.3,1.5-0.4,2.3c-0.4-0.2-0.7-0.4-1.1-0.5
		c-7.1-2.9-16.5-1-28,5.8c-8.1,4.8-19,9.1-25.2,6.9C143.8,494.2,142.3,492.6,141.5,490.2z M144.4,499.4c9.4,3.4,23.5-3.9,29.2-7.3
		c9.9-5.9,18.1-7.7,23.7-5.5c3.1,1.2,4.8,3.5,5.7,5.2l0.1,0.1c-3.5,1.5-11.8,5.2-31.3,14.6c-8.4,4-15.2,4.6-20.3,1.8
		c-3.7-2.1-6-5.6-7.5-9C144.1,499.3,144.2,499.3,144.4,499.4z M145.5,509.7c1.1,1,2.3,1.9,3.6,2.6c2.8,1.6,6,2.4,9.5,2.4
		c0.8,0,1.5-0.1,2.3-0.2c-3.6,4.8-5.2,10.3-5.9,13.8C151.7,522.3,148.5,516.1,145.5,509.7z M170.6,553.1c-4-5.6-7.8-11.4-11.3-17.4
		c2.8,0.9,7,2,11.6,2c1,0,2.1-0.1,3.2-0.2c-2.5,3.6-3.8,7.3-3.9,11.3C170.2,550.3,170.3,551.7,170.6,553.1z M179,559.9
		c-2.2-3-4.1-6.8-4.1-11c0.1-5.4,3.5-10.7,10.2-15.6l3.5-2.5c16.4-11.2,23.4-16.2,26.3-18.4l0.4,0.7c0.9,1.6,1.7,4,1.3,6.8
		c-0.8,6-6.5,12.2-16.6,17.9c-5.7,3.2-19.1,11.8-20.9,21.6C179,559.6,179,559.7,179,559.9z M224,604.9c-0.9-0.8-2.3-0.7-3.1,0.1
		c-0.5,0.4-0.7,1-0.7,1.6c-13.1-10.9-25.3-23-36.2-36.2c0.6,0,1.2-0.3,1.6-0.7c0.8-0.9,0.8-2.2,0.1-3.1c-1.7-2-2.3-4-1.9-6.3
		c1.2-6.5,10.3-13.7,18.6-18.4c11.6-6.5,18-13.7,19-21.4c0.1-0.4,0.1-0.9,0.1-1.3c1.7,0.8,3.5,1.3,5.4,1.3c2.1,0,4.2-0.5,6.2-1.7
		c3.6-2.1,5.7-5.6,6.1-9.4c0.9,0.5,2,0.9,3.1,1.2c0.9,0.2,1.7,0.3,2.6,0.3c3.2,0,6.5-1.2,9.8-3.6l34.8-23.7c0,0,0,0,0,0
		c2.2,10.1,5.2,19,11.6,26.1l-17.8,26.1c-3.1,4.4-4.2,8.6-3.3,12.5c0.3,1.2,0.7,2.2,1.2,3.1c-3.8,0.4-7.4,2.5-9.4,6.1
		c-1.7,2.9-2.1,6.2-1.2,9.4c0.2,0.8,0.5,1.5,0.8,2.2c-0.4,0-0.8,0.1-1.3,0.1c-7.6,1-14.8,7.4-21.4,19c-4.6,8.2-11.9,17.4-18.4,18.6
		C228,607.2,225.9,606.6,224,604.9z M231.1,611.5c9.9-1.8,18.4-15.2,21.6-20.9c5.7-10,11.8-15.8,17.8-16.6c2.9-0.4,5.3,0.4,6.9,1.3
		l0.7,0.4c-2.3,3-7.6,10.4-19.8,28.3c-5.2,7.7-10.8,11.6-16.7,11.7c-4.2,0-8-1.9-11-4.1C230.8,611.5,230.9,611.5,231.1,611.5z
		 M237.4,619.9c1.3,0.3,2.6,0.5,4,0.5c0.1,0,0.2,0,0.2,0c4-0.1,7.8-1.4,11.4-4c-0.7,5.9,0.6,11.5,1.8,14.9
		C248.9,627.7,243.1,623.9,237.4,619.9z M260.7,608.9l21.5-30.5l12.2,7l-13.6,29.3c-0.3,0.7-0.6,1.3-1,2c-0.2,0.5-0.4,0.9-0.6,1.4
		l-0.5,1.2c-4.1,8.7-14.7,11.2-18.8,11.8C258.3,627.2,255.2,616.8,260.7,608.9z M262.2,635.5c3.5-0.7,9-2.3,13.7-5.8
		c-0.4,4.4,0.3,8.3,2.3,11.7c0.8,1.3,1.6,2.5,2.6,3.6C274.4,642,268.2,638.9,262.2,635.5z M282.3,639.1c-2.7-4.8-2.3-11.1,1-18.7
		l1.7-3.7c8.6-18,12.2-25.9,13.6-29.2l0.1,0.1c1.6,0.9,3.9,2.6,5.1,5.7c2.3,5.6,0.4,13.8-5.5,23.7c-3.3,5.6-10.7,19.7-7.3,29.2
		c0.1,0.1,0.1,0.3,0.2,0.4C287.9,645.1,284.3,642.8,282.3,639.1z M352.8,663.1c-1.2-0.2-2.3,0.5-2.7,1.6c-0.2,0.7-0.1,1.3,0.3,1.9
		c-17.1-2.9-33.8-7.4-49.7-13.3c0.6-0.3,1-0.8,1.2-1.5c0.3-1.2-0.4-2.3-1.5-2.7c-2.4-0.9-4-2.3-4.8-4.5c-2.2-6.2,2.1-17,6.9-25.2
		c6.8-11.5,8.7-20.9,5.8-28c-0.2-0.4-0.4-0.8-0.6-1.2c4-0.3,7.7-2.5,9.8-6.1c2.1-3.6,2.1-7.7,0.6-11.2c1.1,0,2.2-0.2,3.3-0.5
		c3.8-1.2,6.9-4.3,9.1-9.1l3.6-7.5c1.6,1.6,3.5,3,5.8,3.6v8.4c0,0.4,0.1,0.7,0.3,1c-6.7,3-14.3,8.6-18.1,19.4
		c-0.8,2.3-1.2,5.6-1.6,9.4c-0.7,6.5-1.6,14.6-5.2,16.7c-1,0.6-2.4,0.7-4.1,0.3c-1.4-0.4-2.2-0.7-2.3-0.7c-1.2-0.5-2.6,0.1-3.1,1.3
		s0.1,2.6,1.3,3.1c0.8,0.4,1.7,0.6,2.5,0.8c0.9,0.3,2.1,0.6,3.5,1c-5.7,0.3-10.2,5-10.2,10.8c0,6,4.9,10.8,10.8,10.8h51.8
		c-0.5,8.1-2.4,16.4-6.5,19.8C357.4,663,355.3,663.5,352.8,663.1z M361.9,665.5c0.1-0.1,0.2-0.2,0.3-0.3c6-5.1,7.7-15.8,8.2-23.4
		h11.9c-0.1,1.1-0.2,2.1-0.3,3.3c-0.7,9.3-3.6,15.5-8.6,18.5C369.8,665.6,365.5,665.9,361.9,665.5z M371.5,669.4
		c1.5-0.4,2.9-1,4.3-1.8c3.4-2,6-5.1,7.9-9.1c2.3,5.5,6.3,9.7,9.1,12.1C385.6,670.4,378.5,670,371.5,669.4z M396.9,667.8
		c-3.2-2.6-11.2-10.1-10.4-19.7l0.6-6.4h19.6l0.1,1.3c0.1,0.8,0.1,1.5,0.2,2.3c0,0.5,0.1,1,0.2,1.5l0.1,1.2
		C408.1,657.7,400.1,665.2,396.9,667.8z M401.1,670.5c2.7-2.4,6.7-6.5,9-12c1.8,4,4.4,7,7.8,9c1.4,0.8,2.8,1.4,4.3,1.8
		C415.2,670,408.2,670.4,401.1,670.5z M420.3,663.5c-4.7-2.8-7.5-8.4-8.4-16.7l-0.4-4.1c0-0.3,0-0.6-0.1-0.9h11.9
		c0.4,7.6,2.2,18.4,8.2,23.4c0.1,0.1,0.2,0.2,0.3,0.3C428.2,665.9,424,665.6,420.3,663.5z M498.2,644.5c-0.8,2.2-2.3,3.6-4.8,4.5
		c-1.1,0.4-1.8,1.6-1.5,2.7c0.2,0.7,0.6,1.2,1.2,1.5c-15.9,5.9-32.5,10.4-49.7,13.3c0.3-0.6,0.5-1.2,0.3-1.9
		c-0.4-1.1-1.5-1.8-2.7-1.6c-2.5,0.5-4.6,0-6.4-1.5c-4.1-3.4-6-11.8-6.5-19.8h52.3c6,0,10.8-4.9,10.8-10.8v0
		c0-5.9-4.7-10.7-10.6-10.8c1.3-0.3,2.4-0.6,3.3-0.9c0.8-0.2,1.6-0.5,2.5-0.8c1.2-0.5,1.8-1.9,1.3-3.1s-1.8-1.8-3.1-1.3
		c0,0-0.9,0.3-2.3,0.7c-1.7,0.4-3,0.3-4.1-0.3c-3.6-2.1-4.5-10.2-5.2-16.7c-0.4-3.8-0.8-7.1-1.6-9.4c-3.8-10.6-11.2-16.3-17.8-19.3
		c0.2-0.4,0.4-0.7,0.4-1.2v-8.1c2.5-0.1,4.5-1.1,6.2-2.3l2.8,5.9c2.2,4.8,5.3,7.9,9.1,9.1c1.1,0.4,2.2,0.5,3.3,0.5
		c-0.3,0.6-0.5,1.2-0.7,1.8c-0.9,3.2-0.4,6.5,1.2,9.4c2.1,3.7,5.9,5.9,9.9,6.1c-0.2,0.4-0.4,0.8-0.5,1.2c-2.9,7.1-1,16.5,5.8,28
		C496.1,627.5,500.4,638.4,498.2,644.5z M502.5,646.5c0.1-0.1,0.1-0.3,0.2-0.4c3.4-9.4-3.9-23.5-7.3-29.2
		c-5.9-9.9-7.8-18.1-5.5-23.7c1.2-3.1,3.5-4.8,5.1-5.7l0.1-0.1c1.5,3.5,5.2,11.8,14.6,31.3c4,8.4,4.6,15.2,1.8,20.3
		C509.4,642.7,505.8,645.1,502.5,646.5z M513,645c1-1.1,1.9-2.3,2.6-3.6c1.9-3.5,2.7-7.4,2.2-11.8c4.8,3.6,10.3,5.2,13.8,5.9
		C525.6,638.8,519.3,642,513,645z M534,631c-4.1-0.7-14.7-3.2-18.8-11.8l-15.7-33.9l12.2-7l18.6,26.4c0.4,0.6,0.8,1.2,1.3,1.8
		c0.3,0.4,0.6,0.8,0.9,1.2l0.7,1C538.6,616.7,535.5,627.2,534,631z M539,631.2c1.2-3.4,2.5-8.9,1.8-14.8c3.6,2.5,7.4,3.9,11.3,3.9
		c0.1,0,0.2,0,0.2,0c1.4,0,2.7-0.2,4-0.5C550.7,623.9,544.9,627.6,539,631.2z M552.1,615.6c-5.5-0.1-10.7-3.5-15.6-10.2l-2.4-3.4
		c-11.3-16.4-16.3-23.4-18.5-26.3l0.8-0.4c1.6-0.9,3.9-1.6,6.8-1.3c6,0.8,12.2,6.5,17.9,16.6c3.2,5.7,11.8,19.1,21.6,20.9
		c0.1,0,0.3,0,0.4,0.1C560.1,613.7,556.3,615.6,552.1,615.6z M573.7,606.6c0-0.6-0.3-1.1-0.7-1.6c-0.9-0.8-2.2-0.8-3.1-0.1
		c-2,1.7-4,2.3-6.3,1.9c-6.5-1.2-13.7-10.3-18.4-18.6c-6.5-11.6-13.7-18-21.4-19c-0.4-0.1-0.9-0.1-1.3-0.1c0.3-0.7,0.6-1.4,0.8-2.2
		c0.9-3.2,0.4-6.6-1.2-9.4c-2.1-3.6-5.6-5.7-9.4-6.1c0.5-0.9,0.9-2,1.2-3.1c0.9-3.9-0.3-8.1-3.3-12.5L493,510.1
		c6.5-7.2,9.5-16.1,11.8-26.1l34.3,23.4c3.4,2.4,6.7,3.6,9.9,3.6c0.9,0,1.8-0.1,2.6-0.3c1.2-0.3,2.2-0.7,3.1-1.2
		c0.1,0.6,0.1,1.3,0.3,1.9c0.9,3.2,2.9,5.9,5.8,7.5c1.9,1.1,4.1,1.7,6.2,1.7c1.9,0,3.7-0.5,5.4-1.3c0,0.4,0.1,0.8,0.1,1.3
		c1,7.6,7.4,14.8,19,21.4c8.2,4.6,17.4,11.9,18.6,18.4c0.4,2.2-0.2,4.3-1.9,6.3c-0.8,0.9-0.7,2.3,0.1,3.1c0.4,0.5,1,0.7,1.6,0.7
		C598.9,583.5,586.8,595.7,573.7,606.6z"/>
	<path id="XMLID_12_" fill="#C10230" d="M493.4,410l-0.2,0c0,0,0,0,0.1,0.1C493.3,410,493.3,410,493.4,410z"/>
</g>
</svg>
