<?xml version="1.0" standalone="no"?>
<!DOCTYPE svg PUBLIC "-//W3C//DTD SVG 20010904//EN"
        "http://www.w3.org/TR/2001/REC-SVG-20010904/DTD/svg10.dtd">
<svg version="1.0" xmlns="http://www.w3.org/2000/svg"
     width="1000.000000pt" height="1000.000000pt" viewBox="0 0 600.000000 400.000000"
     preserveAspectRatio="xMidYMid meet">

  <defs>
    <linearGradient id="librechatGradient" x1="0%" y1="0%" x2="100%" y2="100%">
      <stop offset="0%" style="stop-color:#21facf;stop-opacity:1" />
      <stop offset="100%" style="stop-color:#0970ef;stop-opacity:1" />
    </linearGradient>
  </defs>

  <g transform="translate(-50,450) scale(0.12,-0.12)"
     fill="url(#librechatGradient)" stroke="none">
    <path d="M2655 3289 c-152 -20 -345 -95 -480 -184 -78 -52 -193 -162 -258
-247 -103 -135 -198 -360 -214 -506 -3 -29 -10 -55 -14 -58 -13 -7 -11 -221 1
-229 6 -3 10 -21 10 -38 0 -48 46 -209 84 -298 113 -261 345 -485 607 -587
167 -64 238 -77 429 -76 144 1 178 4 268 27 111 29 222 79 222 101 0 14 -103
116 -118 116 -5 0 -35 -9 -67 -20 -86 -29 -248 -60 -319 -60 -33 0 -97 7 -141
15 -212 40 -376 125 -520 270 -151 150 -234 316 -269 537 -20 122 -20 162 -1
263 44 231 121 382 270 530 154 154 324 239 549 271 122 18 224 11 364 -27
261 -69 490 -262 607 -512 51 -106 94 -293 95 -402 0 -66 -25 -204 -51 -285
-44 -134 -137 -290 -173 -290 -14 0 -89 68 -227 207 -187 188 -208 214 -228
268 -31 83 -26 160 17 247 18 36 32 70 32 75 0 13 -89 103 -102 103 -6 0 -40
-15 -77 -32 -58 -29 -76 -33 -146 -33 -71 0 -86 3 -139 33 -33 17 -65 32 -72
32 -15 0 -104 -87 -104 -102 0 -6 15 -40 33 -77 27 -56 32 -76 32 -141 0 -65
-5 -85 -32 -141 -18 -37 -33 -71 -33 -76 0 -14 91 -103 105 -103 7 0 41 15 75
33 56 28 72 32 144 32 65 0 90 -5 126 -24 30 -15 173 -151 418 -395 424 -422
428 -427 420 -545 -4 -50 -12 -80 -33 -115 l-28 -47 49 -50 c26 -27 56 -49 65
-49 9 0 41 11 71 25 71 33 145 33 216 0 30 -14 62 -25 72 -25 9 0 38 22 63 49
l47 50 -30 63 c-38 79 -39 140 -5 223 14 33 25 67 25 76 0 18 -78 99 -96 99
-7 0 -36 -11 -66 -25 -36 -17 -70 -25 -108 -25 -97 0 -122 13 -230 116 -55 53
-102 105 -106 116 -4 13 6 37 32 76 136 205 195 372 209 592 16 254 -50 490
-199 714 -161 241 -457 422 -761 466 -81 11 -224 11 -310 -1z m223 -1106 l-3
-68 -65 0 -65 0 -3 54 c-5 79 -2 81 73 81 l66 0 -3 -67z m1180 -1200 c3 -38 0
-43 -21 -48 -14 -4 -36 -5 -48 -3 -26 3 -35 32 -24 75 5 21 10 24 48 21 42 -3
42 -3 45 -45z"/>
  </g>
</svg>
