<?xml version="1.0" encoding="utf-8"?>
<svg version="1.1" xmlns="http://www.w3.org/2000/svg" xmlns:xlink="http://www.w3.org/1999/xlink" x="0px" y="0px"
     viewBox="15 18 232 247" xml:space="preserve">
<style type="text/css">
	.st0{fill:#3D9645;}
	.st1{fill:#070707;}
	.st2{fill:#0081C5;}
</style>
  <g>
	<path class="st0" d="M113.01,186.96l1.92-2.37l1.33-1.48l0.15-1.18l0.59-1.03l0.59-1.92l0.89-1.18l0.59-2.22l0.89-1.33l2.96-2.66
		v-0.3l0.15-1.03l3.55-3.25l1.03-1.33l3.4-0.44l1.63,0.29l2.81,0.59l1.63-0.89h1.03l1.92-2.07l1.77-0.15l0.59-0.74l2.36-0.15
		l0.3-1.33l-0.89-1.48l-0.89-1.62l-0.3-1.33l1.04-1.18l2.51-2.07l2.37,0.15l1.22-1.34l-0.04,0.01l0.59-0.89l1.33-1.48l1.92-0.74
		l0.74-0.59l1.18-0.44l1.18-0.89l0.59-1.18l0.59-1.03l1.92-0.44l1.18-0.44l1.77-0.3l1.18-0.15l3.1-3.1l0.3-0.89l2.96-0.3l1.04-0.59
		h1.63l1.63-0.44l0.3-1.33l0.89-0.74l-0.15-1.46l-0.89-0.06v-1.44l-1.55-0.67l-1-1.77l-1.66-1.55l-2.33-1.66l-2.55-2.44l-0.33-1.44
		l-1-0.89l-0.22-1.44l-2-0.89l-1.11-0.44l-1-1.11v-1.33l-1-0.44l-0.89-2l-0.33-2.11l-0.55-0.78l-0.22-1.22l-1.44-0.67h-0.78
		l-0.78,0.67h-1.33l-0.78-0.55l-2-2.33l-0.11-9.31l-0.78-0.78l-0.11-0.67l-0.78-0.66l-1.88-1.44l-0.44-0.67l-1.89-0.11l-0.89,0.44
		l-0.55,1.11l-1.33,0.11l-0.22-0.78l-1-0.22l-0.33-0.89l0.55-1.33l0.22-1.33l-0.89-1l-0.22-0.78l0.55-1l-0.78-1v-1.44l1.22-1.66
		l-0.78-1.11l-0.33-2l1.11-0.78l0.11-2l-0.33-1l-0.22-0.89c0.44-1,2.44-3.1,2.44-3.1h2.55l2.33-1.33l0.33-2.33l0.55-0.78l-0.89-1.22
		c-0.11-0.67,1.22-1.22,1.22-1.22l1.88-0.44l0.55-0.55l0.11-1.44l-0.89-0.67l-4.21-6.32l-0.33-0.55l-1.44-2.88l3.1-3.55l2.99-0.33
		l5.21-5.21l0.44-0.67v-2.33c1.34,1.11,8.76-11.64,8.76-11.64c1.99-7.04,8.06-11.11,11.01-12.72h-54.34v96.82L69.33,17.51H14.96
		v188.07h50.05v-95.08l47.61,76.66L113.01,186.96z"/>
    <polygon class="st1" points="187.51,220.37 189.14,222.59 188.25,221.26 	"/>
    <path class="st2" d="M178.82,17.51l23.21,14.49l35.92,19.29l-0.11,4.32c0,0-0.89,8.43-6.32,15.63l-0.33,1.11l-0.22,1.77l-0.89,1.66
		l0.11,2.11l0.67,1.11l0.11,0.67l-0.67,0.67l-3.33,2.11L225.87,84l-0.78,1.44l-1.77,0.89L221.77,86l0.22-1.66l1.88-2.33l0.44-1
		l-0.44-0.55l-1.66,0.33l-2.11,2.66l-1,2.22l-3.44,3.22l0.22,1.77l-0.67,0.89l0.11,1.44l-0.33,1.33l-1.55,0.78l-0.66,1.22
		l-0.33,2.88l-0.78,1.22l-0.55,1.33l-1.33-0.67l-1.88-0.78l-0.78,0.78l-1.33,1.55l-2.22,0.89l2.55-0.22l1-1.22l1.22-0.44l1.44,0.44
		l0.33,1l0.67,1.33l1.33,1.11l0.33,0.89l0.89-0.44l1.11,0.55l1,0.78h1l0.22-0.67l0.55-0.67l1.22,0.44l1-0.11l0.55-0.44l0.78-0.33
		l1.22,0.66l0.78,1l1.22,0.22l1.11,0.33l1.11,0.55l1.55,1.11l1.55,0.33l1.22,0.22l1.11,0.89l0.33-1v-1.11l-0.55-1l-1.11-0.89
		l0.11-0.89l0.44-0.78l-0.44-1.77l0.89,0.33l0.89,1.44l0.78,0.89l0.33,1.55l0.44,1.55l0.11,2l-0.67,0.89h-2.33l-1.89,0.44
		l-1.11,1.44l-0.78,0.33l-0.89,0.67l0.55,0.44l1.66-0.55l1-1.22l2-0.67l1.55,0.44l-1.55,1.66l-0.44,1.44l-0.89,0.67l-0.22,1.44
		l0.78-0.55l1.22-0.55l0.11-1.88l1.88-0.89l-0.33,2.11l0.22,1.11l-0.78,1.33l0.11,1.22l0.11,3.44l-0.66,1.22l-0.78,1.44l-0.44,0.89
		l-0.22,3.55l-0.67,0.78l-3.22,0.22l1,1l2-0.22l0.11,1.33l-0.67,1.44l-0.33,4.43l-1.29,0.47l0.14,1.85l-0.74,1.18l-0.59,1.33
		l-1.33,1.03l-1.18-0.44l-1.18,0.3l-0.59,1.03v1.77l-0.89,1.33l-0.15,1.04l1.04,1.03l1.33,0.89l0.3,1.33l-0.74,1.03l-0.15,1.18
		l-1.63,0.15l-1.48-0.59l-1.33-0.89l0.15,1.33l1.04,1.18l1.77,0.15l1.18,0.3l0.15,1.03l-1.03,1.33l-0.74,1.33l-0.59,1.48l1.18,0.89
		l-1.03,2.07l-1.33,1.92l-0.44,1.48l-0.89,1.77v1.48l-0.74,1.03l0.59,1.92l1.48,0.74v0.89l-0.15,1.92l-1.33,1.33l-0.89,1.33
		l-0.74,2.22l-1.18,1.48l-1.92,0.3l-0.59,1.33l-1.33,2.07l-1.63,0.15l-1.04,1.62l-1.33,1.18l-0.59,1.33l1.33,1.33l-0.29,0.89
		l-1.63,0.59l-1.92-0.44l-1.92,0.59l-1.03,1.63l-0.59,1.33l1.03,2.36l-0.15,1.92l-1.18,1.18l-1.33-0.29l-0.89-0.3l-0.89,1.18
		l-0.74,1.63l-1.03,1.33v2.07l-1.33,2.07h-1.48l-0.59,1.48l-2.07,1.92l-0.89,2.22l-2.07,1.04h-1.18l-1.04,0.74l-0.89,0.3l0.3,1.63
		l-0.15,1.63l-1.18,1.77l-2.07,2.81l-1.63,1.77l-2.22,1.92l0.15,1.33l-0.44,2.37l-1.33,1.92l-1.92,1.03l-0.89,1.18l-1.33,0.74
		l0.15,1.03l1.03,1.03l-0.44,1.77l-0.89,1.77l-2.37,1.48l-2.07,1.03l-1.63,1.03l-0.89,2.22l-0.15,1.63l-0.89,1.33h-1.33l-1.18-1.03
		l-1.48-0.44l-1.18-0.15l-0.3-2.07l0.44-2.81l1.04-2.07l2.22-3.1l1.03-3.25l1.03-1.62l-0.44-2.22l-1.18-2.37l-1.03-1.29v0.26
		l-1.48-0.44l-1.92-0.59h-4.29l-0.59-0.74l-0.3-1.33l-1.03-0.59l-1.33,0.59l-1.92,0.29l-1.77,0.44l-0.44,1.33l-1.18,0.74l-0.74-0.44
		l-1.48-0.59l-1.04-0.3l0.3-0.74l0.44-1.18l0.15-1.77l-1.03-1.18l-1.63-1.03l-1.77-0.74l-0.89-1.03l-1.03-2.22l-1.03-0.59l-1.33,0.3
		l-1.04,1.03l-0.89-0.74l-0.89-1.33l-0.74-0.89v-1.48l-0.59-0.89l-0.44-0.89l-1.03,0.44l-0.74,1.04l-0.59-0.74l-0.89-0.74
		l-0.89-1.18l-0.59-0.89l-0.89-1.33l-2.22-0.44l-0.44-1.33l-0.59-1.63l-3.1-2.96l-0.89-1.03l-1.92-0.15l-1.03-0.89l-0.59-1.18
		l0.89-1.03l0.15-2.07l0.74-3.4l0.89-1.62l0.15-1.33l-1.03-1.04l-1.43-1.02H86.69v1.62v3.71v0.84c0,0.31,0.02,0.61,0.02,0.91
		c0.49,36.5,30.22,66.25,66.71,66.78c0.33,0,0.65,0.02,0.98,0.02h25.51c0.87,0,1.73-0.03,2.58-0.07
		c36.06-1.37,65.13-31.27,65.13-67.65v-6.17V17.51H178.82z M229.05,146.46l-0.89,4.29l-0.59,3.1l-0.15,1.48
		c-1.63,20.84-6.65,27.35-6.65,27.35l-1.33,3.4c-2.66,6.65-7.39,11.53-7.39,11.53l-1.18,1.48l-2.66,0.44l-0.2-0.17l-0.1,1.05
		l0.74,1.63l0.3,1.48l-1.33,1.18l-0.59,1.92l-1.04,2.22l-2.81,2.51l-1.92,1.03l-0.59,1.48l-1.63,1.33l-2.37,1.33l-2.81,2.22
		l-1.77,1.03l-1.77,0.44l-0.59,1.63l-0.59,0.74l-0.59,1.04c0,0-1.63,1.33-4.14,4.58l-0.3,0.74l-1.18,0.59l-0.59,1.48
		c0,0-1.63,4.73-3.4,6.21l-0.74,1.63c0,0-1.48,5.47-5.91,9.17l-0.3,1.77c0,0-8.43,8.28-12.71,7.69l-1.04-0.59l1.63-0.44l1.33-0.74
		l1.92-0.59l1.18-0.74l2.07-1.92l0.89-1.77l1.33-0.44l0.74-1.48l1.77-1.33l2.22-2.66l1.63-2.07l1.63-2.07l0.44-2.51l0.89-2.22
		l1.63-3.1l0.74-2.07l1.77-2.07l1.63-2.07l1.63-2.51l0.74-2.22l1.48-1.48l1.63-0.44l1.33-1.48l1.92-1.92l1.04-1.48l1.77-0.44
		l1.48-1.03l0.89-1.33v-2.07l0.44-1.18l1.63,0.15l0.89,0.89l1.48-0.89l1.33-2.07l0.59-0.89l-0.3-1.18l0.44-2.22l1.03-1.04
		l-1.33-1.33l0.44-1.03l2.22-0.15l1.07-0.29l-0.18-0.15v-1.18l0.89-1.03l1.48,0.59c0,0,1.18-1.03,0.89-1.77
		c-0.3-0.74,0.15-1.03,0.15-1.03h1.03l0.74-1.04l-0.59-0.89l-0.3-0.74l0.89-0.59l1.18-1.62l1.63-0.59l1.18-1.03l0.15-1.92l0.3-1.04
		l1.48-0.59l0.44-1.77l1.18-1.18l-0.15-1.33l0.15-1.04l1.77-2.07l0.89-2.22h-0.59l-1.48,0.15l-0.3-1.04l1.77-0.15l0.74-1.33
		l-0.89-0.44l-0.3-1.03l1.92-1.33l1.92-9.76l-0.15-2.22l-0.59-1.33l0.74-0.89l0.89-1.63l-0.74-1.18l-1.04-1.18l-0.15-1.18l1.03-0.74
		l0.74-1.18l1.03-0.44l0.89-2.22l1.33-3.4L229.05,146.46z"/>
</g>
</svg>
