<svg width="512" height="512" viewBox="0 0 512 512" fill="none" xmlns="http://www.w3.org/2000/svg">
<path fill-rule="evenodd" clip-rule="evenodd" d="M74.7253 404.001C95.3287 502.992 250.521 514.179 235.521 511.705C47.6469 481.133 -59.2714 311.62 502.469 203.618C520.323 200.185 510.196 139.373 495.753 142.179C380.933 164.333 50.6407 288.321 74.7253 404.001Z" fill="#E56F54"/>
<path fill-rule="evenodd" clip-rule="evenodd" d="M498.294 313.097C409.754 326.72 71.3516 439.669 222.401 500.85C209.734 495.532 189.337 484.197 187.423 465.7C181.193 405.182 473.827 371.877 473.827 371.877C486.74 370.179 517.89 310.069 498.294 313.097Z" fill="#D74751"/>
<path fill-rule="evenodd" clip-rule="evenodd" d="M441.591 0.0621277C392.064 -3.1871 -63.2799 121.133 7.44256 344.777C16.5617 373.613 33.546 398.722 51.8187 419.212C62.8861 432.211 74.8939 443.362 82.0976 449.712C82.7246 450.266 83.386 450.856 84.0114 451.41C84.9518 452.223 85.7528 452.925 86.4487 453.478C86.5521 453.551 86.6227 453.626 86.7261 453.699C87.98 454.77 88.676 455.324 88.676 455.324C99.9518 464.592 111.543 472.383 122.402 478.364C122.819 478.585 123.166 478.808 123.48 478.954C119.513 476.591 105.207 468.284 88.154 453.772C78.4079 445.465 68.2449 435.348 61.3892 427.964C51.9566 417.772 43.6745 406.437 37.0617 393.994C-12.8835 300.21 29.7529 158.647 474.133 57.3667C484.575 54.9668 473.055 2.0929 441.556 0.0252046L441.591 0.0621277Z" fill="#FAA74A"/>
</svg>
