<?xml version="1.0" encoding="UTF-8"?>
<svg version="1.1" xmlns="http://www.w3.org/2000/svg" width="404" height="112">
<path d="M0 0 C23.1 0 46.2 0 70 0 C70 2.31 70 4.62 70 7 C49.21 7 28.42 7 7 7 C7 36.7 7 66.4 7 97 C37.03 97 67.06 97 98 97 C98 76.54 98 56.08 98 35 C100.31 35 102.62 35 105 35 C105 57.77 105 80.54 105 104 C70.35 104 35.7 104 0 104 C0 69.68 0 35.36 0 0 Z " fill="#00BE6D" transform="translate(3,7)"/>
<path d="M0 0 C15.18 0 30.36 0 46 0 C46 5.28 46 10.56 46 16 C36.76 16 27.52 16 18 16 C18 17.98 18 19.96 18 22 C27.24 22 36.48 22 46 22 C46 25.3 46 28.6 46 32 C36.76 32 27.52 32 18 32 C18 33.98 18 35.96 18 38 C27.24 38 36.48 38 46 38 C46 43.28 46 48.56 46 54 C30.82 54 15.64 54 0 54 C0 36.18 0 18.36 0 0 Z " fill="#000000" transform="translate(33,32)"/>
<path d="M0 0 C10 0 10 0 12.078125 1.8359375 C12.46484375 2.67382812 12.8515625 3.51171875 13.25 4.375 C13.70117188 5.27734375 14.15234375 6.1796875 14.6171875 7.109375 C15.07351562 8.06328125 15.52984375 9.0171875 16 10 C17.10620223 11.88615127 18.23049033 13.76184472 19.375 15.625 C20.24125 17.06875 21.1075 18.5125 22 20 C25.63 13.4 29.26 6.8 33 0 C36.63 0 40.26 0 44 0 C44 14.52 44 29.04 44 44 C40.37 44 36.74 44 33 44 C32.67 36.74 32.34 29.48 32 22 C29.69 26.29 27.38 30.58 25 35 C23.02 35 21.04 35 19 35 C15.04 28.07 15.04 28.07 11 21 C10.67 28.59 10.34 36.18 10 44 C6.7 44 3.4 44 0 44 C0 29.48 0 14.96 0 0 Z " fill="#000000" transform="translate(163,37)"/>
<path d="M0 0 C22.82857143 0 22.82857143 0 28.3125 5.1875 C30.47972476 8.79954126 31.2069417 11.79494472 31 16 C29.31156523 20.78389851 26.58368889 23.5044346 23 27 C23.6496875 27.97582031 24.299375 28.95164062 24.96875 29.95703125 C25.81285854 31.24195203 26.65658894 32.52712129 27.5 33.8125 C27.92925781 34.45509766 28.35851562 35.09769531 28.80078125 35.75976562 C32 40.66015625 32 40.66015625 32 44 C28.20105643 44.54753457 24.77883906 44.76098 21 44 C18.17595818 41.4222742 16.67447166 38.40278485 15 35 C14.21514199 33.64187579 13.42429653 32.28717719 12.625 30.9375 C12.08875 29.968125 11.5525 28.99875 11 28 C10.67 33.28 10.34 38.56 10 44 C6.7 44 3.4 44 0 44 C0 29.48 0 14.96 0 0 Z M10 9 C10 11.97 10 14.94 10 18 C14.0100934 18.17864631 14.0100934 18.17864631 18 18 C20.23845015 16.17084359 20.23845015 16.17084359 20.3125 13.5 C20.209375 12.675 20.10625 11.85 20 11 C16.3558226 8.5705484 14.28758728 8.83820425 10 9 Z " fill="#000000" transform="translate(246,37)"/>
<path d="M0 0 C3.63 0 7.26 0 11 0 C11.01458252 0.8878418 11.02916504 1.77568359 11.04418945 2.69042969 C11.10534534 5.99327962 11.17951378 9.29530915 11.26245117 12.59765625 C11.29564794 14.02527914 11.32369631 15.45303163 11.34643555 16.88085938 C11.38008013 18.93675815 11.43239562 20.99147512 11.48828125 23.046875 C11.51446533 24.28276367 11.54064941 25.51865234 11.56762695 26.79199219 C12.02347714 30.17418952 12.61672901 31.6057445 15 34 C17.70761865 34.69328139 20.25708359 34.48101248 23 34 C25.67431489 32.18836733 25.95920359 31.12238923 27 28 C27.15070797 25.86338742 27.2485966 23.72287876 27.31640625 21.58203125 C27.35830078 20.32841797 27.40019531 19.07480469 27.44335938 17.78320312 C27.48267578 16.47287109 27.52199219 15.16253906 27.5625 13.8125 C27.60570992 12.47720022 27.649325 11.14191348 27.69335938 9.80664062 C27.79956502 6.53786703 27.90160997 3.26901667 28 0 C31.3 0 34.6 0 38 0 C38.0994692 4.42905723 38.17174818 8.85750909 38.21972656 13.28735352 C38.23974363 14.79170062 38.26696627 16.29597089 38.30175781 17.80004883 C38.35071945 19.97236162 38.37306653 22.14363906 38.390625 24.31640625 C38.41157227 25.62037354 38.43251953 26.92434082 38.45410156 28.26782227 C37.78788233 33.74335639 35.62664157 37.32817394 31.75 41.3125 C26.08672675 44.7876904 20.634799 45.50459485 14.171875 44.53515625 C9.13259094 43.29346216 5.84859462 41.09424043 2.625 36.9375 C0.08884215 32.35290696 -0.11882442 29.1119822 -0.09765625 23.92578125 C-0.0962413 23.2419487 -0.09482635 22.55811615 -0.09336853 21.8535614 C-0.08777876 19.67316278 -0.07522822 17.49286749 -0.0625 15.3125 C-0.05748367 13.83268378 -0.052921 12.35286594 -0.04882812 10.87304688 C-0.03781271 7.24866443 -0.02055512 3.6243423 0 0 Z " fill="#000000" transform="translate(328,37)"/>
<path d="M0 0 C8.58 0 17.16 0 26 0 C26 2.97 26 5.94 26 9 C21.05 9 16.1 9 11 9 C11 11.97 11 14.94 11 18 C15.62 18 20.24 18 25 18 C25 20.97 25 23.94 25 27 C20.38 27 15.76 27 11 27 C11 29.64 11 32.28 11 35 C16.28 35 21.56 35 27 35 C27 37.97 27 40.94 27 44 C18.09 44 9.18 44 0 44 C0 29.48 0 14.96 0 0 Z " fill="#000000" transform="translate(213,37)"/>
<path d="M0 0 C-1.12451727 2.9719385 -2.22293791 5.33440687 -4 8 C-4.495 7.835 -4.99 7.67 -5.5 7.5 C-9.03444089 6.79311182 -12.39690701 6.93994845 -16 7 C-16.33 8.32 -16.66 9.64 -17 11 C-15.42798828 11.76183594 -15.42798828 11.76183594 -13.82421875 12.5390625 C-12.4448426 13.23344233 -11.06596195 13.92880709 -9.6875 14.625 C-8.99720703 14.95628906 -8.30691406 15.28757812 -7.59570312 15.62890625 C-2.99252833 17.98608755 -0.72543223 19.89586967 1 25 C1.53686761 29.29494088 1.13733161 33.28190331 -1.28515625 36.94140625 C-5.16291924 40.74583093 -9.07335848 41.94291774 -14.4375 42.171875 C-19.91123447 41.80473427 -24.37834602 40.38433876 -28.5625 36.8125 C-29.036875 36.214375 -29.51125 35.61625 -30 35 C-28.35 33.02 -26.7 31.04 -25 29 C-24.175 29.33 -23.35 29.66 -22.5 30 C-18.4126017 31.16782809 -15.23076656 31.1458885 -11 31 C-11.04684405 28.58817379 -11.04684405 28.58817379 -12 26 C-14.60643499 24.22613128 -14.60643499 24.22613128 -17.8125 22.9375 C-21.96466304 21.11176205 -25.16084535 19.60864517 -28 16 C-29.33008836 11.53003093 -29.58197804 7.3676484 -27.75 3.0625 C-26.88375 2.0415625 -26.88375 2.0415625 -26 1 C-25.608125 0.443125 -25.21625 -0.11375 -24.8125 -0.6875 C-17.84134287 -5.7355793 -6.68946195 -5.12858749 0 0 Z " fill="#000000" transform="translate(400,40)"/>
<path d="M0 0 C8.25 0 16.5 0 25 0 C25 2.97 25 5.94 25 9 C20.05 9 15.1 9 10 9 C10 11.97 10 14.94 10 18 C14.62 18 19.24 18 24 18 C24 20.97 24 23.94 24 27 C19.38 27 14.76 27 10 27 C10 29.64 10 32.28 10 35 C15.28 35 20.56 35 26 35 C26 37.97 26 40.94 26 44 C17.42 44 8.84 44 0 44 C0 29.48 0 14.96 0 0 Z " fill="#000000" transform="translate(131,37)"/>
<path d="M0 0 C8.91 0 17.82 0 27 0 C27 2.97 27 5.94 27 9 C24.36 9 21.72 9 19 9 C19 20.55 19 32.1 19 44 C15.7 44 12.4 44 9 44 C9 32.45 9 20.9 9 9 C6.03 9 3.06 9 0 9 C0 6.03 0 3.06 0 0 Z " fill="#000000" transform="translate(297,37)"/>
<path d="M0 0 C3.63 0 7.26 0 11 0 C11 14.52 11 29.04 11 44 C7.37 44 3.74 44 0 44 C0 29.48 0 14.96 0 0 Z " fill="#000000" transform="translate(282,37)"/>
<path d="M0 0 C9.57 0 19.14 0 29 0 C29 9.57 29 19.14 29 29 C26.69 29 24.38 29 22 29 C22 21.74 22 14.48 22 7 C14.74 7 7.48 7 0 7 C0 4.69 0 2.38 0 0 Z " fill="#00BE6D" transform="translate(85,1)"/>
</svg>
