<svg xmlns="http://www.w3.org/2000/svg" width="768" height="768" viewBox="0 0 768 768">
<g>
<path d="M 366.50 660.43 C364.30,660.22 357.10,659.55 350.50,658.94 C328.35,656.91 298.42,649.96 275.33,641.48 C249.84,632.13 213.97,611.68 191.00,593.42 C180.18,584.82 152.47,557.09 143.61,546.00 C131.32,530.61 117.27,508.36 108.01,489.59 C95.44,464.11 87.52,441.45 82.52,416.63 C64.36,326.57 86.14,235.56 142.98,164.00 C152.46,152.06 176.82,127.35 188.00,118.34 C207.66,102.48 225.50,91.11 248.28,79.93 C284.71,62.04 314.30,54.45 352.10,53.29 C403.43,51.73 450.12,64.98 492.50,93.14 C551.09,132.08 586.92,188.30 596.62,256.50 C598.90,272.52 598.91,302.50 596.64,317.49 C593.40,338.94 587.76,355.10 579.03,367.96 C560.33,395.49 539.41,407.49 515.89,404.16 C503.11,402.36 497.31,398.31 492.52,387.83 C488.56,379.16 487.05,370.25 486.05,349.50 C484.75,322.67 482.38,309.68 475.54,291.97 C466.72,269.13 456.36,253.29 438.54,235.43 C419.21,216.04 400.16,204.22 374.87,195.92 C359.33,190.81 348.69,188.95 331.34,188.28 C243.22,184.88 169.48,252.71 165.33,341.00 C163.25,385.11 179.26,427.56 209.93,459.31 C234.93,485.19 262.91,500.28 297.60,506.61 C309.41,508.77 340.08,509.13 349.39,507.22 C358.16,505.43 365.33,501.74 371.62,495.80 C376.22,491.46 382.95,482.11 382.99,480.00 C383.00,479.73 378.65,479.66 373.33,479.85 C337.18,481.17 301.57,465.78 278.13,438.70 C257.60,414.98 244.92,382.77 240.92,344.19 C239.06,326.24 241.02,272.08 243.64,269.08 C243.85,268.84 245.62,270.54 247.60,272.84 C255.39,281.94 271.14,290.87 287.50,295.45 C292.45,296.84 307.30,299.78 320.50,301.99 C352.05,307.27 367.73,311.90 387.50,321.76 C420.63,338.29 439.42,367.72 443.02,408.74 C443.96,419.43 442.73,442.64 441.15,444.25 C440.74,444.66 437.73,441.28 434.46,436.75 C431.18,432.21 422.88,422.85 416.00,415.94 C396.63,396.47 379.13,385.71 346.45,373.17 C317.25,361.97 304.33,355.28 288.97,343.41 C285.03,340.36 281.62,338.04 281.41,338.25 C280.73,338.93 291.44,351.30 297.74,357.11 C306.74,365.43 316.25,371.36 338.50,382.58 C349.50,388.13 362.55,395.19 367.50,398.27 C387.21,410.56 405.06,427.30 421.39,448.85 C440.29,473.78 462.34,487.68 494.05,494.64 C500.89,496.15 506.59,496.49 524.00,496.44 C543.87,496.39 546.22,496.19 555.00,493.81 C581.16,486.71 601.79,474.85 622.31,455.11 C639.34,438.72 650.25,423.53 661.53,400.50 C672.56,378.01 678.81,359.81 683.47,336.73 C686.55,321.43 687.32,324.74 687.33,353.50 C687.35,376.84 686.49,387.34 682.92,408.00 C669.79,483.82 627.85,552.29 566.00,598.88 C522.07,631.98 473.25,651.60 417.63,658.51 C405.67,660.00 374.28,661.18 366.50,660.43 ZM 664.11 254.42 C645.18,249.33 628.32,232.26 623.58,213.40 C621.56,205.32 621.56,191.68 623.58,183.60 C628.34,164.68 644.34,148.42 663.93,142.61 C671.15,140.47 687.80,140.46 695.07,142.60 C714.63,148.34 730.49,164.43 735.47,183.55 C737.42,191.03 737.44,205.90 735.51,213.31 C730.36,233.07 714.07,249.36 694.30,254.51 C687.09,256.39 671.25,256.34 664.11,254.42 Z" fill="rgba(38,182,84,1)" data-index="0"></path>
</g>
</svg>