<svg width="180" height="52" viewBox="0 0 180 52" fill="none" xmlns="http://www.w3.org/2000/svg">
<g clip-path="url(#clip0_2401_1041)">
<path d="M67.9558 0.985596H61.2317V41.7547H67.9558V0.985596Z" fill="#061548"/>
<path d="M56.5716 0.985596H49.8475V41.7547H56.5716V0.985596Z" fill="#061548"/>
<path d="M11.0691 6.3229H14.4498V0H11.2869C7.88847 0 5.14538 0.849575 3.1341 2.52535C1.0549 4.25833 0 6.83966 0 10.1986V41.7983H6.50622V18.2157H14.4498V11.8085H6.50622V10.9239C6.50622 9.19398 6.4487 6.32229 11.0691 6.32229V6.3229Z" fill="#061548"/>
<path d="M150.273 35.26L148.829 35.5454C148.688 35.5725 148.21 35.6525 147.865 35.6525C145.225 35.6525 143.847 35.4144 143.847 30.2979V18.2162H150.055V11.809H143.847V4.76636H137.122V30.6812C137.122 40.0603 142.194 42.0289 146.449 42.0289C147.831 42.0289 148.923 41.8948 149.235 41.8524L150.274 41.7029V35.26H150.273Z" fill="#061548"/>
<path d="M178.281 17.3311C177.138 15.3755 175.623 13.8769 173.78 12.8772C172.017 11.9243 170.1 11.4383 167.921 11.3903C164.259 11.3288 162.048 11.8215 160.063 13.2217V0.876709H153.557V41.6458H160.063V24.8734C160.063 23.3815 160.409 21.942 161.011 20.9232C161.64 19.8571 162.487 19.0198 163.529 18.4348C164.576 17.8473 165.771 17.5489 167.078 17.5489C168.998 17.5489 170.509 18.1672 171.698 19.4388C172.906 20.7319 173.494 22.4206 173.494 24.6021V41.6458H180V24.4919C180 21.6928 179.421 19.2844 178.281 17.3311Z" fill="#061548"/>
<path d="M38.3759 11.8086V28.9717C38.3759 31.0781 37.805 32.6702 36.58 33.9818C35.4192 35.2233 33.2005 35.8729 31.609 35.8729C30.0175 35.8729 27.7981 35.2233 26.6374 33.9818C25.4118 32.6702 24.8415 31.0781 24.8415 28.9717V11.8086H18.3353V28.928C18.3353 31.7278 18.9141 34.1362 20.0547 36.0888C21.1977 38.0451 22.7121 39.5437 24.5557 40.5428C26.4483 41.5665 29.539 42.0334 31.6096 42.0334C33.6802 42.0334 36.7703 41.5671 38.6634 40.5422C40.5058 39.5437 42.0203 38.0451 43.1633 36.0888C44.3044 34.1368 44.8827 31.7278 44.8827 28.928V11.8086H38.3765H38.3759Z" fill="#061548"/>
<path d="M79.3418 11.7673H72.843V52H79.3418V11.7673Z" fill="#061548"/>
<path d="M132.814 11.7673H126.299V41.7977H132.814V11.7673Z" fill="#061548"/>
<path d="M132.803 26.7778C132.803 18.5017 126.105 11.7678 117.873 11.7678C108.645 11.7678 104.753 18.8345 100.734 23.9633C98.0375 27.4041 94.0779 35.2545 87.7724 35.2545C83.1239 35.2545 79.3412 31.452 79.3412 26.7784C79.3412 22.1048 83.1233 18.3017 87.7724 18.3017C90.0585 18.3017 92.9698 19.8342 96.6246 24.0359L100.585 18.7447C96.4863 13.2264 91.8293 11.7684 87.7724 11.7684C79.5407 11.7684 72.8436 18.5023 72.8436 26.7784C72.8436 35.0545 79.5407 41.7878 87.7724 41.7878C96.8571 41.7878 100.853 35.1001 106.016 28.1503C109.27 23.7701 112.158 18.3011 117.874 18.3011C122.523 18.3011 126.305 22.1036 126.305 26.7778C126.305 31.4514 122.554 35.2539 117.874 35.2539C114.617 35.2539 111.339 32.2228 109.061 29.5535L105.091 34.8571C109.486 40.718 114.605 41.7878 117.873 41.7878C126.105 41.7878 132.803 35.0545 132.803 26.7784V26.7778Z" fill="#061548"/>
</g>
<defs>
<clipPath id="clip0_2401_1041">
<rect width="180" height="52" fill="white"/>
</clipPath>
</defs>
</svg>
