<svg fill="currentColor" fill-rule="evenodd" height="1em" style="flex:none;line-height:1" viewBox="0 0 24 24" width="1em" xmlns="http://www.w3.org/2000/svg"><title>Poe</title><path d="M20.708 6.876a1.412 1.412 0 00-1.029-.415h-.006a2.019 2.019 0 01-2.02-2.023A1.415 1.415 0 0016.254 3H4.871A1.412 1.412 0 003.47 4.434a2.026 2.026 0 01-2.025 2.025v.002A1.414 1.414 0 000 7.883v3.642a1.414 1.414 0 001.444 1.42 2.025 2.025 0 012.025 2.02v3.693a.5.5 0 00.89.313l2.051-2.567h9.843a1.412 1.412 0 001.4-1.434v-.002c0-1.12.904-2.025 2.026-2.025a1.412 1.412 0 001.446-1.42V7.88c0-.363-.14-.727-.417-1.005zm-2.42 4.687a2.025 2.025 0 01-2.025 2.005H4.861a2.025 2.025 0 01-2.025-2.005v-3.72A2.026 2.026 0 014.86 5.838h11.4a2.026 2.026 0 012.026 2.005v3.72h.002z"></path><path d="M7.413 7.57A1.422 1.422 0 005.99 8.99v1.422a1.422 1.422 0 102.844 0V8.99c0-.784-.636-1.422-1.422-1.422zm6.297 0a1.422 1.422 0 00-1.422 1.421v1.422a1.422 1.422 0 102.844 0V8.99c0-.784-.636-1.422-1.422-1.422z"></path><path d="M7.292 22.643l1.993-2.492h9.844a1.413 1.413 0 001.4-1.434 2.025 2.025 0 012.017-2.027h.01A1.409 1.409 0 0024 15.27v-3.594c0-.344-.113-.68-.324-.951l-.397-.519v4.127a1.415 1.415 0 01-1.444 1.42h-.007a2.026 2.026 0 00-2.018 2.025 1.415 1.415 0 01-1.402 1.436H8.565l-2.169 2.712a.574.574 0 00.896.715v.002z" fill="url(#lobe-icons-poe-fill-0)"></path><path d="M5.004 19.992l2.12-2.65h9.844a1.414 1.414 0 001.402-1.437c0-1.116.9-2.021 2.014-2.025h.012a1.413 1.413 0 001.443-1.422v-4.13l.52.68c.21.273.324.607.324.95v3.594a1.416 1.416 0 01-1.443 1.42h-.01a2.026 2.026 0 00-2.016 2.026 1.414 1.414 0 01-1.402 1.435H7.97l-1.916 2.4a.671.671 0 01-1.049-.839v-.002z" fill="url(#lobe-icons-poe-fill-1)"></path><defs><linearGradient gradientUnits="userSpaceOnUse" id="lobe-icons-poe-fill-0" x1="34.01" x2="1.086" y1="7.303" y2="27.715"><stop stop-color="#46A6F7"></stop><stop offset="1" stop-color="#8364FF"></stop></linearGradient><linearGradient gradientUnits="userSpaceOnUse" id="lobe-icons-poe-fill-1" x1="4.915" x2="24.34" y1="23.511" y2="9.464"><stop stop-color="#FF44D3"></stop><stop offset="1" stop-color="#CF4BFF"></stop></linearGradient></defs></svg>