<svg width="30" height="30" viewBox="0 0 30 30" fill="none" xmlns="http://www.w3.org/2000/svg">
<g id="logout">
<g id="Union">
<path d="M12.45 7.64993C13.0299 7.64993 13.5 7.17983 13.5 6.59993C13.5 6.02003 13.0299 5.54993 12.45 5.54993C11.8701 5.54993 11.4 6.02003 11.4 6.59993C11.4 7.17983 11.8701 7.64993 12.45 7.64993Z" fill="white"/>
<path d="M18.6 6.59993C18.6 7.17983 18.1299 7.64993 17.55 7.64993C16.9701 7.64993 16.5 7.17983 16.5 6.59993C16.5 6.02003 16.9701 5.54993 17.55 5.54993C18.1299 5.54993 18.6 6.02003 18.6 6.59993Z" fill="white"/>
<path fill-rule="evenodd" clip-rule="evenodd" d="M20.25 18.1501C20.25 19.0638 20.0166 19.9229 19.6062 20.6712L20.5425 21.6075C20.9525 22.0175 20.9525 22.6823 20.5425 23.0924C20.1324 23.5024 19.4676 23.5024 19.0575 23.0924L18.2437 22.2785C17.3507 22.9811 16.2243 23.4001 15 23.4001C12.1005 23.4001 9.75 21.0496 9.75 18.1501C9.75 15.2507 12.1005 12.9001 15 12.9001C17.8995 12.9001 20.25 15.2507 20.25 18.1501ZM18.15 18.1501C18.15 19.8898 16.7397 21.3001 15 21.3001C13.2603 21.3001 11.85 19.8898 11.85 18.1501C11.85 16.4105 13.2603 15.0001 15 15.0001C16.7397 15.0001 18.15 16.4105 18.15 18.1501Z" fill="white"/>
<path fill-rule="evenodd" clip-rule="evenodd" d="M16.0501 1.05C16.0501 0.470101 15.58 0 15.0001 0C14.4202 0 13.9501 0.470101 13.9501 1.05V1.5H10.5001C9.09175 1.5 7.95007 2.64167 7.95007 4.05V9C7.95007 9.15357 7.96365 9.30398 7.98967 9.45007H7.05C5.64167 9.45007 4.5 10.5918 4.5 12.0001V24.4501C4.5 25.8584 5.64167 27.0001 7.05 27.0001H10.35V28.9502C10.35 29.53 10.8201 30.0001 11.4 30.0001C11.9799 30.0001 12.45 29.53 12.45 28.9502V27.0001H17.5501V28.9502C17.5501 29.53 18.0202 30.0001 18.6001 30.0001C19.18 30.0001 19.6501 29.53 19.6501 28.9502V27.0001H22.95C24.3583 27.0001 25.5 25.8584 25.5 24.4501V12.0001C25.5 10.5917 24.3583 9.45007 22.95 9.45007H22.0105C22.0365 9.30398 22.0501 9.15357 22.0501 9V4.05C22.0501 2.64167 20.9084 1.5 19.5001 1.5H16.0501V1.05ZM10.5001 3.6C10.2515 3.6 10.0501 3.80147 10.0501 4.05V9C10.0501 9.24853 10.2515 9.45 10.5001 9.45H19.5001C19.7486 9.45 19.9501 9.24853 19.9501 9V4.05C19.9501 3.80147 19.7486 3.6 19.5001 3.6H10.5001ZM7.05 11.5501C6.80147 11.5501 6.6 11.7515 6.6 12.0001V24.4501C6.6 24.6986 6.80147 24.9001 7.05 24.9001H22.95C23.1985 24.9001 23.4 24.6986 23.4 24.4501V12.0001C23.4 11.7515 23.1985 11.5501 22.95 11.5501H7.05Z" fill="white"/>
</g>
</g>
</svg>
