<?xml version="1.0" encoding="UTF-8" standalone="no"?>
<!-- Created with Inkscape (http://www.inkscape.org/) -->

<svg
   width="135.46666mm"
   height="135.46666mm"
   viewBox="0 0 135.46666 135.46666"
   version="1.1"
   id="svg5"
   xml:space="preserve"
   inkscape:version="1.2.2 (732a01da63, 2022-12-09)"
   sodipodi:docname="web-browser.svg"
   xmlns:inkscape="http://www.inkscape.org/namespaces/inkscape"
   xmlns:sodipodi="http://sodipodi.sourceforge.net/DTD/sodipodi-0.dtd"
   xmlns:xlink="http://www.w3.org/1999/xlink"
   xmlns="http://www.w3.org/2000/svg"
   xmlns:svg="http://www.w3.org/2000/svg"><sodipodi:namedview
     id="namedview7"
     pagecolor="#ffffff"
     bordercolor="#666666"
     borderopacity="1.0"
     inkscape:showpageshadow="2"
     inkscape:pageopacity="0.0"
     inkscape:pagecheckerboard="0"
     inkscape:deskcolor="#d1d1d1"
     inkscape:document-units="mm"
     showgrid="false"
     inkscape:zoom="1.829812"
     inkscape:cx="339.10587"
     inkscape:cy="281.44968"
     inkscape:window-width="2560"
     inkscape:window-height="1369"
     inkscape:window-x="1072"
     inkscape:window-y="-8"
     inkscape:window-maximized="1"
     inkscape:current-layer="layer1" /><defs
     id="defs2"><linearGradient
       id="linearGradient1021"
       inkscape:collect="always"><stop
         style="stop-color:#6914d1;stop-opacity:1;"
         offset="0"
         id="stop1017" /><stop
         style="stop-color:#c82090;stop-opacity:1;"
         offset="1"
         id="stop1019" /></linearGradient><linearGradient
       inkscape:collect="always"
       xlink:href="#linearGradient1021"
       id="linearGradient5957"
       x1="75.754601"
       y1="163.95738"
       x2="146.97395"
       y2="86.082359"
       gradientUnits="userSpaceOnUse" /></defs><g
     inkscape:label="Layer 1"
     inkscape:groupmode="layer"
     id="layer1"
     transform="translate(-38.978451,-51.992085)"><g
       inkscape:groupmode="layer"
       id="layer2"
       inkscape:label="Layer 2"
       transform="translate(38.978451,51.992085)"
       style="fill:#000000;fill-opacity:1"><rect
         style="display:inline;fill:#000000;fill-opacity:1;stroke-width:34.9999"
         id="rect3228"
         width="135.46666"
         height="135.46666"
         x="0"
         y="0" /></g><g
       id="g5792"
       transform="matrix(0.10863854,0,0,0.10863854,51.849445,65.949185)"><path
         style="display:inline;fill:url(#linearGradient5957);fill-opacity:1;stroke-width:34.9999"
         id="path5949"
         sodipodi:type="arc"
         sodipodi:cx="106.16872"
         sodipodi:cy="120.26846"
         sodipodi:rx="53.232887"
         sodipodi:ry="53.232887"
         sodipodi:start="0.31945228"
         sodipodi:end="0.31361418"
         sodipodi:open="true"
         sodipodi:arc-type="arc"
         d="M 156.70842,136.98607 A 53.232887,53.232887 0 0 1 89.524891,170.83252 53.232887,53.232887 0 0 1 55.580426,103.69845 53.232887,53.232887 0 0 1 122.66487,69.656042 53.232887,53.232887 0 0 1 156.80516,136.69073"
         transform="matrix(9.2048366,0,0,9.2048366,-477.26567,-607.05147)" /><path
         d="m 500,10 c -0.1,0 -0.3,0 -0.4,0 -0.1,0 -0.1,0 -0.2,0 -0.2,0 -0.4,0 -0.6,0 C 228.7,10.6 10,229.8 10,500 c 0,270.2 218.7,489.3 488.8,490 0.2,0 0.4,0 0.6,0 0.1,0 0.1,0 0.2,0 0.2,0 0.3,0 0.4,0 C 770.6,990 990,770.6 990,500 990,229.4 770.6,10 500,10 Z m 19.6,293.2 c 51.9,-1.4 102.5,-8.3 151.2,-20.1 14.7,57.8 23.8,124.3 25.2,197.3 H 519.6 Z m 0,-39.2 V 52.3 C 572.4,66.9 626,137.4 660.1,245.4 614.8,256.3 567.9,262.7 519.6,264 Z M 480.4,51.8 V 264 c -48.7,-1.4 -96,-7.8 -141.6,-19 C 373.2,136.4 427.2,65.7 480.4,51.8 Z m 0,251.4 V 480.4 H 302.8 c 1.4,-73.1 10.6,-139.7 25.2,-197.5 49.1,12 100,18.9 152.4,20.3 z M 263.3,480.4 H 49.7 c 4.3,-100.8 41.9,-193.1 102,-266.2 43.6,24 89.9,43.7 138.4,58.4 -15.8,62.5 -25.3,133 -26.8,207.8 z m 0,39.2 c 1.4,74.8 10.9,145.2 26.8,207.8 -48.5,14.7 -94.8,34.4 -138.4,58.5 C 91.6,712.7 54,620.4 49.7,519.6 Z m 39.5,0 h 177.6 v 177 C 428,698 377.1,705 328,717 313.3,659.2 304.2,592.6 302.8,519.6 Z M 480.4,735.7 V 948.1 C 427.2,934.2 373.1,863.4 338.7,754.6 c 45.7,-11 93,-17.5 141.7,-18.9 z m 39.2,212 v -212 c 48.3,1.4 95.2,7.8 140.5,18.7 C 626,862.5 572.5,933.1 519.6,947.7 Z m 0,-251.1 v -177 H 696 C 694.6,592.5 685.5,659 670.8,716.7 622.1,704.8 571.6,698 519.6,696.6 Z m 215.8,-177 H 950.3 C 946,620.4 908.5,712.7 848.4,785.8 804.4,761.6 757.7,741.8 708.8,727 724.5,664.5 734,594.2 735.4,519.6 Z m 0,-39.2 C 734,405.7 724.5,335.3 708.7,272.8 757.6,258 804.3,238.2 848.2,214 c 60.2,73.1 97.7,165.5 102.1,266.3 z M 821.2,184.1 C 782.2,204.8 741,222 698.1,235 675.2,161.3 643,101.1 605,61.6 688.4,81.7 762.9,124.8 821.2,184.1 Z M 393.5,62 c -37.8,39.4 -69.9,99.3 -92.7,172.7 -42.6,-13 -83.4,-30 -122,-50.6 C 236.7,125.2 310.6,82.2 393.5,62 Z M 178.6,815.7 c 38.7,-20.6 79.5,-37.6 122.1,-50.6 22.8,73.4 54.9,133.4 92.7,172.9 C 310.6,917.8 236.6,874.7 178.6,815.7 Z m 426.3,122.6 c 38.1,-39.5 70.3,-99.7 93.2,-173.6 43,13.1 84.2,30.2 123.2,51 C 763,875.1 688.5,918.3 604.9,938.3 Z"
         id="path5790"
         style="fill:#000000;fill-opacity:1" /></g></g></svg>
