<?xml version="1.0" encoding="UTF-8"?><svg id="Layer_1" xmlns="http://www.w3.org/2000/svg" xmlns:xlink="http://www.w3.org/1999/xlink" viewBox="0 0 480 185"><defs><style>.cls-1{fill:#fff;}.cls-2{fill:#30a9e5;}.cls-3{fill:url(#radial-gradient);}</style><radialGradient id="radial-gradient" cx="19.76" cy="118.54" fx="19.76" fy="118.54" r="183.33" gradientTransform="translate(92.77 -38.97) rotate(45)" gradientUnits="userSpaceOnUse"><stop offset="0" stop-color="#3f5aff"/><stop offset="1" stop-color="#19d8ca"/></radialGradient></defs><g><path class="cls-2" d="M217.36,55.42l23.1,50.4,23-50.4h21.8l-34.3,70h-21.4l-34.2-70h22Z"/><path class="cls-2" d="M318.74,113.73c8.8,0,14.1-2.1,19.6-6.3l10,10.5c-7.9,7-18.1,9.8-30.7,9.8-23.5,0-37.2-11.4-37.2-30s13.5-30,35.7-30c20,0,34.2,10,34.2,29.6,0,2.2-.1,3.5-.5,4.6h-50.6c1.6,8.4,8.3,11.8,19.5,11.8Zm-19-22.4l32.4-.2c-2.1-6.5-7.4-9.6-15.8-9.6s-14.4,3.1-16.6,9.8Z"/><path class="cls-2" d="M359.22,125.43v-55.4h19.7v10.3c4.6-7.8,13.3-11.6,23.2-11.6v16.4c-11.8,0-20.3,4.5-23.2,13.6v26.7h-19.7Z"/><path class="cls-2" d="M471.15,94.33v20.6c0,4,.7,7.3,2.4,10.5h-20c-1.1-1.7-1.9-3.8-1.9-5.7v-.1c-4.2,4.4-11.9,7.8-21.7,7.8-11.7,0-26.6-4.6-26.6-18.8s14.9-18.8,26.6-18.8c9.8,0,17.5,3.4,21.7,7.9v-3.6c0-8.4-6.2-12.4-18.3-12.4-6.6,0-13.1,.9-19.9,4.3l-4.5-12.5c7.5-3.6,18.9-5.7,28.5-5.7,21.1,0,33.7,9.4,33.7,26.5Zm-19.1,13.7c-3.8-5.3-10.8-6.7-16.5-6.7s-13.1,1.4-13.1,7.3,7.5,7.3,13.1,7.3,12.7-1.4,16.5-6.8v-1.1Z"/></g><rect class="cls-3" x="26.37" y="25.44" width="134.13" height="134.13" rx="18.97" ry="18.97" transform="translate(-38.04 93.16) rotate(-45)"/><circle class="cls-1" cx="30.15" cy="91.66" r="2.2"/><circle class="cls-1" cx="61.73" cy="91.66" r="2.2"/><circle class="cls-1" cx="109.08" cy="91.66" r="7.69"/><circle class="cls-1" cx="93.3" cy="91.66" r="2.2"/><circle class="cls-1" cx="77.51" cy="91.66" r="7.69"/><circle class="cls-1" cx="45.94" cy="91.66" r="2.2"/><circle class="cls-1" cx="124.87" cy="91.66" r="2.2"/><circle class="cls-1" cx="140.65" cy="91.66" r="2.2"/><circle class="cls-1" cx="156.44" cy="91.66" r="2.2"/><circle class="cls-1" cx="61.73" cy="107.45" r="2.2"/><circle class="cls-1" cx="109.08" cy="107.45" r="2.2"/><circle class="cls-1" cx="77.51" cy="107.45" r="2.2"/><circle class="cls-1" cx="45.94" cy="107.45" r="2.2"/><circle class="cls-1" cx="124.87" cy="107.45" r="2.2"/><circle class="cls-1" cx="140.65" cy="107.45" r="2.2"/><circle class="cls-1" cx="61.73" cy="123.23" r="2.2"/><circle class="cls-1" cx="109.08" cy="123.23" r="2.2"/><circle class="cls-1" cx="77.51" cy="123.23" r="2.2"/><circle class="cls-1" cx="124.87" cy="123.23" r="2.2"/><circle class="cls-1" cx="109.08" cy="139.02" r="2.2"/><circle class="cls-1" cx="77.51" cy="139.02" r="2.2"/><circle class="cls-1" cx="61.73" cy="75.85" r="2.2"/><circle class="cls-1" cx="109.08" cy="75.85" r="2.2"/><circle class="cls-1" cx="77.51" cy="75.85" r="2.2"/><circle class="cls-1" cx="45.94" cy="75.85" r="2.2"/><circle class="cls-1" cx="124.87" cy="75.85" r="2.2"/><circle class="cls-1" cx="140.65" cy="75.85" r="2.2"/><circle class="cls-1" cx="61.73" cy="60.05" r="7.69"/><circle class="cls-1" cx="109.08" cy="60.05" r="2.2"/><circle class="cls-1" cx="77.51" cy="60.05" r="2.2"/><circle class="cls-1" cx="124.87" cy="60.05" r="7.69"/><circle class="cls-1" cx="109.08" cy="44.24" r="2.2"/><circle class="cls-1" cx="77.51" cy="44.24" r="2.2"/><circle class="cls-1" cx="93.3" cy="28.52" r="2.2"/><circle class="cls-1" cx="93.3" cy="60.09" r="2.2"/><circle class="cls-1" cx="93.3" cy="107.45" r="2.2"/><circle class="cls-1" cx="93.3" cy="75.88" r="2.2"/><circle class="cls-1" cx="93.3" cy="44.31" r="2.2"/><circle class="cls-1" cx="93.3" cy="123.23" r="7.69"/><circle class="cls-1" cx="93.3" cy="139.02" r="2.2"/><circle class="cls-1" cx="93.3" cy="154.8" r="2.2"/></svg>