<?xml version="1.0" encoding="utf-8"?>
<!-- Generator: Adobe Illustrator 27.8.1, SVG Export Plug-In . SVG Version: 6.00 Build 0)  -->
<svg version="1.1" id="Calque_1" xmlns="http://www.w3.org/2000/svg" xmlns:xlink="http://www.w3.org/1999/xlink" x="0px" y="0px"
	 viewBox="0 0 1200 1200" style="enable-background:new 0 0 1200 1200;" xml:space="preserve">
<style type="text/css">
	.st0{clip-path:url(#SVGID_00000146467882739529622720000010558289407462026121_);}
	.st1{fill:#FFFFFF;}
	.st2{clip-path:url(#SVGID_00000180343571640817923870000017816038894894120379_);}
	.st3{clip-path:url(#SVGID_00000180352074746777547090000009386438875228833677_);}
	.st4{clip-path:url(#SVGID_00000163792917298405026250000008420755225327966598_);}
</style>
<g>
	<defs>
		<rect id="SVGID_00000080167388268313382930000004044605064693820586_" x="3" y="77.7" width="1200" height="1044.6"/>
	</defs>
	<clipPath id="SVGID_00000066496979489346261770000010815872275127990683_">
		<use xlink:href="#SVGID_00000080167388268313382930000004044605064693820586_"  style="overflow:visible;"/>
	</clipPath>
	<g style="clip-path:url(#SVGID_00000066496979489346261770000010815872275127990683_);">
		<path d="M362.1,745.1c18,31.1,65.2,21.3,69.4-14.3L503,119.4c2.6-22.2-14.7-41.6-37.1-41.6h-425c-28.7,0-46.7,31.1-32.3,56
			L362.1,745.1z"/>
		<path d="M974.3,400.5c14.3,25,50.3,25.1,64.7,0.2l154.1-267c14.4-24.9-3.6-56-32.3-56H854.4c-28.6,0-46.6,30.9-32.4,55.8
			L974.3,400.5z"/>
		<path d="M568.8,1103.7c14.4,24.9,50.3,24.9,64.6,0l344-595.7c20-34.7-21.2-72.2-53.8-49.1L434.9,804.2
			c-15.7,11.1-20.4,32.4-10.8,49.1L568.8,1103.7z"/>
	</g>
</g>
</svg>
