<?xml version="1.0" standalone="no"?>
<!DOCTYPE svg PUBLIC "-//W3C//DTD SVG 20010904//EN"
 "http://www.w3.org/TR/2001/REC-SVG-20010904/DTD/svg10.dtd">
<svg version="1.0" xmlns="http://www.w3.org/2000/svg"
 width="700.000000pt" height="700.000000pt" viewBox="0 0 700.000000 700.000000"
 preserveAspectRatio="xMidYMid meet">
<metadata>
Created by potrace 1.14, written by Peter Selinger 2001-2017
</metadata>
<g transform="translate(0.000000,700.000000) scale(0.100000,-0.100000)"
fill="#000000" stroke="none">
<path d="M4693 6912 c-88 -133 -253 -472 -353 -724 -12 -32 -26 -58 -31 -58
-5 0 -42 9 -82 19 -63 17 -121 30 -207 46 -13 3 -42 7 -65 10 -22 3 -51 8 -65
10 -87 15 -182 20 -385 20 -228 0 -349 -8 -475 -30 -326 -58 -586 -143 -865
-285 -368 -186 -686 -438 -940 -745 -28 -33 -53 -62 -56 -65 -16 -14 -154
-217 -204 -299 -334 -549 -481 -1213 -409 -1851 12 -108 17 -141 36 -235 55
-276 136 -520 245 -740 48 -96 63 -124 121 -225 34 -60 170 -259 193 -284 10
-10 30 -36 45 -57 24 -35 24 -39 11 -66 -37 -70 -47 -145 -52 -378 -6 -252
-15 -406 -30 -500 -3 -16 -7 -48 -11 -70 -3 -22 -12 -69 -19 -105 -8 -36 -12
-67 -9 -69 3 -3 144 89 288 189 98 68 495 375 516 400 3 3 39 34 80 69 389
330 842 818 1153 1242 9 13 40 56 69 94 28 39 100 144 160 234 201 305 337
541 503 876 102 208 285 622 285 648 0 7 4 17 9 23 18 20 156 417 231 663 34
112 104 367 115 421 2 8 15 62 29 120 23 91 69 302 82 380 3 14 7 32 9 40 2 8
7 38 11 65 3 28 8 53 10 56 5 8 64 398 71 469 3 30 7 57 10 60 5 5 -5 -304
-12 -375 -2 -22 -7 -71 -10 -110 -7 -86 -14 -169 -20 -215 -8 -65 -19 -155
-20 -160 -1 -3 -5 -34 -9 -70 -5 -36 -10 -74 -12 -85 -2 -11 -11 -60 -19 -110
-35 -214 -69 -378 -120 -583 -108 -437 -277 -934 -431 -1270 -19 -41 -34 -76
-34 -78 0 -19 -211 -426 -325 -627 -128 -225 -446 -690 -571 -833 -11 -12 -32
-39 -49 -60 -104 -132 -223 -262 -440 -480 -252 -254 -478 -449 -735 -637 -58
-43 -110 -81 -115 -85 -62 -50 -373 -247 -513 -326 -56 -32 -104 -61 -106 -65
-2 -3 60 -6 137 -6 172 0 226 -7 378 -45 206 -53 366 -70 454 -50 22 5 51 11
65 13 86 16 232 81 375 168 78 47 99 63 180 137 73 67 66 65 147 48 324 -67
663 -77 1003 -31 41 5 257 47 315 60 222 52 588 206 815 345 70 42 251 168
277 192 7 7 34 29 58 48 128 100 345 321 446 455 21 28 40 52 43 55 8 7 41 54
109 156 272 410 435 892 477 1404 11 136 6 422 -10 535 -2 17 -7 55 -10 85 -3
30 -15 100 -26 155 -98 493 -298 921 -610 1310 -85 106 -312 337 -394 402 -22
18 -65 52 -95 76 -61 49 -295 207 -307 207 -21 1 -45 32 -48 62 -19 175 -32
285 -40 328 -2 14 -7 43 -10 65 -3 22 -10 65 -15 95 -5 30 -12 69 -15 85 -14
86 -56 280 -84 394 -10 42 -22 88 -25 104 -4 15 -10 27 -14 27 -4 0 -31 -35
-59 -78z"/>
</g>
</svg>
