<?xml version="1.0" encoding="utf-8"?>
<!-- Generator: Adobe Illustrator 27.8.1, SVG Export Plug-In . SVG Version: 6.00 Build 0)  -->
<svg version="1.1" id="Calque_1" xmlns="http://www.w3.org/2000/svg" xmlns:xlink="http://www.w3.org/1999/xlink" x="0px" y="0px"
	 viewBox="0 0 1200 1533.4" style="enable-background:new 0 0 1200 1533.4;" xml:space="preserve">
<style type="text/css">
	.st0{clip-path:url(#SVGID_00000141446588344699686670000011809107826835058324_);}
	.st1{fill:#FFFFFF;}
	.st2{clip-path:url(#SVGID_00000059298604169254230010000008480378881099192487_);}
	.st3{clip-path:url(#SVGID_00000087394155510620567270000005843785072315328392_);}
	.st4{clip-path:url(#SVGID_00000069391737969989302700000000922816267971046532_);}
</style>
<g>
	<defs>
		<rect id="SVGID_00000087411608278366493680000014092975141007081122_" x="3" y="77.7" width="1200" height="1044.6"/>
	</defs>
	<clipPath id="SVGID_00000160910867730374515560000006592797009823053759_">
		<use xlink:href="#SVGID_00000087411608278366493680000014092975141007081122_"  style="overflow:visible;"/>
	</clipPath>
	<g style="clip-path:url(#SVGID_00000160910867730374515560000006592797009823053759_);">
		<path d="M362.1,745.1c18,31.1,65.2,21.3,69.4-14.3L503,119.4c2.6-22.2-14.7-41.6-37.1-41.6h-425c-28.7,0-46.7,31.1-32.3,56
			L362.1,745.1z"/>
		<path d="M974.3,400.5c14.3,25,50.3,25.1,64.7,0.2l154.1-267c14.4-24.9-3.6-56-32.3-56H854.4c-28.6,0-46.6,30.9-32.4,55.8
			L974.3,400.5z"/>
		<path d="M568.8,1103.7c14.4,24.9,50.3,24.9,64.6,0l344-595.7c20-34.7-21.2-72.2-53.8-49.1L434.9,804.2
			c-15.7,11.1-20.4,32.4-10.8,49.1L568.8,1103.7z"/>
	</g>
</g>
<g>
	<path d="M146.3,1255.3l-56.9,161.4c-0.7,2-2.6,3.3-4.7,3.3l-20.9,0c-2.1,0-4-1.3-4.7-3.3L2.5,1255.3c-1.1-3.2,1.3-6.6,4.7-6.6H20
		c2.1,0,4,1.3,4.7,3.3l49.6,137.2l49.9-137.2c0.7-2,2.6-3.3,4.7-3.3h12.8C145.1,1248.6,147.5,1252,146.3,1255.3z"/>
	<path d="M551.1,1347.5c0,0.6,0,1.1,0,1.8v65.7c0,2.8-2.2,5-5,5h-12c-2.8,0-5-2.2-5-5v-65.7c0-0.6,0-1.2,0-1.8h0v1.8
		c0-20.4-9.8-32.6-26.3-32.6c-13.9,0-23.2,13.4-24.1,30.3c-0.1,0.7-0.1,1.5-0.1,2.2v65.7c0,2.8-2.2,5-5,5h-11.4c-2.8,0-5-2.2-5-5
		v-65.7c0-0.6,0-1.2,0-1.8h0v1.8c0-20.4-8-32.6-24.5-32.6c-14.5,0-26.4,14.6-26.4,32.6v65.8c0,2.8-2.2,5-5,5h-12c-2.8,0-5-2.2-5-5
		v-113c0-2.8,2.2-5,5-5h12c2.8,0,5,2.2,5,5v14.7c4.4-10.9,15.4-22.1,35.2-22.1c21.6,0,30.6,13.9,34.9,22.1c0,0,0,0,0,0
		c4.4-10.9,15.4-22.1,35.1-22.1c21.6,0,30.6,13.9,35,22.1C550.9,1327.5,551.5,1330.5,551.1,1347.5L551.1,1347.5z"/>
	<path d="M203.4,1422.2c-33.4,0-54.8-25.6-54.8-63.7c0-39.3,21-63.7,54.7-63.7c15.3,0,28.4,5.2,37.9,15.1
		c11,11.4,16.5,25.6,15.9,46.3l-0.3,10.6h-85.3c-0.2,13.4,8.5,33.5,31.9,33.5c17.5,0,26-8.6,29.8-14.3c1.4-2.1,4.1-2.8,6.3-1.6
		l10.8,5.4c2.6,1.3,3.6,4.6,2,7.1C244,1409.8,228,1422.2,203.4,1422.2z M171.3,1346.3h63.5c0-14.7-9-34-31.4-34
		C181.4,1312.3,172.1,1329.9,171.3,1346.3z"/>
	<path d="M633.3,1422.2c-33.4,0-54.8-25.6-54.8-63.7c0-39.3,21-63.7,54.7-63.7c15.3,0,28.4,5.2,37.9,15.1
		c11,11.4,16.5,25.6,15.9,46.3l-0.3,10.6h-85.3c-0.2,13.4,8.5,33.5,31.9,33.5c17.5,0,26-8.6,29.8-14.3c1.4-2.1,4.1-2.8,6.3-1.6
		l10.8,5.4c2.6,1.3,3.6,4.6,2,7.1C673.9,1409.8,657.9,1422.2,633.3,1422.2z M601.2,1346.3h63.5c0-14.7-9-34-31.4-34
		C611.3,1312.3,602,1329.9,601.2,1346.3z"/>
	<path d="M764,1422.2c-33.4,0-54.8-25.6-54.8-63.7c0-39.3,21-63.7,54.7-63.7c15.3,0,28.4,5.2,37.9,15.1c11,11.4,16.5,25.6,15.9,46.3
		l-0.3,10.6h-85.3c-0.2,13.4,8.5,33.5,31.9,33.5c17.5,0,26-8.6,29.8-14.3c1.4-2.1,4.1-2.8,6.3-1.6l10.8,5.4c2.6,1.3,3.6,4.6,2,7.1
		C804.6,1409.8,788.7,1422.2,764,1422.2z M732,1346.3h63.5c0-14.7-9-34-31.4-34C742,1312.3,732.8,1329.9,732,1346.3z"/>
	<path d="M457.3,1347.4c0,0.6,0,1.2,0,1.8L457.3,1347.4L457.3,1347.4z"/>
	<path d="M483.2,1347.4v1.8C483.2,1348.6,483.2,1348,483.2,1347.4L483.2,1347.4z"/>
	<path d="M551.3,1347.2v2.4C551.3,1348.8,551.3,1348,551.3,1347.2L551.3,1347.2z"/>
	<path d="M457.3,1347.4c0,0.6,0,1.2,0,1.8L457.3,1347.4L457.3,1347.4z"/>
	<path d="M483.2,1347.4v1.8C483.2,1348.6,483.2,1348,483.2,1347.4L483.2,1347.4z"/>
	<path d="M357.6,1299.7v11.8c0,2.8-2.2,5-5,5c-1.8,0-4,0-6.1,0.2c-3.7,0.3-35.9,2.2-36.8,58.1v40.3c0,2.8-2.2,5-5,5h-12
		c-2.8,0-5-2.2-5-5v-113.2c0-2.8,2.2-5,5-5h12c2.8,0,5,2.2,5,5c0,7.8,0,22.2,0,22.1c5.6-15.6,21.2-29.2,37-29.3h6
		C355.4,1294.7,357.6,1296.9,357.6,1299.7z"/>
	<path d="M917.6,1299.7v11.8c0,2.8-2.2,5-5,5c-1.8,0-4,0-6.1,0.2c-3.7,0.3-35.9,2.2-36.8,58.1v40.3c0,2.8-2.2,5-5,5h-12
		c-2.8,0-5-2.2-5-5v-113.2c0-2.8,2.2-5,5-5h12c2.8,0,5,2.2,5,5c0,7.8,0,22.2,0,22.1c5.6-15.6,21.2-29.2,37-29.3h6
		C915.3,1294.7,917.6,1296.9,917.6,1299.7z"/>
	<path d="M287.7,1374.7v2.7h0C287.7,1376.5,287.7,1375.6,287.7,1374.7z"/>
	<g>
		<path d="M959.7,1420h-16.9c-2.8,0-5-2.2-5-5v-16.9c0-2.8,2.2-5,5-5h16.9c2.8,0,5,2.2,5,5v16.9C964.7,1417.8,962.5,1420,959.7,1420
			z"/>
	</g>
	<g>
		<path d="M1096.7,1301.8v13.3c-5-7.8-20.2-20.3-38.4-20.3c-32.1,0-58.2,28.6-58.2,63.7c0,35.2,26.1,63.7,58.2,63.7
			c15.8,0,32.2-10.4,38.4-20.3v13.2c0,2.8,2.2,5,5,5h12c2.8,0,5-2.2,5-5v-113.2c0-2.8-2.2-5-5-5h-12
			C1098.9,1296.8,1096.7,1299,1096.7,1301.8z M1058.2,1400.1c-20,0-36.2-18.7-36.2-41.7c0-23,16.3-41.7,36.2-41.7
			c19.9,0,36.2,18.8,36.2,41.7C1094.4,1381.4,1078.2,1400.1,1058.2,1400.1z"/>
	</g>
	<g>
		<path d="M1192.8,1271.2h-12c-2.8,0-5-2.2-5-5v-16.9c0-2.8,2.2-5,5-5h12c2.8,0,5,2.2,5,5v16.9
			C1197.7,1268.9,1195.5,1271.2,1192.8,1271.2z"/>
		<path d="M1197.7,1296.9V1415c0,2.8-2.2,5-5,5h-12c-2.8,0-5-2.2-5-5v-96h-19.2c-2.8,0-5-2.2-5-5v-12c0-2.8,2.2-5,5-5L1197.7,1296.9
			z"/>
	</g>
</g>
</svg>
